<svg width="24" height="24" viewBox="0 0 24 24" fill="none" xmlns="http://www.w3.org/2000/svg">
<g id="Administration">
<g id="Group">
<path id="Vector" d="M12.0036 16.7798C12.6701 16.7798 13.2124 16.2376 13.2124 15.571C13.2124 14.9045 12.6701 14.3623 12.0036 14.3623C11.3371 14.3623 10.7949 14.9045 10.7949 15.571C10.7949 16.2376 11.3371 16.7798 12.0036 16.7798ZM12.0036 14.8905C12.3789 14.8905 12.6842 15.1958 12.6842 15.571C12.6842 15.9463 12.3789 16.2516 12.0036 16.2516C11.6284 16.2516 11.3231 15.9463 11.3231 15.571C11.3231 15.1958 11.6284 14.8905 12.0036 14.8905Z" fill="white"/>
<path id="Vector_2" d="M20.121 19.2717H19.268L19.5312 19.0183C19.9412 18.6237 20.0934 18.0402 19.9283 17.4956L19.019 14.4968C18.7374 13.5678 17.9676 12.8921 17.01 12.7333L16.6447 12.6726C16.4423 12.4375 16.1426 12.2883 15.8087 12.2883H14.3428C14.1282 12.2317 13.9724 12.0488 13.9519 11.8257L13.9024 11.2894C14.5577 10.7984 15.085 10.0573 15.1841 9.09589H15.2952C15.7334 9.09589 16.09 8.73931 16.09 8.30103V7.71289C16.09 7.40019 15.9085 7.12911 15.6453 6.99941C15.6452 6.87264 15.6451 6.65991 15.6451 6.30309C15.6451 6.1572 15.5269 6.03898 15.381 6.03898C15.2351 6.03898 15.1169 6.1572 15.1169 6.30309C15.1169 6.59206 15.1169 6.78679 15.117 6.91807H14.9211C14.7747 6.91807 14.6424 6.80957 14.6424 6.65076V6.12149C14.6424 5.66208 14.2687 5.28836 13.8093 5.28836C13.7671 5.29135 13.4896 5.26846 13.1354 5.38865C13.0882 5.4009 12.6511 5.58306 12.0325 5.58306C11.416 5.58306 10.9752 5.40048 10.9296 5.38865C10.5572 5.2623 10.2711 5.2929 10.1996 5.28836C9.74017 5.28836 9.36644 5.66208 9.36644 6.12149V6.65076C9.36644 6.80676 9.23196 6.91807 9.08765 6.91807H8.89143V4.97868C8.89143 4.54389 9.27587 4.18605 9.74027 4.25838C10.1108 4.3162 10.4404 4.07741 10.4786 3.70351C10.5547 3.59431 10.6795 3.52832 10.8149 3.52828L13.7835 3.52821C14.52 3.52821 15.1167 4.12404 15.1167 4.86093C15.1167 4.9527 15.1168 4.99861 15.1169 5.02157C15.1175 5.248 15.29 5.30783 15.3811 5.30783C15.527 5.30783 15.6452 5.18962 15.6452 5.04372C15.6452 5.042 15.6452 5.04031 15.6452 5.03858C15.6451 5.03143 15.6449 4.99992 15.6449 4.86093C15.6449 3.83239 14.8122 2.99993 13.7835 3L10.8149 3.00007C10.4654 3.00011 10.1472 3.1922 9.98445 3.50138C9.94941 3.568 9.95451 3.62769 9.95409 3.6316C9.95409 3.71457 9.90162 3.7489 9.82169 3.73647C9.04747 3.61565 8.36322 4.2101 8.36322 4.97865V6.99948C8.10021 7.12921 7.91885 7.40022 7.91885 7.71278V8.30093C7.91885 8.7392 8.2754 9.09578 8.71367 9.09578H8.82499C8.88411 9.66055 9.0968 10.1923 9.44736 10.6466C9.63287 10.8871 9.85475 11.1039 10.1061 11.2921L10.057 11.8256C10.0364 12.0487 9.88064 12.2316 9.66604 12.2882H8.20007C7.86617 12.2882 7.5665 12.4374 7.36409 12.6726L6.99881 12.7332C6.04127 12.892 5.27142 13.5677 4.98974 14.4967L4.08051 17.4956C3.91543 18.0402 4.06755 18.6237 4.47755 19.0183L4.74078 19.2717H3.87902C3.39433 19.2717 3 19.666 3 20.1507C3 20.6354 3.39433 21.0297 3.87902 21.0297H20.121C20.6057 21.0297 21 20.6354 21 20.1507C21 19.666 20.6057 19.2717 20.121 19.2717ZM15.2006 7.44625H15.2952C15.4415 7.44625 15.5618 7.56516 15.5618 7.71285V8.301C15.5618 8.44805 15.4422 8.56764 15.2952 8.56764H15.2002L15.2006 7.44625ZM8.71364 8.56764C8.56662 8.56764 8.44703 8.44805 8.44703 8.301V7.71285C8.44703 7.56534 8.56715 7.44625 8.71364 7.44625H8.80819L8.80854 8.56768H8.71364V8.56764ZM16.9235 13.2543C17.6814 13.38 18.2906 13.9148 18.5135 14.65L19.4227 17.6488C19.53 18.0025 19.4312 18.3815 19.1649 18.6378L18.5063 19.2717H17.9327C17.9862 19.1276 18.0142 18.9737 18.0142 18.8161C18.0142 18.5142 17.7686 18.2686 17.4668 18.2686H16.9115V13.3911C16.9115 13.3436 16.9084 13.2968 16.9026 13.2508L16.9235 13.2543ZM17.4668 18.7969C17.4774 18.7969 17.486 18.8055 17.486 18.8161C17.486 18.9814 17.4344 19.1398 17.339 19.2717H6.66974C6.57434 19.1398 6.52275 18.9814 6.52275 18.8161C6.52275 18.8055 6.53138 18.7969 6.54198 18.7969H17.4668ZM9.33682 8.82875L9.3364 7.40779C9.65537 7.30637 9.89462 7.01322 9.89462 6.65069V6.12142C9.89462 5.95331 10.0314 5.8165 10.1995 5.8165C10.2769 5.82101 10.4832 5.79488 10.7599 5.88879C10.8101 5.90175 11.316 6.11117 12.0325 6.11117C12.7362 6.11117 13.2707 5.89749 13.3051 5.88879C13.5669 5.79995 13.7697 5.81918 13.8093 5.8165C13.9774 5.8165 14.1142 5.95331 14.1142 6.12142V6.65069C14.1142 7.01374 14.3542 7.30616 14.6724 7.40765L14.6719 8.82879C14.6508 9.76848 14.15 10.3912 13.7333 10.7482C13.2302 11.1793 12.5681 11.4513 12.0044 11.4584C10.8948 11.4446 9.37337 10.4534 9.33682 8.82875ZM13.5522 12.2883H10.4566C10.5252 12.1635 10.5692 12.0233 10.5829 11.8741L10.6074 11.6086C11.0499 11.8419 11.4995 11.9811 12.0015 11.9867H12.0074C12.4356 11.9819 12.9306 11.8518 13.4011 11.6055L13.4259 11.8741C13.4396 12.0233 13.4836 12.1635 13.5522 12.2883ZM4.58605 17.6488L5.49524 14.65C5.71815 13.9148 6.32739 13.38 7.08523 13.2543L7.10615 13.2508C7.1003 13.2967 7.09727 13.3435 7.09727 13.391V15.0117C7.09727 15.1576 7.21549 15.2758 7.36138 15.2758C7.50727 15.2758 7.62549 15.1576 7.62549 15.0117V13.391C7.62549 13.0742 7.88322 12.8165 8.20004 12.8165H15.8087C16.1255 12.8165 16.3832 13.0742 16.3832 13.391V18.2686H7.62549V16.261C7.62549 16.1151 7.50727 15.9969 7.36138 15.9969C7.21549 15.9969 7.09727 16.1151 7.09727 16.261V18.2686H6.54195C6.24009 18.2686 5.99451 18.5142 5.99451 18.8161C5.99451 18.9737 6.02247 19.1276 6.07599 19.2717H5.50246L4.84388 18.6378C4.57759 18.3815 4.47878 18.0025 4.58605 17.6488ZM20.121 20.5015H3.87902C3.68558 20.5015 3.52821 20.3441 3.52821 20.1507C3.52821 19.9573 3.68558 19.7999 3.87902 19.7999H20.121C20.3144 19.7999 20.4718 19.9573 20.4718 20.1507C20.4718 20.3441 20.3144 20.5015 20.121 20.5015Z" fill="white"/>
</g>
</g>
</svg>
