<svg width="24" height="24" viewBox="0 0 24 24" fill="none" xmlns="http://www.w3.org/2000/svg">
<g id="Customer Portal">
<g id="Group">
<g id="Group_2">
<path id="Vector" d="M17.2324 16.4277C17.378 16.4277 17.4961 16.3097 17.4961 16.1641C17.4961 16.0184 17.378 15.9004 17.2324 15.9004C17.0868 15.9004 16.9688 16.0184 16.9688 16.1641C16.9688 16.3097 17.0868 16.4277 17.2324 16.4277Z" fill="white"/>
<path id="Vector_2" d="M18.166 16.4277C18.3116 16.4277 18.4297 16.3097 18.4297 16.1641C18.4297 16.0184 18.3116 15.9004 18.166 15.9004C18.0204 15.9004 17.9023 16.0184 17.9023 16.1641C17.9023 16.3097 18.0204 16.4277 18.166 16.4277Z" fill="white"/>
<path id="Vector_3" d="M19.0957 16.4277C19.2413 16.4277 19.3594 16.3097 19.3594 16.1641C19.3594 16.0184 19.2413 15.9004 19.0957 15.9004C18.9501 15.9004 18.832 16.0184 18.832 16.1641C18.832 16.3097 18.9501 16.4277 19.0957 16.4277Z" fill="white"/>
<path id="Vector_4" d="M19.9541 5.08687H16.1798C15.1725 3.81643 13.6161 3 11.8726 3C10.129 3 8.57265 3.81643 7.56528 5.08687H3.79102C3.35483 5.08687 3 5.44171 3 5.87789V16.5017C3 17.0348 3.43369 17.4684 3.9668 17.4684H9.59053V19.0135H5.62255C5.38022 19.0135 5.1831 19.2107 5.1831 19.453V20.5605C5.1831 20.8029 5.38022 21 5.62255 21H18.1225C18.3649 21 18.562 20.8029 18.562 20.5605V19.453C18.562 19.2107 18.3649 19.0135 18.1225 19.0135H16.7593C16.6136 19.0135 16.4956 19.1316 16.4956 19.2772C16.4956 19.4228 16.6136 19.5409 16.7593 19.5409H18.0346V20.4727H5.71044V19.5409H15.5288C15.6745 19.5409 15.7925 19.4228 15.7925 19.2772C15.7925 19.1316 15.6745 19.0135 15.5288 19.0135H14.1546V17.4684H19.7783C20.3114 17.4684 20.7451 17.0348 20.7451 16.5017V5.87789C20.7451 5.44174 20.3902 5.08687 19.9541 5.08687ZM16.3217 6.28711C16.6162 6.87833 16.7966 7.536 16.8331 8.23121H14.7281C14.7118 7.55193 14.6322 6.89531 14.496 6.28711H16.3217ZM13.8057 11.23C13.4301 12.4152 12.8232 13.2554 12.1362 13.4289V11.23H13.8057ZM12.1362 10.7027V8.75859H14.2004C14.1825 9.44973 14.0945 10.1085 13.9519 10.7027H12.1362ZM13.9437 12.3111C14.1068 11.9823 14.2461 11.619 14.3604 11.23H16.0172C15.3883 12.1799 14.4421 12.902 13.3308 13.2439C13.5546 12.9923 13.7607 12.68 13.9437 12.3111ZM14.496 10.7027C14.6322 10.0945 14.7118 9.43788 14.7281 8.75859H16.8331C16.7966 9.45381 16.6162 10.1115 16.3216 10.7027H14.496ZM16.0172 5.75977H14.3604C14.2461 5.37083 14.1068 5.00749 13.9437 4.67868C13.7607 4.30978 13.5546 3.99749 13.3309 3.74588C14.4422 4.08784 15.3883 4.80998 16.0172 5.75977ZM12.1362 3.56092C12.8232 3.73445 13.4301 4.57461 13.8057 5.75977H12.1362V3.56092ZM11.8726 6.84961C12.0182 6.84961 12.1362 6.73155 12.1362 6.58594V6.28711H13.9519C14.0945 6.88132 14.1825 7.54008 14.2004 8.23121H12.1362V7.85156C12.1362 7.70595 12.0182 7.58789 11.8726 7.58789C11.7269 7.58789 11.6089 7.70595 11.6089 7.85156V8.23125H9.54469C9.56262 7.54011 9.65061 6.88132 9.79324 6.28714H11.6089V6.58597C11.6089 6.73155 11.7269 6.84961 11.8726 6.84961ZM9.38473 11.23C9.49905 11.619 9.63827 11.9824 9.8014 12.3111C9.98439 12.68 10.1905 12.9923 10.4142 13.2439C9.30295 12.902 8.35683 12.1798 7.72792 11.23H9.38473ZM7.42346 10.7027C7.12889 10.1115 6.94854 9.45384 6.91198 8.75859H9.01706C9.03334 9.43785 9.11297 10.0945 9.24913 10.7027H7.42346ZM9.93942 11.23H11.6089V13.4289C10.9219 13.2554 10.3151 12.4152 9.93942 11.23ZM9.79324 10.7027C9.65058 10.1085 9.56262 9.44973 9.54469 8.75859H11.6089V10.7027H9.79324ZM11.6089 3.56092V5.75977H9.93942C10.3151 4.57461 10.9219 3.73445 11.6089 3.56092ZM10.4142 3.74591C10.1905 3.99749 9.98439 4.30982 9.8014 4.67871C9.63831 5.00753 9.49905 5.37087 9.38473 5.7598H7.72792C8.35683 4.80998 9.30295 4.08784 10.4142 3.74591ZM9.24913 6.28711C9.11297 6.89531 9.03334 7.55196 9.01706 8.23121H6.91201C6.94854 7.53596 7.12893 6.87833 7.4235 6.28711H9.24913ZM13.6272 19.0135H10.1179V17.4684H13.6272V19.0135ZM20.2178 14.9447H8.25143C8.10581 14.9447 7.98776 15.0628 7.98776 15.2084C7.98776 15.354 8.10581 15.4721 8.25143 15.4721H20.2178V16.5017C20.2178 16.744 20.0207 16.9411 19.7783 16.9411H3.9668C3.72446 16.9411 3.52734 16.744 3.52734 16.5017V15.4721H7.021C7.16661 15.4721 7.28467 15.354 7.28467 15.2084C7.28467 15.0628 7.16661 14.9447 7.021 14.9447H3.52734V5.87789C3.52734 5.73248 3.64561 5.61422 3.79102 5.61422H7.19523C6.67713 6.45238 6.37764 7.43925 6.37764 8.49492C6.37764 11.5248 8.84265 13.9898 11.8726 13.9898C14.9025 13.9898 17.3675 11.5248 17.3675 8.49492C17.3675 7.43929 17.068 6.45238 16.5499 5.61425H19.9541C20.0995 5.61425 20.2178 5.73252 20.2178 5.87793V14.9447Z" fill="white"/>
<path id="Vector_5" d="M6.32227 13.5117H4.63477C4.48915 13.5117 4.37109 13.6298 4.37109 13.7754C4.37109 13.921 4.48915 14.0391 4.63477 14.0391H6.32227C6.46788 14.0391 6.58594 13.921 6.58594 13.7754C6.58594 13.6298 6.46788 13.5117 6.32227 13.5117Z" fill="white"/>
<path id="Vector_6" d="M4.63477 13.125H5.26758C5.4132 13.125 5.53125 13.0069 5.53125 12.8613C5.53125 12.7157 5.4132 12.5977 5.26758 12.5977H4.63477C4.48915 12.5977 4.37109 12.7157 4.37109 12.8613C4.37109 13.0069 4.48915 13.125 4.63477 13.125Z" fill="white"/>
<path id="Vector_7" d="M19.1191 13.5117H18.416C18.2704 13.5117 18.1523 13.6298 18.1523 13.7754C18.1523 13.921 18.2704 14.0391 18.416 14.0391H19.1191C19.2648 14.0391 19.3828 13.921 19.3828 13.7754C19.3828 13.6298 19.2648 13.5117 19.1191 13.5117Z" fill="white"/>
<path id="Vector_8" d="M19.1191 12.5977H18.416C18.2704 12.5977 18.1523 12.7157 18.1523 12.8613C18.1523 13.0069 18.2704 13.125 18.416 13.125H19.1191C19.2648 13.125 19.3828 13.0069 19.3828 12.8613C19.3828 12.7157 19.2648 12.5977 19.1191 12.5977Z" fill="white"/>
<path id="Vector_9" d="M19.1191 11.6836H18.416C18.2704 11.6836 18.1523 11.8016 18.1523 11.9473C18.1523 12.0929 18.2704 12.2109 18.416 12.2109H19.1191C19.2648 12.2109 19.3828 12.0929 19.3828 11.9473C19.3828 11.8016 19.2648 11.6836 19.1191 11.6836Z" fill="white"/>
</g>
</g>
</g>
</svg>
