<svg width="24" height="24" viewBox="0 0 24 24" fill="none" xmlns="http://www.w3.org/2000/svg">
<g id="Document Service">
<g id="_x32_2_documents_2_">
<path id="Vector" d="M10.0527 8.92383H17.0895C17.2351 8.92383 17.3531 8.79266 17.3531 8.63086C17.3531 8.46906 17.2351 8.33789 17.0895 8.33789H10.0527C9.90712 8.33789 9.78906 8.46906 9.78906 8.63086C9.78906 8.79266 9.90712 8.92383 10.0527 8.92383Z" fill="white"/>
<path id="Vector_2" d="M10.0527 11.0938H17.0895C17.2351 11.0938 17.3531 10.9626 17.3531 10.8008C17.3531 10.639 17.2351 10.5078 17.0895 10.5078H10.0527C9.90712 10.5078 9.78906 10.639 9.78906 10.8008C9.78906 10.9626 9.90712 11.0938 10.0527 11.0938Z" fill="white"/>
<path id="Vector_3" d="M10.0527 13.2656H17.0895C17.2351 13.2656 17.3531 13.1345 17.3531 12.9727C17.3531 12.8109 17.2351 12.6797 17.0895 12.6797H10.0527C9.90712 12.6797 9.78906 12.8109 9.78906 12.9727C9.78906 13.1345 9.90712 13.2656 10.0527 13.2656Z" fill="white"/>
<path id="Vector_4" d="M19.6747 5.75086C19.6725 5.67742 19.6449 5.60562 19.598 5.55355L16.477 2.08582C16.4282 2.0316 16.3595 2 16.2905 2H8.49935C7.92915 2 7.4653 2.51543 7.4653 3.14898V3.36961H7.26673C6.73355 3.36961 6.29343 3.82031 6.23852 4.3968H6.03409C5.46389 4.3968 5 4.91223 5 5.54578V15.3939C5 15.5557 5.11805 15.6868 5.26367 15.6868C5.40929 15.6868 5.52734 15.5557 5.52734 15.3939V5.54574C5.52734 5.23527 5.75466 4.9827 6.03409 4.9827H6.23265V19.8238C6.23265 20.4574 6.69654 20.9728 7.26673 20.9728H13.9743C14.12 20.9728 14.238 20.8416 14.238 20.6798C14.238 20.518 14.12 20.3869 13.9743 20.3869H7.26673C6.98731 20.3869 6.75999 20.1343 6.75999 19.8238V4.51855C6.75999 4.20809 6.98731 3.95551 7.26673 3.95551H7.4653V5.55137C7.4653 5.71316 7.58335 5.84434 7.72897 5.84434C7.87459 5.84434 7.99264 5.71316 7.99264 5.55137V3.14898C7.99264 2.83852 8.21996 2.58594 8.49935 2.58594H16.0269V4.90484C16.0269 5.53832 16.4907 6.05367 17.0608 6.05367H19.1478V18.4542C19.1478 18.7647 18.9205 19.0173 18.6411 19.0173H8.49935C8.21993 19.0173 7.99264 18.7647 7.99264 18.4542V6.82816C7.99264 6.66637 7.87459 6.5352 7.72897 6.5352C7.58335 6.5352 7.4653 6.66637 7.4653 6.82816V18.4542C7.4653 19.0878 7.92918 19.6032 8.49935 19.6032H17.9152V19.8238C17.9152 20.1343 17.6879 20.3869 17.4085 20.3869H15.1234C14.9778 20.3869 14.8597 20.518 14.8597 20.6798C14.8597 20.8416 14.9778 20.9728 15.1234 20.9728H16.6703C16.62 21.2249 16.4176 21.4141 16.1758 21.4141H6.03409C5.75466 21.4141 5.52734 21.1615 5.52734 20.851V16.6706C5.52734 16.5088 5.40929 16.3777 5.26367 16.3777C5.11805 16.3777 5 16.5088 5 16.6706V20.851C5 21.4846 5.46389 22 6.03409 22H16.1759C16.709 22 17.1492 21.5493 17.2041 20.9728H17.4085C17.9787 20.9728 18.4426 20.4574 18.4426 19.8238V19.6032H18.6412C19.2114 19.6032 19.6752 19.0878 19.6752 18.4542V5.7607C19.6752 5.75742 19.6749 5.75414 19.6747 5.75086ZM17.0608 5.46773C16.7815 5.46773 16.5542 5.21523 16.5542 4.90484V3.00023L18.775 5.46773H17.0608Z" fill="white"/>
</g>
</g>
</svg>
