<svg width="24" height="24" viewBox="0 0 24 24" fill="none" xmlns="http://www.w3.org/2000/svg">
<g id="Fleet Management">
<g id="Group">
<path id="Vector" d="M16.7451 18.47C16.5663 18.5674 16.385 18.668 16.2014 18.7697C14.6479 19.6311 12.8871 20.6074 11.1947 20.4562L5.20159 19.9212C5.19379 19.9205 5.18595 19.9202 5.17811 19.9202H3.52836V16.9543H5.17807C5.24054 16.9543 5.30101 16.9321 5.34868 16.8918C5.35336 16.8879 5.82547 16.4912 6.54421 16.1178C6.67369 16.0506 6.7241 15.8911 6.65688 15.7616C6.58959 15.6321 6.43016 15.5817 6.30064 15.6489C5.69462 15.9638 5.25499 16.2916 5.08463 16.4259H3.2642C3.1183 16.4259 3 16.5442 3 16.6901V20.1844C3 20.3303 3.11827 20.4486 3.2642 20.4486H5.16629L11.1477 20.9825C11.2828 20.9946 11.4176 21.0004 11.5525 21.0004C13.2678 21.0004 14.9557 20.0646 16.4576 19.2319C16.64 19.1308 16.8202 19.0308 16.9979 18.934C17.126 18.8642 17.1733 18.7037 17.1035 18.5756C17.0337 18.4474 16.8733 18.4002 16.7451 18.47Z" fill="white"/>
<path id="Vector_2" d="M20.7951 15.5431C20.5142 15.1708 20.0248 15.0422 19.6024 15.219C19.5916 15.05 19.5344 14.8854 19.4342 14.7452C19.17 14.3754 18.6678 14.2562 18.266 14.468L17.6377 14.7991C17.6296 14.6516 17.5861 14.5064 17.5085 14.3782C17.2579 13.9638 16.7282 13.8199 16.3026 14.0506L15.833 14.3052C15.8245 14.1226 15.7627 13.9446 15.6523 13.7944C15.3769 13.4197 14.8783 13.3044 14.4668 13.5203L11.0764 15.2985C10.6951 15.1521 9.47968 14.7562 8.05961 15.0206C7.81464 15.0662 7.56225 15.1322 7.30941 15.2167C7.17104 15.263 7.09636 15.4126 7.14259 15.551C7.18889 15.6894 7.33863 15.764 7.47693 15.7178C7.70671 15.641 7.93526 15.5812 8.15629 15.5401C9.67223 15.2578 10.9695 15.8249 10.9821 15.8304C11.0161 15.8457 11.053 15.8536 11.0904 15.8536H14.6193C14.8701 15.8536 15.0741 16.0582 15.0741 16.3097C15.0741 16.5388 14.9031 16.7333 14.6763 16.7621L10.2036 17.3286C10.0713 17.3453 9.97218 17.4581 9.9726 17.5914C9.97299 17.7248 10.0728 17.837 10.2052 17.8529L12.1048 18.0819C13.9449 18.3036 15.774 17.9447 17.3945 17.0439L19.7683 15.7243C19.9771 15.6155 20.2311 15.6729 20.3732 15.8613C20.5508 16.0854 20.4736 16.4448 20.2193 16.5757L17.6724 17.9636C17.3679 18.1237 17.6289 18.5963 17.9252 18.4276L20.4722 17.0396C20.7303 16.899 20.914 16.6534 20.9761 16.3658C21.0383 16.0779 20.9723 15.7781 20.7951 15.5431ZM14.7122 13.9882C14.8907 13.8946 15.107 13.9446 15.2266 14.1073C15.3734 14.2967 15.3068 14.5972 15.0932 14.7062L13.9513 15.3253H12.1629L14.7122 13.9882ZM14.9525 15.3835L16.5544 14.515C16.7316 14.419 16.952 14.4791 17.0564 14.6517C17.1702 14.8304 17.099 15.0885 16.9094 15.183L15.5199 15.9153C15.412 15.6692 15.2065 15.4754 14.9525 15.3835ZM17.1378 16.5821C15.6846 17.3899 14.0529 17.7339 12.4043 17.5824L14.7427 17.2862C15.1766 17.2313 15.5158 16.896 15.588 16.4767L18.5123 14.9354C18.6814 14.8463 18.8929 14.8965 19.0042 15.0523C19.139 15.2313 19.0764 15.5107 18.8778 15.6147L17.1378 16.5821Z" fill="white"/>
<path id="Vector_3" d="M9.15257 10.1783C9.45094 10.1783 9.73799 10.1137 10.0057 9.98641C10.1374 9.92376 10.1935 9.76612 10.1308 9.63436C10.0681 9.50262 9.91061 9.44655 9.77874 9.50923C9.58253 9.60254 9.37184 9.64986 9.15257 9.64986C8.34746 9.64986 7.69243 8.99483 7.69243 8.18971C7.69243 7.3846 8.34746 6.72961 9.15257 6.72961C9.95768 6.72961 10.6127 7.3846 10.6127 8.18971C10.6127 8.43623 10.5502 8.67976 10.432 8.894C10.3615 9.02176 10.4079 9.18246 10.5356 9.25295C10.6634 9.32343 10.8241 9.27703 10.8946 9.1493C11.0558 8.85709 11.1411 8.52528 11.1411 8.18968C11.1411 7.09319 10.249 6.20117 9.15257 6.20117C8.05612 6.20117 7.16406 7.09319 7.16406 8.18968C7.16406 9.28617 8.05612 10.1783 9.15257 10.1783Z" fill="white"/>
<path id="Vector_4" d="M5.02489 8.9753L5.57245 9.0576C5.66185 9.42853 5.80743 9.77988 6.00691 10.1059L5.67774 10.5515C5.52221 10.7621 5.54369 11.0493 5.72882 11.2343L6.10577 11.6113C6.29087 11.7964 6.57806 11.8179 6.78861 11.6624L7.23418 11.3332C7.56022 11.5327 7.91154 11.6783 8.2825 11.7677L8.36484 12.3153C8.40376 12.5741 8.62201 12.762 8.88375 12.762H9.41682C9.67859 12.762 9.89684 12.5741 9.93573 12.3152L10.018 11.7677C10.389 11.6783 10.7403 11.5327 11.0664 11.3332L11.512 11.6624C11.7225 11.8179 12.0097 11.7964 12.1948 11.6113L12.5717 11.2344C12.7568 11.0493 12.7783 10.7621 12.6228 10.5516L12.2937 10.106C12.4931 9.77995 12.6388 9.42864 12.7281 9.05767L13.2756 8.97537C13.5345 8.93645 13.7224 8.71823 13.7224 8.45643V8.45403H15.2902V11.8214C15.2902 12.1611 15.5666 12.4375 15.9063 12.4375H17.035C17.1558 12.976 17.6375 13.3797 18.2119 13.3797C18.8772 13.3797 19.4184 12.8385 19.4184 12.1733C19.4184 11.508 18.8772 10.9668 18.2119 10.9668C17.6374 10.9668 17.1558 11.3705 17.035 11.9091H15.9063C15.8579 11.9091 15.8186 11.8697 15.8186 11.8214V8.45403H17.035C17.1558 8.99259 17.6374 9.39633 18.2119 9.39633C18.8772 9.39633 19.4184 8.85513 19.4184 8.18987C19.4184 7.52461 18.8772 6.98341 18.2119 6.98341C17.6375 6.98341 17.1558 7.38711 17.035 7.92564H15.8187V4.55837C15.8187 4.51 15.858 4.47066 15.9064 4.47066H17.035C17.1559 5.00921 17.6375 5.41291 18.212 5.41291C18.8772 5.41291 19.4185 4.87172 19.4185 4.20646C19.4185 3.5412 18.8772 3 18.212 3C17.6375 3 17.1559 3.4037 17.035 3.94226H15.9063C15.5666 3.94226 15.2902 4.21862 15.2902 4.55834V7.9256H13.7224V7.92328C13.7224 7.66154 13.5345 7.44329 13.2757 7.40438L12.7281 7.32207C12.6387 6.95111 12.4931 6.59979 12.2937 6.27375L12.6228 5.82818C12.7783 5.61759 12.7569 5.3304 12.5717 5.14534L12.1948 4.76836C12.0097 4.58326 11.7225 4.56182 11.512 4.71731L11.0664 5.04645C10.7403 4.84697 10.389 4.70135 10.0181 4.61198L9.93576 4.06443C9.89688 3.80557 9.67863 3.61766 9.41686 3.61766H8.88375C8.62201 3.61766 8.40376 3.80554 8.36484 4.06443L8.2825 4.61198C7.91157 4.70139 7.56025 4.84697 7.23418 5.04645L6.78861 4.71731C6.57809 4.56178 6.29087 4.58323 6.10577 4.76836L5.72882 5.14527C5.54369 5.33037 5.52221 5.61756 5.67774 5.82811L6.00688 6.27368C5.8074 6.59972 5.66178 6.95107 5.57241 7.322L5.02486 7.4043C4.766 7.44322 4.57812 7.66147 4.57812 7.92321V8.45629C4.57812 8.71816 4.76604 8.93638 5.02489 8.9753ZM18.212 11.4951C18.5859 11.4951 18.89 11.7993 18.89 12.1732C18.89 12.5471 18.5859 12.8512 18.212 12.8512C17.8381 12.8512 17.5339 12.5471 17.5339 12.1732C17.5339 11.7993 17.8381 11.4951 18.212 11.4951ZM18.212 7.51174C18.5859 7.51174 18.89 7.81591 18.89 8.1898C18.89 8.56369 18.5859 8.86786 18.212 8.86786C17.8381 8.86786 17.5339 8.56369 17.5339 8.1898C17.5339 7.81591 17.8381 7.51174 18.212 7.51174ZM18.212 3.52836C18.5859 3.52836 18.89 3.83254 18.89 4.20642C18.89 4.58031 18.5859 4.88448 18.212 4.88448C17.8381 4.88448 17.5339 4.58031 17.5339 4.20642C17.5339 3.83257 17.8381 3.52836 18.212 3.52836ZM5.10649 7.92638L5.83166 7.81736C5.94289 7.80066 6.03134 7.71533 6.05205 7.6048C6.13256 7.17544 6.29878 6.77441 6.546 6.41283C6.60945 6.32002 6.60724 6.19718 6.54041 6.10672L6.10461 5.5167L6.47716 5.14418L7.06719 5.58001C7.15761 5.64681 7.28041 5.64906 7.37326 5.5856C7.73487 5.33835 8.1359 5.17216 8.56523 5.09162C8.67576 5.07091 8.76105 4.98246 8.77779 4.87123L8.8868 4.14606H9.41366L9.52268 4.87123C9.53941 4.98246 9.6247 5.07091 9.73523 5.09162C10.1646 5.17213 10.5656 5.33835 10.9272 5.5856C11.0201 5.64909 11.1429 5.64681 11.2333 5.58001L11.8233 5.14418L12.1959 5.5167L11.7601 6.10676C11.6933 6.19718 11.691 6.32002 11.7545 6.41286C12.0018 6.77445 12.1679 7.17547 12.2485 7.60487C12.2692 7.7154 12.3577 7.80069 12.4689 7.81743L13.194 7.92645V8.4533L12.4689 8.56232C12.3577 8.57902 12.2692 8.66434 12.2485 8.77487C12.1679 9.20427 12.0018 9.6053 11.7545 9.96688C11.691 10.0597 11.6933 10.1825 11.7601 10.2729L12.1959 10.863L11.8234 11.2355L11.2333 10.7997C11.1429 10.7329 11.0201 10.7306 10.9272 10.7941C10.5657 11.0414 10.1646 11.2076 9.73523 11.2881C9.6247 11.3089 9.53941 11.3973 9.52268 11.5085L9.41366 12.2337H8.8868L8.77779 11.5085C8.76105 11.3973 8.67576 11.3089 8.56523 11.2881C8.13583 11.2076 7.7348 11.0414 7.37322 10.7941C7.28041 10.7307 7.15761 10.7329 7.06715 10.7997L6.47713 11.2355L6.10457 10.863L6.54041 10.2729C6.6072 10.1825 6.60945 10.0597 6.546 9.96688C6.29874 9.6053 6.13256 9.20427 6.05205 8.77491C6.03131 8.66438 5.94289 8.57905 5.83166 8.56235L5.10649 8.45333V7.92638Z" fill="white"/>
</g>
</g>
</svg>
