<svg width="24" height="24" viewBox="0 0 24 24" fill="none" xmlns="http://www.w3.org/2000/svg">
<g id="Global services">
<g id="Group">
<path id="Vector" d="M15.707 16.2539C15.707 17.1208 16.4123 17.8261 17.2792 17.8261C18.1462 17.8261 18.8515 17.1208 18.8515 16.2539C18.8515 15.3869 18.1462 14.6816 17.2792 14.6816C16.4123 14.6816 15.707 15.3869 15.707 16.2539ZM18.1483 16.2539C18.1483 16.733 17.7584 17.1229 17.2792 17.1229C16.8 17.1229 16.4101 16.733 16.4101 16.2539C16.4101 15.7747 16.8 15.3848 17.2792 15.3848C17.7584 15.3848 18.1483 15.7747 18.1483 16.2539Z" fill="white"/>
<path id="Vector_2" d="M8.3399 18.6383C9.62112 19.0811 11.381 19.0573 12.5944 18.6544C13.0352 18.5081 13.4717 18.3465 13.8879 18.1405L14.1606 18.6131C14.3582 18.9554 14.7641 19.1272 15.148 19.0309L15.5901 18.9198C15.6885 18.8951 15.7874 18.9523 15.8152 19.0495L15.9395 19.4881C16.0478 19.8685 16.3998 20.1342 16.7953 20.1342H17.763C18.1581 20.1342 18.51 19.8686 18.6188 19.4879L18.7434 19.0497C18.7711 18.9522 18.8697 18.8951 18.968 18.9197L19.4105 19.031C19.7942 19.1271 20.2002 18.9555 20.3977 18.6131L20.881 17.7757C21.0794 17.4335 21.0254 16.9958 20.7499 16.7115L20.4327 16.3837C20.4325 16.3836 20.4323 16.3834 20.4322 16.3833C20.3618 16.3108 20.3619 16.1968 20.4324 16.124L20.7498 15.7967C21.0254 15.5122 21.0793 15.0746 20.8813 14.733L20.3978 13.8952C20.2002 13.5523 19.794 13.3804 19.4106 13.4771L18.9678 13.5882C18.8697 13.6128 18.7711 13.5558 18.7434 13.4584L18.6187 13.0194C18.5258 12.6945 18.255 12.4539 17.9317 12.3907C17.9698 12.0834 17.9895 11.7718 17.9895 11.4597C17.9895 9.20806 16.9414 7.01588 15.1802 5.60997C14.5317 5.08943 13.7902 4.67158 12.976 4.38599C12.7929 4.32176 12.5921 4.4182 12.5279 4.6014C12.4636 4.78465 12.56 4.98525 12.7433 5.04952C13.427 5.28933 14.0542 5.63198 14.6101 6.05626V7.06057C14.6101 7.11542 14.5879 7.16907 14.5491 7.20784L13.9154 7.84152C13.7457 8.01067 13.6483 8.24559 13.6483 8.48614V9.41792C13.6483 9.92032 14.0571 10.3291 14.5595 10.3291C14.5866 10.3291 14.6135 10.3345 14.6402 10.3455C14.6648 10.3556 14.6868 10.3703 14.7065 10.3902L15.3996 11.083C15.5718 11.2551 15.8005 11.35 16.0438 11.35H17.2853C17.2859 11.3865 17.2864 11.4231 17.2864 11.4597C17.2864 11.7664 17.266 12.0727 17.2254 12.3736H16.7953C16.405 12.3736 16.0464 12.6443 15.9394 13.0202L15.8254 13.4223C15.8004 13.527 15.7063 13.617 15.5902 13.5881L15.1482 13.4772C14.7661 13.3893 14.3584 13.5521 14.1607 13.8948L13.6773 14.7325C13.4817 15.0704 13.5374 15.5168 13.8087 15.7969L14.1261 16.124C14.192 16.192 14.1927 16.315 14.126 16.3836L13.8085 16.7114C13.6058 16.9204 13.5172 17.2282 13.577 17.5131C13.3308 17.6386 13.0771 17.7483 12.8177 17.8424V17.8178C12.8177 17.5296 12.7056 17.2584 12.5015 17.0538L11.993 16.5456C11.7921 16.3442 11.5135 16.2287 11.2286 16.2287H10.7055C10.4169 16.2287 10.1456 16.3411 9.94151 16.5452L9.46537 17.0213C9.43042 17.0563 9.38841 17.0844 9.34256 17.1033C9.29689 17.1223 9.24848 17.1319 9.19859 17.1319C8.73149 17.1319 8.33277 17.4299 8.18229 17.8457C5.57244 16.8977 3.70315 14.393 3.70315 11.4597C3.70315 10.063 4.12975 8.71544 4.91763 7.58368L6.22574 8.69933C6.31458 8.77503 6.36556 8.88546 6.36556 9.00225V9.83756C6.36556 9.94226 6.32295 10.0449 6.2487 10.1192L5.92592 10.4419C5.71796 10.6499 5.60342 10.9265 5.60342 11.2208V12.5226C5.60342 12.8169 5.71796 13.0935 5.92592 13.3015L7.80013 15.1757C8.22452 15.6 8.93308 15.6003 9.35779 15.1757C9.56574 14.9677 9.68029 14.6911 9.68029 14.3968V13.7832C9.68029 13.4891 9.56564 13.2125 9.35789 13.0048L9.26574 12.9123C9.11337 12.7601 9.11327 12.502 9.26596 12.3495L11.0514 10.5637C11.2565 10.3591 11.3742 10.0752 11.3742 9.78489V8.59615C11.3742 7.9889 10.8801 7.49484 10.2729 7.49484H8.78472C8.67826 7.49484 8.57824 7.45342 8.50307 7.37829L7.71871 6.59389C7.64484 6.52023 7.60248 6.41785 7.60248 6.31298V5.31345C8.2524 5.00726 9.07607 4.82149 9.80017 4.73437C9.99417 4.72558 10.1443 4.56291 10.1355 4.36894C10.137 4.15845 9.96619 3.9801 9.74937 4.00179C7.74441 4.1999 5.79555 5.24169 4.57752 6.86031C3.55668 8.17165 3 9.78363 3 11.4597C3 14.8435 5.25434 17.7103 8.3399 18.6383ZM16.0438 10.6468C15.9884 10.6468 15.9362 10.6252 15.8968 10.5857L15.2045 9.89374C15.1192 9.80785 15.0192 9.74098 14.908 9.69535C14.7966 9.64926 14.6793 9.62591 14.5596 9.62591C14.4449 9.62591 14.3516 9.5326 14.3516 9.41792V8.48614C14.3516 8.43119 14.3735 8.37778 14.4123 8.33918L15.0464 7.70504C15.2186 7.53288 15.3134 7.304 15.3134 7.06053V6.67429C16.3716 7.74227 17.0575 9.15283 17.2376 10.6468H16.0438V10.6468ZM18.0671 13.6506C18.1995 14.116 18.6704 14.3883 19.1392 14.2701L19.5821 14.159C19.6623 14.1389 19.7474 14.1746 19.7888 14.2464L20.2727 15.0851C20.3141 15.1564 20.3026 15.2478 20.245 15.3073L19.9276 15.6347C19.5909 15.9823 19.591 16.5262 19.9279 16.8731L20.2449 17.2006C20.3027 17.2602 20.3141 17.3516 20.2724 17.4236L19.7888 18.2616C19.7474 18.3332 19.6624 18.3691 19.5819 18.3489L19.1392 18.2376C18.6703 18.12 18.1993 18.3922 18.0671 18.8574L17.9427 19.295C17.9198 19.375 17.846 19.4309 17.7631 19.4309H16.7954C16.7125 19.4309 16.6386 19.3752 16.616 19.2958L16.4916 18.8571C16.3799 18.4653 16.0277 18.2103 15.6389 18.2103C15.5664 18.2103 15.4927 18.2192 15.419 18.2376L14.9767 18.3489C14.8962 18.3691 14.8111 18.3332 14.7697 18.2616L14.2858 17.4229C14.2474 17.3567 14.2611 17.2549 14.3137 17.2006L14.6308 16.8732C14.9629 16.5313 14.9622 15.9763 14.6309 15.6343L14.3137 15.3072C14.2609 15.2527 14.2477 15.1506 14.2862 15.0844L14.7698 14.2462C14.8194 14.1711 14.8884 14.1421 14.9768 14.159L15.4189 14.2699C15.8993 14.3911 16.3826 14.0885 16.5025 13.6125L16.6161 13.2121C16.638 13.1352 16.7158 13.0767 16.7954 13.0767H17.7631C17.846 13.0767 17.9198 13.1326 17.9426 13.212L18.0671 13.6506ZM9.19859 17.835C9.34154 17.835 9.48077 17.8073 9.61117 17.7531C9.7428 17.699 9.86103 17.6201 9.96257 17.5185L10.4387 17.0424C10.51 16.9711 10.6048 16.9318 10.7055 16.9318H11.2287C11.3281 16.9318 11.4253 16.972 11.4955 17.0424L12.0041 17.5507C12.0754 17.6221 12.1147 17.717 12.1147 17.8178V18.0554C11.0485 18.3165 9.9227 18.3161 8.85746 18.0513C8.91793 17.9236 9.04808 17.835 9.19859 17.835ZM6.89929 5.69737V6.31294C6.89929 6.60328 7.01696 6.88714 7.22179 7.09144L8.0058 7.87549C8.2138 8.08344 8.49038 8.19799 8.78465 8.19799H10.2728C10.4924 8.19799 10.671 8.37659 10.671 8.59615V9.78489C10.671 9.88977 10.6286 9.99218 10.5544 10.0662L8.76883 11.8522C8.34441 12.276 8.34325 12.9849 8.76819 13.4092L8.86017 13.5015C8.93558 13.5769 8.97707 13.6769 8.97707 13.7832V14.3968C8.97707 14.5033 8.93565 14.6033 8.86052 14.6785C8.70843 14.8306 8.4497 14.8309 8.29726 14.6785L6.42308 12.8043C6.34791 12.7291 6.30653 12.6291 6.30653 12.5226V11.2208C6.30653 11.1143 6.34795 11.0143 6.42304 10.9391L6.74583 10.6164C6.95101 10.4112 7.06868 10.1274 7.06868 9.83756V9.00225C7.06868 8.67915 6.92766 8.37363 6.68191 8.16424L5.34902 7.02745C5.79422 6.50962 6.32077 6.05984 6.89929 5.69737Z" fill="white"/>
<path id="Vector_3" d="M11.2735 4.03002C11.1258 4.0709 11.0199 4.20682 11.0158 4.35996C11.0074 4.67285 11.4043 4.83889 11.621 4.61154C11.7331 4.4939 11.7501 4.30902 11.6596 4.17342C11.5759 4.04907 11.418 3.98994 11.2735 4.03002Z" fill="white"/>
</g>
</g>
</svg>
