<svg width="24" height="24" viewBox="0 0 24 24" fill="none" xmlns="http://www.w3.org/2000/svg">
<g id="Licensing">
<g id="Group">
<path id="Vector" d="M19.3429 6H4.65705C3.73114 6 3 6.71021 3 7.565V16.6339C3 17.5083 3.75199 18.1988 4.65705 18.1988H19.3429C20.2689 18.1988 21 17.4886 21 16.6338V7.565C21 6.69049 20.248 6 19.3429 6ZM19.9453 16.6338C19.9453 16.9478 19.6761 17.2027 19.3429 17.2027H4.65705C4.32462 17.2027 4.05469 16.9485 4.05469 16.6338V7.565C4.05469 7.25103 4.32391 6.99609 4.65705 6.99609H19.3429C19.6754 6.99609 19.9453 7.25036 19.9453 7.565V16.6338Z" fill="white"/>
<path id="Vector_2" d="M10.0573 13.3179C10.3637 12.9939 10.5504 12.5669 10.5504 12.0993C10.5504 11.0893 9.68037 10.2676 8.61095 10.2676C7.54153 10.2676 6.67152 11.0893 6.67152 12.0993C6.67152 12.5669 6.85823 12.9939 7.16462 13.3179C6.36155 13.7803 5.82422 14.6154 5.82422 15.5668C5.82422 15.8419 6.06033 16.0648 6.35156 16.0648H10.8703C11.1615 16.0648 11.3976 15.8419 11.3976 15.5668C11.3976 14.6154 10.8603 13.7803 10.0573 13.3179ZM8.61095 11.2637C9.09881 11.2637 9.49573 11.6385 9.49573 12.0993C9.49573 12.5601 9.09881 12.9349 8.61095 12.9349C8.12309 12.9349 7.72621 12.5601 7.72621 12.0993C7.72621 11.6385 8.12309 11.2637 8.61095 11.2637ZM6.96096 15.0688C7.18455 14.4096 7.83969 13.931 8.61095 13.931C9.38221 13.931 10.0373 14.4095 10.2609 15.0688H6.96096Z" fill="white"/>
<path id="Vector_3" d="M17.6492 10.8008H13.6953C13.4041 10.8008 13.168 11.0238 13.168 11.2988C13.168 11.5739 13.4041 11.7969 13.6953 11.7969H17.6492C17.9405 11.7969 18.1766 11.5739 18.1766 11.2988C18.1766 11.0238 17.9405 10.8008 17.6492 10.8008Z" fill="white"/>
<path id="Vector_4" d="M17.6485 8.13477H6.35156C6.06033 8.13477 5.82422 8.35776 5.82422 8.63281C5.82422 8.90787 6.06033 9.13086 6.35156 9.13086H17.6485C17.9397 9.13086 18.1758 8.90787 18.1758 8.63281C18.1758 8.35776 17.9397 8.13477 17.6485 8.13477Z" fill="white"/>
<path id="Vector_5" d="M17.6492 12.9355H13.6953C13.4041 12.9355 13.168 13.1585 13.168 13.4336C13.168 13.7086 13.4041 13.9316 13.6953 13.9316H17.6492C17.9405 13.9316 18.1766 13.7086 18.1766 13.4336C18.1766 13.1585 17.9405 12.9355 17.6492 12.9355Z" fill="white"/>
<path id="Vector_6" d="M16.5195 15.0684H13.6953C13.4041 15.0684 13.168 15.2914 13.168 15.5664C13.168 15.8415 13.4041 16.0645 13.6953 16.0645H16.5195C16.8108 16.0645 17.0469 15.8415 17.0469 15.5664C17.0469 15.2914 16.8108 15.0684 16.5195 15.0684Z" fill="white"/>
</g>
</g>
</svg>
