<svg width="24" height="24" viewBox="0 0 24 24" fill="none" xmlns="http://www.w3.org/2000/svg">
<g id="Personal Management">
<g id="Group">
<g id="Group_2">
<path id="Vector" d="M20.8906 10.5954C20.8707 10.468 20.7826 10.3618 20.6611 10.3186L19.4955 9.90405C19.328 9.30418 19.0886 8.72667 18.7817 8.18273L19.3128 7.06554C19.3681 6.94914 19.3554 6.81182 19.2795 6.70765C18.7239 5.94465 18.0553 5.27609 17.2924 4.72051C17.1882 4.64464 17.0509 4.63188 16.9345 4.68718L15.8173 5.21825C15.2733 4.91141 14.6958 4.67196 14.0959 4.50455L13.6814 3.33891C13.6382 3.21744 13.532 3.12934 13.4046 3.10937C12.9417 3.03681 12.4691 3 12 3C11.5309 3 11.0583 3.03681 10.5954 3.10937C10.468 3.12934 10.3618 3.21744 10.3186 3.33891L9.90405 4.50455C9.30418 4.67196 8.72667 4.91141 8.18273 5.21825L7.06554 4.68718C6.94917 4.63188 6.81182 4.64464 6.70765 4.72051C5.94472 5.27609 5.27616 5.94469 4.72051 6.70765C4.64464 6.81182 4.63188 6.94914 4.68718 7.06554L5.21825 8.18273C4.91141 8.72667 4.67196 9.30418 4.50455 9.90405L3.33891 10.3186C3.21744 10.3618 3.12934 10.468 3.10937 10.5954C3.03681 11.0583 3 11.5309 3 12C3 12.4691 3.03681 12.9417 3.10937 13.4046C3.12934 13.532 3.21744 13.6382 3.33891 13.6814L4.50455 14.0959C4.67196 14.6958 4.91141 15.2733 5.21825 15.8173L4.68718 16.9345C4.63188 17.0509 4.64464 17.1882 4.72051 17.2924C5.27612 18.0553 5.94469 18.7239 6.70765 19.2795C6.81182 19.3554 6.94917 19.3682 7.06554 19.3128L8.18273 18.7817C8.72667 19.0886 9.30415 19.328 9.90405 19.4955L10.3186 20.6611C10.3618 20.7826 10.468 20.8707 10.5954 20.8906C11.0583 20.9632 11.5309 21 12 21C12.4691 21 12.9417 20.9632 13.4046 20.8906C13.532 20.8707 13.6382 20.7826 13.6814 20.6611L14.0959 19.4955C14.6959 19.328 15.2733 19.0886 15.8173 18.7817L16.9345 19.3128C17.0508 19.3682 17.1881 19.3554 17.2924 19.2795C18.0553 18.7239 18.7239 18.0553 19.2795 17.2924C19.3554 17.1882 19.3681 17.0509 19.3128 16.9345L18.7817 15.8173C19.0886 15.2733 19.328 14.6958 19.4955 14.0959L20.6611 13.6814C20.7826 13.6382 20.8707 13.532 20.8906 13.4046C20.9632 12.9417 21 12.4691 21 12C21 11.5309 20.9632 11.0583 20.8906 10.5954ZM20.2256 13.09L19.0855 13.4954C18.9749 13.5348 18.8913 13.6267 18.8625 13.7405C18.6955 14.401 18.4332 15.0337 18.0829 15.6208C18.0227 15.7217 18.0169 15.8458 18.0673 15.9519L18.5868 17.0448C18.1421 17.6247 17.6248 18.142 17.0449 18.5867L15.952 18.0672C15.8459 18.0169 15.7217 18.0227 15.6209 18.0828C15.0337 18.4332 14.4011 18.6955 13.7406 18.8625C13.6267 18.8912 13.5348 18.9749 13.4955 19.0855L13.0901 20.2256C12.3685 20.3202 11.6316 20.3202 10.91 20.2256L10.5046 19.0855C10.4653 18.9749 10.3734 18.8912 10.2595 18.8625C9.59897 18.6955 8.96633 18.4332 8.37919 18.0828C8.27836 18.0227 8.15419 18.0169 8.04812 18.0672L6.95522 18.5867C6.37532 18.142 5.85799 17.6247 5.4133 17.0448L5.9328 15.9519C5.98322 15.8459 5.97735 15.7217 5.9172 15.6208C5.56686 15.0337 5.30456 14.401 5.13757 13.7405C5.10881 13.6267 5.02514 13.5348 4.91454 13.4954L3.77446 13.09C3.72707 12.7292 3.70312 12.3635 3.70312 12C3.70312 11.6365 3.72707 11.2708 3.77439 10.91L4.91447 10.5046C5.02507 10.4652 5.10874 10.3733 5.1375 10.2595C5.30449 9.59897 5.56679 8.96633 5.91712 8.37915C5.97728 8.27832 5.98311 8.15415 5.93273 8.04809L5.41323 6.95518C5.85796 6.37525 6.37528 5.85796 6.95515 5.41327L8.04805 5.93277C8.15408 5.98315 8.27829 5.97735 8.37912 5.91716C8.9663 5.56683 9.59893 5.30453 10.2594 5.13754C10.3733 5.10878 10.4652 5.02511 10.5045 4.9145L10.9099 3.77442C11.6315 3.67978 12.3684 3.67978 13.09 3.77442L13.4954 4.9145C13.5347 5.02511 13.6266 5.10878 13.7405 5.13754C14.401 5.30453 15.0336 5.56683 15.6208 5.91716C15.7216 5.97731 15.8458 5.98315 15.9519 5.93277L17.0448 5.41327C17.6247 5.85796 18.142 6.37528 18.5867 6.95518L18.0672 8.04809C18.0168 8.15412 18.0227 8.27832 18.0828 8.37915C18.4331 8.96633 18.6954 9.59897 18.8624 10.2595C18.8912 10.3733 18.9749 10.4652 19.0855 10.5046L20.2255 10.91C20.2729 11.2708 20.2969 11.6365 20.2969 12C20.2969 12.3635 20.2729 12.7292 20.2256 13.09Z" fill="white"/>
<path id="Vector_2" d="M13.6668 6.47991C13.481 6.42384 13.2848 6.5291 13.2287 6.71504C13.1727 6.90095 13.2779 7.09708 13.4638 7.15312C14.483 7.46042 15.3993 8.10034 16.0441 8.95502C16.7103 9.83811 17.0625 10.8913 17.0625 12.0009C17.0625 13.1498 16.6775 14.2103 16.0302 15.0608V15.0341C16.0302 14.2359 15.4626 13.5404 14.6805 13.3805L13.125 13.0624V12.7989C13.6624 12.4363 14.0165 11.8219 14.0165 11.1262V10.3206C14.0165 9.20871 13.1119 8.3041 12 8.3041C10.8881 8.3041 9.98351 9.20871 9.98351 10.3206V11.1262C9.98351 11.8219 10.3376 12.4363 10.875 12.7989V13.0624L9.31944 13.3805C8.53739 13.5404 7.96979 14.2626 7.96979 15.0609C7.32246 14.2103 6.9375 13.1498 6.9375 12.0009C6.9375 10.8914 7.28966 9.83814 7.95587 8.95505C8.60064 8.10037 9.51702 7.46042 10.5361 7.15316C10.722 7.09712 10.8273 6.90098 10.7713 6.71507C10.7152 6.52917 10.519 6.42398 10.3332 6.47995C9.17221 6.83004 8.12859 7.55865 7.3946 8.5316C6.63558 9.53766 6.23438 10.7373 6.23438 12.0009C6.23438 15.18 8.82082 17.7665 12 17.7665C15.1792 17.7665 17.7656 15.18 17.7656 12.0009C17.7656 10.7373 17.3644 9.53763 16.6054 8.53156C15.8714 7.55858 14.8278 6.82997 13.6668 6.47991ZM11.5781 13.098C11.7143 13.1271 11.8553 13.1428 12 13.1428C12.1447 13.1428 12.2857 13.1271 12.4219 13.098V13.4373C12.4219 13.6699 12.2326 13.8592 12 13.8592C11.7674 13.8592 11.5781 13.6699 11.5781 13.4373V13.098ZM10.6866 10.3206C10.6866 9.59641 11.2758 9.00726 12 9.00726C12.7242 9.00726 13.3134 9.59645 13.3134 10.3206V11.1263C13.3134 11.8505 12.7242 12.4396 12 12.4396C11.2758 12.4396 10.6866 11.8505 10.6866 11.1263V10.3206ZM8.67295 15.8133V15.0341C8.67295 14.5683 9.00409 14.1626 9.46035 14.0693L10.9252 13.7698C11.0673 14.2283 11.4954 14.5623 12 14.5623C12.5046 14.5623 12.9327 14.2283 13.0748 13.7698L14.5396 14.0693C14.9959 14.1626 15.327 14.5684 15.327 15.0341V15.8132C14.4367 16.5913 13.2725 17.0634 12 17.0634C10.7275 17.0634 9.56332 16.5913 8.67295 15.8133Z" fill="white"/>
<path id="Vector_3" d="M12 6.9375C12.1942 6.9375 12.3516 6.7801 12.3516 6.58594C12.3516 6.39177 12.1942 6.23438 12 6.23438C11.8058 6.23438 11.6484 6.39177 11.6484 6.58594C11.6484 6.7801 11.8058 6.9375 12 6.9375Z" fill="white"/>
</g>
</g>
</g>
</svg>
