<svg width="24" height="24" viewBox="0 0 24 24" fill="none" xmlns="http://www.w3.org/2000/svg">
<g id="Product">
<g id="Group">
<path id="Vector" d="M20.922 13.6039L18.5699 11.2518C18.5453 11.2284 18.5035 11.195 18.4409 11.1805L16.5803 10.7552L17.1723 10.1782C17.3702 9.98526 17.4401 9.70216 17.3547 9.4393C17.2693 9.17644 17.0463 8.9885 16.7728 8.94875L14.0193 8.5486C13.958 8.53969 13.9051 8.50125 13.8777 8.44577L12.6463 5.95064C12.524 5.70278 12.2763 5.54883 11.9999 5.54883C11.7236 5.54883 11.4759 5.70281 11.3536 5.95064L10.1222 8.44577C10.0948 8.50125 10.0419 8.53969 9.98067 8.5486L9.32583 8.64376C9.18023 8.66493 9.07935 8.80009 9.10052 8.94569C9.12169 9.09137 9.25696 9.19257 9.40245 9.17104L10.0573 9.07588C10.2921 9.04174 10.495 8.89437 10.6 8.68159L11.8314 6.18647C11.8781 6.09188 11.9648 6.08168 11.9999 6.08168C12.0351 6.08168 12.1218 6.09188 12.1685 6.18647L13.3999 8.68159C13.5049 8.89433 13.7078 9.04178 13.9427 9.07588L16.6962 9.47603C16.8006 9.49119 16.8371 9.57055 16.8479 9.60397C16.8588 9.6374 16.8759 9.72308 16.8004 9.79664L14.8079 11.7388C14.7249 11.8197 14.6638 11.9177 14.6278 12.0249L11.9999 12.6256L9.37201 12.0249C9.33603 11.9177 9.27507 11.8198 9.19202 11.7388L7.19956 9.79664C7.12404 9.72304 7.14113 9.6374 7.152 9.60397C7.16287 9.57055 7.19935 9.49119 7.30375 9.47603L8.19036 9.34719C8.33596 9.32602 8.43684 9.19086 8.41567 9.04526C8.39454 8.89962 8.25952 8.7986 8.11374 8.81991L7.22713 8.94875C6.95361 8.98846 6.73065 9.17644 6.64525 9.4393C6.55986 9.70216 6.62973 9.98526 6.82766 10.1782L7.41958 10.7552L5.55905 11.1805C5.5156 11.1974 5.51617 11.181 5.43003 11.2518L3.07803 13.6039C3.00936 13.6725 2.9835 13.7731 3.01054 13.8664C3.03757 13.9597 3.11319 14.0309 3.20793 14.0522L5.35206 14.5348V19.172C5.35206 19.4682 5.55375 19.7212 5.84251 19.7872L7.41628 20.1469C7.43624 20.1515 7.45624 20.1537 7.47588 20.1537C7.59737 20.1537 7.70713 20.07 7.73537 19.9465C7.76815 19.8031 7.67843 19.6602 7.53503 19.6275L5.96122 19.2678C5.91629 19.2575 5.88492 19.2181 5.88492 19.172V14.6547L9.60773 15.4926C9.62716 15.497 9.64677 15.4991 9.66623 15.4991C9.7361 15.4991 9.80409 15.4716 9.8546 15.4211L11.7336 13.542V16.6569C11.7336 16.8041 11.8529 16.9234 12.0001 16.9234C12.1472 16.9234 12.2665 16.8041 12.2665 16.6569V13.542L14.1455 15.4211C14.196 15.4716 14.264 15.4991 14.3339 15.4991C14.3533 15.4991 14.373 15.497 14.3923 15.4926L15.7239 15.1929C15.8674 15.1605 15.9576 15.018 15.9253 14.8744C15.893 14.7309 15.7504 14.6409 15.6069 14.673L14.4185 14.9405L12.5291 13.0511L18.2973 11.7327L20.2031 13.6385L16.8132 14.4015C16.6697 14.4338 16.5795 14.5764 16.6118 14.7199C16.6441 14.8635 16.7867 14.9534 16.9302 14.9213L18.1151 14.6546V19.172C18.1151 19.2181 18.0837 19.2575 18.0388 19.2677L12.2664 20.5871V17.9001C12.2664 17.753 12.1471 17.6337 12 17.6337C11.8529 17.6337 11.7336 17.753 11.7336 17.9001V20.5871L8.7446 19.9039C8.60131 19.8712 8.4583 19.9608 8.42551 20.1043C8.39272 20.2478 8.48245 20.3906 8.62585 20.4234L11.8613 21.1629C11.9067 21.1733 11.9533 21.1784 12 21.1784C12.0466 21.1784 12.0932 21.1733 12.1385 21.1629L18.1574 19.7871C18.4462 19.7212 18.6479 19.4682 18.6479 19.172V14.5348L20.792 14.0522C20.8868 14.0308 20.9624 13.9597 20.9895 13.8664C21.0165 13.7731 20.9906 13.6725 20.922 13.6039ZM16.1262 11.198L17.186 11.4402L15.4769 11.8308L16.1262 11.198ZM8.52312 11.8308L6.81405 11.4402L7.87383 11.198L8.52312 11.8308ZM9.58151 14.9406L3.79684 13.6386L5.70266 11.7328L11.4709 13.0512L9.58151 14.9406Z" fill="white"/>
<path id="Vector_2" d="M12.0008 4.6268C12.1479 4.6268 12.2672 4.50756 12.2672 4.36039V3.26641C12.2672 3.11925 12.1479 3 12.0008 3C11.8537 3 11.7344 3.11925 11.7344 3.26641V4.36039C11.7344 4.50752 11.8537 4.6268 12.0008 4.6268Z" fill="white"/>
<path id="Vector_3" d="M14.0718 6.62496C14.1217 6.66687 14.1824 6.6873 14.2428 6.6873C14.3189 6.6873 14.3944 6.65494 14.447 6.5921L15.1502 5.75405C15.2448 5.64134 15.2301 5.47332 15.1174 5.37876C15.0046 5.28414 14.8366 5.29888 14.7421 5.41162L14.0389 6.24968C13.9443 6.36239 13.959 6.5304 14.0718 6.62496Z" fill="white"/>
<path id="Vector_4" d="M17.3447 7.75943C17.4051 7.75943 17.4659 7.73897 17.5158 7.69709L18.3538 6.99391C18.4665 6.89935 18.4812 6.7313 18.3866 6.61859C18.292 6.50588 18.124 6.49121 18.0113 6.58577L17.1733 7.28895C17.0606 7.38351 17.0459 7.55156 17.1405 7.66427C17.1932 7.72703 17.2687 7.75943 17.3447 7.75943Z" fill="white"/>
<path id="Vector_5" d="M9.54671 6.59214C9.59943 6.65494 9.67491 6.6873 9.75096 6.6873C9.81138 6.6873 9.87216 6.66688 9.92207 6.62496C10.0348 6.5304 10.0495 6.36235 9.95492 6.24964L9.25174 5.41159C9.15711 5.29888 8.98906 5.28414 8.87642 5.37877C8.76372 5.47333 8.74901 5.64138 8.84357 5.75409L9.54671 6.59214Z" fill="white"/>
<path id="Vector_6" d="M5.64595 6.99394L6.484 7.69712C6.53391 7.73903 6.59469 7.75946 6.65511 7.75946C6.73113 7.75946 6.80664 7.7271 6.85936 7.66426C6.95392 7.55155 6.93921 7.38354 6.8265 7.28898L5.98845 6.5858C5.87574 6.49117 5.70765 6.50591 5.61313 6.61862C5.51853 6.73133 5.53324 6.89938 5.64595 6.99394Z" fill="white"/>
</g>
</g>
</svg>
