<svg width="24" height="24" viewBox="0 0 24 24" fill="none" xmlns="http://www.w3.org/2000/svg">
<g id="Sales">
<g id="Group">
<path id="Vector" d="M20.5831 12.4006C19.6683 11.4899 18.6108 12.3423 18.6108 12.3423V7.54816C18.6108 7.38716 18.4803 7.25655 18.3193 7.25655C18.1582 7.25655 18.0277 7.38716 18.0277 7.54816V12.7525C18.0277 12.7525 16.6372 13.8486 16.0396 14.1165V5.48456C16.0396 5.08329 16.366 4.7569 16.7672 4.7569H17.3C17.7013 4.7569 18.0277 5.08329 18.0277 5.48456V6.35438C18.0277 6.51552 18.1582 6.64599 18.3193 6.64599C18.4803 6.64599 18.6108 6.51552 18.6108 6.35438V5.48456C18.6108 4.76176 18.0228 4.17383 17.3 4.17383H16.7672C16.0444 4.17383 15.4564 4.76176 15.4564 5.48456V14.3477C15.2825 14.3964 15.104 14.4296 14.9227 14.447V8.29936C14.9227 7.57291 14.3317 6.98195 13.6054 6.98195H13.0855C12.3592 6.98195 11.7682 7.57291 11.7682 8.29936V11.2704L11.2344 11.5539V10.5651C11.2344 9.91111 10.7023 9.37908 10.0485 9.37908H9.26602C8.61202 9.37908 8.08013 9.91111 8.08013 10.5651V13.2282L7.12799 13.7335L4.45429 14.4976C3.98908 14.6305 3.60057 14.9352 3.3606 15.3553C3.12048 15.7755 3.05532 16.2649 3.17713 16.7331L3.47618 17.8838C3.51658 18.0396 3.67575 18.133 3.83173 18.0926C3.98756 18.0521 4.08112 17.8929 4.04057 17.7369L3.74152 16.5864C3.56807 15.9191 3.95157 15.2477 4.61468 15.0583L7.05919 14.3597L8.89649 19.2633C9.01951 19.5917 9.00007 20.5285 8.02819 20.8737L6.18087 21.2933C5.53705 21.4395 4.90264 21.0535 4.73648 20.4144L4.36149 18.9714C4.32094 18.8156 4.16177 18.722 4.00594 18.7624C3.84996 18.803 3.75655 18.9621 3.79695 19.1181L4.1721 20.5613C4.38291 21.372 5.10312 21.9077 5.9049 21.9077C6.49405 21.9077 8.15744 21.4423 8.15744 21.4423C8.66366 21.3275 9.0953 20.9995 9.3415 20.5426C9.54472 20.1656 9.60501 19.7319 9.51783 19.3186L15.909 17.7539C16.4375 17.6244 16.9393 17.3733 17.3597 17.0278L20.4699 14.4722C21.4181 13.6313 20.8619 12.6781 20.5831 12.4006ZM13.0855 7.56517H13.6054C14.0102 7.56517 14.3394 7.8946 14.3394 8.29936V14.4616L12.4994 14.4608C12.3304 14.4593 12.4473 14.3477 12.4566 14.3401L12.9865 13.9109C13.4809 13.5104 13.8037 12.9536 13.9461 12.2557C14.0364 11.813 13.8675 11.3698 13.5056 11.0991C13.1675 10.8464 12.7327 10.7978 12.3515 10.9649V8.29936C12.3515 7.8946 12.6807 7.56517 13.0855 7.56517ZM8.66335 10.5651C8.66335 10.2328 8.9337 9.9623 9.26602 9.9623H10.0485C10.3808 9.9623 10.6513 10.2328 10.6513 10.5651V11.8634L8.6632 12.9187V10.5651H8.66335ZM20.0998 14.0218L16.9894 16.5773C16.6362 16.8677 16.2145 17.0787 15.7703 17.1874L9.33208 18.7638L7.60065 14.1431L12.5444 11.5189C12.7453 11.4121 12.9742 11.4299 13.1563 11.5662C13.3384 11.7024 13.4201 11.9165 13.3747 12.1392C13.26 12.701 13.0059 13.1446 12.6194 13.4577L12.0895 13.887C11.8723 14.0629 11.7922 14.3468 11.8855 14.6103C11.9788 14.8737 12.2196 15.0441 12.4991 15.0441L14.6238 15.045H14.6253C15.3816 15.045 16.1085 14.815 16.7273 14.3799L19.1018 12.7101C19.4343 12.4762 19.8819 12.5175 20.1659 12.8082C20.3294 12.9753 20.6496 13.4718 20.0998 14.0218Z" fill="white"/>
<path id="Vector_2" d="M7.77812 19.4498C7.77812 18.8163 7.26279 18.3008 6.62929 18.3008C5.9958 18.3008 5.48047 18.8163 5.48047 19.4498C5.48047 20.0831 5.9958 20.5986 6.62929 20.5986C7.26279 20.5986 7.77812 20.0831 7.77812 19.4498ZM6.06369 19.4498C6.06369 19.1378 6.31733 18.884 6.62929 18.884C6.9411 18.884 7.1949 19.1378 7.1949 19.4498C7.1949 19.7616 6.94125 20.0154 6.62929 20.0154C6.31733 20.0154 6.06369 19.7616 6.06369 19.4498Z" fill="white"/>
<path id="Vector_3" d="M4.53328 11.1558L8.77226 6.88417L9.72577 7.37733C10.0673 7.55397 10.483 7.49352 10.7601 7.22681L13.0674 5.00571C13.0674 5.00571 13.004 6.14649 13.9646 6.14649C14.4591 6.14649 14.8616 5.74401 14.8616 5.24933V2.89701C14.8616 2.89427 14.8615 2.89139 14.8615 2.8885C14.8583 2.27475 14.4095 2 13.9646 2H11.6328C11.1381 2 10.7358 2.40248 10.7358 2.89701C10.7358 3.88301 11.7392 3.79401 11.7392 3.79401L9.97895 5.48839L9.01163 4.9881C8.66185 4.80705 8.24038 4.87343 7.96274 5.15289L3.25991 9.89201C2.9115 10.2432 2.91362 10.8123 3.26477 11.1607C3.43397 11.3285 4.01172 11.6774 4.53328 11.1558ZM3.67379 10.3028L8.37661 5.56372C8.43737 5.50267 8.53487 5.39574 8.74371 5.50616L9.89663 6.10244C10.0077 6.15985 10.1428 6.14026 10.2329 6.05354L12.6648 3.7126C12.7505 3.63013 12.7775 3.50377 12.733 3.3935C12.6885 3.28309 12.5816 3.21094 12.4625 3.21094H11.6328C11.4598 3.21094 11.319 3.07015 11.319 2.89701C11.319 2.72401 11.4598 2.58322 11.6328 2.58322H13.9646C14.0504 2.58322 14.2782 2.58322 14.2782 2.89518C14.2782 2.89777 14.2784 2.90035 14.2784 2.90308V5.24933C14.2784 5.42232 14.1376 5.56312 13.9646 5.56312C13.7915 5.56312 13.6507 5.42232 13.6507 5.24933V4.32028C13.6507 4.20333 13.5808 4.09762 13.4733 4.05191C13.3657 4.00604 13.2412 4.02912 13.1569 4.11023L10.3556 6.80671C10.2587 6.89997 10.1132 6.92123 9.99384 6.85942L8.85018 6.26784C8.73703 6.20937 8.59897 6.23109 8.5092 6.32146L4.1194 10.745C3.92803 10.9363 3.73469 10.8054 3.67546 10.7466C3.55274 10.6247 3.55198 10.4256 3.67379 10.3028Z" fill="white"/>
</g>
</g>
</svg>
