<svg width="24" height="24" viewBox="0 0 24 24" fill="none" xmlns="http://www.w3.org/2000/svg">
<g id="Services">
<g id="Group">
<path id="Vector" d="M6.16585 16.9201C5.91385 16.9201 5.6716 16.983 5.45668 17.1011C4.32454 15.6498 3.70312 13.8469 3.70312 12C3.70312 7.42502 7.42502 3.70312 12 3.70312C12.5562 3.70312 13.1121 3.75847 13.6523 3.86765C13.8424 3.9061 14.0281 3.78305 14.0665 3.59271C14.105 3.40237 13.9819 3.21698 13.7916 3.17839C13.2056 3.06001 12.6029 3 12 3C9.59605 3 7.33589 3.93617 5.63603 5.63603C3.93617 7.33589 3 9.59605 3 12C3 14.0222 3.68665 15.9956 4.93675 17.5776C4.7758 17.8181 4.68929 18.1007 4.68929 18.3967C4.68929 18.7911 4.84296 19.1618 5.12187 19.4406C5.40065 19.7195 5.77144 19.8732 6.16585 19.8732C6.56026 19.8732 6.93105 19.7195 7.20996 19.4406C7.48888 19.1618 7.64241 18.7909 7.64241 18.3965C7.64241 18.0022 7.48888 17.6313 7.20996 17.3525C6.93105 17.0736 6.56026 16.9201 6.16585 16.9201ZM6.71269 18.9435C6.56671 19.0896 6.37239 19.1701 6.16585 19.1701C5.9593 19.1701 5.76512 19.0896 5.619 18.9435C5.47289 18.7974 5.39241 18.6032 5.39241 18.3967C5.39241 18.19 5.47289 17.9958 5.619 17.8497C5.76498 17.7036 5.9593 17.6232 6.16585 17.6232C6.37239 17.6232 6.56657 17.7037 6.71269 17.8497C6.85881 17.9958 6.93929 18.19 6.93929 18.3967C6.93929 18.6032 6.85881 18.7974 6.71269 18.9435Z" fill="white"/>
<path id="Vector_2" d="M19.0616 6.42213C19.4438 5.84879 19.3824 5.06491 18.8769 4.5594C18.598 4.28062 18.2272 4.12695 17.8328 4.12695C17.4384 4.12695 17.0676 4.28062 16.7887 4.5594C16.5097 4.83832 16.3562 5.20911 16.3562 5.60352C16.3562 5.99792 16.5097 6.36871 16.7887 6.64763C17.0676 6.92654 17.4384 7.08008 17.8328 7.08008C18.0848 7.08008 18.327 7.01718 18.5419 6.89908C19.6741 8.35051 20.2955 10.1532 20.2955 12.0002C20.2955 16.5751 16.5736 20.297 11.9986 20.297C11.4479 20.297 10.8972 20.2428 10.3621 20.1357C10.1717 20.0976 9.98647 20.2211 9.94829 20.4114C9.91025 20.6019 10.0337 20.787 10.224 20.8252C10.8045 20.9413 11.4016 21.0002 11.9986 21.0002C14.4026 21.0002 16.6627 20.064 18.3626 18.3641C20.0624 16.6643 20.9986 14.4041 20.9986 12.0002C20.9986 9.97786 20.3118 8.0043 19.0616 6.42213ZM17.2859 6.1505C17.1398 6.00438 17.0593 5.8102 17.0593 5.60352C17.0593 5.39697 17.1398 5.20279 17.2859 5.05667C17.4319 4.91055 17.6262 4.83008 17.8328 4.83008C18.0393 4.83008 18.2336 4.91055 18.3797 5.05667C18.6812 5.35825 18.6812 5.84892 18.3797 6.1505C18.2336 6.29648 18.0393 6.37695 17.8328 6.37695C17.6261 6.37695 17.4319 6.29648 17.2859 6.1505Z" fill="white"/>
<path id="Vector_3" d="M10.5498 18.0469C10.5498 18.2411 10.7073 18.3984 10.9014 18.3984H13.0996C13.2938 18.3984 13.4512 18.2411 13.4512 18.0469V17.3653C13.9134 17.2409 14.3553 17.0577 14.7706 16.8185L15.2518 17.2997C15.3177 17.3656 15.4071 17.4027 15.5005 17.4027C15.5936 17.4027 15.6832 17.3656 15.7491 17.2995L17.3028 15.7447C17.44 15.6074 17.44 15.3848 17.3028 15.2476L16.8222 14.7669C17.0614 14.3516 17.2446 13.9097 17.369 13.4474H18.048C18.2422 13.4474 18.3995 13.2901 18.3995 13.0959V10.8977C18.3995 10.7035 18.2422 10.5461 18.048 10.5461H17.3689C17.2445 10.084 17.0614 9.64206 16.8222 9.22678L17.3002 8.74873C17.3661 8.68282 17.4032 8.59328 17.4032 8.50003C17.4031 8.40678 17.366 8.31725 17.3001 8.25133L15.7451 6.69759C15.6079 6.56039 15.3853 6.56039 15.248 6.69772L14.7706 7.17522C14.3553 6.93599 13.9134 6.75279 13.4512 6.62837V5.95312C13.4512 5.75894 13.2938 5.60156 13.0996 5.60156H10.9014C10.7073 5.60156 10.5498 5.75894 10.5498 5.95312V6.62851C10.0877 6.75279 9.64577 6.93599 9.23048 7.17522L8.75299 6.69772C8.6158 6.56053 8.39319 6.56039 8.25586 6.69759L6.70102 8.25146C6.63496 8.31738 6.59789 8.40678 6.59789 8.50003C6.59789 8.59328 6.63496 8.68282 6.70088 8.74873L7.17892 9.22678C6.9397 9.64206 6.7565 10.0838 6.63208 10.5461H5.95436C5.76018 10.5461 5.6028 10.7035 5.6028 10.8975L5.60156 13.0957C5.60143 13.189 5.6385 13.2785 5.70442 13.3445C5.77034 13.4104 5.85974 13.4474 5.95313 13.4474H6.63208C6.7565 13.9097 6.9397 14.3516 7.17892 14.7669L6.69827 15.2476C6.56108 15.3848 6.56094 15.6074 6.69827 15.7447L8.25201 17.2995C8.31793 17.3654 8.40733 17.4027 8.50058 17.4027H8.50072C8.59396 17.4027 8.68337 17.3656 8.74928 17.2997L9.23035 16.8185C9.64577 17.0577 10.0877 17.2409 10.5498 17.3653V18.0469ZM9.36823 16.0791C9.22911 15.9891 9.04605 16.0086 8.92877 16.1258L8.50072 16.5538L7.44397 15.4963L7.87161 15.0685C7.98875 14.9513 8.00826 14.7683 7.9183 14.6292C7.59956 14.1359 7.37544 13.5952 7.2524 13.022C7.21751 12.8601 7.07442 12.7443 6.90866 12.7443H6.30483L6.30565 11.2492H6.90866C7.07442 11.2492 7.21751 11.1336 7.2524 10.9715C7.37544 10.3985 7.59956 9.8578 7.9183 9.36452C8.00826 9.2254 7.98875 9.04234 7.87161 8.9252L7.44672 8.50017L8.50429 7.44342L8.92877 7.86804C9.04605 7.98518 9.22897 8.00455 9.36823 7.91473C9.86137 7.59599 10.402 7.37187 10.9753 7.24883C11.1372 7.21394 11.2529 7.07071 11.2529 6.90509V6.30469H12.748V6.90495C12.748 7.07071 12.8637 7.21394 13.0257 7.24869C13.5988 7.37187 14.1396 7.59586 14.6327 7.9146C14.7719 8.00455 14.9549 7.98518 15.0721 7.8679L15.4967 7.44342L16.5542 8.50017L16.1293 8.92506C16.0121 9.04234 15.9927 9.2254 16.0827 9.36452C16.4014 9.8578 16.6254 10.3985 16.7486 10.9715C16.7833 11.1336 16.9265 11.2492 17.0923 11.2492H17.6964V12.7443H17.0923C16.9265 12.7443 16.7834 12.8601 16.7486 13.022C16.6255 13.5951 16.4014 14.1359 16.0827 14.629C15.9927 14.7683 16.0122 14.9513 16.1293 15.0685L16.557 15.4961L15.5002 16.5537L15.0722 16.1258C14.9549 16.0085 14.7719 15.9891 14.6327 16.0791C14.1395 16.3978 13.5988 16.6218 13.0257 16.745C12.8637 16.7799 12.748 16.923 12.748 17.0887V17.6953H11.2529V17.0887C11.2529 16.9231 11.1372 16.7799 10.9753 16.745C10.4022 16.6219 9.86151 16.3978 9.36823 16.0791Z" fill="white"/>
<path id="Vector_4" d="M14.9036 12.0006C14.9036 10.3988 13.6005 9.0957 11.9987 9.0957C10.3969 9.0957 9.09375 10.3988 9.09375 12.0006C9.09375 13.6024 10.3969 14.9055 11.9987 14.9055C13.6005 14.9055 14.9036 13.6024 14.9036 12.0006ZM9.79688 12.0006C9.79688 10.7865 10.7845 9.79883 11.9987 9.79883C13.2128 9.79883 14.2005 10.7866 14.2005 12.0006C14.2005 13.2146 13.2128 14.2024 11.9987 14.2024C10.7845 14.2024 9.79688 13.2148 9.79688 12.0006Z" fill="white"/>
<path id="Vector_5" d="M15.2383 4.33049C15.3308 4.33049 15.4215 4.29286 15.4868 4.22749C15.5522 4.16171 15.5898 4.07108 15.5898 3.97852C15.5898 3.88651 15.5524 3.79573 15.4868 3.72995C15.4215 3.66458 15.3308 3.62695 15.2383 3.62695C15.1454 3.62695 15.0552 3.66458 14.9899 3.72995C14.9243 3.79573 14.8867 3.88609 14.8867 3.97852C14.8867 4.07135 14.9243 4.16171 14.9899 4.22749C15.0552 4.29286 15.1454 4.33049 15.2383 4.33049Z" fill="white"/>
<path id="Vector_6" d="M8.77734 19.6758C8.68492 19.6758 8.59415 19.7134 8.52878 19.7788C8.46341 19.8441 8.42578 19.9349 8.42578 20.0273C8.42578 20.1202 8.46341 20.2105 8.52878 20.2759C8.59415 20.3413 8.68492 20.3789 8.77734 20.3789C8.86977 20.3789 8.96054 20.3413 9.02591 20.2759C9.09128 20.2105 9.12891 20.1198 9.12891 20.0273C9.12891 19.9349 9.09128 19.8441 9.02591 19.7788C8.96054 19.7134 8.86977 19.6758 8.77734 19.6758Z" fill="white"/>
</g>
</g>
</svg>
