<svg width="24" height="24" viewBox="0 0 24 24" fill="none" xmlns="http://www.w3.org/2000/svg">
<g id="System">
<g id="Group">
<g id="Group_2">
<g id="Group_3">
<path id="Vector" d="M14.4267 16.7088C15.0114 16.7088 15.596 16.4863 16.0412 16.0411C16.9314 15.1509 16.9314 13.7024 16.0412 12.8122C15.1509 11.922 13.7024 11.922 12.8122 12.8122C11.922 13.7024 11.922 15.1509 12.8122 16.0411C13.2573 16.4862 13.842 16.7088 14.4267 16.7088ZM13.2263 13.2263C13.5573 12.8953 13.9919 12.7299 14.4267 12.7299C14.8613 12.7299 15.2961 12.8954 15.627 13.2263C16.2889 13.8882 16.2889 14.9652 15.627 15.627C14.9652 16.2889 13.8882 16.2889 13.2263 15.627C12.5644 14.9652 12.5644 13.8882 13.2263 13.2263Z" fill="white"/>
<path id="Vector_2" d="M11.7682 11.7691C10.6787 12.8586 10.3637 14.4789 10.9657 15.8971C11.0289 16.0459 11.2009 16.1153 11.3497 16.0522C11.4986 15.989 11.568 15.8171 11.5048 15.6682C10.9966 14.471 11.2625 13.103 12.1823 12.1832C13.4195 10.946 15.4327 10.9461 16.6698 12.1832C17.907 13.4204 17.907 15.4334 16.6698 16.6706C16.0754 17.265 15.2853 17.595 14.4448 17.6C14.4384 17.6 14.4321 17.6 14.4257 17.6C13.5931 17.6 12.8072 17.2804 12.2111 16.699C12.0953 16.5861 11.9099 16.5884 11.7971 16.7042C11.6841 16.8199 11.6864 17.0054 11.8022 17.1183C12.5085 17.8071 13.4393 18.1857 14.4256 18.1856C14.4332 18.1856 14.4407 18.1856 14.4483 18.1856C15.4438 18.1797 16.3799 17.7887 17.084 17.0847C18.5494 15.6192 18.5494 13.2346 17.084 11.769C15.6183 10.3035 13.2338 10.3035 11.7682 11.7691Z" fill="white"/>
<path id="Vector_3" d="M21.4383 13.1119H20.3963C20.2416 12.4058 19.9663 11.7406 19.5778 11.1339L20.314 10.3977C20.4199 10.2918 20.4783 10.151 20.4783 10.0012C20.4783 9.85136 20.4199 9.71053 20.314 9.60464L19.2477 8.53838C19.1418 8.43245 19.001 8.37408 18.8512 8.37408C18.7014 8.37408 18.5606 8.43241 18.4546 8.53834L17.7184 9.27456C17.1118 8.88607 16.4466 8.61081 15.7405 8.45604V7.41406C15.7405 7.10487 15.4889 6.85327 15.1797 6.85327H13.6718C13.4975 6.85327 13.3416 6.93316 13.2387 7.05818H13.0474C12.9226 6.51222 12.7092 5.9966 12.4124 5.52366L12.9756 4.96045C13.1742 4.76183 13.1742 4.4387 12.9756 4.24004L12.1138 3.37826C12.0176 3.28206 11.8897 3.22907 11.7536 3.22907C11.6175 3.22907 11.4896 3.28206 11.3934 3.3783L10.8302 3.94147C10.3573 3.64466 9.84168 3.43128 9.29564 3.3065V2.50941C9.29568 2.22853 9.0672 2 8.78627 2H7.56755C7.28666 2 7.05814 2.22853 7.05814 2.50941V3.30654C6.51214 3.43132 5.99645 3.64474 5.52362 3.94151L4.96049 3.37834C4.86428 3.28209 4.73637 3.22911 4.60027 3.22911C4.46416 3.22911 4.33621 3.28209 4.24 3.37834L3.3783 4.24008C3.17972 4.4387 3.17972 4.76183 3.3783 4.96049L3.94151 5.5237C3.6447 5.99653 3.43132 6.51222 3.30654 7.05821H2.50941C2.22853 7.05821 2 7.28674 2 7.56762V8.78635C2 9.06723 2.22853 9.29576 2.50941 9.29576H3.30654C3.43132 9.84179 3.6447 10.3575 3.94151 10.8303L3.3783 11.3935C3.17968 11.5921 3.17968 11.9153 3.3783 12.1139L4.24004 12.9757C4.43866 13.1743 4.76179 13.1743 4.96049 12.9757L5.5237 12.4125C5.99649 12.7093 6.5121 12.9227 7.05818 13.0474V13.2391C6.93265 13.342 6.85237 13.4981 6.85237 13.6728V15.1807C6.85237 15.49 7.10394 15.7415 7.41317 15.7415H8.45514C8.60991 16.4476 8.88521 17.1129 9.27362 17.7195L8.53748 18.4557C8.43152 18.5616 8.37318 18.7024 8.37318 18.8523C8.37318 19.0021 8.43152 19.1429 8.53744 19.2488L9.60374 20.315C9.70967 20.421 9.85046 20.4793 10.0003 20.4793C10.1501 20.4793 10.2909 20.421 10.3968 20.3151L11.133 19.5789C11.7397 19.9674 12.4049 20.2427 13.111 20.3974V21.4393C13.111 21.7486 13.3625 22.0001 13.6718 22.0001H15.1797C15.4889 22.0001 15.7405 21.7486 15.7405 21.4393V20.3972C16.4466 20.2425 17.1118 19.9672 17.7185 19.5788L18.4546 20.315C18.5606 20.4209 18.7014 20.4792 18.8512 20.4792C19.001 20.4792 19.1418 20.4209 19.2477 20.315L20.314 19.2487C20.4199 19.1428 20.4783 19.002 20.4783 18.8521C20.4783 18.7023 20.4199 18.5615 20.314 18.4556L19.5778 17.7194C19.9662 17.1128 20.2415 16.4475 20.3963 15.7414H21.4383C21.7475 15.7414 21.9991 15.4898 21.9991 15.1806V13.6727C21.9991 13.3635 21.7475 13.1119 21.4383 13.1119ZM7.24086 12.488C6.72216 12.376 6.23399 12.174 5.78983 11.8876C5.58902 11.7582 5.32126 11.7865 5.15294 11.9549L4.60027 12.5076L3.84632 11.7536L4.39903 11.2009C4.56735 11.0325 4.59562 10.7647 4.46627 10.564C4.17988 10.1199 3.97786 9.63166 3.86581 9.11292C3.81532 8.87947 3.60593 8.71002 3.36787 8.71002H2.58566V7.64384H3.36791C3.60593 7.64384 3.81536 7.47439 3.86588 7.24082C3.9779 6.72216 4.17992 6.23399 4.4663 5.78983C4.59566 5.58918 4.56739 5.32133 4.39907 5.15298L3.84636 4.60027L4.6003 3.84632L5.15298 4.39903C5.32129 4.56739 5.58902 4.59566 5.7899 4.46627C6.23407 4.17988 6.72224 3.97786 7.24086 3.86584C7.47435 3.8154 7.64384 3.60597 7.64384 3.36787V2.58566H8.71006V3.36791C8.71006 3.606 8.87955 3.81544 9.11303 3.86588C9.63166 3.9779 10.1198 4.17992 10.564 4.46627C10.7647 4.59562 11.0326 4.56743 11.201 4.39903L11.7536 3.84632L12.5076 4.60027L11.9549 5.15294C11.7865 5.32129 11.7582 5.58914 11.8876 5.78983C12.1741 6.23407 12.3761 6.72228 12.4881 7.24082C12.5385 7.47435 12.7479 7.64384 12.986 7.64384H13.111V8.45604C12.4049 8.61077 11.7397 8.88607 11.1331 9.27456L10.3968 8.53834C10.3881 8.5296 10.3788 8.52171 10.3696 8.51363C10.4723 7.83906 10.2648 7.12596 9.74641 6.60757C9.13314 5.99426 8.2117 5.7942 7.39899 6.09781C7.2475 6.15442 7.17055 6.32313 7.2272 6.47462C7.28377 6.62611 7.45248 6.70303 7.60397 6.64645C8.20229 6.42285 8.88076 6.57012 9.33231 7.02167C9.71123 7.40059 9.86389 7.92074 9.79201 8.41422C9.7224 8.44206 9.6584 8.48376 9.60378 8.53834L8.53752 9.6046C8.48278 9.6593 8.44104 9.72345 8.4132 9.79318C8.33562 9.80447 8.25683 9.81079 8.17699 9.81079C7.74055 9.81079 7.33028 9.64083 7.02171 9.33227C6.50601 8.81657 6.39485 8.01288 6.75137 7.37783C6.83051 7.2368 6.78038 7.05829 6.63935 6.97915C6.4984 6.90001 6.31985 6.95014 6.24067 7.09117C5.75625 7.95412 5.90711 9.04599 6.60753 9.74641C7.04022 10.1791 7.60862 10.3954 8.17695 10.3954C8.28901 10.3954 8.40095 10.3866 8.51195 10.3697C8.52026 10.3792 8.52842 10.3888 8.53744 10.3977L9.27362 11.134C8.88521 11.7406 8.60987 12.4059 8.45514 13.1119H7.64384V12.986C7.64384 12.7479 7.47439 12.5385 7.24086 12.488ZM21.4134 15.1557H20.3761C20.114 15.1557 19.8835 15.3424 19.8279 15.5996C19.6875 16.2495 19.4343 16.8613 19.0755 17.4179C18.933 17.6388 18.964 17.9338 19.1493 18.1191L19.8823 18.8521L18.8512 19.8832L18.1182 19.1502C17.933 18.9649 17.638 18.9338 17.417 19.0763C16.8604 19.4351 16.2486 19.6883 15.5987 19.8287C15.3415 19.8842 15.1549 20.1148 15.1549 20.3769V21.4143H13.6967V20.3769C13.6967 20.1148 13.51 19.8843 13.2529 19.8287C12.603 19.6883 11.9912 19.4351 11.4345 19.0763C11.2136 18.9338 10.9187 18.9649 10.7333 19.1502L10.0004 19.8832L8.96923 18.8521L9.70217 18.119C9.88755 17.9337 9.91863 17.6388 9.77612 17.4178C9.41727 16.8612 9.1641 16.2495 9.0237 15.5995C8.9681 15.3423 8.73758 15.1557 8.47548 15.1557H7.43812V13.6974H8.47548C8.73758 13.6974 8.9681 13.5108 9.0237 13.2536C9.1641 12.6037 9.41723 11.9919 9.77608 11.4353C9.91863 11.2143 9.88755 10.9194 9.70221 10.7341L8.96923 10.0011L10.0004 8.96997L10.7333 9.70299C10.9186 9.88829 11.2135 9.91937 11.4345 9.77694C11.9912 9.41805 12.603 9.16488 13.2529 9.02452C13.51 8.96896 13.6967 8.7384 13.6967 8.4763V7.4389H15.1549V8.47626C15.1549 8.73836 15.3415 8.96892 15.5987 9.02448C16.2486 9.16484 16.8603 9.41801 17.417 9.7769C17.638 9.91933 17.9329 9.88833 18.1183 9.70295L18.8512 8.96994L19.8823 10.0011L19.1493 10.7342C18.964 10.9195 18.9329 11.2144 19.0754 11.4354C19.4342 11.992 19.6874 12.6038 19.8278 13.2537C19.8834 13.5109 20.1139 13.6976 20.376 13.6976H21.4134V15.1557H21.4134Z" fill="white"/>
</g>
</g>
</g>
</g>
</svg>
