<svg width="24" height="24" viewBox="0 0 24 24" fill="none" xmlns="http://www.w3.org/2000/svg">
<g id="Travel Expense">
<g id="Group">
<path id="Vector" d="M19.418 6.8125H14.9883V5.58203C14.9883 4.7097 14.2786 4 13.4062 4H10.5938C9.72142 4 9.01172 4.7097 9.01172 5.58203V6.8125H4.58203C3.7097 6.8125 3 7.5222 3 8.39453V10.0497C3 10.5995 3.28895 11.1021 3.73828 11.3872V18.9414C3.73828 20.0076 4.60569 20.875 5.67188 20.875H18.3281C19.3943 20.875 20.2617 20.0076 20.2617 18.9414V11.3872C20.7111 11.1021 21 10.5995 21 10.0497V8.39453C21 7.5222 20.2903 6.8125 19.418 6.8125ZM10.0664 5.58203C10.0664 5.29125 10.303 5.05469 10.5938 5.05469H13.4062C13.697 5.05469 13.9336 5.29125 13.9336 5.58203V6.8125H10.0664V5.58203ZM19.207 18.9414C19.207 19.426 18.8128 19.8203 18.3281 19.8203H5.67188C5.18725 19.8203 4.79297 19.426 4.79297 18.9414V11.7554L7.4441 12.5129C7.32049 12.9353 7.25391 13.3819 7.25391 13.8438C7.25391 16.4607 9.383 18.5898 12 18.5898C14.617 18.5898 16.7461 16.4607 16.7461 13.8438C16.7461 13.3819 16.6795 12.9353 16.5559 12.5129L19.207 11.7554V18.9414ZM8.30859 13.8438C8.30859 11.8083 9.96456 10.1523 12 10.1523C14.0354 10.1523 15.6914 11.8083 15.6914 13.8438C15.6914 15.8792 14.0354 17.5352 12 17.5352C9.96456 17.5352 8.30859 15.8792 8.30859 13.8438ZM19.9453 10.0497C19.9453 10.2839 19.788 10.4924 19.5628 10.5568L16.1445 11.5335C15.332 10.0815 13.7788 9.09766 12 9.09766C10.2212 9.09766 8.66803 10.0815 7.85546 11.5335L4.43712 10.5567C4.21198 10.4924 4.05469 10.2839 4.05469 10.0497V8.39453C4.05469 8.10375 4.29125 7.86719 4.58203 7.86719H19.418C19.7087 7.86719 19.9453 8.10375 19.9453 8.39453V10.0497Z" fill="white"/>
<path id="Vector_2" d="M10.624 16C11.0134 16.2547 11.2836 16.3367 11.6212 16.3602V16.6562C11.6212 16.8504 11.7786 17.0078 11.9728 17.0078C12.1669 17.0078 12.3244 16.8504 12.3244 16.6562V16.3285C12.9927 16.1765 13.4217 15.6136 13.5151 15.0583C13.6344 14.3488 13.2636 13.7321 12.5704 13.4871C12.4895 13.4585 12.4069 13.4287 12.3244 13.3977V11.9976C12.5075 12.0476 12.6007 12.1398 12.6072 12.1464C12.735 12.2915 12.956 12.3062 13.1019 12.1791C13.2483 12.0516 13.2636 11.8295 13.1361 11.6832C13.003 11.5304 12.7229 11.3379 12.3244 11.2798V11.0312C12.3244 10.8371 12.1669 10.6797 11.9728 10.6797C11.7786 10.6797 11.6212 10.8371 11.6212 11.0312V11.3206C11.5848 11.3296 11.5481 11.3392 11.5106 11.3505C11.0523 11.4886 10.71 11.8802 10.6173 12.3727C10.5324 12.8231 10.6776 13.2582 10.9962 13.508C11.1563 13.6337 11.3538 13.7487 11.6212 13.8694V15.655C11.4033 15.6333 11.2541 15.572 11.0089 15.4116C10.8464 15.3053 10.6285 15.3509 10.5222 15.5134C10.416 15.6758 10.4615 15.8937 10.624 16ZM12.3244 14.1458C12.3283 14.1473 12.332 14.1486 12.336 14.15C12.878 14.3416 12.8448 14.8044 12.8217 14.9417C12.7789 15.1963 12.6101 15.4657 12.3244 15.592V14.1458ZM11.4301 12.9548C11.3205 12.8689 11.2726 12.6915 11.3082 12.5029C11.3381 12.3444 11.4357 12.1567 11.6212 12.0612V13.0817C11.5505 13.0407 11.4858 12.9985 11.4301 12.9548Z" fill="white"/>
</g>
</g>
</svg>
