<svg width="90" height="79" viewBox="0 0 90 79" fill="none" xmlns="http://www.w3.org/2000/svg">
<g id="AMS" clip-path="url(#clip0_1850_44703)">
<g id="Group">
<g id="OBJECTS">
<g id="Group_2">
<path id="Vector" d="M95.9763 62.9831C95.9716 62.9091 95.9692 62.8351 95.9644 62.7587C93.0786 35.8208 69.4141 39.0063 52.6773 17.2836C35.9382 -4.44144 20.6432 5.40624 20.6432 5.40624C2.7503 18.4418 15.1595 33.5022 14.8716 40.7447C14.5838 47.9872 5.34823 56.9656 9.38789 72.3174C9.39502 72.3437 9.40216 72.3699 9.4093 72.3986C10.4061 76.1572 13.7392 78.7934 17.579 78.9701H51.8066V78.9796H80.8312C89.51 78.9796 96.4379 71.6822 95.9763 62.9831Z" fill="#DADFEE"/>
<path id="Vector_2" d="M69.2987 75.4742C68.1282 75.799 64.6928 73.8218 63.8554 73.7979C62.987 74.2755 62.8919 76.5416 62.7253 77.2675C62.5588 77.9935 70.1837 76.778 69.6413 77.6711C69.0989 78.5642 64.1314 77.7595 63.677 77.9099C63.4414 77.9863 63.4129 78.4472 63.5747 78.9295H72.3677C72.9934 78.3851 73.4383 77.8263 73.7119 77.4323C73.3907 77.9696 73.1433 78.4663 72.9529 78.9295H74.8062C74.9299 78.6454 75.0965 78.4448 75.2297 78.3612C75.3415 78.2896 75.5342 78.5427 75.8102 78.9295H84.0727C84.608 78.3923 84.9268 77.9409 84.903 77.7881C84.834 77.3487 80.4922 77.8765 79.7023 77.2699C78.9125 76.6634 78.941 76.162 79.9521 75.8014C80.9632 75.4408 84.5509 77.1123 85.6714 76.2694C86.792 75.4265 87.7531 73.4421 87.6389 72.8237C87.5271 72.2052 85.1861 73.9555 82.995 74.2994C80.8062 74.6433 79.3003 74.2134 79.6429 73.4445C79.9878 72.6756 85.0029 72.8977 86.4827 71.9664C87.9625 71.0352 88.1671 68.2843 87.9196 67.8903C87.6722 67.4939 82.1932 71.1498 80.9728 70.954C79.7499 70.7582 80.4518 69.9009 81.8459 69.7146C83.24 69.526 86.7848 68.0527 87.1036 67.0259C87.4224 65.9967 86.9204 63.764 86.4827 63.8309C86.0449 63.9001 85.1219 65.7221 84.1441 66.682C83.1639 67.6443 81.9387 68.2079 81.715 66.971C81.4914 65.734 85.2646 64.7359 85.8308 64.1031C86.397 63.4703 85.7095 60.9391 85.3812 60.5236C85.0529 60.1081 79.9997 58.9476 79.1123 59.5064C78.1203 60.889 77.9418 65.0009 78.3748 65.6934C78.8078 66.3859 78.558 67.8545 77.5017 66.9327C76.5001 65.7698 77.7943 60.4735 77.7682 60.2132C77.742 59.9529 76.7428 59.8932 75.7388 60.5953C74.7349 61.2973 75.0299 65.1776 75.5128 66.3907C75.9958 67.6037 76.4954 70.6006 74.5041 68.9553C72.5152 67.3124 73.6905 62.157 73.0243 61.751C72.3582 61.3427 70.9284 62.7945 70.3812 63.3461C69.834 63.8977 69.922 65.3591 70.5644 66.608C71.2091 67.8569 74.1996 70.665 72.7483 71.0949C71.2995 71.5247 69.351 64.8887 68.8086 64.681C68.2662 64.4708 66.9648 65.3591 66.4367 66.9327C65.9276 68.4252 71.3685 71.964 70.6286 72.9813C68.4399 73.3251 66.7293 68.609 65.8467 68.4061C64.964 68.2031 64.1575 69.8818 63.7412 70.9731C63.3225 72.0643 63.8744 72.6135 65.4113 73.6451C66.9482 74.6767 70.1456 74.734 69.3011 75.4719L69.2987 75.4742ZM75.7412 72.3939C75.5771 73.4899 74.4922 72.5419 74.4922 72.5419C74.5921 71.3432 75.9054 71.2978 75.7412 72.3939ZM72.7222 73.4445C73.9403 72.678 74.0378 74.531 73.2598 75.6605C72.4819 76.79 71.4399 76.0259 71.4399 76.0259C70.6452 75.319 71.5065 74.2111 72.7246 73.4445H72.7222Z" fill="#A1C2FF"/>
<path id="Vector_3" d="M14.7453 67.3481C15.7278 66.7702 17.7572 67.1833 16.432 68.6256C14.7738 69.9795 7.46296 67.9427 7.09896 67.9689C6.73735 67.9928 6.61126 69.3921 7.54385 70.8272C8.47644 72.2648 13.8888 72.014 15.5946 71.3884C17.3028 70.7628 21.4899 70.1921 19.1204 72.9095C16.7508 75.6269 9.63267 73.762 9.0379 74.6789C8.44313 75.5959 10.4011 77.659 11.1458 78.4518C11.4122 78.7336 11.8452 78.9055 12.3686 78.9747H13.4749C14.1862 78.8983 14.9618 78.6834 15.6898 78.3324C17.455 77.4823 21.4852 73.4133 22.0205 75.4598C22.3274 76.6298 19.4154 77.9336 16.8055 78.9747H23.0101C23.6763 78.4852 24.2235 78.2512 24.5542 78.5091C24.5732 78.6667 24.5708 78.8219 24.5542 78.9747H34.463C33.5256 76.6107 31.8365 75.0944 30.873 74.3804C36.5946 78.0602 39.2258 75.6126 40.0419 74.2228C40.8936 72.7758 40.1775 69.1318 39.3472 68.6758C38.5145 68.2197 38.4027 70.9323 36.3519 72.4224C34.3012 73.9124 32.555 72.8593 32.2266 72.2958C31.8983 71.7323 37.1013 69.9963 36.7492 66.3261C36.3971 62.6559 32.4527 58.6418 31.8389 58.7182C31.2251 58.7946 31.7746 64.9029 30.8991 65.9846C30.0236 67.0663 29.3266 67.0042 28.8674 65.5715C28.4082 64.1388 30.8848 59.1839 29.7595 57.5768C28.6343 55.9698 25.915 54.5418 25.0514 54.6731C24.1854 54.8045 26.5216 58.1595 26.9071 61.2398C27.2925 64.3226 26.6311 66.4144 25.5772 65.8986C24.5232 65.3828 25.0419 58.3648 23.8095 56.2539C22.5772 54.143 18.7611 53.7395 18.1997 54.069C17.6382 54.3985 22.4915 62.2284 22.168 63.9334C21.8444 65.636 20.6834 64.6163 20.4812 62.6559C20.279 60.6954 18.3781 55.6665 16.9626 55.1746C15.5446 54.6851 12.4162 55.294 12.4947 55.9101C12.5708 56.5261 15.0664 57.8968 16.363 59.308C17.6596 60.7217 18.3924 62.4624 16.6628 62.7251C14.9308 62.9878 13.7056 57.658 12.8492 56.8366C11.9927 56.0151 8.44313 56.8748 7.85313 57.3165C7.26312 57.7583 5.43362 64.7906 6.17351 66.0586C8.05535 67.5057 13.7651 67.9283 14.7477 67.3529L14.7453 67.3481ZM28.3868 74.9296C29.9237 76.0687 28.8198 77.4966 28.8198 77.4966C27.804 78.5807 26.298 77.3271 25.2822 75.5887C24.2687 73.8503 26.85 73.7906 28.3868 74.9296ZM23.9499 71.312C25.4677 71.5866 24.1045 73.0695 24.1045 73.0695C22.4439 72.8784 22.4344 71.0374 23.9499 71.312Z" fill="url(#paint0_linear_1850_44703)"/>
<g id="Group_3">
<path id="Vector_4" d="M65.4671 0H34.8771C32.0127 0 29.6836 2.33775 29.6836 5.21277V73.7644C29.6836 76.5344 31.8485 78.8053 34.5678 78.9677H51.8065V78.9772H65.4671C68.3315 78.9772 70.6606 76.6371 70.6606 73.7644V5.21277C70.6606 2.33775 68.3291 0 65.4671 0Z" fill="#2957A4"/>
<path id="Vector_5" d="M65.468 1.1582H60.4934L59.5869 2.76526C59.1111 3.61057 58.219 4.13352 57.2507 4.13352H43.0929C42.1246 4.13352 41.2324 3.61057 40.7566 2.76526L39.8502 1.1582H34.8756C32.644 1.1582 30.8359 2.973 30.8359 5.21285V73.7645C30.8359 76.0043 32.644 77.8192 34.8756 77.8192H65.4656C67.6972 77.8192 69.5053 76.0043 69.5053 73.7645V5.21285C69.5053 2.973 67.6972 1.1582 65.4656 1.1582H65.468Z" fill="#F2F2F2"/>
<path id="Vector_6" d="M54.9908 2.60766H45.4674C45.2557 2.60766 45.082 2.43573 45.082 2.22082C45.082 2.0083 45.2533 1.83398 45.4674 1.83398H54.9908C55.2026 1.83398 55.3762 2.00591 55.3762 2.22082C55.3762 2.43335 55.205 2.60766 54.9908 2.60766Z" fill="#E7E8FA"/>
<g id="Group_4">
<path id="Vector_7" d="M41.2847 44.0757H26.663C25.9193 44.0757 25.3164 44.6808 25.3164 45.4272V46.7788C25.3164 47.5252 25.9193 48.1303 26.663 48.1303H41.2847C42.0284 48.1303 42.6312 47.5252 42.6312 46.7788V45.4272C42.6312 44.6808 42.0284 44.0757 41.2847 44.0757Z" fill="white"/>
<path id="Vector_8" d="M41.1158 50.0144H26.8319C25.9949 50.0144 25.3164 50.6954 25.3164 51.5355V62.8302C25.3164 63.6703 25.9949 64.3513 26.8319 64.3513H41.1158C41.9527 64.3513 42.6312 63.6703 42.6312 62.8302V51.5355C42.6312 50.6954 41.9527 50.0144 41.1158 50.0144Z" fill="white"/>
<path id="Vector_9" d="M36.5346 46.6115H27.4442C27.2253 46.6115 27.0469 46.4324 27.0469 46.2127C27.0469 45.9931 27.2253 45.814 27.4442 45.814H36.5346C36.7535 45.814 36.9319 45.9931 36.9319 46.2127C36.9319 46.4324 36.7535 46.6115 36.5346 46.6115Z" fill="#A1C2FF"/>
<path id="Vector_10" d="M36.5346 53.8518H27.4442C27.2253 53.8518 27.0469 53.6727 27.0469 53.453C27.0469 53.2333 27.2253 53.0542 27.4442 53.0542H36.5346C36.7535 53.0542 36.9319 53.2333 36.9319 53.453C36.9319 53.6727 36.7535 53.8518 36.5346 53.8518Z" fill="#A1C2FF"/>
<path id="Vector_11" d="M36.5346 57.8347H27.4442C27.2253 57.8347 27.0469 57.6556 27.0469 57.4359C27.0469 57.2162 27.2253 57.0371 27.4442 57.0371H36.5346C36.7535 57.0371 36.9319 57.2162 36.9319 57.4359C36.9319 57.6556 36.7535 57.8347 36.5346 57.8347Z" fill="#A1C2FF"/>
<path id="Vector_12" d="M36.5346 61.8178H27.4442C27.2253 61.8178 27.0469 61.6387 27.0469 61.419C27.0469 61.1994 27.2253 61.0203 27.4442 61.0203H36.5346C36.7535 61.0203 36.9319 61.1994 36.9319 61.419C36.9319 61.6387 36.7535 61.8178 36.5346 61.8178Z" fill="#A1C2FF"/>
<path id="Vector_13" d="M40.3221 55.8073H27.4442C27.2253 55.8073 27.0469 55.6282 27.0469 55.4085C27.0469 55.1889 27.2253 55.0098 27.4442 55.0098H40.3221C40.5409 55.0098 40.7194 55.1889 40.7194 55.4085C40.7194 55.6282 40.5409 55.8073 40.3221 55.8073Z" fill="#A1C2FF"/>
<path id="Vector_14" d="M40.7202 46.6115H38.3387C38.1198 46.6115 37.9414 46.4324 37.9414 46.2127C37.9414 45.9931 38.1198 45.814 38.3387 45.814H40.7202C40.939 45.814 41.1175 45.9931 41.1175 46.2127C41.1175 46.4324 40.939 46.6115 40.7202 46.6115Z" fill="#A1C2FF"/>
<path id="Vector_15" d="M39.6422 61.8966L38.7001 62.3933C38.6121 62.441 38.5074 62.3646 38.524 62.2643L38.7048 61.2113C38.712 61.1731 38.6977 61.1325 38.6692 61.1038L37.9079 60.3588C37.8365 60.2895 37.8746 60.1654 37.9745 60.151L39.0284 59.9982C39.0688 59.9934 39.1022 59.9672 39.1188 59.9314L39.5899 58.9738C39.6351 58.8831 39.7612 58.8831 39.8064 58.9738L40.2774 59.9314C40.2941 59.9672 40.3297 59.9911 40.3678 59.9982L41.4217 60.151C41.5217 60.1654 41.5597 60.2872 41.4884 60.3588L40.7271 61.1038C40.6985 61.1325 40.6866 61.1707 40.6914 61.2113L40.8722 62.2643C40.8888 62.3646 40.7865 62.4387 40.6961 62.3933L39.754 61.8966C39.7183 61.8775 39.6779 61.8775 39.6422 61.8966Z" fill="url(#paint1_linear_1850_44703)"/>
</g>
<path id="Vector_16" opacity="0.08" d="M49.4079 9.7522H63.6443C65.1312 9.7522 66.3374 10.9629 66.3374 12.4553V54.7449C66.3374 56.2373 65.1312 57.448 63.6443 57.448H49.4079C47.921 57.448 46.7148 56.2373 46.7148 54.7449V12.4553C46.7148 10.9629 47.921 9.7522 49.4079 9.7522Z" fill="white"/>
<g id="Group_5">
<path id="Vector_17" d="M76.0512 64.5527C79.6951 60.8953 79.6951 54.9655 76.0512 51.3081C72.4073 47.6508 66.4995 47.6508 62.8556 51.3081C59.2117 54.9655 59.2117 60.8953 62.8556 64.5527C66.4995 68.2101 72.4073 68.2101 76.0512 64.5527Z" fill="#2957A4"/>
<path id="Vector_18" d="M69.5024 46.2487V57.9781H57.8164C57.8426 64.4087 63.0432 69.6119 69.4548 69.6119C75.8664 69.6119 81.0956 64.3824 81.0956 57.9279C81.0956 51.4734 75.9092 46.2726 69.5048 46.2463L69.5024 46.2487Z" fill="url(#paint2_linear_1850_44703)"/>
<path id="Vector_19" d="M69.4527 64.399C73.0121 64.399 75.8976 61.5029 75.8976 57.9302C75.8976 54.3576 73.0121 51.4614 69.4527 51.4614C65.8933 51.4614 63.0078 54.3576 63.0078 57.9302C63.0078 61.5029 65.8933 64.399 69.4527 64.399Z" fill="url(#paint3_linear_1850_44703)"/>
<path id="Vector_20" d="M69.4558 62.336C71.88 62.336 73.8452 60.3635 73.8452 57.9303C73.8452 55.4971 71.88 53.5247 69.4558 53.5247C67.0316 53.5247 65.0664 55.4971 65.0664 57.9303C65.0664 60.3635 67.0316 62.336 69.4558 62.336Z" fill="#A1C2FF"/>
<g id="Group_6">
<path id="Vector_21" d="M68.3126 57.4193L67.6203 58.9667H67.3871L68.0913 57.4193H67.2539V57.2283H68.3102V57.4193H68.3126Z" fill="white"/>
<path id="Vector_22" d="M69.6592 57.4193H68.9526L68.9455 57.8873C68.9788 57.8706 69.0145 57.8587 69.0549 57.8539C69.0954 57.8491 69.1334 57.8443 69.1691 57.8443C69.2524 57.8443 69.3285 57.8587 69.3951 57.8873C69.4618 57.916 69.5212 57.9566 69.5712 58.0067C69.6211 58.0592 69.6568 58.1189 69.683 58.1882C69.7092 58.2574 69.7211 58.3338 69.7211 58.415C69.7211 58.501 69.7068 58.5798 69.6759 58.6514C69.6449 58.7231 69.6045 58.7828 69.5522 58.8329C69.4998 58.8831 69.4356 58.9213 69.3642 58.9499C69.2905 58.9786 69.212 58.9905 69.1287 58.9905C68.9955 58.9905 68.8908 58.9619 68.8099 58.9045C68.729 58.8472 68.6648 58.7708 68.6172 58.6729L68.8218 58.5941C68.8503 58.6586 68.8932 58.7135 68.9503 58.7517C69.0074 58.7923 69.0716 58.8114 69.1453 58.8114C69.1977 58.8114 69.2453 58.8019 69.2905 58.7828C69.3357 58.7637 69.3737 58.7374 69.407 58.7016C69.4403 58.6658 69.4665 58.6252 69.4855 58.575C69.5046 58.5249 69.5141 58.4723 69.5141 58.4103C69.5141 58.3458 69.5022 58.2909 69.4808 58.2407C69.4594 58.1906 69.4284 58.15 69.3904 58.1165C69.3523 58.0831 69.3071 58.0568 69.2548 58.0401C69.2024 58.0234 69.1453 58.0139 69.0859 58.0139C69.0264 58.0139 68.9669 58.0234 68.9051 58.0449C68.8432 58.0664 68.7861 58.0903 68.7338 58.1213L68.7504 57.2163H69.6592V57.4073V57.4193Z" fill="white"/>
<path id="Vector_23" d="M69.9531 57.6269C69.9531 57.5672 69.965 57.5099 69.9864 57.4574C70.0078 57.4049 70.0388 57.3595 70.0768 57.3213C70.1149 57.2831 70.1601 57.252 70.2124 57.2305C70.2648 57.2091 70.3219 57.1971 70.3814 57.1971C70.4408 57.1971 70.4979 57.2091 70.5503 57.2305C70.6026 57.252 70.6478 57.2831 70.6859 57.3213C70.7239 57.3595 70.7549 57.4049 70.7763 57.4574C70.7977 57.5099 70.8096 57.5672 70.8096 57.6269C70.8096 57.6866 70.7977 57.7439 70.7763 57.7965C70.7549 57.849 70.7239 57.8944 70.6859 57.9326C70.6478 57.9708 70.6026 58.0018 70.5503 58.0233C70.4979 58.0448 70.4408 58.0568 70.3814 58.0568C70.3219 58.0568 70.2648 58.0448 70.2124 58.0233C70.1601 58.0018 70.1149 57.9708 70.0768 57.9326C70.0388 57.8944 70.0078 57.849 69.9864 57.7965C69.965 57.7439 69.9531 57.6866 69.9531 57.6269ZM70.1292 57.6269C70.1292 57.6604 70.1363 57.6938 70.1506 57.7248C70.1649 57.7559 70.1839 57.7822 70.2053 57.806C70.2291 57.8299 70.2553 57.849 70.2838 57.861C70.3124 57.8729 70.3457 57.8801 70.3814 57.8801C70.417 57.8801 70.448 57.8729 70.4789 57.861C70.5098 57.849 70.536 57.8299 70.5574 57.806C70.5812 57.7822 70.5978 57.7559 70.6121 57.7248C70.6264 57.6938 70.6335 57.6628 70.6335 57.6269C70.6335 57.5911 70.6264 57.5601 70.6121 57.529C70.5978 57.498 70.5788 57.4717 70.5574 57.4478C70.5336 57.424 70.5074 57.4049 70.4789 57.3929C70.448 57.381 70.417 57.3738 70.3814 57.3738C70.3457 57.3738 70.3147 57.381 70.2838 57.3929C70.2529 57.4073 70.2267 57.424 70.2053 57.4478C70.1815 57.4717 70.1649 57.498 70.1506 57.529C70.1363 57.5601 70.1292 57.5911 70.1292 57.6269ZM71.3639 57.147L71.4995 57.2258L70.4123 59.043L70.2767 58.9642L71.3639 57.147ZM70.95 58.5654C70.95 58.5057 70.9619 58.4484 70.9833 58.3958C71.0047 58.3433 71.0356 58.2979 71.0737 58.2597C71.1117 58.2215 71.1569 58.1905 71.2093 58.169C71.2616 58.1475 71.3187 58.1356 71.3782 58.1356C71.4377 58.1356 71.4948 58.1475 71.5471 58.169C71.5994 58.1905 71.6446 58.2215 71.6827 58.2597C71.7208 58.2979 71.7517 58.3433 71.7731 58.3958C71.7945 58.4484 71.8064 58.5057 71.8064 58.5654C71.8064 58.6251 71.7945 58.6824 71.7731 58.7349C71.7517 58.7875 71.7208 58.8328 71.6827 58.871C71.6446 58.9092 71.5994 58.9403 71.5471 58.9618C71.4948 58.9833 71.4377 58.9952 71.3782 58.9952C71.3187 58.9952 71.2616 58.9833 71.2093 58.9618C71.1569 58.9403 71.1117 58.9092 71.0737 58.871C71.0356 58.8328 71.0047 58.7875 70.9833 58.7349C70.9619 58.6824 70.95 58.6251 70.95 58.5654ZM71.126 58.5654C71.126 58.5988 71.1331 58.6322 71.1474 58.6633C71.1617 58.6943 71.1807 58.7206 71.2021 58.7445C71.2259 58.7683 71.2521 58.7875 71.2806 58.7994C71.3116 58.8113 71.3425 58.8185 71.3782 58.8185C71.4139 58.8185 71.4448 58.8113 71.4757 58.7994C71.5067 58.7851 71.5328 58.7683 71.5542 58.7445C71.578 58.7206 71.5947 58.6943 71.609 58.6633C71.6232 58.6322 71.6304 58.6012 71.6304 58.5654C71.6304 58.5296 71.6232 58.4985 71.609 58.4675C71.5947 58.4364 71.5756 58.4102 71.5542 58.3863C71.5304 58.3624 71.5043 58.3433 71.4757 58.3314C71.4472 58.3194 71.4139 58.3123 71.3782 58.3123C71.3425 58.3123 71.3116 58.3194 71.2806 58.3314C71.2497 58.3433 71.2235 58.3624 71.2021 58.3863C71.1783 58.4102 71.1617 58.4364 71.1474 58.4675C71.1331 58.4985 71.126 58.5296 71.126 58.5654Z" fill="white"/>
</g>
</g>
<g id="Group_7">
<g id="Vector_24" style="mix-blend-mode:multiply" opacity="0.31">
<path d="M70.6607 17.477H54.5068C53.4981 17.477 52.6797 18.2984 52.6797 19.3109V42.9654C52.6797 43.9778 53.4981 44.7993 54.5068 44.7993H70.6607V17.4746V17.477Z" fill="#2957A4"/>
</g>
<path id="Vector_25" d="M75.7177 15.6909H56.0927C55.0837 15.6909 54.2656 16.512 54.2656 17.5248V41.1817C54.2656 42.1945 55.0837 43.0156 56.0927 43.0156H75.7177C76.7267 43.0156 77.5448 42.1945 77.5448 41.1817V17.5248C77.5448 16.512 76.7267 15.6909 75.7177 15.6909Z" fill="url(#paint4_linear_1850_44703)"/>
<path id="Vector_26" d="M65.7152 20.6148V15.6909H56.0967C55.0879 15.6909 54.2695 16.5124 54.2695 17.5248V20.6148H65.7176H65.7152Z" fill="#A1C2FF"/>
<g id="Group_8">
<path id="Vector_27" d="M58.7205 17.7253H58.8822L59.5032 19.1891H59.301L59.1535 18.8285H58.4231L58.2732 19.1891H58.0781L58.7205 17.7253ZM58.799 17.9498H58.7942L58.4921 18.6686H59.0868L58.799 17.9498Z" fill="white"/>
<path id="Vector_28" d="M59.6992 17.7253H60.1322C60.1988 17.7253 60.2631 17.7325 60.3249 17.7444C60.3868 17.7564 60.4391 17.7803 60.4867 17.8113C60.5343 17.8423 60.5723 17.8829 60.6009 17.9355C60.6294 17.988 60.6437 18.0501 60.6437 18.1265C60.6437 18.2053 60.6294 18.2722 60.5985 18.3247C60.5676 18.3772 60.5295 18.4178 60.4819 18.4489C60.4344 18.4799 60.382 18.5014 60.3273 18.5133C60.2702 18.5253 60.2179 18.5324 60.1679 18.5324H59.8753V19.1891H59.7016V17.7253H59.6992ZM59.8729 18.3701H60.1655C60.2512 18.3701 60.3225 18.351 60.3773 18.3104C60.432 18.2722 60.4581 18.2101 60.4581 18.1265C60.4581 18.0429 60.432 17.9832 60.3773 17.9426C60.3225 17.9044 60.2535 17.8829 60.1655 17.8829H59.8729V18.3677V18.3701Z" fill="white"/>
<path id="Vector_29" d="M60.918 17.7253H61.2915C61.3605 17.7253 61.4318 17.7301 61.5008 17.7373C61.5698 17.7444 61.6317 17.7635 61.6864 17.7922C61.7411 17.8209 61.7863 17.8591 61.8196 17.914C61.8529 17.9689 61.872 18.0382 61.872 18.1289C61.872 18.2363 61.841 18.3223 61.7744 18.3892C61.7102 18.456 61.6198 18.4966 61.5056 18.5157L61.9196 19.1891H61.7078L61.3129 18.5324H61.0916V19.1891H60.918V17.7253ZM61.0916 18.3701H61.2463C61.2939 18.3701 61.3438 18.3701 61.3962 18.3653C61.4485 18.3629 61.4961 18.3534 61.5389 18.339C61.5817 18.3247 61.6174 18.3008 61.646 18.2674C61.6745 18.234 61.6888 18.1886 61.6888 18.1289C61.6888 18.0764 61.6793 18.0334 61.6579 18.0023C61.6364 17.9713 61.6103 17.9474 61.577 17.9283C61.5437 17.9116 61.5056 17.8997 61.4628 17.8949C61.4199 17.8901 61.3795 17.8877 61.3367 17.8877H61.094V18.3725L61.0916 18.3701Z" fill="white"/>
</g>
<g id="Group_9">
<path id="Vector_30" d="M68.8281 17.7253H69.0851L69.5799 18.8715H69.5847L70.0843 17.7253H70.3365V19.1891H70.1628V17.9617H70.158L69.6346 19.1891H69.53L69.0066 17.9617H69.0018V19.1891H68.8281V17.7253Z" fill="#93A5C9"/>
<path id="Vector_31" d="M71.1697 17.7253H71.3315L71.9524 19.1891H71.7502L71.6027 18.8285H70.8723L70.7224 19.1891H70.5273L71.1697 17.7253ZM71.2482 17.9498H71.2434L70.9413 18.6686H71.5361L71.2482 17.9498Z" fill="#93A5C9"/>
<path id="Vector_32" d="M72.3378 18.5587L71.793 17.7253H72.0142L72.4234 18.3868L72.8445 17.7253H73.0515L72.5067 18.5587V19.1891H72.333V18.5587H72.3378Z" fill="#93A5C9"/>
</g>
<g id="Group_10">
<path id="Vector_33" d="M59.4377 23.3657H56.9111C56.6129 23.3657 56.3711 23.6084 56.3711 23.9078V26.4437C56.3711 26.7431 56.6129 26.9858 56.9111 26.9858H59.4377C59.736 26.9858 59.9778 26.7431 59.9778 26.4437V23.9078C59.9778 23.6084 59.736 23.3657 59.4377 23.3657Z" fill="#A1C2FF"/>
<path id="Vector_34" d="M64.5588 23.3657H62.0322C61.734 23.3657 61.4922 23.6084 61.4922 23.9078V26.4437C61.4922 26.7431 61.734 26.9858 62.0322 26.9858H64.5588C64.8571 26.9858 65.0989 26.7431 65.0989 26.4437V23.9078C65.0989 23.6084 64.8571 23.3657 64.5588 23.3657Z" fill="#A1C2FF"/>
<path id="Vector_35" d="M69.6838 23.3657H67.1572C66.859 23.3657 66.6172 23.6084 66.6172 23.9078V26.4437C66.6172 26.7431 66.859 26.9858 67.1572 26.9858H69.6838C69.9821 26.9858 70.2239 26.7431 70.2239 26.4437V23.9078C70.2239 23.6084 69.9821 23.3657 69.6838 23.3657Z" fill="#A1C2FF"/>
<path id="Vector_36" d="M74.8049 23.3657H72.2783C71.9801 23.3657 71.7383 23.6084 71.7383 23.9078V26.4437C71.7383 26.7431 71.9801 26.9858 72.2783 26.9858H74.8049C75.1032 26.9858 75.3449 26.7431 75.3449 26.4437V23.9078C75.3449 23.6084 75.1032 23.3657 74.8049 23.3657Z" fill="#A1C2FF"/>
</g>
<g id="Group_11">
<path id="Vector_37" d="M59.4377 29.0129H56.9111C56.6129 29.0129 56.3711 29.2556 56.3711 29.555V32.0909C56.3711 32.3903 56.6129 32.633 56.9111 32.633H59.4377C59.736 32.633 59.9778 32.3903 59.9778 32.0909V29.555C59.9778 29.2556 59.736 29.0129 59.4377 29.0129Z" fill="#A1C2FF"/>
<path id="Vector_38" d="M64.5588 29.0129H62.0322C61.734 29.0129 61.4922 29.2556 61.4922 29.555V32.0909C61.4922 32.3903 61.734 32.633 62.0322 32.633H64.5588C64.8571 32.633 65.0989 32.3903 65.0989 32.0909V29.555C65.0989 29.2556 64.8571 29.0129 64.5588 29.0129Z" fill="#A1C2FF"/>
<path id="Vector_39" d="M69.6838 29.0129H67.1572C66.859 29.0129 66.6172 29.2556 66.6172 29.555V32.0909C66.6172 32.3903 66.859 32.633 67.1572 32.633H69.6838C69.9821 32.633 70.2239 32.3903 70.2239 32.0909V29.555C70.2239 29.2556 69.9821 29.0129 69.6838 29.0129Z" fill="#F59630"/>
<path id="Vector_40" d="M74.8049 29.0129H72.2783C71.9801 29.0129 71.7383 29.2556 71.7383 29.555V32.0909C71.7383 32.3903 71.9801 32.633 72.2783 32.633H74.8049C75.1032 32.633 75.3449 32.3903 75.3449 32.0909V29.555C75.3449 29.2556 75.1032 29.0129 74.8049 29.0129Z" fill="#A1C2FF"/>
</g>
<g id="Group_12">
<path id="Vector_41" d="M59.4377 34.6628H56.9111C56.6129 34.6628 56.3711 34.9055 56.3711 35.2049V37.7408C56.3711 38.0402 56.6129 38.2829 56.9111 38.2829H59.4377C59.736 38.2829 59.9778 38.0402 59.9778 37.7408V35.2049C59.9778 34.9055 59.736 34.6628 59.4377 34.6628Z" fill="#A1C2FF"/>
<path id="Vector_42" d="M64.5588 34.6628H62.0322C61.734 34.6628 61.4922 34.9055 61.4922 35.2049V37.7408C61.4922 38.0402 61.734 38.2829 62.0322 38.2829H64.5588C64.8571 38.2829 65.0989 38.0402 65.0989 37.7408V35.2049C65.0989 34.9055 64.8571 34.6628 64.5588 34.6628Z" fill="#A1C2FF"/>
<path id="Vector_43" d="M69.6838 34.6628H67.1572C66.859 34.6628 66.6172 34.9055 66.6172 35.2049V37.7408C66.6172 38.0402 66.859 38.2829 67.1572 38.2829H69.6838C69.9821 38.2829 70.2239 38.0402 70.2239 37.7408V35.2049C70.2239 34.9055 69.9821 34.6628 69.6838 34.6628Z" fill="#A1C2FF"/>
<path id="Vector_44" d="M74.8049 34.6628H72.2783C71.9801 34.6628 71.7383 34.9055 71.7383 35.2049V37.7408C71.7383 38.0402 71.9801 38.2829 72.2783 38.2829H74.8049C75.1032 38.2829 75.3449 38.0402 75.3449 37.7408V35.2049C75.3449 34.9055 75.1032 34.6628 74.8049 34.6628Z" fill="#A1C2FF"/>
</g>
</g>
<g id="Group_13" opacity="0.08">
<path id="Vector_45" d="M43.709 10.041H33.9001C33.4612 10.041 33.1055 10.3981 33.1055 10.8386V12.14C33.1055 12.5805 33.4612 12.9375 33.9001 12.9375H43.709C44.1478 12.9375 44.5036 12.5805 44.5036 12.14V10.8386C44.5036 10.3981 44.1478 10.041 43.709 10.041Z" fill="white"/>
<path id="Vector_46" d="M43.709 14.387H33.9001C33.4612 14.387 33.1055 14.744 33.1055 15.1845V16.4859C33.1055 16.9264 33.4612 17.2835 33.9001 17.2835H43.709C44.1478 17.2835 44.5036 16.9264 44.5036 16.4859V15.1845C44.5036 14.744 44.1478 14.387 43.709 14.387Z" fill="white"/>
</g>
<g id="Vector_47" style="mix-blend-mode:multiply" opacity="0.31">
<path d="M34.1158 16.2209C32.5599 16.2209 31.0682 16.4932 29.6836 16.9898V41.9075C31.0682 42.4042 32.5599 42.6764 34.1158 42.6764C41.3933 42.6764 47.2934 36.7544 47.2934 29.4499C47.2934 22.1453 41.3933 16.2233 34.1158 16.2233V16.2209Z" fill="#2957A4"/>
</g>
<g id="Group_14">
<path id="Vector_48" d="M34.1148 41.8074C40.9157 41.8074 46.4289 36.2737 46.4289 29.4476C46.4289 22.6215 40.9157 17.0879 34.1148 17.0879C27.314 17.0879 21.8008 22.6215 21.8008 29.4476C21.8008 36.2737 27.314 41.8074 34.1148 41.8074Z" fill="#A1C2FF"/>
<g id="Group_15">
<g id="Group_16">
<path id="Vector_49" d="M34.1141 40.5991C40.2501 40.5991 45.2244 35.6064 45.2244 29.4476C45.2244 23.2888 40.2501 18.2961 34.1141 18.2961C27.9781 18.2961 23.0039 23.2888 23.0039 29.4476C23.0039 35.6064 27.9781 40.5991 34.1141 40.5991Z" fill="white"/>
<g id="Clip path group">
<mask id="mask0_1850_44703" style="mask-type:luminance" maskUnits="userSpaceOnUse" x="23" y="18" width="23" height="23">
<g id="clippath">
<path id="Vector_50" d="M34.1141 40.5991C40.2501 40.5991 45.2244 35.6064 45.2244 29.4476C45.2244 23.2888 40.2501 18.2961 34.1141 18.2961C27.9781 18.2961 23.0039 23.2888 23.0039 29.4476C23.0039 35.6064 27.9781 40.5991 34.1141 40.5991Z" fill="white"/>
</g>
</mask>
<g mask="url(#mask0_1850_44703)">
<g id="Group_17">
<g id="Group_18">
<g id="Group_19">
<g id="Group_20">
<path id="Vector_51" d="M35.6582 29.2996C35.6582 29.2996 34.7566 31.7113 35.3585 33.2945C35.5845 34.8013 31.3046 33.6718 30.6289 31.7877C30.8549 30.5819 31.6805 29.7533 31.7542 27.3415C31.8303 24.9297 35.7344 27.7188 35.6582 29.3019V29.2996Z" fill="url(#paint5_linear_1850_44703)"/>
<g id="Vector_52" style="mix-blend-mode:multiply" opacity="0.32">
<path d="M31.5258 29.1205C31.5972 28.8316 31.6567 28.5116 31.6971 28.151L34.0833 27.0359C34.9374 27.6544 35.6916 28.5952 35.6583 29.2996C35.6583 29.2996 35.2419 30.4148 35.1634 31.623C32.9461 31.1717 31.9493 29.9324 31.5234 29.1205H31.5258Z" fill="#FFAC69"/>
</g>
</g>
<g id="Group_21">
<path id="Vector_53" d="M37.477 25.5841C37.477 25.5841 38.5309 28.5666 37.5126 29.7725C35.9211 31.6541 33.4468 30.6249 32.4571 29.4883C31.4674 28.3517 31.5031 23.6332 33.1637 22.8882C34.8267 22.1431 36.7704 22.6756 37.477 25.5865V25.5841Z" fill="url(#paint6_linear_1850_44703)"/>
<g id="Vector_54" style="mix-blend-mode:multiply" opacity="0.32">
<path d="M32.0977 24.4116C32.1286 24.3137 32.1595 24.2182 32.1952 24.125L33.0945 23.1651L35.9018 22.9932C36.3038 23.2558 36.6702 23.6498 36.9652 24.1967C36.3371 24.4259 35.1928 24.7721 34.2602 24.6599C33.3205 24.562 33.4513 24.6599 33.4513 24.6599C33.4513 24.6599 33.8391 25.5387 33.3229 26.4484C32.8042 27.3582 32.2856 27.8143 32.5449 28.5617C32.3189 28.1367 32.1429 25.1614 32.1 24.4092L32.0977 24.4116Z" fill="#FFAC69"/>
</g>
<path id="Vector_55" d="M32.918 24.3375C32.918 24.3375 33.5128 25.2807 32.604 26.9714C32.604 26.9714 32.3113 27.7833 32.6159 28.5426C32.6587 28.9318 31.7951 28.1319 31.6666 27.7833C31.5381 27.523 30.7388 27.8907 30.489 27.5445C30.2415 27.1982 30.6722 26.8066 30.6722 26.8066C30.6722 26.8066 29.5064 25.5936 29.6349 24.5954C29.7634 23.5973 30.9315 23.6856 30.9315 23.6856C30.9315 23.6856 30.2844 23.3824 30.1107 23.0361C29.9822 22.7329 30.9743 23.2964 31.0599 23.5137C31.0599 23.5137 30.9743 23.1675 31.2336 22.8642C31.4073 22.6469 31.2764 23.5137 31.2764 23.5137C31.2764 23.5137 31.4501 22.9931 32.0116 22.3436C32.573 21.6941 33.5651 22.1263 34.3431 21.6511C35.121 21.1736 34.9902 20.2638 35.5088 20.2208C36.0274 20.1778 37.1385 21.0231 36.9124 22.5824C36.9124 22.5824 37.1075 21.964 37.0409 21.0876C37.236 20.9897 37.7546 22.4535 36.8458 23.1364C36.8458 23.1364 37.3645 23.0075 37.6547 22.2577C37.8807 21.7371 38.2043 23.4277 36.3914 23.9817C34.5786 24.5333 33.4557 23.9483 32.9156 24.3399L32.918 24.3375Z" fill="url(#paint7_linear_1850_44703)"/>
</g>
<path id="Vector_56" d="M33.1289 28.2512C33.1289 28.7694 33.5476 29.1873 34.0615 29.1873C34.5754 29.1873 34.9941 28.767 34.9941 28.2512C34.9941 27.7355 34.5754 27.3152 34.0615 27.3152C33.5476 27.3152 33.1289 27.7355 33.1289 28.2512Z" fill="#FE947B"/>
<g id="Group_22">
<path id="Vector_57" d="M31.9091 28.0436C31.9091 28.0436 31.0955 26.8783 30.6197 27.523C30.1367 28.1749 32.0899 29.3283 32.1423 28.7886C32.1851 28.3373 31.9115 28.046 31.9115 28.046L31.9091 28.0436Z" fill="url(#paint8_linear_1850_44703)"/>
<path id="Vector_58" d="M31.7145 28.4664C31.7145 28.4664 31.3101 27.7189 30.7915 27.7189C30.6463 27.59 31.0674 27.6378 31.2935 27.8168C31.5195 27.9959 31.8763 28.3207 31.7145 28.4664Z" fill="#FF8154"/>
<path id="Vector_59" d="M31.7297 28.335C31.7297 28.335 31.2444 27.8574 30.9946 28.0198C30.8756 28.2156 31.8368 28.6908 31.7297 28.335Z" fill="#FF8154"/>
</g>
</g>
<path id="Vector_60" d="M39.6734 55.712C39.5259 54.6899 39.2428 40.5345 39.2428 38.6194C39.2428 36.5133 38.3863 35.2238 38.3863 35.2238C37.9153 34.4072 36.4593 33.6335 35.9882 33.3326C35.5172 33.0317 35.2174 32.6879 35.2174 32.6879C35.2174 32.6879 35.3031 33.2037 34.6607 33.6765C32.3054 33.9344 30.7638 31.4414 30.7638 31.4414C30.7638 31.4414 27.1238 33.0747 26.4839 34.88C25.2943 38.309 25.0326 54.5085 24.9922 55.7096H39.6734V55.712Z" fill="url(#paint9_linear_1850_44703)"/>
</g>
</g>
</g>
</g>
</g>
<g id="Group_23">
<path id="Vector_61" d="M43.4471 26.6465C45.1999 26.6465 46.6208 25.2204 46.6208 23.4611C46.6208 21.7018 45.1999 20.2756 43.4471 20.2756C41.6943 20.2756 40.2734 21.7018 40.2734 23.4611C40.2734 25.2204 41.6943 26.6465 43.4471 26.6465Z" fill="url(#paint10_linear_1850_44703)"/>
<path id="Vector_62" d="M42.1953 23.5112L43.204 24.5237L45.1168 22.6062" stroke="white" stroke-width="2" stroke-linecap="round" stroke-linejoin="round"/>
</g>
</g>
</g>
<g id="Group_24">
<g id="Vector_63" style="mix-blend-mode:multiply" opacity="0.31">
<path d="M46.2332 67.6824H29.6797V73.0408H46.2332C46.7114 73.0408 47.0992 72.6516 47.0992 72.1716V68.5516C47.0992 68.0716 46.7114 67.6824 46.2332 67.6824Z" fill="#2957A4"/>
</g>
<g id="Group_25">
<path id="Vector_64" d="M45.2235 66.6699H26.0339C25.5557 66.6699 25.168 67.0591 25.168 67.5391V71.1592C25.168 71.6392 25.5557 72.0284 26.0339 72.0284H45.2235C45.7017 72.0284 46.0895 71.6392 46.0895 71.1592V67.5391C46.0895 67.0591 45.7017 66.6699 45.2235 66.6699Z" fill="white"/>
<g id="Group_26">
<g id="Group_27">
<path id="Vector_65" d="M28.8978 71.3286C27.8772 71.3286 27.0469 70.4952 27.0469 69.4708C27.0469 68.4464 27.8772 67.613 28.8978 67.613C29.9184 67.613 30.7487 68.4464 30.7487 69.4708C30.7487 70.4952 29.9184 71.3286 28.8978 71.3286ZM28.8978 68.1909C28.196 68.1909 27.6226 68.764 27.6226 69.4708C27.6226 70.1776 28.1936 70.7507 28.8978 70.7507C29.602 70.7507 30.173 70.1776 30.173 69.4708C30.173 68.764 29.602 68.1909 28.8978 68.1909Z" fill="#A1C2FF"/>
<path id="Vector_66" d="M29.2818 69.7478H28.8131C28.7322 69.7478 28.668 69.6833 28.668 69.6021V68.6613C28.668 68.5801 28.7322 68.5156 28.8131 68.5156C28.894 68.5156 28.9582 68.5801 28.9582 68.6613V69.4588H29.2818C29.3627 69.4588 29.4269 69.5233 29.4269 69.6045C29.4269 69.6857 29.3627 69.7502 29.2818 69.7502V69.7478Z" fill="#A1C2FF"/>
</g>
<g id="Group_28">
<path id="Vector_67" d="M33.3086 69.7265C33.3086 70.3067 33.0945 70.6267 32.7162 70.6267C32.3831 70.6267 32.1595 70.3139 32.1523 69.7504C32.1523 69.1773 32.3974 68.8621 32.7447 68.8621C33.0921 68.8621 33.3086 69.182 33.3086 69.7265ZM32.3855 69.7527C32.3855 70.1969 32.5211 70.45 32.7305 70.45C32.966 70.45 33.0778 70.173 33.0778 69.7384C33.0778 69.3038 32.9707 69.0412 32.7328 69.0412C32.5306 69.0412 32.3855 69.2871 32.3855 69.7527Z" fill="#93A5C9"/>
<path id="Vector_68" d="M33.5751 70.333C33.6393 70.3759 33.7916 70.4404 33.951 70.4404C34.246 70.4404 34.3388 70.2518 34.3364 70.1085C34.334 69.8697 34.1199 69.767 33.8963 69.767H33.7678V69.5927H33.8963C34.0628 69.5927 34.2769 69.5067 34.2769 69.3038C34.2769 69.1677 34.1913 69.0459 33.9795 69.0459C33.8439 69.0459 33.7131 69.1056 33.6393 69.1581L33.5799 68.991C33.6679 68.9241 33.8416 68.8596 34.0247 68.8596C34.3602 68.8596 34.5125 69.0602 34.5125 69.2679C34.5125 69.4447 34.4078 69.5927 34.1984 69.6691V69.6739C34.4078 69.7169 34.5791 69.8745 34.5791 70.1133C34.5791 70.3855 34.3673 70.6267 33.9581 70.6267C33.7678 70.6267 33.5989 70.567 33.5156 70.512L33.5775 70.333H33.5751Z" fill="#93A5C9"/>
<path id="Vector_69" d="M34.8828 69.5378C34.8828 69.4399 34.947 69.373 35.0398 69.373C35.1326 69.373 35.1921 69.4423 35.1945 69.5378C35.1945 69.6286 35.135 69.7002 35.0375 69.7002C34.9447 69.7002 34.8828 69.6286 34.8828 69.5378ZM34.8828 70.4643C34.8828 70.3664 34.947 70.2996 35.0398 70.2996C35.1326 70.2996 35.1921 70.3688 35.1945 70.4643C35.1945 70.5574 35.135 70.6267 35.0375 70.6267C34.9447 70.6267 34.8828 70.5551 34.8828 70.4643Z" fill="#93A5C9"/>
<path id="Vector_70" d="M36.5351 69.7265C36.5351 70.3067 36.321 70.6267 35.9427 70.6267C35.6097 70.6267 35.386 70.3139 35.3789 69.7504C35.3789 69.1773 35.6239 68.8621 35.9713 68.8621C36.3186 68.8621 36.5351 69.182 36.5351 69.7265ZM35.6121 69.7527C35.6121 70.1969 35.7477 70.45 35.957 70.45C36.1925 70.45 36.3044 70.173 36.3044 69.7384C36.3044 69.3038 36.1973 69.0412 35.9594 69.0412C35.7572 69.0412 35.6121 69.2871 35.6121 69.7527Z" fill="#93A5C9"/>
<path id="Vector_71" d="M37.8789 69.7265C37.8789 70.3067 37.6648 70.6267 37.2865 70.6267C36.9534 70.6267 36.7298 70.3139 36.7227 69.7504C36.7227 69.1773 36.9677 68.8621 37.315 68.8621C37.6624 68.8621 37.8789 69.182 37.8789 69.7265ZM36.9558 69.7527C36.9558 70.1969 37.0914 70.45 37.3008 70.45C37.5363 70.45 37.6481 70.173 37.6481 69.7384C37.6481 69.3038 37.5411 69.0412 37.3031 69.0412C37.1009 69.0412 36.9558 69.2871 36.9558 69.7527Z" fill="#93A5C9"/>
<path id="Vector_72" d="M38.7266 68.8501C38.836 68.831 38.9811 68.8167 39.1643 68.8167C39.3903 68.8167 39.5545 68.8692 39.6592 68.9647C39.7567 69.0483 39.8138 69.1772 39.8138 69.3348C39.8138 69.4924 39.7662 69.6214 39.6782 69.7121C39.5569 69.8411 39.3618 69.9055 39.1381 69.9055C39.0691 69.9055 39.0073 69.9031 38.955 69.8888V70.598H38.7266V68.8477V68.8501ZM38.955 69.7049C39.0049 69.7193 39.0668 69.724 39.1429 69.724C39.4189 69.724 39.5854 69.5903 39.5854 69.3468C39.5854 69.1032 39.4212 69.0005 39.1691 69.0005C39.0691 69.0005 38.993 69.0077 38.955 69.0196V69.7073V69.7049Z" fill="#5A6A90"/>
<path id="Vector_73" d="M41.5775 69.822C41.5632 69.5761 41.5489 69.2776 41.5513 69.0579H41.5442C41.4847 69.2657 41.4109 69.4853 41.3205 69.7313L41.0089 70.5909H40.8352L40.5497 69.748C40.4664 69.4973 40.3951 69.2704 40.3451 69.0603H40.3404C40.3356 69.28 40.3213 69.5785 40.307 69.8435L40.2595 70.6029H40.043L40.1667 68.8311H40.4569L40.7591 69.6883C40.8328 69.9056 40.8923 70.1014 40.9375 70.2853H40.9446C40.9898 70.1062 41.0517 69.9128 41.1302 69.6883L41.4442 68.8311H41.7345L41.8439 70.6029H41.6203L41.5751 69.8244L41.5775 69.822Z" fill="#5A6A90"/>
</g>
</g>
</g>
<path id="Vector_74" d="M47.4609 66.018C47.4609 66.338 47.2016 66.5983 46.8828 66.5983C46.564 66.5983 46.3047 66.338 46.3047 66.018C46.3047 65.698 46.564 65.4377 46.8828 65.4377C47.2016 65.4377 47.4609 65.698 47.4609 66.018Z" fill="white"/>
</g>
<g id="Group_29">
<path id="Vector_75" opacity="0.44" d="M62.4674 46.8291H51.9352C51.4964 46.8291 51.1406 47.1856 51.1406 47.6255C51.1406 48.0653 51.4964 48.4218 51.9352 48.4218H62.4674C62.9062 48.4218 63.262 48.0653 63.262 47.6255C63.262 47.1856 62.9062 46.8291 62.4674 46.8291Z" stroke="white" stroke-miterlimit="10"/>
<path id="Vector_76" opacity="0.44" d="M55.1089 50.9555H51.9352C51.4975 50.9555 51.1406 50.5997 51.1406 50.1579C51.1406 49.7185 51.4951 49.3604 51.9352 49.3604H55.1089C55.5467 49.3604 55.9035 49.7161 55.9035 50.1579C55.9035 50.5973 55.549 50.9555 55.1089 50.9555Z" stroke="white" stroke-miterlimit="10"/>
</g>
<path id="Vector_77" d="M25.8416 18.2483C25.8416 18.6758 25.4966 19.0196 25.0731 19.0196C24.6497 19.0196 24.3047 18.6734 24.3047 18.2483C24.3047 17.8233 24.6497 17.4771 25.0731 17.4771C25.4966 17.4771 25.8416 17.8233 25.8416 18.2483Z" fill="#A1C2FF"/>
</g>
</g>
</g>
</g>
</g>
<defs>
<linearGradient id="paint0_linear_1850_44703" x1="5.94915" y1="63.4369" x2="40.5803" y2="72.45" gradientUnits="userSpaceOnUse">
<stop stop-color="#5985E7"/>
<stop offset="1" stop-color="#5CA5EE"/>
</linearGradient>
<linearGradient id="paint1_linear_1850_44703" x1="37.8698" y1="60.6573" x2="41.5264" y2="60.6573" gradientUnits="userSpaceOnUse">
<stop stop-color="#F59630"/>
<stop offset="1" stop-color="#FFBD5F"/>
</linearGradient>
<linearGradient id="paint2_linear_1850_44703" x1="57.8164" y1="57.9327" x2="81.0956" y2="57.9327" gradientUnits="userSpaceOnUse">
<stop stop-color="#F59630"/>
<stop offset="1" stop-color="#FFBD5F"/>
</linearGradient>
<linearGradient id="paint3_linear_1850_44703" x1="63.0078" y1="57.9302" x2="75.8976" y2="57.9302" gradientUnits="userSpaceOnUse">
<stop stop-color="#D5E0F5"/>
<stop offset="1" stop-color="white"/>
</linearGradient>
<linearGradient id="paint4_linear_1850_44703" x1="57.2847" y1="45.031" x2="70.6354" y2="20.9336" gradientUnits="userSpaceOnUse">
<stop stop-color="#D9E3F6"/>
<stop offset="0.12" stop-color="#EAEFFA"/>
<stop offset="0.26" stop-color="#F6F8FD"/>
<stop offset="0.46" stop-color="#FDFDFE"/>
<stop offset="1" stop-color="white"/>
</linearGradient>
<linearGradient id="paint5_linear_1850_44703" x1="32.054" y1="33.07" x2="34.016" y2="29.4585" gradientUnits="userSpaceOnUse">
<stop stop-color="#FFD48F"/>
<stop offset="0.26" stop-color="#FED18B"/>
<stop offset="0.48" stop-color="#FDC881"/>
<stop offset="0.67" stop-color="#FBBA70"/>
<stop offset="0.85" stop-color="#F8A759"/>
<stop offset="1" stop-color="#F59240"/>
</linearGradient>
<linearGradient id="paint6_linear_1850_44703" x1="35.538" y1="23.7765" x2="34.1986" y2="30.635" gradientUnits="userSpaceOnUse">
<stop stop-color="#FFD48F"/>
<stop offset="0.26" stop-color="#FED18B"/>
<stop offset="0.48" stop-color="#FDC881"/>
<stop offset="0.67" stop-color="#FBBA70"/>
<stop offset="0.85" stop-color="#F8A759"/>
<stop offset="1" stop-color="#F59240"/>
</linearGradient>
<linearGradient id="paint7_linear_1850_44703" x1="34.8569" y1="21.7204" x2="30.8627" y2="26.9977" gradientUnits="userSpaceOnUse">
<stop stop-color="#B64716"/>
<stop offset="1" stop-color="#7C2E00"/>
</linearGradient>
<linearGradient id="paint8_linear_1850_44703" x1="32.1494" y1="24.0797" x2="31.1119" y2="29.4033" gradientUnits="userSpaceOnUse">
<stop stop-color="#FFD48F"/>
<stop offset="0.26" stop-color="#FED18B"/>
<stop offset="0.48" stop-color="#FDC881"/>
<stop offset="0.67" stop-color="#FBBA70"/>
<stop offset="0.85" stop-color="#F8A759"/>
<stop offset="1" stop-color="#F59240"/>
</linearGradient>
<linearGradient id="paint9_linear_1850_44703" x1="24.5521" y1="56.0749" x2="38.2203" y2="38.7641" gradientUnits="userSpaceOnUse">
<stop stop-color="#2957A4"/>
<stop offset="1" stop-color="#2162CA"/>
</linearGradient>
<linearGradient id="paint10_linear_1850_44703" x1="40.2711" y1="23.4611" x2="46.6208" y2="23.4611" gradientUnits="userSpaceOnUse">
<stop stop-color="#F59630"/>
<stop offset="1" stop-color="#FFBD5F"/>
</linearGradient>
<clipPath id="clip0_1850_44703">
<rect width="90" height="78.9796" fill="white"/>
</clipPath>
</defs>
</svg>
