<svg width="18" height="18" viewBox="0 0 18 18" fill="none" xmlns="http://www.w3.org/2000/svg">
<g id="Frame 629016">
<g id="Group 47362">
<path id="Vector" d="M8.89886 1.62243C10.164 1.62243 11.4312 1.98156 12.5635 2.66107C13.2816 3.09316 13.9269 3.63619 14.4751 4.27029L12.5836 4.2079C12.3615 4.20048 12.1754 4.3747 12.1681 4.59697C12.1608 4.81911 12.3349 5.00528 12.5572 5.01245L15.1742 5.09887C15.3245 5.16076 15.4974 5.12616 15.6124 5.01107C15.7272 4.89597 15.7615 4.72314 15.6994 4.57282L15.6132 1.9564C15.6082 1.73413 15.4239 1.55803 15.2017 1.56293C14.9795 1.56797 14.8032 1.75225 14.8082 1.97439C14.8082 1.97741 14.8082 1.98018 14.8084 1.98307L14.8582 3.49254C14.3045 2.90083 13.6717 2.38849 12.9777 1.97049C11.7204 1.21613 10.31 0.817383 8.89886 0.817383C6.64472 0.817383 4.56643 1.74684 3.04766 3.43443C1.70222 4.92943 0.898926 6.94168 0.898926 8.81732C0.898926 9.03959 1.07906 9.21984 1.30145 9.21984C1.52385 9.21984 1.70398 9.03959 1.70398 8.81732C1.70398 7.13514 2.42991 5.32416 3.64603 3.97305C5.01034 2.45742 6.87567 1.62243 8.89886 1.62243Z" fill="#667085" stroke="#667085"/>
<path id="Vector_2" d="M16.5975 8.41504C16.3751 8.41504 16.1949 8.59517 16.1949 8.81756C16.1949 10.4996 15.469 12.3107 14.2529 13.662C12.8886 15.1776 11.0232 16.0123 9.00005 16.0123C7.73487 16.0123 6.46767 15.6534 5.33544 14.9739C4.61731 14.5417 3.97201 13.9987 3.42382 13.3647L5.31531 13.4271C5.53746 13.4343 5.7235 13.2601 5.7308 13.0379C5.73809 12.8158 5.564 12.6297 5.34173 12.6223L2.72469 12.536C2.57437 12.4741 2.40154 12.5088 2.28656 12.6238C2.17172 12.7389 2.13738 12.9116 2.19952 13.0619L2.28568 15.6784C2.29072 15.9007 2.475 16.077 2.69727 16.0719C2.91941 16.067 3.09577 15.8828 3.09073 15.6605C3.09073 15.6576 3.09073 15.6548 3.09048 15.6518L3.04067 14.1423C3.59439 14.7342 4.22724 15.2463 4.92122 15.6645C6.17848 16.419 7.58895 16.8176 9.00005 16.8176C11.2542 16.8176 13.3325 15.8883 14.8513 14.2007C16.1967 12.7056 17 10.6933 17 8.81756C17 8.59517 16.8199 8.41504 16.5975 8.41504Z" fill="#667085" stroke="#667085"/>
</g>
</g>
</svg>
