<svg width="90" height="59" viewBox="0 0 90 59" fill="none" xmlns="http://www.w3.org/2000/svg">
<g id="Cloud Software" clip-path="url(#clip0_1850_36468)">
<g id="Group">
<g id="OBJECTS">
<g id="Group_2">
<path id="Vector" d="M45.5807 49.8475C44.1798 49.8475 43.044 48.7653 43.044 47.4313C43.044 46.0973 44.1798 45.0151 45.5807 45.0151H89.7107V40.4585C89.7107 39.6066 89.4399 38.8145 88.9782 38.1561C89.6166 37.435 90.0014 36.505 90.0014 35.4881V35.0743C90.0014 33.6024 89.1948 32.3111 87.982 31.5772C89.115 30.8292 89.8561 29.5834 89.8561 28.1712V20.5769C89.8561 19.9341 89.7021 19.3254 89.4271 18.7822H61.9581C61.1971 18.7822 60.5814 18.1948 60.5814 17.471C60.5814 16.7471 61.1985 16.1598 61.9581 16.1598H86.2263C87.5289 15.4444 88.4067 14.1048 88.4067 12.5703V12.0185C88.4067 9.73024 86.46 7.87576 84.0587 7.87576H73.2949C74.1214 7.12203 74.6373 6.05968 74.6373 4.88357V4.14832C74.6373 1.86009 72.6906 0.00561523 70.2893 0.00561523H57.536C56.4729 0.00561523 55.5009 0.369684 54.7456 0.972673H18.9853C16.584 0.972673 14.6373 2.82715 14.6373 5.11538V6.63423C14.6373 7.06656 14.7071 7.48467 14.8368 7.87718H7.24669C4.84538 7.87718 2.89867 9.73166 2.89867 12.0199V12.5717C2.89867 14.3351 4.05586 15.8398 5.68619 16.4385H5.21733C2.81602 16.4385 0.869317 18.293 0.869317 20.5812V28.1755C0.869317 29.3046 1.3453 30.3286 2.11629 31.0752H31.0147C31.5747 31.0752 32.0294 31.5075 32.0294 32.0423C32.0294 32.577 31.5747 33.0093 31.0147 33.0093H1.45504C1.08451 33.6194 0.870742 34.3248 0.870742 35.08V35.4938C0.870742 36.9302 1.63888 38.1959 2.80462 38.9397C1.16574 39.5327 0 41.043 0 42.8122V52.8923C0 55.1806 1.9467 57.035 4.34801 57.035H85.3613C87.7626 57.035 89.7093 55.1806 89.7093 52.8923V49.8546H45.5793L45.5807 49.8475Z" fill="#E4F1FF"/>
<path id="Vector_2" d="M20.5429 19.9555C20.7595 19.7536 20.7395 19.3212 20.6526 19.0866C20.3362 18.2347 19.7291 17.8934 18.3054 17.8934C18.2556 17.8934 18.2057 17.8934 18.1572 17.8962C18.1473 17.0188 17.201 16.2679 16.5355 16.1982C14.603 15.992 10.4844 15.9067 9.20612 16.312C8.56482 16.5153 7.98765 17.0287 7.98765 17.9119C7.98765 17.9289 7.98765 17.9474 7.98907 17.9645C7.82804 17.9389 7.65987 17.9247 7.48886 17.9247C6.20056 17.9247 5.15595 18.6869 5.15595 19.627C5.15595 19.7564 5.17591 19.8815 5.21296 20.001C5.19443 20.001 5.17448 20.001 5.15595 20.001C5.0961 20.001 5.03767 20.0024 4.97781 20.0053H4.84813C4.74695 20.0053 4.64719 20.0195 4.55171 20.0465C3.21068 20.2513 2.20312 21.1245 2.20312 22.1712C2.20312 23.3701 3.19643 24.313 5.62909 24.313H20.6412C21.948 24.313 22.8131 23.0359 22.8131 22.1257C22.8131 21.0065 21.8212 20.0849 20.5429 19.9555Z" fill="white"/>
<path id="Vector_3" d="M85.5272 33.7033C85.7439 33.5013 85.7239 33.069 85.637 32.8343C85.3206 31.9825 84.7135 31.6412 83.2898 31.6412C83.2399 31.6412 83.1901 31.6412 83.1416 31.644C83.1316 30.7665 82.1854 30.0156 81.5198 29.9445C79.5874 29.7383 75.4688 29.653 74.1905 30.0583C73.5492 30.2617 72.972 30.7751 72.972 31.6582C72.972 31.6753 72.972 31.6923 72.9734 31.7108C72.8124 31.6852 72.6442 31.671 72.4732 31.671C71.1849 31.671 70.1403 32.4333 70.1403 33.3733C70.1403 33.5027 70.1603 33.6279 70.1973 33.7473C70.1788 33.7473 70.1589 33.7473 70.1403 33.7473C70.0805 33.7473 70.022 33.7488 69.9622 33.7516H69.8325C69.7313 33.7516 69.6316 33.7658 69.5361 33.7929C68.1951 33.9976 67.1875 34.8708 67.1875 35.9175C67.1875 37.1164 68.1808 38.0593 70.6135 38.0593H85.6256C86.9324 38.0593 87.7974 36.7822 87.7974 35.872C87.7974 34.7528 86.8056 33.8313 85.5272 33.7018V33.7033Z" fill="white"/>
<g id="Group_3">
<g id="Group_4">
<path id="Vector_4" d="M49.6485 42.4739H41.4727V49.6372H49.6485V42.4739Z" fill="#2D4C7F"/>
<g id="Group_5">
<path id="Vector_5" d="M60.7534 49.4153H30.3672V51.695H60.7534V49.4153Z" fill="#395DA8"/>
<path id="Vector_6" d="M60.7534 51.0437H30.3672V51.695H60.7534V51.0437Z" fill="#2D4C7F"/>
</g>
</g>
<g id="Group_6">
<path id="Vector_7" d="M77.0363 7.84741H14.082V43.0071H77.0363V7.84741Z" fill="#395DA8"/>
<path id="Vector_8" d="M75.0578 9.08179H16.0625V39.4474H75.0578V9.08179Z" fill="#B8D0FF"/>
<g id="Group_7">
<path id="Vector_9" d="M75.137 9.08179H16.1289V11.7839H75.137V9.08179Z" fill="#2957A4"/>
<g id="Group_8">
<g id="Group_9">
<g id="Group_10">
<path id="Vector_10" d="M29.1199 12.8049H17.4297V38.277H29.1199V12.8049Z" fill="#E1EDFF"/>
<path id="Vector_11" d="M28.4396 13.5828H18.1133V14.3607H28.4396V13.5828Z" fill="white"/>
<path id="Vector_12" d="M28.4396 15.042H18.1133V15.8199H28.4396V15.042Z" fill="white"/>
<path id="Vector_13" d="M28.4396 27.1941H18.1133V27.972H28.4396V27.1941Z" fill="white"/>
<path id="Vector_14" d="M28.4396 28.7742H18.1133V29.2122H28.4396V28.7742Z" fill="white"/>
<path id="Vector_15" d="M28.4396 29.6489H18.1133V30.0869H28.4396V29.6489Z" fill="white"/>
<path id="Vector_16" d="M28.4396 30.6216H18.1133V31.0596H28.4396V30.6216Z" fill="white"/>
<path id="Vector_17" d="M27.1214 17.4724H19.4258V25.2501H27.1214V17.4724Z" fill="white"/>
</g>
<g id="Group_11">
<path id="Vector_18" d="M20.0547 32.4106V35.993L23.1543 34.2025L20.0547 32.4106Z" fill="#B8D0FF"/>
<path id="Vector_19" d="M23.9688 32.4106V35.993L27.0684 34.2025L23.9688 32.4106Z" fill="#B8D0FF"/>
</g>
</g>
<g id="Group_12">
<path id="Vector_20" d="M73.5409 12.9998H30.3828V38.0821H73.5409V12.9998Z" fill="#4F9AFF"/>
<g id="Group_13">
<path id="Vector_21" d="M38.274 17.4725C38.274 19.1364 36.9216 20.486 35.2542 20.486C33.5868 20.486 32.2344 19.1364 32.2344 17.4725C32.2344 15.8086 33.5868 14.459 35.2542 14.459C36.9216 14.459 38.274 15.8086 38.274 17.4725Z" fill="#E1EDFF"/>
<path id="Vector_22" d="M46.1646 17.4725C46.1646 19.1364 44.8122 20.486 43.1448 20.486C41.4774 20.486 40.125 19.1364 40.125 17.4725C40.125 15.8086 41.4774 14.459 43.1448 14.459C44.8122 14.459 46.1646 15.8086 46.1646 17.4725Z" fill="#E1EDFF"/>
<path id="Vector_23" d="M54.0552 17.4725C54.0552 19.1364 52.7028 20.486 51.0354 20.486C49.3681 20.486 48.0156 19.1364 48.0156 17.4725C48.0156 15.8086 49.3681 14.459 51.0354 14.459C52.7028 14.459 54.0552 15.8086 54.0552 17.4725Z" fill="#E1EDFF"/>
</g>
<g id="Group_14">
<path id="Vector_24" d="M60.4004 15.561H56.1992V16.1441H60.4004V15.561Z" fill="#B8D0FF"/>
<path id="Vector_25" d="M66.2872 15.561H62.0859V16.1441H66.2872V15.561Z" fill="#B8D0FF"/>
<path id="Vector_26" d="M72.1778 15.561H67.9766V16.1441H72.1778V15.561Z" fill="#B8D0FF"/>
</g>
<g id="Group_15">
<path id="Vector_27" d="M51.7342 23.0144H32.2344V23.7923H51.7342V23.0144Z" fill="#E1EDFF"/>
<path id="Vector_28" d="M49.253 24.7637H32.2344V25.4449H49.253V24.7637Z" fill="#E1EDFF"/>
<path id="Vector_29" d="M63.9944 26.5144H32.2344V27.389H63.9944V26.5144Z" fill="#E1EDFF"/>
<path id="Vector_30" d="M40.1409 28.3604H32.2344V29.3331H40.1409V28.3604Z" fill="#B8D0FF"/>
<path id="Vector_31" d="M54.077 30.7908H32.2344V31.9569H54.077V30.7908Z" fill="#E1EDFF"/>
<path id="Vector_32" d="M42.2857 33.3193H32.2344V33.6109H42.2857V33.3193Z" fill="#B8D0FF"/>
<path id="Vector_33" d="M49.9228 35.0686H32.2344V36.2348H49.9228V35.0686Z" fill="#B8D0FF"/>
</g>
<path id="Vector_34" d="M71.3983 21.3606H66.332V36.2348H71.3983V21.3606Z" fill="#B8D0FF"/>
</g>
</g>
</g>
<g id="Vector_35" style="mix-blend-mode:multiply" opacity="0.5">
<path d="M70.781 39.2697C68.4439 38.7065 66.2136 37.7992 64.036 36.7937C61.8527 35.784 59.6595 34.77 57.509 33.692C45.9727 27.9053 35.719 19.2829 27.7826 9.08325H16.0625V39.4489H71.5777C71.3112 39.392 71.0447 39.3337 70.781 39.2697Z" fill="#B8D0FF"/>
</g>
</g>
</g>
<g id="Group_16">
<path id="Vector_36" d="M64.6984 9.82545C64.9663 9.54813 64.9435 8.95083 64.8352 8.62942C64.4418 7.45615 63.688 6.98685 61.9194 6.98685C61.8581 6.98685 61.7954 6.98685 61.7356 6.98969C61.7227 5.78087 60.5484 4.74697 59.7219 4.64884C57.322 4.36441 52.2044 4.24637 50.6168 4.80528C49.8216 5.08544 49.1034 5.79225 49.1034 7.0096C49.1034 7.03378 49.1034 7.05795 49.1048 7.08213C48.9039 7.04658 48.6972 7.02809 48.4834 7.02809C46.883 7.02809 45.5848 8.07763 45.5848 9.37321C45.5848 9.55097 45.6104 9.72305 45.656 9.88944C45.6318 9.88944 45.609 9.88944 45.5848 9.88944C45.5107 9.88944 45.4366 9.89229 45.3639 9.89513H45.2028C45.0774 9.89513 44.9534 9.91504 44.8352 9.95202C43.1692 10.2336 41.918 11.4367 41.918 12.8788C41.918 14.5299 43.1521 15.8297 46.1733 15.8297H64.8238C66.4484 15.8297 67.5215 14.0705 67.5215 12.8176C67.5215 11.276 66.2888 10.0061 64.7012 9.82829L64.6984 9.82545Z" fill="white"/>
<g id="Group_17">
<path id="Vector_37" d="M45.9528 6.82334L45.3571 5.77238C45.2189 5.52919 44.8996 5.44671 44.6446 5.59034L44.3025 5.78376C44.0845 5.90606 43.8166 5.88331 43.6341 5.72687C43.4931 5.60883 43.3477 5.49791 43.1981 5.39693C42.9957 5.26325 42.9088 5.0158 42.9786 4.78257L43.0883 4.41423C43.1724 4.14118 43.0128 3.86102 42.7349 3.79133L41.5364 3.48415C41.2585 3.41304 40.9663 3.57659 40.8851 3.85106L40.774 4.21798C40.7041 4.45263 40.4904 4.62186 40.2438 4.6432C40.0585 4.656 39.8704 4.68159 39.6852 4.71715C39.4429 4.7655 39.2006 4.65742 39.0823 4.44978L38.8971 4.12269C38.7588 3.8795 38.441 3.79844 38.186 3.94066L37.0872 4.55929C36.8321 4.70293 36.738 5.0158 36.8749 5.26041L37.0615 5.5875C37.1784 5.79513 37.147 6.05823 36.9803 6.24311C36.8535 6.38248 36.7366 6.52896 36.6283 6.68113C36.4844 6.88165 36.2293 6.97551 35.9913 6.91436L35.6193 6.81908C35.34 6.74939 35.0479 6.91294 34.9666 7.18741L34.6118 8.36921C34.5291 8.64227 34.6873 8.92101 34.9652 8.99211L35.3386 9.0874C35.5766 9.14713 35.7447 9.34907 35.7547 9.59226C35.7633 9.77145 35.7818 9.95348 35.8131 10.1327C35.853 10.3687 35.7333 10.6105 35.5167 10.7328L35.1747 10.9248C34.9196 11.067 34.8255 11.3827 34.9638 11.6245L35.5595 12.6755C35.6977 12.9201 36.0169 13.0011 36.272 12.8561L36.6141 12.6641C36.8321 12.5404 37.1 12.5631 37.2824 12.721C37.4207 12.8404 37.5675 12.9485 37.7185 13.0495C37.9223 13.1846 38.0078 13.4306 37.9366 13.6639L37.8254 14.0308C37.7442 14.3052 37.9024 14.584 38.1803 14.6551L39.3788 14.9609C39.6581 15.032 39.9474 14.867 40.0315 14.5939L40.1412 14.227C40.2125 13.9952 40.4248 13.8217 40.6713 13.8032C40.858 13.789 41.0433 13.7634 41.23 13.7293C41.4737 13.6809 41.7159 13.789 41.8342 13.9981L42.0181 14.3237C42.1577 14.5683 42.477 14.6494 42.7306 14.5058L43.8294 13.8886C44.0845 13.7449 44.1785 13.4306 44.0389 13.1874L43.855 12.8618C43.7368 12.6541 43.7667 12.391 43.9334 12.2076C44.0603 12.0654 44.1785 11.9217 44.2869 11.7696C44.4322 11.569 44.6887 11.4752 44.9239 11.5363L45.2987 11.6302C45.5751 11.7013 45.8673 11.5378 45.9514 11.2633L46.3062 10.0829C46.3889 9.80985 46.2307 9.53111 45.9528 9.46L45.5794 9.36472C45.3429 9.30499 45.1761 9.10304 45.1647 8.85985C45.1547 8.68066 45.1376 8.49863 45.1063 8.31944C45.065 8.08336 45.1847 7.84302 45.4027 7.72072L45.7447 7.52873C45.9984 7.38367 46.0939 7.07222 45.9542 6.82761L45.9528 6.82334ZM42.0138 11.4951C40.536 12.4792 38.5665 11.9772 37.8496 10.4342C37.2853 9.21966 37.737 7.72498 38.8999 6.94991C40.3749 5.96721 42.3444 6.46923 43.0627 8.01368C43.6242 9.22677 43.1738 10.7214 42.0152 11.4951H42.0138Z" fill="#F59F45"/>
<path id="Vector_38" d="M51.5125 9.2253L51.1163 8.52561C51.0237 8.36348 50.8128 8.30944 50.6432 8.40472L50.4166 8.53272C50.2712 8.6152 50.0917 8.59956 49.9719 8.49574C49.8779 8.4161 49.7824 8.34357 49.6812 8.27673C49.5473 8.18856 49.4888 8.02359 49.5359 7.86858L49.6085 7.62397C49.6641 7.44193 49.5587 7.25563 49.3734 7.21012L48.5753 7.00533C48.3901 6.9584 48.1963 7.06649 48.1421 7.24994L48.068 7.49455C48.0224 7.65099 47.8799 7.76334 47.7146 7.77756C47.592 7.78609 47.4666 7.80316 47.3426 7.82733C47.1816 7.85862 47.0205 7.78751 46.9407 7.64957L46.8182 7.43198C46.727 7.27128 46.5146 7.21581 46.345 7.3111L45.614 7.7221C45.4444 7.81738 45.3817 8.02644 45.4729 8.18856L45.5969 8.40615C45.6752 8.54552 45.6539 8.72044 45.5427 8.84275C45.4586 8.93519 45.3817 9.03331 45.309 9.13429C45.2135 9.26797 45.0425 9.33054 44.8857 9.2893L44.6378 9.2253C44.4525 9.17837 44.2587 9.28788 44.2045 9.46991L43.968 10.2564C43.9124 10.4384 44.0178 10.6247 44.2031 10.6702L44.4511 10.7342C44.6107 10.774 44.7218 10.9077 44.729 11.0698C44.7347 11.1893 44.7475 11.3102 44.7674 11.4296C44.7945 11.5875 44.7147 11.7468 44.5694 11.8292L44.3428 11.9558C44.1732 12.0511 44.1105 12.2616 44.2017 12.4223L44.5979 13.122C44.6905 13.2841 44.9014 13.3381 45.0724 13.2414L45.299 13.1134C45.4444 13.0324 45.6225 13.0466 45.7436 13.1504C45.8349 13.2301 45.9332 13.3026 46.0344 13.3694C46.1698 13.459 46.2268 13.624 46.1797 13.779L46.1056 14.0222C46.0515 14.2057 46.1569 14.3905 46.3422 14.4375L47.1388 14.6408C47.3241 14.6878 47.5179 14.5797 47.5721 14.3976L47.6462 14.153C47.6932 13.998 47.8343 13.8828 47.9996 13.8714C48.1236 13.8615 48.2476 13.8444 48.3716 13.8217C48.534 13.789 48.6951 13.8615 48.7734 13.9994L48.8974 14.217C48.99 14.3792 49.201 14.4332 49.3706 14.3379L50.1016 13.9269C50.2712 13.8316 50.3339 13.6226 50.2413 13.4604L50.1187 13.2429C50.0389 13.1049 50.0603 12.93 50.1715 12.8077C50.2555 12.7138 50.3354 12.6171 50.4066 12.5161C50.5035 12.3825 50.6745 12.3213 50.8313 12.3611L51.0793 12.4237C51.2631 12.4706 51.4569 12.3611 51.5139 12.1791L51.7505 11.3941C51.8061 11.212 51.7006 11.0272 51.5153 10.9788L51.2674 10.9148C51.1092 10.875 50.9995 10.7413 50.9909 10.5792C50.9852 10.4597 50.9724 10.3388 50.9524 10.2194C50.9239 10.0615 51.0037 9.90224 51.1491 9.82118L51.3771 9.69319C51.5453 9.5979 51.6094 9.39027 51.5168 9.22815L51.5125 9.2253Z" fill="#2957A4"/>
</g>
</g>
<path id="Vector_39" d="M21.7138 58.0561C21.7138 58.5012 19.3524 58.8625 16.4409 58.8625C13.5294 58.8625 11.168 58.5012 11.168 58.0561C11.168 57.611 13.5294 57.2498 16.4409 57.2498C19.3524 57.2498 21.7138 57.611 21.7138 58.0561Z" fill="#B8D0FF"/>
<g id="Group_18">
<g id="Group_19">
<g id="Group_20">
<g id="Group_21">
<path id="Vector_40" d="M20.0568 56.4048C20.3789 56.8955 21.0131 57.0548 21.4192 57.4743C21.4477 57.5041 21.4762 57.5369 21.4876 57.5781C21.5118 57.6663 21.4434 57.7573 21.3608 57.7886C21.2781 57.8199 21.1855 57.8071 21.0986 57.7943C20.6026 57.7189 20.1081 57.6435 19.6122 57.5696C19.558 57.561 19.5039 57.5525 19.4568 57.5241C19.3557 57.4629 19.3229 57.3306 19.2986 57.2126C19.226 56.8571 19.1547 56.5015 19.082 56.146C19.4127 56.1929 19.739 56.2669 20.0582 56.4048" fill="#2957A4"/>
<path id="Vector_41" d="M18.8788 56.4291C18.8332 56.4291 18.7876 56.4291 18.7406 56.4277C18.2432 53.8578 18.8018 51.0377 18.0936 48.4964C17.8741 47.7085 17.5378 46.9676 17.2371 46.2138C16.2651 43.7734 15.4201 40.4883 15.2148 37.8331C16.2024 37.6042 17.1658 37.5473 18.1306 37.105C19.922 43.0567 20.7443 49.8701 20.7671 56.1503C20.1472 56.3054 19.5158 56.3964 18.8788 56.4291Z" fill="#2957A4"/>
<g id="Vector_42" style="mix-blend-mode:multiply" opacity="0.4">
<path d="M16.7919 42.1905C17.57 43.4207 17.9861 44.8656 18.4493 46.2422C19.5609 49.5416 19.5452 53.0941 19.4782 56.3778C19.2801 56.3992 19.0806 56.4177 18.8797 56.429C18.8341 56.429 18.7884 56.429 18.7414 56.4276C18.2441 53.8578 18.8027 51.0377 18.0944 48.4963C17.875 47.7084 17.5386 46.9675 17.2379 46.2138C16.6109 44.6395 16.1377 42.9912 15.8242 41.3074C16.219 41.4937 16.5396 41.7952 16.7904 42.1919L16.7919 42.1905Z" fill="#2957A4"/>
</g>
</g>
<g id="Group_22">
<path id="Vector_43" d="M12.8185 56.6824C13.1406 57.1731 13.7748 57.3323 14.1809 57.7533C14.2094 57.7832 14.2379 57.8159 14.2493 57.8557C14.2736 57.9439 14.2052 58.0349 14.1225 58.0662C14.0398 58.0974 13.9472 58.0846 13.8603 58.0718C13.3643 57.9965 12.8698 57.9211 12.3739 57.8472C12.3197 57.8386 12.2656 57.8301 12.2186 57.8016C12.1174 57.7405 12.0846 57.6082 12.0604 57.4902C11.9877 57.1347 11.915 56.7791 11.8438 56.4236C12.1744 56.4705 12.5022 56.5445 12.82 56.6824" fill="#2957A4"/>
<g id="Group_23">
<path id="Vector_44" d="M17.3324 37.0596C17.0218 38.3623 15.9886 44.2514 15.7948 45.1018C15.6337 45.8029 15.3373 46.4599 15.1007 47.1369C14.8927 47.7342 14.7302 48.3471 14.5749 48.9615C13.9222 51.5313 13.3621 54.1395 13.1711 56.789C12.6068 56.6653 12.0225 56.6325 11.4496 56.6951C11.1318 53.7115 10.995 50.6695 11.5764 47.7285C11.8372 46.4144 12.2391 45.1288 12.393 43.7977C12.5826 42.1679 12.3959 40.4997 12.7065 38.8899C12.7365 38.7349 12.7735 38.5756 12.8704 38.4533C12.9973 38.2926 13.2025 38.2243 13.3949 38.1646C14.7017 37.765 16.0171 37.3966 17.3353 37.0596" fill="#2957A4"/>
<path id="Vector_45" d="M13.9322 38.3679C13.8994 40.2167 13.8667 42.0783 13.4833 43.8873C13.1498 45.4658 12.5556 46.9833 12.262 48.5704C11.7874 51.1459 12.1252 53.7939 12.4629 56.3908" stroke="#2957A4" stroke-width="0.5" stroke-miterlimit="10"/>
<g id="Vector_46" style="mix-blend-mode:multiply" opacity="0.3">
<path d="M12.3891 43.7977C12.5544 42.3756 12.4333 40.925 12.6071 39.5085C13.1159 40.6391 13.2556 41.7954 13.1131 43.0739C12.8779 45.1744 12.1397 47.1782 11.9445 49.2858C11.7948 50.907 11.7065 52.5809 11.9117 54.2007C12.0157 55.0241 12.2081 56.4818 13.1715 56.7336C13.1715 56.752 13.1686 56.7691 13.1672 56.7876C12.6029 56.6639 12.0186 56.6312 11.4457 56.6937C11.1279 53.7101 10.9911 50.6681 11.5725 47.7271C11.8333 46.4131 12.2352 45.1274 12.3891 43.7963V43.7977Z" fill="#2957A4"/>
</g>
</g>
</g>
<g id="Group_24">
<g id="Group_25">
<g id="Group_26">
<path id="Vector_47" d="M17.0756 28.9332C18.3582 30.0283 19.6978 31.0508 21.0845 31.9951C21.6959 30.92 22.2203 29.7894 22.6464 28.6204C22.9485 28.774 23.2521 28.929 23.5542 29.0826C23.3818 30.3113 23.0169 31.5102 22.4825 32.618C22.3272 32.9408 22.1433 33.2708 21.8469 33.4542C21.2583 33.8183 20.5144 33.4713 19.9145 33.1243C19.2732 32.7545 18.6319 32.3834 17.9906 32.0136C17.8937 31.9581 17.7939 31.8998 17.7226 31.8102C17.6186 31.6808 17.5901 31.5045 17.5659 31.3381C17.4504 30.5644 17.335 29.7908 17.0742 28.9332" fill="#FA805B"/>
<path id="Vector_48" d="M16.928 28.7356C17.8657 29.2305 18.7264 29.8705 19.4689 30.6257C19.5502 30.7081 19.6342 30.802 19.6371 30.9172C19.6399 30.9954 19.6015 31.0694 19.5644 31.1405C19.3293 31.5927 19.0941 32.0435 18.8576 32.4958C18.8405 32.5299 18.8205 32.5655 18.7849 32.5811C18.7435 32.5996 18.6965 32.584 18.6538 32.5683C17.907 32.2896 17.1118 31.971 16.6729 31.3069C16.3964 30.8888 16.2952 30.3796 16.2425 29.8805C16.2111 29.5875 16.1983 29.2718 16.3508 29.0201C16.5033 28.7669 16.8795 28.6318 16.9265 28.7356" fill="#F59F45"/>
<path id="Vector_49" d="M22.4961 29.0243C22.583 28.7114 22.6899 28.2478 22.6286 27.9918C22.5873 27.8197 22.5545 27.5069 22.6258 27.3547C22.6443 27.3149 22.697 27.2765 22.7398 27.3049C22.7697 27.3248 22.7711 27.3618 22.7711 27.3931C22.7711 27.5168 22.8851 28.0018 22.8794 27.888C23.0106 27.6832 23.1402 27.322 23.2086 27.0888C23.2243 27.0347 23.2386 26.9793 23.2771 26.9352C23.3155 26.8925 23.4053 26.8399 23.4481 26.8868C23.5022 26.948 23.3255 27.4457 23.2642 27.7245L23.5464 27.0646C23.5692 27.0105 23.6376 26.9451 23.6889 26.9906C23.7573 27.0518 23.5549 27.5751 23.4894 27.8667C23.5877 27.6619 23.6846 27.4571 23.783 27.2523C23.8229 27.1698 23.9397 27.0361 23.9711 27.1286C24.0295 27.2964 23.8143 27.706 23.7074 28.0117C23.783 27.888 23.8571 27.7643 23.9326 27.6406C23.9568 27.5993 24.0181 27.5567 24.058 27.5936C24.0794 27.6135 24.0751 27.642 24.0694 27.6662C23.9469 28.1995 23.7559 28.5977 23.5435 29.1708C23.2471 29.0015 22.7526 29.259 22.4989 29.0186" fill="#FA805B"/>
</g>
<g id="Group_27">
<path id="Vector_50" d="M16.813 28.7498C16.2087 28.4212 15.5147 28.7185 14.8349 28.8322C13.7304 29.0171 12.5818 29.2191 11.6683 29.8661C11.5899 29.9216 11.5144 29.9799 11.4602 30.0596C11.3804 30.1776 11.3633 30.3255 11.3562 30.4677C11.2736 32.1259 12.3182 33.632 12.5519 35.2746C12.6231 35.7766 12.6174 36.2871 12.6117 36.7948C12.6046 37.4135 12.5989 38.0307 12.5918 38.6493C14.5599 38.0691 16.5422 37.5358 18.5359 37.0522C18.3863 34.4696 17.7635 31.9411 17.1422 29.431C17.0652 29.1167 16.9127 28.8066 16.813 28.7512" fill="#F59F45"/>
<path id="Vector_51" d="M11.3576 30.4662C11.3648 30.324 11.3819 30.1761 11.4617 30.0581C11.5144 29.9798 11.5914 29.9201 11.6697 29.8646C11.7652 29.7978 11.8635 29.7352 11.9633 29.6769C12.1856 29.8604 12.3937 30.0623 12.5818 30.2785C12.9196 30.6682 13.1476 31.1346 13.33 31.6139C13.6991 32.5895 13.873 33.6262 14.2064 34.6132C14.2834 34.8421 14.366 35.0711 14.5086 35.2674C14.6439 35.4537 14.8663 35.5945 15.1057 35.5788C15.3565 35.5618 15.5831 35.4252 15.7726 35.2688C15.9778 35.0996 16.1745 34.9218 16.3541 34.7241C16.5365 34.5222 16.6961 34.3032 16.8657 34.0913C16.9441 33.9946 17.041 33.9163 17.1151 33.8111C17.1878 33.7073 17.2305 33.5892 17.2847 33.474C17.4058 33.2238 17.4386 32.9294 17.4642 32.6549C17.4913 32.3619 17.487 32.0675 17.4642 31.7746C17.4229 31.2114 17.3445 30.6454 17.2362 30.0908C17.1393 29.6001 16.9968 29.1152 16.7132 28.6985C16.7474 28.7127 16.7802 28.7284 16.813 28.7468C16.9141 28.8023 17.0652 29.1123 17.1422 29.4266C17.7635 31.9381 18.3863 34.4667 18.5359 37.0479C16.5422 37.5314 14.5599 38.0633 12.5918 38.645L12.6117 36.7905C12.6174 36.2828 12.6231 35.7737 12.5519 35.2702C12.3182 33.6262 11.2736 32.1216 11.3562 30.4634" fill="#F59630"/>
<g id="Group_28">
<path id="Vector_52" d="M16.5097 31.6211C16.3059 32.1686 16.3743 32.7844 16.1948 33.3405C16.0038 33.9349 15.5478 34.4071 15.0547 34.7925" stroke="#1E365E" stroke-width="0.5" stroke-miterlimit="10"/>
<path id="Vector_53" d="M15.7271 30.5046C15.7071 31.0209 15.6858 31.5414 15.5447 32.0377C15.4036 32.534 15.1271 33.0119 14.6953 33.2949" stroke="#1E365E" stroke-width="0.5" stroke-miterlimit="10"/>
</g>
</g>
</g>
<g id="Group_29">
<path id="Vector_54" d="M14.5541 28.1568C14.6069 28.5365 14.7465 28.9034 14.9603 29.2248C14.7351 29.4467 14.3845 29.4879 14.0639 29.4936C13.9057 29.4965 13.7447 29.4936 13.5922 29.4524C13.5751 29.4481 13.5566 29.4424 13.5452 29.4296C13.5323 29.4168 13.5295 29.3983 13.5266 29.3799C13.4083 28.7029 13.3015 28.0231 13.2031 27.3419C13.5281 27.3988 13.8644 27.2964 14.1922 27.3391C14.2235 27.3434 14.2563 27.349 14.2819 27.3661C14.3133 27.3874 14.3318 27.423 14.3475 27.4585C14.4586 27.7032 14.5271 27.962 14.5541 28.1568Z" fill="#FA805B"/>
<path id="Vector_55" d="M13.7119 28.3801C13.4368 28.0886 13.3912 27.6805 13.2031 27.342C13.5281 27.3989 13.8644 27.2965 14.1907 27.3377C14.2221 27.342 14.2549 27.3477 14.2805 27.3647C14.3119 27.3861 14.3304 27.4216 14.3461 27.4572C14.4572 27.7018 14.5256 27.9606 14.5527 28.1554C14.5826 28.3659 14.6382 28.5707 14.7194 28.7684C14.3432 28.784 13.967 28.6489 13.7119 28.3787" fill="#D75B24"/>
<path id="Vector_56" d="M14.6976 26.3692C14.8031 26.5896 14.8458 26.8328 14.9413 27.0575C15.0724 27.3633 15.3076 27.6676 15.2306 27.9905C15.1679 28.2521 14.8971 28.437 14.6207 28.4654C14.3442 28.4939 14.0677 28.3901 13.8383 28.2379C13.3979 27.9478 13.0915 27.4728 13.0174 26.9622C12.9932 26.793 12.9832 26.6437 13.1528 26.4744C13.3452 26.2825 13.5404 26.1843 13.7998 26.0905C14.1675 25.9582 14.5936 26.1488 14.699 26.3692" fill="#FA805B"/>
<g id="Group_30">
<path id="Vector_57" d="M14.0707 25.7648C14.3885 25.789 14.6721 26.0336 14.7334 26.3351C14.7377 26.3564 14.7405 26.3806 14.7291 26.4005C14.7063 26.4361 14.6522 26.4304 14.6137 26.4133C14.5752 26.3962 14.5353 26.3706 14.494 26.382C14.427 26.3991 14.4242 26.4887 14.3999 26.5512C14.3572 26.6679 14.2161 26.7176 14.0893 26.7375C13.9639 26.7575 13.8313 26.7603 13.7145 26.7091C13.6361 26.675 13.5691 26.6181 13.4879 26.5896C13.4066 26.5612 13.2983 26.574 13.2584 26.648C13.2086 26.7404 13.2983 26.857 13.2599 26.9551C13.2342 27.0206 13.1558 27.0561 13.0831 27.0604C12.9492 27.0675 12.8181 26.9893 12.7482 26.8783C12.6784 26.7674 12.6627 26.6295 12.6855 26.5015C12.7083 26.3664 12.7725 26.237 12.868 26.1346C13.0931 25.8914 13.4522 25.8217 13.7843 25.7662C13.9154 25.7449 14.0622 25.725 14.0693 25.7662" fill="#2957A4"/>
<path id="Vector_58" d="M13.7384 25.7805C14.0519 25.6966 14.3654 25.6141 14.6789 25.5302C14.7644 25.5075 14.8542 25.4847 14.9426 25.4904C15.068 25.5003 15.1806 25.5686 15.2647 25.6539C15.4571 25.8502 15.524 26.146 15.4328 26.3977C15.3701 26.5698 15.2048 26.7319 15.0096 26.7163C14.8058 26.6992 14.6775 26.5072 14.4937 26.4233C14.4552 26.4048 14.4067 26.3934 14.3683 26.4134C14.3469 26.4247 14.3326 26.4461 14.3155 26.4646C14.26 26.5214 14.1688 26.5414 14.0889 26.5257C14.0077 26.5101 13.9365 26.4646 13.8795 26.4105C13.7084 26.247 13.6529 25.9881 13.7398 25.7791" fill="#2957A4"/>
<path id="Vector_59" d="M13.3514 26.4802C13.3143 26.6808 13.3272 26.8898 13.3899 27.0847C13.3984 27.1103 13.407 27.1373 13.4084 27.1643C13.4098 27.1956 13.4013 27.2269 13.3913 27.2567C13.35 27.3947 13.3086 27.5326 13.2687 27.6706C13.0165 27.5497 12.8084 27.2667 12.6958 26.7519C12.6759 26.6609 12.693 26.6481 12.7343 26.5642C12.8041 26.429 12.9808 26.3935 13.1333 26.3835C13.1832 26.3807 13.2359 26.3779 13.2815 26.3992C13.3272 26.4205 13.3614 26.4717 13.3514 26.4802Z" fill="#2957A4"/>
</g>
<path id="Vector_60" d="M13.4043 27.1997C13.3259 27.093 13.1792 27.0404 13.0495 27.0717C12.82 27.1272 13.0438 27.5524 13.4342 27.6064C13.4884 27.6135 13.5554 27.6078 13.5825 27.5609C13.6038 27.5239 13.591 27.4756 13.5739 27.4358C13.5283 27.3248 13.4599 27.2239 13.4029 27.1983" fill="#FA805B"/>
</g>
</g>
</g>
<g id="Group_31">
<g id="Group_32">
<path id="Vector_61" d="M28.9136 27.9167H32.7814C33.4284 27.9167 33.9542 28.4415 33.9542 29.0871V30.1395C33.9542 30.7852 33.4284 31.3085 32.7828 31.3085H28.9151C28.2681 31.3085 27.7422 30.7837 27.7422 30.1381V29.0857C27.7422 28.4401 28.2681 27.9153 28.9151 27.9153L28.9136 27.9167Z" fill="#2D4C7F"/>
<path id="Vector_62" d="M28.9136 31.718H32.7814C33.4284 31.718 33.9542 32.2427 33.9542 32.8884V33.9408C33.9542 34.5864 33.4284 35.1098 32.7828 35.1098H28.9151C28.2681 35.1098 27.7422 34.585 27.7422 33.9394V32.887C27.7422 32.2413 28.2681 31.7166 28.9151 31.7166L28.9136 31.718Z" fill="#2D4C7F"/>
<path id="Vector_63" d="M17.1719 46.6619V22.4755C17.1719 21.2781 18.1481 20.3025 19.3494 20.3025H31.2534C32.4533 20.3025 33.431 21.2781 33.431 22.4755V46.6619C33.431 47.8608 32.4548 48.835 31.2534 48.835H19.3494C18.1481 48.835 17.1719 47.8608 17.1719 46.6619ZM19.3494 21.1373C18.6098 21.1373 18.0084 21.7374 18.0084 22.4755V46.6619C18.0084 47.4 18.6098 48.0016 19.3494 48.0016H31.2534C31.993 48.0016 32.5944 47.4015 32.5944 46.6619V22.4755C32.5944 21.7374 31.993 21.1373 31.2534 21.1373H19.3494Z" fill="#2D4C7F"/>
</g>
<path id="Vector_64" d="M17.9609 46.386C17.9609 47.3416 18.7148 48.1139 19.644 48.1139H31.0349C31.9641 48.1139 32.718 47.3402 32.718 46.386V22.5807C32.718 21.6264 31.9641 20.8528 31.0349 20.8528H19.644C18.7148 20.8528 17.9609 21.6264 17.9609 22.5807V46.386Z" fill="#B8D0FF"/>
<path id="Vector_65" d="M30.467 30.6456L29.7345 29.6843C29.5649 29.461 29.2386 29.4226 29.0049 29.5989L28.6928 29.835C28.4932 29.9858 28.2239 30 28.023 29.8691C27.8676 29.7696 27.708 29.68 27.547 29.6018C27.3275 29.4965 27.2092 29.2633 27.2477 29.023L27.3061 28.6433C27.3532 28.3617 27.1579 28.1043 26.8715 28.0744L25.643 27.9308C25.358 27.8966 25.0915 28.0986 25.0473 28.3816L24.986 28.7599C24.949 29.0016 24.7595 29.1979 24.5172 29.2519C24.3362 29.2903 24.1524 29.3401 23.9728 29.3998C23.7391 29.4795 23.484 29.4055 23.3386 29.215L23.1106 28.9149C22.941 28.693 22.6147 28.6546 22.3809 28.8296L21.3748 29.589C21.1411 29.7653 21.0898 30.0882 21.2594 30.3114L21.4874 30.6101C21.6313 30.8007 21.6356 31.0652 21.4945 31.27C21.3876 31.425 21.2907 31.5857 21.2038 31.7506C21.0884 31.9697 20.8475 32.0962 20.6038 32.0678L20.2219 32.0223C19.9355 31.9896 19.6675 32.1915 19.6248 32.4745L19.4324 33.6919C19.3868 33.9735 19.582 34.2294 19.8656 34.2622L20.2476 34.3062C20.4912 34.3347 20.6865 34.511 20.7278 34.7499C20.7606 34.9263 20.8033 35.1041 20.8589 35.2776C20.9302 35.5065 20.8447 35.7611 20.6452 35.9118L20.3316 36.1479C20.0979 36.3228 20.048 36.6485 20.2162 36.8704L20.9487 37.8332C21.1183 38.0564 21.4461 38.0948 21.6784 37.9171L21.9919 37.681C22.1914 37.5302 22.4593 37.516 22.6617 37.6469C22.8156 37.7464 22.9752 37.8346 23.1377 37.9142C23.3571 38.0209 23.4754 38.2527 23.4355 38.4945L23.3757 38.8727C23.3315 39.1558 23.5267 39.4117 23.8118 39.4444L25.0402 39.5867C25.3252 39.6194 25.5917 39.4174 25.6373 39.1358L25.6972 38.7576C25.7371 38.5172 25.9238 38.3181 26.166 38.2669C26.3485 38.2271 26.5294 38.1773 26.709 38.1176C26.9427 38.0365 27.1992 38.1119 27.3446 38.3025L27.5712 38.6011C27.7422 38.8244 28.0686 38.8628 28.3023 38.685L29.3084 37.9256C29.5421 37.7493 29.5934 37.425 29.4224 37.2017L29.1958 36.9031C29.0505 36.7139 29.0462 36.448 29.1858 36.2446C29.2927 36.0868 29.3896 35.9275 29.478 35.7625C29.5949 35.5435 29.8357 35.4169 30.078 35.4454L30.4613 35.488C30.7449 35.5222 31.0128 35.3202 31.0584 35.0372L31.2523 33.8199C31.2979 33.5383 31.104 33.2823 30.8176 33.2496L30.4357 33.2055C30.1934 33.1771 29.9996 32.9993 29.9568 32.7604C29.9226 32.584 29.8813 32.4063 29.8257 32.2328C29.7516 32.0038 29.8385 31.7492 30.0381 31.5985L30.3516 31.3624C30.5839 31.1846 30.6366 30.8632 30.4656 30.6399L30.467 30.6456ZM27.1921 35.8023C25.8596 36.9756 23.8403 36.7424 22.9239 35.3089C22.2014 34.1797 22.4479 32.6395 23.4954 31.7151C24.825 30.5432 26.8444 30.7765 27.7622 32.2114C28.4818 33.3392 28.2367 34.8794 27.1921 35.8023Z" fill="white"/>
<g id="Group_33">
<path id="Vector_66" d="M30.901 23.3359H19.7852V24.4737H30.901V23.3359Z" fill="#E1EDFF"/>
<path id="Vector_67" d="M26.9107 25.2317H19.7852V26.3694H26.9107V25.2317Z" fill="#E1EDFF"/>
<path id="Vector_68" d="M30.046 41.0645H19.7852V42.2022H30.046V41.0645Z" fill="#E1EDFF"/>
<path id="Vector_69" d="M30.046 42.9614H19.7852V44.0991H30.046V42.9614Z" fill="#E1EDFF"/>
<path id="Vector_70" d="M28.0508 44.9526H19.7852V46.0904H28.0508V44.9526Z" fill="#E1EDFF"/>
</g>
<g id="Vector_71" style="mix-blend-mode:multiply" opacity="0.3">
<path d="M32.4144 46.1215C31.1788 45.3564 30.0573 44.432 28.987 43.4522C26.798 41.447 25.0637 38.8018 23.717 36.1765C22.3104 33.4332 21.3399 30.5505 20.6259 27.5583C20.2497 25.9826 19.919 24.3983 19.5599 22.8197C19.4203 22.2068 19.2065 21.5824 19.0796 20.9539C18.4284 21.1928 17.9609 21.8299 17.9609 22.5808V46.3861C17.9609 47.3418 18.7148 48.114 19.644 48.114H31.0349C31.9641 48.114 32.718 47.3403 32.718 46.3861V46.2979C32.6139 46.241 32.5113 46.1827 32.413 46.123L32.4144 46.1215Z" fill="#B8D0FF"/>
</g>
</g>
</g>
<g id="Group_34">
<path id="Vector_72" d="M11.8098 30.495C12.5622 30.9359 12.8473 31.7735 13.0197 32.5514C13.1836 33.2881 13.2962 34.0347 13.356 34.7842C13.3674 34.9378 13.3803 35.0985 13.4715 35.2307C13.6924 35.5521 14.2182 35.5393 14.6472 35.5066C15.6918 35.4298 16.6751 35.747 17.7724 35.6659C17.62 35.9404 17.5573 36.2533 17.5929 36.5562C16.125 36.8036 14.6244 37.0525 13.1451 36.869C12.7361 36.8178 12.3214 36.7311 11.978 36.532C11.2298 36.0997 10.9775 35.2549 10.8379 34.4798C10.6882 33.6522 10.6013 32.8145 10.5771 31.9754C10.5657 31.5844 10.5771 31.1648 10.8322 30.842C11.0873 30.5192 11.6473 30.3983 11.8098 30.4936" fill="#FA805B"/>
<path id="Vector_73" d="M11.6121 29.9092C12.0567 30.0101 12.3389 30.414 12.5412 30.8023C13.0571 31.7935 13.3393 32.8942 13.3593 33.9993C12.5013 33.9665 11.642 33.9907 10.7884 34.0718C10.6273 33.4148 10.4976 32.7492 10.4007 32.0808C10.3494 31.7281 10.3081 31.364 10.4121 31.0213C10.4791 30.8023 10.6017 30.6018 10.7428 30.4169C10.9979 30.0827 11.3727 29.8537 11.6121 29.9092Z" fill="#F59F45"/>
<path id="Vector_74" d="M17.5708 35.6775C17.9214 35.6476 18.081 35.622 18.3161 35.4869C18.4743 35.3959 18.7778 35.2665 18.9603 35.2764C19.0073 35.2793 19.0671 35.3106 19.0543 35.3561C19.0458 35.3888 19.0087 35.4016 18.9774 35.4115C18.8534 35.4513 18.4059 35.7059 18.517 35.6632C18.7764 35.7059 19.1925 35.696 19.4548 35.676C19.516 35.6718 19.5788 35.6647 19.6358 35.6832C19.6942 35.7002 19.7825 35.7585 19.7512 35.8097C19.7113 35.8751 19.1384 35.8894 18.832 35.9292C19.0914 35.9363 19.3507 35.942 19.6101 35.9491C19.6728 35.9505 19.7669 35.9875 19.7398 36.0444C19.7056 36.1226 19.0956 36.124 18.7736 36.1638L19.5103 36.2079C19.6087 36.2136 19.7897 36.2691 19.7084 36.326C19.5602 36.4298 19.0629 36.3843 18.7109 36.3942C18.8648 36.417 19.0201 36.4397 19.174 36.4611C19.2253 36.4682 19.2923 36.5052 19.2695 36.5507C19.2581 36.5748 19.2268 36.5805 19.1997 36.5834C18.6111 36.6559 18.0924 36.5734 17.4297 36.5834C17.4853 36.2805 17.4268 35.9676 17.5693 35.676" fill="#FA805B"/>
</g>
</g>
<g id="Group_35">
<path id="Vector_75" d="M24.5938 20.7519V4.39722H32.5744V7.88858" stroke="#2957A4" stroke-miterlimit="10"/>
<path id="Vector_76" d="M32.6077 7.81038C32.8635 7.81038 33.0709 7.60345 33.0709 7.34818C33.0709 7.09292 32.8635 6.88599 32.6077 6.88599C32.3519 6.88599 32.1445 7.09292 32.1445 7.34818C32.1445 7.60345 32.3519 7.81038 32.6077 7.81038Z" fill="#2957A4"/>
<path id="Vector_77" d="M24.5218 20.432C24.7776 20.432 24.9849 20.225 24.9849 19.9698C24.9849 19.7145 24.7776 19.5076 24.5218 19.5076C24.266 19.5076 24.0586 19.7145 24.0586 19.9698C24.0586 20.225 24.266 20.432 24.5218 20.432Z" fill="#2957A4"/>
</g>
<path id="Vector_78" d="M81.0935 58.0561C81.0935 58.5012 79.1154 58.8625 76.6757 58.8625C74.2359 58.8625 72.2578 58.5012 72.2578 58.0561C72.2578 57.611 74.2359 57.2498 76.6757 57.2498C79.1154 57.2498 81.0935 57.611 81.0935 58.0561Z" fill="#B8D0FF"/>
<path id="Vector_79" d="M59.7927 24.0227V2.54834H46.8242V11.1424" stroke="#2957A4" stroke-miterlimit="10"/>
<g id="Group_36">
<g id="Group_37">
<path id="Vector_80" d="M27.5139 49.5147C27.7697 49.5147 27.9771 49.3078 27.9771 49.0525C27.9771 48.7973 27.7697 48.5903 27.5139 48.5903C27.2581 48.5903 27.0508 48.7973 27.0508 49.0525C27.0508 49.3078 27.2581 49.5147 27.5139 49.5147Z" fill="#2957A4"/>
<path id="Vector_81" d="M39.9124 54.3499C40.1682 54.3499 40.3755 54.143 40.3755 53.8877C40.3755 53.6325 40.1682 53.4255 39.9124 53.4255C39.6566 53.4255 39.4492 53.6325 39.4492 53.8877C39.4492 54.143 39.6566 54.3499 39.9124 54.3499Z" fill="#2957A4"/>
</g>
<g id="Group_38">
<path id="Vector_82" d="M27.5859 48.7782V53.8879H68.2016V46.9194" stroke="#2957A4" stroke-miterlimit="10"/>
<path id="Vector_83" d="M51.1702 54.3502C51.426 54.3502 51.6334 54.1432 51.6334 53.888C51.6334 53.6327 51.426 53.4258 51.1702 53.4258C50.9144 53.4258 50.707 53.6327 50.707 53.888C50.707 54.1432 50.9144 54.3502 51.1702 54.3502Z" fill="#2957A4"/>
<path id="Vector_84" d="M68.2014 48.4483C68.4572 48.4483 68.6646 48.2414 68.6646 47.9861C68.6646 47.7309 68.4572 47.5239 68.2014 47.5239C67.9456 47.5239 67.7383 47.7309 67.7383 47.9861C67.7383 48.2414 67.9456 48.4483 68.2014 48.4483Z" fill="#2957A4"/>
</g>
</g>
<g id="Group_39">
<path id="Vector_85" d="M50.879 45.9993H40.1992V58.6037H50.879V45.9993Z" fill="#B8D0FF"/>
<path id="Vector_86" d="M50.0368 50.6837C50.0368 51.3607 49.4867 51.9096 48.8098 51.9096H42.2686C41.5916 51.9096 41.043 51.3607 41.043 50.6837C41.043 50.0082 41.5916 49.4607 42.2686 49.4607H48.8098C49.4882 49.4607 50.0368 50.0082 50.0368 50.6837Z" fill="#2957A4"/>
<path id="Vector_87" d="M50.0368 53.4684C50.0368 54.1439 49.4867 54.6928 48.8098 54.6928H42.2686C41.5916 54.6928 41.043 54.1439 41.043 53.4684C41.043 52.7928 41.5916 52.2439 42.2686 52.2439H48.8098C49.4882 52.2439 50.0368 52.7914 50.0368 53.4684Z" fill="#2957A4"/>
<path id="Vector_88" d="M50.0368 56.2516C50.0368 56.9271 49.4867 57.4761 48.8098 57.4761H42.2686C41.5916 57.4761 41.043 56.9271 41.043 56.2516C41.043 55.5761 41.5916 55.0286 42.2686 55.0286H48.8098C49.4882 55.0286 50.0368 55.5761 50.0368 56.2516Z" fill="#2957A4"/>
<path id="Vector_89" d="M49.2908 49.8931H41.7891V51.4532H49.2908V49.8931Z" fill="#B8D0FF"/>
<path id="Vector_90" d="M49.2908 52.6875H41.7891V54.2476H49.2908V52.6875Z" fill="#B8D0FF"/>
<path id="Vector_91" d="M49.2908 55.4722H41.7891V57.0323H49.2908V55.4722Z" fill="#B8D0FF"/>
<path id="Vector_92" d="M47.5311 50.2827H43.5508V50.6681H47.5311V50.2827Z" fill="#F59F45"/>
<path id="Vector_93" d="M50.0383 47.8465C50.0383 48.5235 49.4882 49.071 48.8112 49.071H42.27C41.5931 49.071 41.043 48.5235 41.043 47.8465C41.043 47.171 41.5931 46.6221 42.27 46.6221H48.8112C49.4882 46.6221 50.0383 47.1696 50.0383 47.8465Z" fill="#2957A4"/>
<path id="Vector_94" d="M49.2908 47.0544H41.7891V48.6145H49.2908V47.0544Z" fill="#B8D0FF"/>
<path id="Vector_95" d="M47.5311 47.4441H43.5508V47.8295H47.5311V47.4441Z" fill="#F59F45"/>
<path id="Vector_96" d="M47.5311 53.0674H43.5508V53.4514H47.5311V53.0674Z" fill="#F59F45"/>
<path id="Vector_97" d="M47.5311 55.8503H43.5508V56.2343H47.5311V55.8503Z" fill="#F59F45"/>
<path id="Vector_98" d="M42.0352 48.0955H48.8671" stroke="#1E365E" stroke-width="0.5" stroke-miterlimit="10" stroke-linecap="round"/>
<path id="Vector_99" d="M41.9961 51.011H49.0176" stroke="#1E365E" stroke-width="0.5" stroke-miterlimit="10" stroke-linecap="round"/>
<path id="Vector_100" d="M42.0703 53.8508H49.2429" stroke="#1E365E" stroke-width="0.5" stroke-miterlimit="10" stroke-linecap="round"/>
<path id="Vector_101" d="M42.1484 56.6924H49.0175" stroke="#1E365E" stroke-width="0.5" stroke-miterlimit="10" stroke-linecap="round"/>
<g id="Vector_102" style="mix-blend-mode:multiply" opacity="0.3">
<path d="M46.0906 54.5051C43.8048 52.1472 42.5279 49.0355 41.4077 45.9993H40.1992V58.6037H50.879V57.2129C49.0933 56.7592 47.4402 55.8974 46.0906 54.5051Z" fill="#B8D0FF"/>
</g>
</g>
<g id="Group_40">
<path id="Vector_103" d="M65.212 17.0557H55.4258V22.521H65.212V17.0557Z" fill="#2957A4"/>
<g id="Group_41">
<path id="Vector_104" d="M58.897 17.9346L57.1484 19.5544L58.7218 20.8997" stroke="white" stroke-miterlimit="10"/>
<path id="Vector_105" d="M61.8125 18.1096L63.4927 19.8005L61.8652 21.0791" stroke="white" stroke-miterlimit="10"/>
<path id="Vector_106" d="M61.3075 17.6431L59.043 21.9337" stroke="white" stroke-miterlimit="10"/>
</g>
</g>
<g id="Group_42">
<g id="Group_43">
<g id="Group_44">
<g id="Group_45">
<path id="Vector_107" d="M74.6712 56.2912C74.2494 56.7904 73.4613 56.769 72.9568 57.1786C72.9212 57.207 72.8856 57.2398 72.867 57.2824C72.8285 57.3763 72.8913 57.4872 72.9796 57.5327C73.068 57.5782 73.1706 57.5768 73.2703 57.574C73.829 57.5569 74.3876 57.5398 74.9463 57.5228C75.0061 57.5213 75.0688 57.5185 75.1244 57.4929C75.2441 57.4389 75.2983 57.2966 75.341 57.1701C75.4679 56.7875 75.4764 56.4519 75.6032 56.0693C75.2313 56.0764 75.0417 56.1803 74.6712 56.2898" fill="#FA805B"/>
<path id="Vector_108" d="M72.867 57.2838C72.8856 57.2411 72.9212 57.2084 72.9568 57.1799C73.1577 57.0164 73.4043 56.9211 73.6537 56.8344C73.7349 56.9922 73.9273 57.0733 74.1169 57.0889C74.2465 57.1003 74.3762 57.1003 74.5059 57.1031C74.637 57.106 74.7667 57.1017 74.895 57.0719C75.0902 57.0264 75.2783 56.941 75.4322 56.8145C75.408 56.9311 75.3795 57.0491 75.3396 57.1728C75.2968 57.2994 75.2427 57.4416 75.123 57.4957C75.0674 57.5213 75.0047 57.5227 74.9448 57.5255C74.3862 57.5426 73.8276 57.5597 73.2689 57.5767C73.1706 57.5796 73.0665 57.581 72.9796 57.5355C72.8913 57.4886 72.8285 57.379 72.867 57.2852" fill="#2957A4"/>
</g>
<g id="Group_46">
<path id="Vector_109" d="M78.6754 36.576C79.1913 39.5455 77.8331 43.6384 76.7443 46.4514C76.5919 46.8439 76.4237 47.235 76.3695 47.6517C76.3225 48.0143 76.361 48.3827 76.3895 48.7467C76.5235 50.5102 76.3054 52.1755 76.0802 53.9305C75.9548 54.9117 75.9648 55.4522 75.8223 56.56C75.5515 56.5188 74.286 56.3069 74.3274 56.3339C74.1934 55.2886 73.7146 49.0198 74.229 44.8501C74.5254 42.4495 74.9758 40.0745 75.5472 37.7223C75.5701 37.6327 75.761 36.5206 75.8665 36.5291C76.4821 36.5831 77.2175 36.5476 77.6336 36.5746H78.6754V36.576Z" fill="#2957A4"/>
<g id="Vector_110" style="mix-blend-mode:multiply" opacity="0.3">
<path d="M76.7431 46.4514C77.286 45.0492 77.896 43.3298 78.3078 41.5891C78.2294 41.6645 78.1539 41.7427 78.0841 41.8266C77.6936 42.2988 77.4186 42.8306 77.1563 43.381C76.5706 44.6154 75.9222 45.9224 75.6671 47.2734C75.3792 48.7909 75.6001 50.3609 75.6486 51.8911C75.6984 53.4356 75.5189 54.9558 75.3906 56.4918C75.5787 56.5216 75.7412 56.5486 75.8196 56.56C75.9621 55.4522 75.9521 54.9118 76.0775 53.9305C76.3027 52.1756 76.5207 50.5102 76.3868 48.7468C76.3597 48.3827 76.3198 48.0144 76.3668 47.6517C76.4224 47.235 76.5906 46.8425 76.7416 46.4514H76.7431Z" fill="#2957A4"/>
</g>
</g>
</g>
<g id="Group_47">
<g id="Group_48">
<path id="Vector_111" d="M79.5072 56.8786C79.0853 57.3778 78.2972 57.3564 77.7927 57.766C77.7571 57.7959 77.7215 57.8272 77.703 57.8698C77.6645 57.9637 77.7272 58.0746 77.8156 58.1201C77.9039 58.1656 78.0065 58.1642 78.1063 58.1614C78.6649 58.1443 79.2236 58.1272 79.7822 58.1102C79.8435 58.1087 79.9048 58.1059 79.9603 58.0803C80.0801 58.0263 80.1342 57.884 80.177 57.7575C80.3038 57.3749 80.3123 57.0407 80.4392 56.6567C80.0672 56.6638 79.8777 56.7677 79.5072 56.8772" fill="#FA805B"/>
<path id="Vector_112" d="M77.7044 57.8712C77.7229 57.8285 77.7585 57.7958 77.7942 57.7673C77.9951 57.6038 78.2417 57.5085 78.4911 57.4218C78.5723 57.5796 78.7647 57.6607 78.9542 57.6763C79.0839 57.6877 79.2136 57.6877 79.3433 57.6906C79.4744 57.6934 79.6041 57.6891 79.7323 57.6593C79.9276 57.6138 80.1157 57.5284 80.2696 57.4019C80.2454 57.5185 80.2169 57.6365 80.1755 57.7602C80.1328 57.8868 80.0786 58.029 79.9589 58.0831C79.9033 58.1087 79.8406 58.1101 79.7808 58.1129C79.2221 58.13 78.6635 58.1471 78.1048 58.1641C78.0065 58.167 77.9025 58.1684 77.8156 58.1229C77.7272 58.076 77.6645 57.9664 77.703 57.8726" fill="#2957A4"/>
<g id="Group_49">
<path id="Vector_113" d="M80.672 35.8052C81.6183 38.9879 81.8249 42.3854 81.2734 45.6592C81.1879 46.1655 81.0839 46.676 81.1081 47.1894C81.1309 47.6772 81.2663 48.1508 81.3646 48.6287C81.9403 51.4417 81.3717 54.3713 80.4882 57.1032C80.0834 57.0335 79.5433 56.9454 79.1386 56.8771C79.5234 53.5535 78.4246 49.7721 78.2237 46.4329C78.1553 45.298 78.1125 43.58 77.9515 42.4537C77.5439 39.6051 77.6508 38.9424 77.6337 36.5305C78.3875 36.465 79.921 36.091 80.6706 35.8052" fill="#2957A4"/>
<g id="Vector_114" style="mix-blend-mode:multiply" opacity="0.3">
<path d="M81.3642 48.6287C81.2658 48.1508 81.1304 47.6758 81.1076 47.1894C81.0848 46.676 81.1874 46.1669 81.273 45.6592C81.8245 42.3869 81.6164 38.9879 80.6716 35.8052C80.3894 35.9133 79.9946 36.0327 79.5742 36.1451C80.4236 37.5473 80.5091 39.4089 80.569 40.9875C80.6174 42.2432 80.5718 43.4819 80.5119 44.7362C80.4407 46.2039 80.5804 47.5876 80.8012 49.0368C80.9993 50.3338 81.0407 51.5312 80.7927 52.8226C80.6131 53.7569 80.5091 54.7055 80.3367 55.6412C80.2497 56.1106 80.1428 56.5742 80.006 57.0221C80.177 57.0506 80.3424 57.0776 80.4906 57.1032C81.3741 54.3713 81.9428 51.4417 81.367 48.6287H81.3642Z" fill="#2957A4"/>
</g>
<path id="Vector_115" d="M79.4023 36.667C79.4109 37.0623 79.6161 37.4435 79.676 37.8332C79.7372 38.2356 79.7572 38.6523 79.7657 39.0647C79.7828 39.881 79.8698 40.6988 79.9496 41.5065C80.1063 43.0823 80.0821 44.7377 80.0835 46.3447C80.0835 47.8692 80.5823 49.2345 80.5823 50.7306C80.5823 52.2153 80.6094 53.7185 80.3201 55.162C80.2617 55.4592 79.9596 57.0094 80.0066 57.025" stroke="#2957A4" stroke-width="0.5" stroke-miterlimit="10"/>
</g>
</g>
<g id="Group_50">
<path id="Vector_116" d="M78.0023 28.6235C78.6935 28.6363 79.4659 28.6846 79.9376 29.181C80.4136 29.683 80.4022 30.4495 80.3666 31.1336C80.2782 32.8672 80.2497 34.7202 81.1846 36.1936C79.3533 36.9843 77.227 37.0966 75.3202 36.5022C75.4998 35.3104 75.6437 34.0845 75.3687 32.9098C75.1207 31.8546 74.5507 30.7126 75.0723 29.7569C75.353 29.2421 75.9088 28.9165 76.4846 28.7728C77.0603 28.6292 77.6631 28.6448 78.0009 28.6221" fill="#F59F45"/>
<path id="Vector_117" d="M75.5654 34.9164C75.6837 34.9235 75.7991 34.9406 75.9174 34.932C76.0329 34.9235 76.1469 34.9022 76.2595 34.8823C76.4661 34.8453 76.6713 34.8197 76.8737 34.7571C77.6219 34.5281 78.219 33.9479 78.551 33.261C78.9315 32.4746 79.0056 31.6199 78.9957 30.7609C78.9871 30.0327 78.8646 29.2762 78.4841 28.6433C79.0299 28.6817 79.5728 28.7969 79.9377 29.1809C80.4137 29.6829 80.4023 30.4494 80.3666 31.1335C80.2783 32.8671 80.2498 34.7201 81.1846 36.1935C79.3534 36.9842 77.2271 37.0965 75.3203 36.5021C75.4001 35.9759 75.4728 35.4426 75.5041 34.9107C75.5241 34.9107 75.5441 34.915 75.5654 34.915" fill="#F59630"/>
<path id="Vector_118" d="M77.8922 32.1761C76.9246 31.8291 76.1507 31.0014 75.8828 30.0244" stroke="#1E365E" stroke-width="0.5" stroke-miterlimit="10"/>
<path id="Vector_119" d="M76.7885 32.4177C76.341 32.102 75.9847 31.664 75.7695 31.1663" stroke="#1E365E" stroke-width="0.5" stroke-miterlimit="10"/>
</g>
<g id="Group_51">
<path id="Vector_120" d="M77.9538 26.6708C78.0834 27.0931 78.6036 27.2482 78.8801 27.5923C79.128 27.9009 79.1893 28.3702 79.5342 28.5651C79.8221 28.7272 80.2126 28.6319 80.4819 28.8239C80.7869 29.0415 80.784 29.5165 81.0562 29.7753C81.1831 29.8948 81.3569 29.9545 81.5294 29.973C82.2419 30.0484 82.9288 29.3572 82.8504 28.6475C82.8219 28.3873 82.7079 28.1441 82.658 27.8867C82.6082 27.6293 82.6395 27.3278 82.8433 27.1614C82.9274 27.0931 83.0329 27.0547 83.1255 26.9979C83.5616 26.7319 83.6314 26.0607 83.3236 25.6539C83.0157 25.2472 82.4329 25.1093 81.9398 25.2401C81.6562 25.3155 81.3099 25.4506 81.1075 25.2401C81.0306 25.1604 80.9992 25.0481 80.9422 24.9528C80.8068 24.7281 80.5232 24.6143 80.2624 24.6414C80.0002 24.667 79.7622 24.8149 79.5812 25.0083C79.4601 25.1377 79.4843 25.5203 79.3618 25.6511C79.0739 25.9583 78.672 25.6013 78.4511 25.6682C78.3157 25.7094 77.8611 26.3693 77.9538 26.6736" fill="#2957A4"/>
<g id="Group_52">
<path id="Vector_121" d="M76.9943 28.0105C77.0128 28.4087 76.9415 28.8112 76.7891 29.1795C77.0541 29.3658 77.409 29.3431 77.7296 29.2904C77.8878 29.2634 78.046 29.2321 78.1899 29.1624C78.2056 29.1539 78.2227 29.1454 78.2327 29.1312C78.2427 29.1155 78.247 29.0956 78.2427 29.0771C78.0617 28.4187 78.0759 27.7943 78.1956 27.0107C77.8835 27.1288 77.5201 27.0036 77.2023 27.1074C77.1724 27.1174 77.1411 27.1288 77.1183 27.1515C77.0912 27.18 77.0798 27.2198 77.0698 27.2582C77.0042 27.5284 76.9857 27.8057 76.9943 28.0119" fill="#FF7E42"/>
<path id="Vector_122" d="M77.8745 28.0844C78.094 27.736 78.0612 27.3094 78.1866 26.9282C77.8745 27.0463 77.5211 27.0022 77.2047 27.106C77.1748 27.1159 77.1434 27.1273 77.1206 27.1501C77.0935 27.1785 77.0821 27.2183 77.0721 27.2567C77.0066 27.5269 76.9881 27.8043 76.9966 28.0105C77.0066 28.2309 76.9895 28.4528 76.9453 28.6689C77.3215 28.6163 77.6693 28.4087 77.8731 28.0844" fill="#D75B24"/>
<path id="Vector_123" d="M76.5188 26.2056C76.4546 26.4502 76.3934 26.6664 76.3406 26.9138C76.2679 27.2509 76.1696 27.5097 76.3079 27.8254C76.419 28.0828 76.6599 28.2905 76.9948 28.2862C77.2755 28.2819 77.522 28.1582 77.7216 27.962C78.1049 27.5837 78.3201 27.0418 78.3002 26.5043C78.293 26.3265 78.2759 26.1715 78.075 26.0293C77.8484 25.8671 77.6361 25.8031 77.3624 25.7548C76.972 25.6865 76.5843 25.9596 76.5202 26.2042" fill="#FF7E42"/>
<g id="Group_53">
<path id="Vector_124" d="M76.4476 25.378C76.1042 25.5828 75.9545 25.8132 76.1156 26.0706C76.221 26.2413 76.375 26.1275 76.4248 26.1318C76.4947 26.1374 76.5146 26.2285 76.5503 26.2882C76.6158 26.3991 76.764 26.4247 76.8923 26.4219C77.0205 26.419 77.1531 26.3977 77.2585 26.3252C77.3298 26.2754 77.3854 26.2057 77.4609 26.1616C77.5364 26.1175 77.6462 26.1104 77.6989 26.1787C77.7659 26.2654 77.6989 26.4005 77.7545 26.4944C77.7929 26.557 77.8756 26.5783 77.9497 26.5698C78.0851 26.5527 78.1991 26.4475 78.2476 26.3209C78.296 26.1943 78.286 26.0507 78.2404 25.9227C78.192 25.7876 78.105 25.6681 77.991 25.58C77.7217 25.3723 77.4424 25.5473 77.1645 25.3524C76.9322 25.1889 76.4833 25.3553 76.4462 25.378" fill="#2957A4"/>
<path id="Vector_125" d="M77.8778 26.0721C77.9519 26.2712 77.979 26.4873 77.9519 26.6978C77.9491 26.7262 77.9448 26.7547 77.9476 26.7831C77.9519 26.8158 77.9662 26.8457 77.9804 26.8741C78.046 27.0078 78.113 27.1415 78.1799 27.2752C78.408 27.1045 78.7158 26.8713 78.616 26.3721C78.5975 26.2768 78.5619 26.1218 78.5049 26.0436C78.2327 25.6739 77.9719 25.9441 77.932 25.9753C77.8906 26.0052 77.8664 26.0649 77.8778 26.0706" fill="#2957A4"/>
</g>
<path id="Vector_126" d="M78.0679 27.0576C78.1734 26.9709 78.3316 26.9566 78.4484 27.0206C78.6565 27.1358 78.3216 27.5042 77.9268 27.4586C77.8713 27.453 77.8086 27.4288 77.7957 27.3747C77.7843 27.3321 77.81 27.288 77.8385 27.2524C77.914 27.1529 78.0067 27.069 78.0694 27.0576" fill="#FF7E42"/>
</g>
</g>
</g>
</g>
<g id="Group_54">
<path id="Vector_127" d="M75.7514 23.5962H51.1953V47.4882H75.7514V23.5962Z" fill="#B8D0FF"/>
<g id="Group_55">
<path id="Vector_128" d="M75.7428 23.5962H51.1953V26.5642H75.7428V23.5962Z" fill="#2957A4"/>
<g id="Group_56">
<path id="Vector_129" d="M53.2615 24.832C53.2615 25.0837 53.0563 25.2885 52.8026 25.2885C52.549 25.2885 52.3438 25.0837 52.3438 24.832C52.3438 24.5803 52.549 24.3755 52.8026 24.3755C53.0563 24.3755 53.2615 24.5803 53.2615 24.832Z" fill="white"/>
<path id="Vector_130" d="M55.3826 24.832C55.3826 25.0837 55.1774 25.2885 54.9237 25.2885C54.6701 25.2885 54.4648 25.0837 54.4648 24.832C54.4648 24.5803 54.6701 24.3755 54.9237 24.3755C55.1774 24.3755 55.3826 24.5803 55.3826 24.832Z" fill="white"/>
<path id="Vector_131" d="M57.5076 24.832C57.5076 25.0837 57.3024 25.2885 57.0487 25.2885C56.7951 25.2885 56.5898 25.0837 56.5898 24.832C56.5898 24.5803 56.7951 24.3755 57.0487 24.3755C57.3024 24.3755 57.5076 24.5803 57.5076 24.832Z" fill="white"/>
</g>
</g>
<g id="Group_57">
<g id="Group_58">
<path id="Vector_132" d="M73.333 29.4739H60.8633V30.3272H73.333V29.4739Z" fill="#E1EDFF"/>
<path id="Vector_133" d="M73.333 31.2756H60.8633V32.1289H73.333V31.2756Z" fill="#E1EDFF"/>
<path id="Vector_134" d="M68.9622 33.2668H60.8633V34.1201H68.9622V33.2668Z" fill="#E1EDFF"/>
<path id="Vector_135" d="M73.1435 36.3955H60.8633V37.2488H73.1435V36.3955Z" fill="#E1EDFF"/>
<path id="Vector_136" d="M73.1435 38.2913H60.8633V39.1445H73.1435V38.2913Z" fill="#E1EDFF"/>
<path id="Vector_137" d="M73.1435 40.5667H60.8633V41.4199H73.1435V40.5667Z" fill="#E1EDFF"/>
<path id="Vector_138" d="M73.1435 43.2217H60.8633V44.075H73.1435V43.2217Z" fill="#E1EDFF"/>
</g>
<g id="Group_59">
<path id="Vector_139" d="M59.0835 33.8357H55.6875V34.689H59.0835V33.8357Z" fill="#E1EDFF"/>
<path id="Vector_140" d="M59.0835 31.2756H55.6875V32.1289H59.0835V31.2756Z" fill="#E1EDFF"/>
<path id="Vector_141" d="M59.0838 29.4739H52.457V30.3272H59.0838V29.4739Z" fill="#E1EDFF"/>
<path id="Vector_142" d="M59.0826 35.7312H53.1328V36.5845H59.0826V35.7312Z" fill="#E1EDFF"/>
<path id="Vector_143" d="M59.0824 37.9128H56.3633V38.7661H59.0824V37.9128Z" fill="#E1EDFF"/>
<path id="Vector_144" d="M59.0842 40.093H54.3984V40.9463H59.0842V40.093Z" fill="#E1EDFF"/>
<path id="Vector_145" d="M59.0829 43.6953H55.3477V44.5486H59.0829V43.6953Z" fill="#E1EDFF"/>
</g>
</g>
<g id="Vector_146" style="mix-blend-mode:multiply" opacity="0.3">
<path d="M71.895 44.7065C68.7769 43.4365 66.0393 41.4996 63.4598 39.3649C58.6928 35.4185 54.5557 29.9702 54.2764 23.5962H51.1953V47.4882H75.7514V45.8528C74.4317 45.574 73.1363 45.2114 71.895 44.7065Z" fill="#B8D0FF"/>
</g>
</g>
<g id="Group_60">
<g id="Group_61">
<path id="Vector_147" d="M78.5158 32.6354C77.4555 33.2426 75.8152 34.332 74.9701 34.4642C74.5355 34.5325 74.0923 34.4941 73.6662 34.386C72.4819 34.0831 71.9446 33.409 70.8516 32.8615C71.071 32.6026 70.9371 32.7605 71.0596 32.4448C72.1057 32.7833 74.725 34.0191 76.3625 32.3609C77.655 31.0511 77.8745 31.1307 78.8578 30.7012C79.0716 30.6074 79.5732 30.5121 79.7842 30.6145C79.9936 30.7169 80.3955 31.5588 78.5144 32.6368" fill="#FF7E42"/>
<path id="Vector_148" d="M70.9604 32.8799C70.6468 32.8486 70.3276 32.8159 70.0298 32.7107C69.9343 32.6779 69.8046 32.6524 69.7747 32.5556C69.8231 32.4988 69.8402 32.54 69.9713 32.5756C70.0426 32.5955 70.1395 32.6324 70.2093 32.6068C69.9371 32.5315 69.6892 32.375 69.5039 32.1617C69.5424 32.129 69.6008 32.1318 69.6478 32.1518C69.6934 32.1717 69.7319 32.2072 69.7718 32.2371C69.8744 32.3153 69.9984 32.3651 70.1253 32.3807C69.9001 32.2741 69.6592 32.1503 69.5566 31.9242C69.5809 31.8929 69.6279 31.8872 69.6664 31.9029C69.7034 31.9171 69.7334 31.9455 69.7633 31.9711C69.8759 32.0693 70.0112 32.1404 70.1552 32.1788C69.9599 32.0721 69.7918 31.9185 69.6678 31.7336C69.7162 31.6796 69.8018 31.7308 69.8588 31.7777C70.0098 31.9029 70.1766 31.9925 70.329 32.0252C70.3533 32.0309 70.4758 32.0735 70.4915 32.0536C70.5029 32.038 70.4288 31.8204 70.4174 31.7365C70.4089 31.6625 70.4431 31.5715 70.5172 31.563C70.6654 31.9299 70.8407 32.3267 71.1941 32.5016C71.0986 32.6268 71.0217 32.7661 70.9589 32.877" fill="#FF7E42"/>
</g>
<path id="Vector_149" d="M79.9866 29.3176C80.1861 29.5992 80.2788 29.9533 80.2446 30.296C80.2232 30.5022 80.1591 30.7027 80.0835 30.8962C79.7344 31.7864 79.1458 32.58 78.3962 33.173C77.906 32.8004 77.4585 32.3723 77.0666 31.8988C77.0366 31.8632 77.0067 31.8234 77.0124 31.7779C77.0167 31.7423 77.0409 31.7139 77.0652 31.6869C77.7578 30.9161 78.5188 30.205 79.3339 29.5665C79.495 29.4413 79.666 29.3133 79.8669 29.2778C79.9481 29.2635 80.0679 29.3474 79.9881 29.319" fill="#F59F45"/>
</g>
</g>
<path id="Vector_150" d="M47.8595 12.93C49.0268 12.93 49.973 11.9857 49.973 10.821C49.973 9.65616 49.0268 8.71191 47.8595 8.71191C46.6923 8.71191 45.7461 9.65616 45.7461 10.821C45.7461 11.9857 46.6923 12.93 47.8595 12.93Z" fill="white"/>
</g>
</g>
</g>
</g>
<defs>
<clipPath id="clip0_1850_36468">
<rect width="90" height="58.8626" fill="white"/>
</clipPath>
</defs>
</svg>
