<svg width="90" height="95" viewBox="0 0 90 95" fill="none" xmlns="http://www.w3.org/2000/svg">
<g id="Hosting" clip-path="url(#clip0_1850_40010)">
<path id="Vector" d="M45.0018 89.5062C67.6314 89.5062 85.9763 88.7326 85.9763 87.7784C85.9763 86.8241 67.6314 86.0505 45.0018 86.0505C22.3722 86.0505 4.02734 86.8241 4.02734 87.7784C4.02734 88.7326 22.3722 89.5062 45.0018 89.5062Z" fill="#BACDFF"/>
<g id="Group">
<g id="Group_2">
<path id="Vector_2" opacity="0.29" d="M74.4464 79.0212C77.5758 77.3556 80.7224 75.6364 83.3024 73.3032C87.3505 69.6415 89.7952 64.5159 89.9862 59.2895C90.1773 54.0652 88.1103 48.798 84.3369 44.8937C82.549 43.0435 80.379 41.4659 79.0311 39.326C77.505 36.9027 77.1852 34.0201 76.4769 31.2964C75.3865 27.1023 73.2917 23.1315 70.3876 19.751C66.5542 15.2886 61.1968 11.8308 55.159 10.6353C49.1234 9.43975 42.4374 10.6739 37.7561 14.3872C33.7617 17.5552 31.4694 22.1871 27.7497 25.6256C25.4681 27.7334 22.6649 29.3603 19.6171 30.3455C15.3093 31.7364 10.0699 31.9746 6.46616 34.7563C2.80658 37.581 0.945664 42.0777 0.291018 46.3296C-1.07837 55.2328 2.4374 64.3292 8.42152 71.2706C12.8152 76.3661 17.8055 80.4593 24.5838 82.2902C32.3558 84.3893 40.7289 83.651 48.6834 83.7497C57.5372 83.8592 66.5327 83.2346 74.4443 79.0212H74.4464Z" fill="#BACDFF"/>
<g id="Group_3">
<path id="Vector_3" d="M31.752 53.3249C31.7348 53.3206 31.7155 53.3249 31.7026 53.3356C31.3721 53.6232 31.0673 53.928 30.7689 54.2414C30.6208 54.3981 30.477 54.5569 30.3311 54.7157C30.1873 54.8767 30.0499 55.0398 29.9104 55.2008C29.3566 55.8555 28.8307 56.5294 28.3392 57.227C27.3519 58.62 26.4783 60.0881 25.7056 61.6099C25.5146 61.992 25.3321 62.3783 25.1475 62.7647C24.9672 63.1532 24.8041 63.5503 24.6367 63.943C24.553 64.1405 24.4736 64.338 24.392 64.5376C24.3147 64.7394 24.2396 64.939 24.1688 65.1429C24.0293 65.5485 23.8919 65.9564 23.7889 66.377C23.688 66.7977 23.6064 67.2249 23.5399 67.6541L23.4948 67.9782L23.4669 68.3066C23.4519 68.5277 23.4412 68.7466 23.4369 68.9699C23.4304 69.1909 23.4347 69.4142 23.439 69.6353C23.4412 69.8563 23.4734 70.086 23.5013 70.3114C23.5635 70.7642 23.6472 71.2193 23.8018 71.6786C23.8125 71.7087 23.8447 71.7258 23.8747 71.7151C23.8833 71.713 23.8919 71.7065 23.8983 71.7001C24.2439 71.3459 24.5208 70.9853 24.7762 70.6269C25.0209 70.2663 25.2699 69.91 25.4888 69.5515C25.6004 69.3713 25.7035 69.191 25.8043 69.0107L25.9503 68.7381L26.1005 68.4655C26.2959 68.1027 26.4762 67.7357 26.6371 67.3644C26.8024 66.9931 26.9698 66.6217 27.1158 66.244C27.1888 66.0551 27.2596 65.8641 27.3283 65.6752C27.4034 65.4863 27.4807 65.2974 27.5515 65.1085L27.7704 64.5397C27.8434 64.3487 27.9099 64.1577 27.9872 63.9688C28.1375 63.5889 28.2877 63.209 28.4294 62.8269C29.0239 61.303 29.6142 59.7662 30.1873 58.2036C30.477 57.4245 30.7496 56.6325 31.0243 55.8362C31.2926 55.0356 31.5588 54.2307 31.7885 53.3914C31.797 53.3635 31.7799 53.3335 31.752 53.327V53.3249Z" fill="#3E8F7D"/>
<path id="Vector_4" d="M23.3915 58.0877C23.1339 56.6969 22.7841 55.3167 22.3269 53.9538C22.2131 53.6125 22.0908 53.2734 21.9599 52.9364C21.8955 52.7668 21.8289 52.5994 21.7603 52.4299L21.5456 51.9255C21.2473 51.2558 20.9253 50.5904 20.5111 49.9443C20.4939 49.9186 20.4595 49.9121 20.4359 49.9272C20.4252 49.9358 20.4166 49.9465 20.4123 49.9594C20.2041 50.6956 20.0689 51.4168 19.953 52.1315C19.8371 52.8484 19.7512 53.5567 19.6868 54.265C19.5559 55.6773 19.5087 57.0768 19.5216 58.4676C19.528 59.1631 19.5516 59.8563 19.5881 60.5475C19.6074 60.893 19.6396 61.2386 19.6826 61.582C19.7233 61.9255 19.7748 62.2689 19.8414 62.6102C19.9745 63.2948 20.1462 63.9753 20.3887 64.6535C20.6355 65.3318 20.9189 66.0079 21.3718 66.6797C21.6401 67.0768 22.1809 67.1819 22.578 66.9136C22.7004 66.8299 22.797 66.7205 22.8613 66.5981L22.8656 66.5895C23.0545 66.2268 23.1812 65.8684 23.2992 65.5078C23.413 65.1493 23.5053 64.7887 23.5739 64.4324C23.7156 63.7177 23.7929 63.0051 23.8079 62.2968C23.8294 61.5885 23.795 60.8823 23.7135 60.1826C23.6298 59.4829 23.5181 58.7831 23.3915 58.0877Z" fill="#276B5B"/>
<path id="Vector_5" d="M18.9178 68.8753C18.9006 68.7465 18.8792 68.6199 18.8534 68.4932C18.8234 68.3687 18.7955 68.2442 18.7611 68.1219C18.6946 67.8772 18.6216 67.6304 18.5293 67.3964C18.3447 66.9264 18.1194 66.4713 17.8682 66.0313C17.3681 65.1535 16.765 64.3335 16.0374 63.6016C15.8528 63.4192 15.6617 63.2432 15.4664 63.0715C15.2647 62.9019 15.0608 62.7366 14.844 62.5799C14.4061 62.2709 13.9468 61.9768 13.3995 61.7622C13.3673 61.7493 13.3329 61.7643 13.32 61.7965C13.3179 61.8029 13.3157 61.8094 13.3157 61.8158C13.2921 62.4018 13.3308 62.9255 13.3758 63.4385C13.4016 63.6939 13.4295 63.945 13.466 64.1897C13.5003 64.4366 13.539 64.6791 13.584 64.9152C13.7601 65.8682 13.994 66.7654 14.2752 67.6325C14.3439 67.8493 14.4211 68.0618 14.4941 68.2764C14.5649 68.4911 14.6444 68.7014 14.7324 68.9075C14.8225 69.1135 14.9084 69.3196 15.0135 69.5192C15.1166 69.721 15.2303 69.9184 15.3441 70.1137C15.46 70.3091 15.5888 70.5044 15.7326 70.6933C15.8678 70.8843 16.0138 71.0753 16.1769 71.2621C16.5182 71.6355 16.853 72.0111 17.3724 72.3717L17.396 72.3889C17.7394 72.6272 18.2095 72.5413 18.4478 72.1979C18.4671 72.1721 18.4842 72.1399 18.4993 72.112C18.6452 71.8266 18.7311 71.5497 18.8105 71.2728C18.8448 71.1354 18.8813 70.9959 18.9049 70.8585C18.9264 70.7233 18.9436 70.5881 18.9586 70.4529C18.9843 70.1824 18.9972 69.9141 18.9908 69.6501C18.9801 69.3883 18.9543 69.1286 18.9178 68.8731V68.8753Z" fill="#276B5B"/>
<path id="Vector_6" d="M31.7962 53.2777C31.749 53.2477 31.6867 53.2627 31.6567 53.3099C31.1051 54.1857 30.5857 55.0764 30.0791 55.9758C29.5726 56.8751 29.0832 57.7852 28.6131 58.7038C28.1431 59.6225 27.6902 60.5497 27.2566 61.4877C26.823 62.4235 26.4088 63.37 26.0224 64.3295C25.6339 65.2868 25.2669 66.2526 24.9364 67.2335C24.6037 68.2123 24.2968 69.2018 24.0413 70.2041C23.5198 72.2046 23.1699 74.2651 23.1484 76.3471C23.1484 76.4394 23.2214 76.5145 23.3137 76.5145C23.406 76.5145 23.4811 76.4415 23.4811 76.3492C23.4919 74.3037 23.8245 72.2647 24.3311 70.2771C24.5779 69.2812 24.8784 68.2981 25.2025 67.3237C25.5245 66.3471 25.8851 65.3855 26.2671 64.4304C26.647 63.4752 27.0549 62.5287 27.482 61.595C27.9091 60.6592 28.3556 59.7319 28.8192 58.8133C29.2849 57.8946 29.7657 56.9845 30.2658 56.0852C30.766 55.1859 31.2811 54.293 31.8241 53.4216C31.8542 53.3722 31.8391 53.3121 31.7919 53.282L31.7962 53.2777Z" fill="#276B5B"/>
<path id="Vector_7" d="M22.3155 67.6283L22.2039 65.8533L22.1459 64.9668L22.0794 64.0804C21.9077 61.7151 21.693 59.354 21.4419 56.9952C21.1908 54.6363 20.9074 52.2839 20.5597 49.9357C20.5511 49.8799 20.5018 49.8434 20.446 49.8499C20.3902 49.8584 20.3537 49.9078 20.3601 49.9636C20.6971 52.3075 20.9697 54.662 21.2079 57.0188C21.4483 59.3755 21.6501 61.7344 21.8111 64.0976L21.8733 64.984L21.927 65.8705L22.03 67.6434C22.0837 68.826 22.1502 70.0087 22.1845 71.1913C22.279 73.5567 22.3026 75.9263 22.3112 78.2937V78.2959C22.3112 78.3882 22.3863 78.4611 22.4786 78.4611C22.5709 78.4611 22.6439 78.386 22.6439 78.2937C22.6245 75.922 22.5902 73.5502 22.4829 71.1806C22.4421 69.9958 22.3713 68.811 22.3112 67.6283H22.3155Z" fill="#3E8F7D"/>
<path id="Vector_8" d="M18.2146 72.4299C17.9162 71.1506 17.5127 69.9014 17.0405 68.6823C16.564 67.4631 16.021 66.274 15.42 65.115C14.8168 63.9559 14.1708 62.8248 13.4453 61.7344C13.4153 61.6894 13.353 61.6765 13.3079 61.7044C13.2607 61.7344 13.2478 61.7967 13.2779 61.8439C13.9712 62.9385 14.5915 64.0804 15.1624 65.2438C15.7333 66.4071 16.2463 67.5983 16.6906 68.8132C17.1328 70.0281 17.502 71.2687 17.766 72.5286C17.8969 73.1596 17.9978 73.795 18.0729 74.4303C18.1416 75.0678 18.1738 75.7074 18.1716 76.3449V76.3513C18.1716 76.3513 18.1716 76.3534 18.1716 76.3556C18.1738 76.5058 18.2983 76.626 18.4485 76.6217C18.5988 76.6196 18.719 76.4951 18.7147 76.3449C18.7018 75.6816 18.6524 75.0227 18.5687 74.368C18.4764 73.7155 18.3605 73.0673 18.2124 72.4277L18.2146 72.4299Z" fill="#3E8F7D"/>
<path id="Vector_9" d="M21.636 66.0507C21.5973 65.8146 21.5458 65.5828 21.4943 65.351L21.4084 65.0054C21.3784 64.8917 21.3419 64.7779 21.3097 64.6642C20.713 62.8655 19.9103 61.1484 19.0002 59.5064C18.0794 57.8687 17.0298 56.3104 15.8386 54.8659C15.244 54.1426 14.6151 53.4493 13.9455 52.7925C13.6128 52.462 13.2672 52.1443 12.9131 51.8374C12.5589 51.5304 12.1897 51.2342 11.7969 50.9638C11.7733 50.9466 11.7411 50.9531 11.724 50.9767C11.7132 50.9917 11.7132 51.0089 11.7175 51.0239C12.0524 51.9039 12.3936 52.756 12.7306 53.6017L13.7308 56.1173C14.3919 57.7807 15.0251 59.427 15.6347 61.0647C15.9352 61.8867 16.2271 62.7067 16.5125 63.5244C16.6499 63.9365 16.7937 64.3444 16.9268 64.7543L17.1286 65.3703L17.2294 65.6773L17.3368 65.982L17.5686 66.5852L17.6952 66.8835C17.7403 66.9823 17.7854 67.081 17.8283 67.1797C18.0021 67.5768 18.2125 67.9653 18.4271 68.3581C18.5387 68.5534 18.6546 68.7466 18.7791 68.9398C18.8993 69.1329 19.0281 69.3261 19.1676 69.5193C19.4574 69.9013 19.7364 70.292 20.1378 70.6697L20.1528 70.6826C20.4297 70.9445 20.8654 70.9295 21.1273 70.6547C21.1831 70.5968 21.226 70.5281 21.2561 70.4594C21.3677 70.204 21.4428 69.955 21.5115 69.7039C21.5802 69.4527 21.6317 69.2038 21.6682 68.9548C21.7046 68.708 21.7326 68.4611 21.7497 68.2143C21.7669 67.9696 21.7647 67.7271 21.7647 67.4824C21.7605 66.9951 21.7068 66.5208 21.636 66.0464V66.0507Z" fill="#3E8F7D"/>
<path id="Vector_10" d="M20.3488 68.1092C20.2759 67.8259 20.1921 67.5447 20.1149 67.2636L19.9968 66.8407L19.8659 66.4222C19.5289 65.3018 19.1297 64.2007 18.7047 63.1103C18.2797 62.0199 17.8075 60.951 17.301 59.8972C16.7966 58.8433 16.2578 57.8066 15.6847 56.7871C15.1117 55.7697 14.5064 54.7695 13.8668 53.7907C13.5491 53.3013 13.2207 52.8184 12.8837 52.3419C12.5446 51.8654 12.2012 51.3932 11.8363 50.9339C11.8019 50.8909 11.7397 50.8824 11.6946 50.9167C11.6517 50.951 11.6431 51.0133 11.6774 51.0584C12.0316 51.5155 12.3729 51.9899 12.7034 52.4664C13.034 52.945 13.3559 53.428 13.6671 53.9195C14.2917 54.9004 14.8863 55.9006 15.4465 56.918C16.0067 57.9375 16.5326 58.9742 17.0241 60.026C17.5156 61.0777 17.9749 62.1466 18.3849 63.2326C18.797 64.3187 19.1812 65.4134 19.5053 66.5295L19.6298 66.9459L19.7435 67.3666C19.8165 67.6478 19.8981 67.9246 19.9668 68.208C20.0998 68.7725 20.2415 69.3348 20.3488 69.9036C20.8232 72.1723 21.055 74.4883 21.0593 76.7999V76.8042C21.0593 76.9394 21.1687 77.0468 21.3018 77.0446C21.4349 77.0446 21.5401 76.9352 21.5401 76.8021C21.5122 74.4539 21.2546 72.1101 20.7523 69.8199C20.6364 69.2447 20.4905 68.678 20.3488 68.1092Z" fill="#276B5B"/>
<path id="Vector_11" d="M17.9502 82.2709H24.6126L25.6214 74.8916H16.9414L17.9502 82.2709Z" fill="#79BAEF"/>
<path id="Vector_12" d="M17.3821 82.6036H25.1821L25.283 81.876H17.2812L17.3821 82.6036Z" fill="#79BAEF"/>
</g>
<g id="Group_4">
<path id="Vector_13" d="M36.1724 20.0729V16.9177H34.524V20.0729H33.043L35.3482 22.376L37.6534 20.0729H36.1724Z" fill="#F59630"/>
<path id="Vector_14" d="M39.0211 23.7154H31.6719V22.0691H32.2707V23.1144H38.4223V22.0691H39.0211V23.7154Z" fill="#2F5FF4"/>
</g>
<g id="Group_5">
<path id="Vector_15" d="M27.6851 19.2102H21.5207C21.2741 19.2102 21.0742 19.4101 21.0742 19.6567V25.5034C21.0742 25.75 21.2741 25.9498 21.5207 25.9498H27.6851C27.9316 25.9498 28.1315 25.75 28.1315 25.5034V19.6567C28.1315 19.4101 27.9316 19.2102 27.6851 19.2102Z" fill="#79BAEF"/>
<path id="Vector_16" d="M21.5228 25.9499H27.6872C27.9341 25.9499 28.1337 25.7503 28.1337 25.5034V24.3809L27.3824 23.4172C27.112 23.0694 26.584 23.0673 26.3135 23.4172L25.8993 23.9473C25.6825 24.2242 25.2725 24.2457 25.03 23.9902L23.7035 22.6037C23.4202 22.3075 22.9416 22.3289 22.684 22.6487L21.0742 24.6556V25.5056C21.0742 25.7524 21.2738 25.952 21.5207 25.952L21.5228 25.9499Z" fill="#2F5FF4"/>
<path id="Vector_17" d="M26.13 21.2942C26.13 21.657 25.8359 21.951 25.4732 21.951C25.1105 21.951 24.8164 21.657 24.8164 21.2942C24.8164 20.9315 25.1105 20.6375 25.4732 20.6375C25.8359 20.6375 26.13 20.9315 26.13 21.2942Z" fill="#F59630"/>
</g>
<g id="Group_6">
<path id="Vector_18" d="M62.0371 14.0396H53.1404C52.8903 14.0396 52.6875 14.2423 52.6875 14.4924V20.7728C52.6875 21.0229 52.8903 21.2256 53.1404 21.2256H62.0371C62.2873 21.2256 62.49 21.0229 62.49 20.7728V14.4924C62.49 14.2423 62.2873 14.0396 62.0371 14.0396Z" fill="#4A7DD2"/>
<path id="Vector_19" d="M56.5156 16.4713V18.7722C56.5156 18.8667 56.6165 18.9289 56.7002 18.886L59.2072 17.5831C59.3038 17.5338 59.2973 17.3921 59.1965 17.3513L56.6895 16.3533C56.6058 16.3211 56.5156 16.3812 56.5156 16.4713Z" fill="#F59630"/>
</g>
<g id="Group_7">
<path id="Vector_20" d="M48.5913 12.7109H40.5703V17.9717H48.5913V12.7109Z" fill="#2957A4"/>
<path id="Vector_21" d="M48.457 19.3002H40.6377C40.4037 19.3002 40.2148 19.1114 40.2148 18.8774V13.49C40.2148 13.256 40.4037 13.0671 40.6377 13.0671H42.3204C42.5115 13.0671 42.6767 13.1938 42.7283 13.3784L42.9622 13.9064C43.0137 14.0888 43.179 14.2176 43.37 14.2176H48.457C48.6909 14.2176 48.8798 14.4065 48.8798 14.6404V18.8795C48.8798 19.1135 48.6909 19.3024 48.457 19.3024V19.3002Z" fill="#79BAEF"/>
</g>
<g id="Group_8">
<path id="Vector_22" d="M34.0084 10.9681C34.0084 13.6167 31.8599 15.7652 29.2112 15.7652C26.5626 15.7652 24.4141 13.6167 24.4141 10.9681C24.4141 8.31943 26.5626 6.1709 29.2112 6.1709C31.8599 6.1709 34.0084 8.31943 34.0084 10.9681Z" fill="#4A7DD2"/>
<path id="Vector_23" d="M30.6831 9.88209C30.6831 10.6956 30.0242 11.3545 29.2107 11.3545C28.3972 11.3545 27.7383 10.6956 27.7383 9.88209C27.7383 9.06861 28.3972 8.40967 29.2107 8.40967C30.0242 8.40967 30.6831 9.06861 30.6831 9.88209Z" fill="#FBAE5C"/>
<path id="Vector_24" d="M29.2108 15.7673C30.1531 15.7673 31.031 15.4947 31.7736 15.0268C31.6641 13.739 31.1984 11.4295 29.2581 11.3586C29.243 11.3565 29.228 11.3586 29.213 11.3586C29.198 11.3586 29.1829 11.3586 29.1679 11.3586C27.2276 11.4316 26.7618 13.7411 26.6523 15.0289C27.3928 15.499 28.2729 15.7694 29.2151 15.7694L29.2108 15.7673Z" fill="#FBAE5C"/>
</g>
<g id="Group_9">
<path id="Vector_25" d="M58.1448 7.53584H54.1289V5.05247C54.1289 3.94494 55.0304 3.04346 56.1379 3.04346C57.2455 3.04346 58.1469 3.94494 58.1469 5.05247V7.53584H58.1448ZM54.9338 6.7288H57.3378V5.05033C57.3378 4.38709 56.799 3.84835 56.1358 3.84835C55.4725 3.84835 54.9338 4.38709 54.9338 5.05033V6.7288Z" fill="#F59630"/>
<path id="Vector_26" d="M56.1373 11.6203C54.564 11.6203 53.2891 10.3454 53.2891 8.77208V6.65574C53.2891 6.25008 53.6175 5.92383 54.021 5.92383H58.2515C58.6572 5.92383 58.9834 6.25222 58.9834 6.65574V8.77208C58.9834 10.3454 57.7085 11.6203 56.1352 11.6203H56.1373Z" fill="#79BAEF"/>
<path id="Vector_27" d="M56.9032 8.03389C56.9032 7.61105 56.5619 7.26978 56.1391 7.26978C55.7163 7.26978 55.375 7.61105 55.375 8.03389C55.375 8.36658 55.5875 8.6499 55.8858 8.75293L55.4437 10.0021H56.8367L56.3945 8.75293C56.6907 8.64775 56.9054 8.36658 56.9054 8.03389H56.9032Z" fill="#F59630"/>
</g>
<g id="Group_10">
<g id="Group_11">
<path id="Vector_28" d="M76.5079 27.4885H69.6953V36.0526H76.5079V27.4885Z" fill="#2957A4"/>
<path id="Vector_29" d="M75.5237 29.0703H70.6836V29.3772H75.5237V29.0703Z" fill="#CCCCCC"/>
<path id="Vector_30" d="M75.5237 29.989H70.6836V30.2959H75.5237V29.989Z" fill="#CCCCCC"/>
<path id="Vector_31" d="M75.5237 30.9077H70.6836V31.2146H75.5237V30.9077Z" fill="#CCCCCC"/>
<path id="Vector_32" d="M75.5237 31.8242H70.6836V32.1312H75.5237V31.8242Z" fill="#CCCCCC"/>
<path id="Vector_33" d="M75.5237 32.7429H70.6836V33.0499H75.5237V32.7429Z" fill="#CCCCCC"/>
<path id="Vector_34" d="M75.5237 33.6616H70.6836V33.9686H75.5237V33.6616Z" fill="#CCCCCC"/>
<path id="Vector_35" d="M75.5237 34.5781H70.6836V34.8851H75.5237V34.5781Z" fill="#CCCCCC"/>
</g>
<g id="Group_12">
<path id="Vector_36" d="M70.4126 27.7505C70.3374 27.7505 70.2773 27.6904 70.2773 27.6153V27.3598C70.2773 27.2847 70.3374 27.2246 70.4126 27.2246C70.4877 27.2246 70.5478 27.2847 70.5478 27.3598V27.6153C70.5478 27.6904 70.4877 27.7505 70.4126 27.7505Z" fill="#F59630"/>
<path id="Vector_37" d="M71.0844 27.7505C71.0093 27.7505 70.9492 27.6904 70.9492 27.6153V27.3598C70.9492 27.2847 71.0093 27.2246 71.0844 27.2246C71.1596 27.2246 71.2197 27.2847 71.2197 27.3598V27.6153C71.2197 27.6904 71.1596 27.7505 71.0844 27.7505Z" fill="#F59630"/>
<path id="Vector_38" d="M71.7602 27.7505C71.6851 27.7505 71.625 27.6904 71.625 27.6153V27.3598C71.625 27.2847 71.6851 27.2246 71.7602 27.2246C71.8353 27.2246 71.8954 27.2847 71.8954 27.3598V27.6153C71.8954 27.6904 71.8353 27.7505 71.7602 27.7505Z" fill="#F59630"/>
<path id="Vector_39" d="M72.4321 27.7505C72.357 27.7505 72.2969 27.6904 72.2969 27.6153V27.3598C72.2969 27.2847 72.357 27.2246 72.4321 27.2246C72.5072 27.2246 72.5673 27.2847 72.5673 27.3598V27.6153C72.5673 27.6904 72.5072 27.7505 72.4321 27.7505Z" fill="#F59630"/>
<path id="Vector_40" d="M73.1001 27.7505C73.0249 27.7505 72.9648 27.6904 72.9648 27.6153V27.3598C72.9648 27.2847 73.0249 27.2246 73.1001 27.2246C73.1752 27.2246 73.2353 27.2847 73.2353 27.3598V27.6153C73.2353 27.6904 73.1752 27.7505 73.1001 27.7505Z" fill="#F59630"/>
<path id="Vector_41" d="M73.7758 27.7505C73.7007 27.7505 73.6406 27.6904 73.6406 27.6153V27.3598C73.6406 27.2847 73.7007 27.2246 73.7758 27.2246C73.851 27.2246 73.9111 27.2847 73.9111 27.3598V27.6153C73.9111 27.6904 73.851 27.7505 73.7758 27.7505Z" fill="#F59630"/>
<path id="Vector_42" d="M74.4477 27.7505C74.3726 27.7505 74.3125 27.6904 74.3125 27.6153V27.3598C74.3125 27.2847 74.3726 27.2246 74.4477 27.2246C74.5228 27.2246 74.5829 27.2847 74.5829 27.3598V27.6153C74.5829 27.6904 74.5228 27.7505 74.4477 27.7505Z" fill="#F59630"/>
<path id="Vector_43" d="M75.1196 27.7505C75.0445 27.7505 74.9844 27.6904 74.9844 27.6153V27.3598C74.9844 27.2847 75.0445 27.2246 75.1196 27.2246C75.1947 27.2246 75.2548 27.2847 75.2548 27.3598V27.6153C75.2548 27.6904 75.1947 27.7505 75.1196 27.7505Z" fill="#F59630"/>
<path id="Vector_44" d="M75.7954 27.7505C75.7203 27.7505 75.6602 27.6904 75.6602 27.6153V27.3598C75.6602 27.2847 75.7203 27.2246 75.7954 27.2246C75.8705 27.2246 75.9306 27.2847 75.9306 27.3598V27.6153C75.9306 27.6904 75.8705 27.7505 75.7954 27.7505Z" fill="#F59630"/>
</g>
</g>
<g id="Group_13">
<path id="Vector_45" d="M9.56332 42.6594H18.1703C19.2778 42.6594 20.175 43.5566 20.175 44.6641C20.175 45.7717 19.2778 46.6689 18.1703 46.6689H12.8129C12.1025 48.4139 9.93035 48.3173 9.93035 48.3173C10.8147 47.961 10.9907 47.111 11.0229 46.6689H9.56332C8.45578 46.6689 7.55859 45.7717 7.55859 44.6641C7.55859 43.5566 8.45578 42.6594 9.56332 42.6594Z" fill="#F59630"/>
<g id="Group_14">
<path id="Vector_46" d="M15.5938 44.6535C15.5938 44.9604 15.8427 45.2116 16.1518 45.2116C16.4609 45.2116 16.7099 44.9626 16.7099 44.6535C16.7099 44.3444 16.4609 44.0955 16.1518 44.0955C15.8427 44.0955 15.5938 44.3444 15.5938 44.6535Z" fill="#2F5FF4"/>
<path id="Vector_47" d="M13.3125 44.6535C13.3125 44.9604 13.5615 45.2116 13.8706 45.2116C14.1796 45.2116 14.4286 44.9626 14.4286 44.6535C14.4286 44.3444 14.1796 44.0955 13.8706 44.0955C13.5615 44.0955 13.3125 44.3444 13.3125 44.6535Z" fill="#2F5FF4"/>
<path id="Vector_48" d="M11.0273 44.6535C11.0273 44.9604 11.2763 45.2116 11.5854 45.2116C11.8945 45.2116 12.1435 44.9626 12.1435 44.6535C12.1435 44.3444 11.8945 44.0955 11.5854 44.0955C11.2763 44.0955 11.0273 44.3444 11.0273 44.6535Z" fill="#2F5FF4"/>
</g>
</g>
<path id="Vector_49" d="M68.2285 9.61161V9.04067L67.5094 8.84106C67.4686 8.69296 67.4107 8.55129 67.3377 8.42037L67.7026 7.77216L67.2991 7.36864L66.6552 7.73138C66.5221 7.65411 66.3783 7.59401 66.228 7.55323L66.0306 6.84277H65.4596L65.2621 7.55323C65.1119 7.59401 64.9681 7.65411 64.835 7.73138L64.1911 7.36864L63.7876 7.77216L64.1525 8.42037C64.0795 8.55129 64.0194 8.69296 63.9808 8.84106L63.2617 9.04067V9.61161L63.985 9.81337C64.0258 9.95718 64.0838 10.0945 64.1568 10.2233L63.7854 10.8801L64.189 11.2836L64.85 10.9102C64.9767 10.981 65.1119 11.0368 65.2536 11.0776L65.4575 11.8095H66.0284L66.2323 11.0776C66.374 11.039 66.5092 10.981 66.6358 10.9102L67.2969 11.2836L67.7004 10.8801L67.3291 10.2233C67.4021 10.0945 67.46 9.95718 67.5008 9.81337L68.2242 9.61161H68.2285ZM65.7472 10.4015C65.1484 10.4015 64.6633 9.91639 64.6633 9.31755C64.6633 8.71871 65.1484 8.23363 65.7472 8.23363C66.3461 8.23363 66.8312 8.71871 66.8312 9.31755C66.8312 9.91639 66.3461 10.4015 65.7472 10.4015Z" fill="#F59630"/>
<g id="Group_15">
<path id="Vector_50" d="M23.6763 35.0847C23.6763 36.2846 22.704 37.2569 21.5042 37.2569C20.3043 37.2569 19.332 36.2846 19.332 35.0847C19.332 33.8849 20.3043 32.9126 21.5042 32.9126C22.704 32.9126 23.6763 33.8849 23.6763 35.0847Z" fill="#79BAEF"/>
<path id="Vector_51" d="M22.889 34.4149C23.1122 34.3719 23.3183 34.3161 23.5071 34.2496C23.4621 34.1401 23.4063 34.0371 23.344 33.9384C23.2324 33.9749 23.1165 34.0092 22.9899 34.0393C23.0027 34.0006 23.0178 33.9641 23.0328 33.9298C23.0757 33.8311 23.1208 33.7538 23.1659 33.6915C23.0907 33.6014 23.007 33.5198 22.919 33.4426C22.846 33.5327 22.7774 33.6465 22.713 33.7924C22.67 33.8912 22.6336 33.9985 22.6014 34.1122C22.3095 34.1552 21.9939 34.1809 21.6741 34.1809V32.9231C21.6162 32.9188 21.5604 32.9146 21.5003 32.9146C21.4402 32.9146 21.3844 32.9188 21.3264 32.9231V34.1723C21.013 34.1573 20.7104 34.1187 20.4357 34.0607C20.4078 33.9663 20.3756 33.874 20.3391 33.7924C20.2704 33.6336 20.1931 33.5112 20.1116 33.4168C20.0214 33.4919 19.9398 33.5735 19.8647 33.6615C19.9291 33.7409 19.9849 33.8418 20.0321 33.9577C19.9656 33.9362 19.9034 33.9148 19.8433 33.8912C19.8046 33.8761 19.766 33.8568 19.7252 33.8396C19.6587 33.9341 19.5986 34.035 19.5492 34.1401C19.6029 34.1659 19.6565 34.1895 19.7166 34.2131C19.8497 34.2668 19.9957 34.3118 20.1523 34.3526C20.1931 34.5372 20.2167 34.7368 20.2275 34.9364H19.3367C19.3324 34.9858 19.3281 35.0373 19.3281 35.0888C19.3281 35.1554 19.3324 35.2198 19.3389 35.2842H20.2275C20.2167 35.5267 20.1845 35.7585 20.1352 35.9667C19.9871 36.0053 19.8454 36.0504 19.7166 36.1019C19.678 36.117 19.6415 36.132 19.605 36.1491C19.663 36.2522 19.7295 36.3509 19.8025 36.4411C19.8154 36.4346 19.8304 36.4282 19.8433 36.4239C19.8905 36.4046 19.942 36.3874 19.9935 36.3702C19.9592 36.4389 19.9248 36.4969 19.8905 36.5462C19.9677 36.6321 20.0536 36.7136 20.1438 36.7866C20.2124 36.6986 20.279 36.5892 20.3391 36.4518C20.3648 36.3917 20.3906 36.3273 20.412 36.2608C20.6932 36.2007 21.0045 36.1599 21.3286 36.1449V37.2567C21.3865 37.261 21.4423 37.2653 21.5024 37.2653C21.5625 37.2653 21.6183 37.261 21.6763 37.2567V36.1363C22.0047 36.1363 22.3266 36.162 22.625 36.2071C22.6507 36.293 22.6808 36.3767 22.7151 36.4518C22.7688 36.5763 22.8289 36.6793 22.8911 36.763C22.9813 36.6879 23.065 36.6042 23.1401 36.5162C23.095 36.4496 23.0542 36.3702 23.0199 36.2844C23.1079 36.3058 23.1895 36.3294 23.2689 36.3531C23.3376 36.2565 23.3977 36.1534 23.4513 36.0483C23.2818 35.9925 23.0993 35.9431 22.904 35.9045C22.8611 35.7113 22.8353 35.5009 22.8267 35.2885H23.6638C23.6703 35.2241 23.6746 35.1597 23.6746 35.0931C23.6746 35.0416 23.6703 34.9922 23.666 34.9407H22.8267C22.8353 34.7604 22.8568 34.5844 22.8868 34.4213L22.889 34.4149ZM21.3307 35.7907C21.0431 35.8036 20.7683 35.8336 20.5108 35.8809C20.5473 35.692 20.5687 35.4902 20.5773 35.282H21.3307V35.7907ZM21.3307 34.9343H20.5773C20.5709 34.7604 20.5516 34.5909 20.5258 34.4299C20.7791 34.475 21.0517 34.505 21.3328 34.5179V34.9343H21.3307ZM21.6763 34.5265C21.9703 34.5265 22.2558 34.5072 22.5262 34.4728C22.5026 34.6209 22.4876 34.7755 22.4812 34.9343H21.6763V34.5265ZM21.6763 35.7821V35.2799H22.4812C22.4876 35.473 22.5069 35.6598 22.5391 35.8358C22.2644 35.7993 21.9746 35.7821 21.6763 35.78V35.7821Z" fill="#4661C9"/>
</g>
<g id="Group_16">
<path id="Vector_52" d="M67.3649 46.4219C67.3649 46.5228 67.2833 46.6044 67.1824 46.6044C67.0816 46.6044 67 46.5228 67 46.4219C67 46.3211 67.0816 46.2395 67.1824 46.2395C67.2833 46.2395 67.3649 46.3211 67.3649 46.4219Z" fill="#79BAEF"/>
<path id="Vector_53" d="M67.3649 45.1063C67.3649 45.2071 67.2833 45.2887 67.1824 45.2887C67.0816 45.2887 67 45.2071 67 45.1063C67 45.0054 67.0816 44.9238 67.1824 44.9238C67.2833 44.9238 67.3649 45.0054 67.3649 45.1063Z" fill="#79BAEF"/>
<path id="Vector_54" d="M67.3649 43.7928C67.3649 43.8937 67.2833 43.9752 67.1824 43.9752C67.0816 43.9752 67 43.8937 67 43.7928C67 43.6919 67.0816 43.6104 67.1824 43.6104C67.2833 43.6104 67.3649 43.6919 67.3649 43.7928Z" fill="#79BAEF"/>
<path id="Vector_55" d="M67.3649 42.4791C67.3649 42.58 67.2833 42.6615 67.1824 42.6615C67.0816 42.6615 67 42.58 67 42.4791C67 42.3782 67.0816 42.2966 67.1824 42.2966C67.2833 42.2966 67.3649 42.3782 67.3649 42.4791Z" fill="#79BAEF"/>
<path id="Vector_56" d="M67.3649 41.1634C67.3649 41.2643 67.2833 41.3458 67.1824 41.3458C67.0816 41.3458 67 41.2643 67 41.1634C67 41.0625 67.0816 40.981 67.1824 40.981C67.2833 40.981 67.3649 41.0625 67.3649 41.1634Z" fill="#79BAEF"/>
<path id="Vector_57" d="M67.3649 39.8499C67.3649 39.9508 67.2833 40.0324 67.1824 40.0324C67.0816 40.0324 67 39.9508 67 39.8499C67 39.749 67.0816 39.6675 67.1824 39.6675C67.2833 39.6675 67.3649 39.749 67.3649 39.8499Z" fill="#79BAEF"/>
<path id="Vector_58" d="M67.3649 38.534C67.3649 38.6349 67.2833 38.7165 67.1824 38.7165C67.0816 38.7165 67 38.6349 67 38.534C67 38.4331 67.0816 38.3516 67.1824 38.3516C67.2833 38.3516 67.3649 38.4331 67.3649 38.534Z" fill="#79BAEF"/>
<path id="Vector_59" d="M67.3649 37.2205C67.3649 37.3214 67.2833 37.403 67.1824 37.403C67.0816 37.403 67 37.3214 67 37.2205C67 37.1196 67.0816 37.0381 67.1824 37.0381C67.2833 37.0381 67.3649 37.1196 67.3649 37.2205Z" fill="#79BAEF"/>
<path id="Vector_60" d="M67.3649 35.907C67.3649 36.0079 67.2833 36.0895 67.1824 36.0895C67.0816 36.0895 67 36.0079 67 35.907C67 35.8062 67.0816 35.7246 67.1824 35.7246C67.2833 35.7246 67.3649 35.8062 67.3649 35.907Z" fill="#79BAEF"/>
<path id="Vector_61" d="M67.3649 34.5911C67.3649 34.692 67.2833 34.7736 67.1824 34.7736C67.0816 34.7736 67 34.692 67 34.5911C67 34.4903 67.0816 34.4087 67.1824 34.4087C67.2833 34.4087 67.3649 34.4903 67.3649 34.5911Z" fill="#79BAEF"/>
<path id="Vector_62" d="M67.3649 33.2777C67.3649 33.3785 67.2833 33.4601 67.1824 33.4601C67.0816 33.4601 67 33.3785 67 33.2777C67 33.1768 67.0816 33.0952 67.1824 33.0952C67.2833 33.0952 67.3649 33.1768 67.3649 33.2777Z" fill="#79BAEF"/>
<path id="Vector_63" d="M67.3649 31.9639C67.3649 32.0648 67.2833 32.1464 67.1824 32.1464C67.0816 32.1464 67 32.0648 67 31.9639C67 31.8631 67.0816 31.7815 67.1824 31.7815C67.2833 31.7815 67.3649 31.8631 67.3649 31.9639Z" fill="#79BAEF"/>
<path id="Vector_64" d="M67.3649 30.6483C67.3649 30.7491 67.2833 30.8307 67.1824 30.8307C67.0816 30.8307 67 30.7491 67 30.6483C67 30.5474 67.0816 30.4658 67.1824 30.4658C67.2833 30.4658 67.3649 30.5474 67.3649 30.6483Z" fill="#79BAEF"/>
<path id="Vector_65" d="M67.3649 29.3348C67.3649 29.4357 67.2833 29.5172 67.1824 29.5172C67.0816 29.5172 67 29.4357 67 29.3348C67 29.2339 67.0816 29.1523 67.1824 29.1523C67.2833 29.1523 67.3649 29.2339 67.3649 29.3348Z" fill="#79BAEF"/>
<path id="Vector_66" d="M67.3649 28.0211C67.3649 28.1219 67.2833 28.2035 67.1824 28.2035C67.0816 28.2035 67 28.1219 67 28.0211C67 27.9202 67.0816 27.8386 67.1824 27.8386C67.2833 27.8386 67.3649 27.9202 67.3649 28.0211Z" fill="#79BAEF"/>
<path id="Vector_67" d="M67.3649 26.7054C67.3649 26.8063 67.2833 26.8878 67.1824 26.8878C67.0816 26.8878 67 26.8063 67 26.7054C67 26.6045 67.0816 26.5229 67.1824 26.5229C67.2833 26.5229 67.3649 26.6045 67.3649 26.7054Z" fill="#79BAEF"/>
<path id="Vector_68" d="M67.3649 25.3919C67.3649 25.4928 67.2833 25.5744 67.1824 25.5744C67.0816 25.5744 67 25.4928 67 25.3919C67 25.291 67.0816 25.2095 67.1824 25.2095C67.2833 25.2095 67.3649 25.291 67.3649 25.3919Z" fill="#79BAEF"/>
<path id="Vector_69" d="M67.3649 24.0782C67.3649 24.1791 67.2833 24.2606 67.1824 24.2606C67.0816 24.2606 67 24.1791 67 24.0782C67 23.9773 67.0816 23.8958 67.1824 23.8958C67.2833 23.8958 67.3649 23.9773 67.3649 24.0782Z" fill="#79BAEF"/>
<path id="Vector_70" d="M67.3649 22.7625C67.3649 22.8634 67.2833 22.945 67.1824 22.945C67.0816 22.945 67 22.8634 67 22.7625C67 22.6616 67.0816 22.5801 67.1824 22.5801C67.2833 22.5801 67.3649 22.6616 67.3649 22.7625Z" fill="#79BAEF"/>
<path id="Vector_71" d="M67.3649 21.4488C67.3649 21.5497 67.2833 21.6312 67.1824 21.6312C67.0816 21.6312 67 21.5497 67 21.4488C67 21.3479 67.0816 21.2664 67.1824 21.2664C67.2833 21.2664 67.3649 21.3479 67.3649 21.4488Z" fill="#79BAEF"/>
<path id="Vector_72" d="M67.3649 20.1353C67.3649 20.2362 67.2833 20.3178 67.1824 20.3178C67.0816 20.3178 67 20.2362 67 20.1353C67 20.0344 67.0816 19.9529 67.1824 19.9529C67.2833 19.9529 67.3649 20.0344 67.3649 20.1353Z" fill="#79BAEF"/>
<path id="Vector_73" d="M66.9704 18.9053C66.9704 19.0062 66.8888 19.0878 66.7879 19.0878C66.687 19.0878 66.6055 19.0062 66.6055 18.9053C66.6055 18.8045 66.687 18.7229 66.7879 18.7229C66.8888 18.7229 66.9704 18.8045 66.9704 18.9053Z" fill="#79BAEF"/>
<path id="Vector_74" d="M65.9313 18.1671C65.9313 18.2679 65.8497 18.3495 65.7488 18.3495C65.648 18.3495 65.5664 18.2679 65.5664 18.1671C65.5664 18.0662 65.648 17.9846 65.7488 17.9846C65.8497 17.9846 65.9313 18.0662 65.9313 18.1671Z" fill="#79BAEF"/>
<path id="Vector_75" d="M64.6383 17.9996C64.6383 18.1005 64.5568 18.182 64.4559 18.182C64.355 18.182 64.2734 18.1005 64.2734 17.9996C64.2734 17.8987 64.355 17.8171 64.4559 17.8171C64.5568 17.8171 64.6383 17.8987 64.6383 17.9996Z" fill="#79BAEF"/>
<path id="Vector_76" d="M63.3258 17.9996C63.3258 18.1005 63.2443 18.182 63.1434 18.182C63.0425 18.182 62.9609 18.1005 62.9609 17.9996C62.9609 17.8987 63.0425 17.8171 63.1434 17.8171C63.2443 17.8171 63.3258 17.8987 63.3258 17.9996Z" fill="#79BAEF"/>
<path id="Vector_77" d="M23.3219 11.1441C23.3219 11.245 23.2404 11.3266 23.1395 11.3266C23.0386 11.3266 22.957 11.245 22.957 11.1441C22.957 11.0432 23.0386 10.9617 23.1395 10.9617C23.2404 10.9617 23.3219 11.0432 23.3219 11.1441Z" fill="#79BAEF"/>
<path id="Vector_78" d="M22.0094 11.1441C22.0094 11.245 21.9279 11.3266 21.827 11.3266C21.7261 11.3266 21.6445 11.245 21.6445 11.1441C21.6445 11.0432 21.7261 10.9617 21.827 10.9617C21.9279 10.9617 22.0094 11.0432 22.0094 11.1441Z" fill="#79BAEF"/>
<path id="Vector_79" d="M20.693 11.1441C20.693 11.245 20.6114 11.3266 20.5106 11.3266C20.4097 11.3266 20.3281 11.245 20.3281 11.1441C20.3281 11.0432 20.4097 10.9617 20.5106 10.9617C20.6114 10.9617 20.693 11.0432 20.693 11.1441Z" fill="#79BAEF"/>
<path id="Vector_80" d="M19.3844 11.1805C19.3844 11.2814 19.3029 11.3629 19.202 11.3629C19.1011 11.3629 19.0195 11.2814 19.0195 11.1805C19.0195 11.0796 19.1011 10.998 19.202 10.998C19.3029 10.998 19.3844 11.0796 19.3844 11.1805Z" fill="#79BAEF"/>
<path id="Vector_81" d="M18.1618 11.6014C18.1618 11.7023 18.0802 11.7838 17.9793 11.7838C17.8784 11.7838 17.7969 11.7023 17.7969 11.6014C17.7969 11.5005 17.8784 11.4189 17.9793 11.4189C18.0802 11.4189 18.1618 11.5005 18.1618 11.6014Z" fill="#79BAEF"/>
<path id="Vector_82" d="M17.3414 12.595C17.3414 12.6959 17.2599 12.7775 17.159 12.7775C17.0581 12.7775 16.9766 12.6959 16.9766 12.595C16.9766 12.4942 17.0581 12.4126 17.159 12.4126C17.2599 12.4126 17.3414 12.4942 17.3414 12.595Z" fill="#79BAEF"/>
<path id="Vector_83" d="M16.8895 14.0546C16.9902 14.0546 17.0719 13.9729 17.0719 13.8721C17.0719 13.7714 16.9902 13.6897 16.8895 13.6897C16.7887 13.6897 16.707 13.7714 16.707 13.8721C16.707 13.9729 16.7887 14.0546 16.8895 14.0546Z" fill="#79BAEF"/>
<path id="Vector_84" d="M17.0719 15.1878C17.0719 15.2887 16.9904 15.3703 16.8895 15.3703C16.7886 15.3703 16.707 15.2887 16.707 15.1878C16.707 15.0869 16.7886 15.0054 16.8895 15.0054C16.9904 15.0054 17.0719 15.0869 17.0719 15.1878Z" fill="#79BAEF"/>
<path id="Vector_85" d="M16.8895 16.684C16.9902 16.684 17.0719 16.6023 17.0719 16.5015C17.0719 16.4008 16.9902 16.3191 16.8895 16.3191C16.7887 16.3191 16.707 16.4008 16.707 16.5015C16.707 16.6023 16.7887 16.684 16.8895 16.684Z" fill="#79BAEF"/>
<path id="Vector_86" d="M16.8895 17.9975C16.9902 17.9975 17.0719 17.9158 17.0719 17.815C17.0719 17.7143 16.9902 17.6326 16.8895 17.6326C16.7887 17.6326 16.707 17.7143 16.707 17.815C16.707 17.9158 16.7887 17.9975 16.8895 17.9975Z" fill="#79BAEF"/>
<path id="Vector_87" d="M17.0719 19.1307C17.0719 19.2316 16.9904 19.3131 16.8895 19.3131C16.7886 19.3131 16.707 19.2316 16.707 19.1307C16.707 19.0298 16.7886 18.9482 16.8895 18.9482C16.9904 18.9482 17.0719 19.0298 17.0719 19.1307Z" fill="#79BAEF"/>
<path id="Vector_88" d="M17.0719 20.4444C17.0719 20.5453 16.9904 20.6268 16.8895 20.6268C16.7886 20.6268 16.707 20.5453 16.707 20.4444C16.707 20.3435 16.7886 20.262 16.8895 20.262C16.9904 20.262 17.0719 20.3435 17.0719 20.4444Z" fill="#79BAEF"/>
<path id="Vector_89" d="M16.8895 21.9403C16.9902 21.9403 17.0719 21.8586 17.0719 21.7579C17.0719 21.6571 16.9902 21.5754 16.8895 21.5754C16.7887 21.5754 16.707 21.6571 16.707 21.7579C16.707 21.8586 16.7887 21.9403 16.8895 21.9403Z" fill="#79BAEF"/>
<path id="Vector_90" d="M17.0719 23.0738C17.0719 23.1747 16.9904 23.2562 16.8895 23.2562C16.7886 23.2562 16.707 23.1747 16.707 23.0738C16.707 22.9729 16.7886 22.8914 16.8895 22.8914C16.9904 22.8914 17.0719 22.9729 17.0719 23.0738Z" fill="#79BAEF"/>
<path id="Vector_91" d="M17.0719 24.3873C17.0719 24.4882 16.9904 24.5697 16.8895 24.5697C16.7886 24.5697 16.707 24.4882 16.707 24.3873C16.707 24.2864 16.7886 24.2048 16.8895 24.2048C16.9904 24.2048 17.0719 24.2864 17.0719 24.3873Z" fill="#79BAEF"/>
<path id="Vector_92" d="M16.8895 25.8854C16.9902 25.8854 17.0719 25.8037 17.0719 25.703C17.0719 25.6022 16.9902 25.5205 16.8895 25.5205C16.7887 25.5205 16.707 25.6022 16.707 25.703C16.707 25.8037 16.7887 25.8854 16.8895 25.8854Z" fill="#79BAEF"/>
<path id="Vector_93" d="M16.8895 27.1991C16.9902 27.1991 17.0719 27.1174 17.0719 27.0167C17.0719 26.9159 16.9902 26.8342 16.8895 26.8342C16.7887 26.8342 16.707 26.9159 16.707 27.0167C16.707 27.1174 16.7887 27.1991 16.8895 27.1991Z" fill="#79BAEF"/>
<path id="Vector_94" d="M17.0719 28.3301C17.0719 28.431 16.9904 28.5126 16.8895 28.5126C16.7886 28.5126 16.707 28.431 16.707 28.3301C16.707 28.2293 16.7886 28.1477 16.8895 28.1477C16.9904 28.1477 17.0719 28.2293 17.0719 28.3301Z" fill="#79BAEF"/>
<path id="Vector_95" d="M16.8895 29.8283C16.9902 29.8283 17.0719 29.7466 17.0719 29.6458C17.0719 29.5451 16.9902 29.4634 16.8895 29.4634C16.7887 29.4634 16.707 29.5451 16.707 29.6458C16.707 29.7466 16.7887 29.8283 16.8895 29.8283Z" fill="#79BAEF"/>
<path id="Vector_96" d="M17.0719 30.9595C17.0719 31.0604 16.9904 31.142 16.8895 31.142C16.7886 31.142 16.707 31.0604 16.707 30.9595C16.707 30.8587 16.7886 30.7771 16.8895 30.7771C16.9904 30.7771 17.0719 30.8587 17.0719 30.9595Z" fill="#79BAEF"/>
<path id="Vector_97" d="M16.8895 32.4555C16.9902 32.4555 17.0719 32.3738 17.0719 32.273C17.0719 32.1723 16.9902 32.0906 16.8895 32.0906C16.7887 32.0906 16.707 32.1723 16.707 32.273C16.707 32.3738 16.7887 32.4555 16.8895 32.4555Z" fill="#79BAEF"/>
<path id="Vector_98" d="M16.8895 33.7714C16.9902 33.7714 17.0719 33.6897 17.0719 33.5889C17.0719 33.4882 16.9902 33.4065 16.8895 33.4065C16.7887 33.4065 16.707 33.4882 16.707 33.5889C16.707 33.6897 16.7887 33.7714 16.8895 33.7714Z" fill="#79BAEF"/>
<path id="Vector_99" d="M16.8895 35.0849C16.9902 35.0849 17.0719 35.0032 17.0719 34.9024C17.0719 34.8017 16.9902 34.72 16.8895 34.72C16.7887 34.72 16.707 34.8017 16.707 34.9024C16.707 35.0032 16.7887 35.0849 16.8895 35.0849Z" fill="#79BAEF"/>
<path id="Vector_100" d="M16.8895 36.3986C16.9902 36.3986 17.0719 36.3169 17.0719 36.2161C17.0719 36.1154 16.9902 36.0337 16.8895 36.0337C16.7887 36.0337 16.707 36.1154 16.707 36.2161C16.707 36.3169 16.7887 36.3986 16.8895 36.3986Z" fill="#79BAEF"/>
<path id="Vector_101" d="M17.0719 37.5318C17.0719 37.6327 16.9904 37.7143 16.8895 37.7143C16.7886 37.7143 16.707 37.6327 16.707 37.5318C16.707 37.4309 16.7886 37.3494 16.8895 37.3494C16.9904 37.3494 17.0719 37.4309 17.0719 37.5318Z" fill="#79BAEF"/>
<path id="Vector_102" d="M17.0719 38.8453C17.0719 38.9462 16.9904 39.0277 16.8895 39.0277C16.7886 39.0277 16.707 38.9462 16.707 38.8453C16.707 38.7444 16.7886 38.6628 16.8895 38.6628C16.9904 38.6628 17.0719 38.7444 17.0719 38.8453Z" fill="#79BAEF"/>
<path id="Vector_103" d="M17.0719 40.159C17.0719 40.2599 16.9904 40.3414 16.8895 40.3414C16.7886 40.3414 16.707 40.2599 16.707 40.159C16.707 40.0581 16.7886 39.9766 16.8895 39.9766C16.9904 39.9766 17.0719 40.0581 17.0719 40.159Z" fill="#79BAEF"/>
<path id="Vector_104" d="M16.8895 41.6571C16.9902 41.6571 17.0719 41.5754 17.0719 41.4747C17.0719 41.3739 16.9902 41.2922 16.8895 41.2922C16.7887 41.2922 16.707 41.3739 16.707 41.4747C16.707 41.5754 16.7887 41.6571 16.8895 41.6571Z" fill="#79BAEF"/>
<path id="Vector_105" d="M17.0719 42.7882C17.0719 42.889 16.9904 42.9706 16.8895 42.9706C16.7886 42.9706 16.707 42.889 16.707 42.7882C16.707 42.6873 16.7886 42.6057 16.8895 42.6057C16.9904 42.6057 17.0719 42.6873 17.0719 42.7882Z" fill="#79BAEF"/>
<path id="Vector_106" d="M17.0719 44.1019C17.0719 44.2028 16.9904 44.2843 16.8895 44.2843C16.7886 44.2843 16.707 44.2028 16.707 44.1019C16.707 44.001 16.7886 43.9194 16.8895 43.9194C16.9904 43.9194 17.0719 44.001 17.0719 44.1019Z" fill="#79BAEF"/>
</g>
<g id="Group_17">
<path id="Vector_107" d="M37.4809 13.8487L38.2901 12.6445H36.6953L37.4809 13.8487Z" fill="#79BAEF"/>
<path id="Vector_108" d="M37.3086 5.20075C37.3086 5.09987 37.3902 5.01831 37.491 5.01831C37.5919 5.01831 37.6735 5.09987 37.6735 5.20075C37.6735 5.30163 37.5919 5.3832 37.491 5.3832C37.3902 5.3832 37.3086 5.30163 37.3086 5.20075Z" fill="#79BAEF"/>
<path id="Vector_109" d="M37.3086 6.51423C37.3086 6.41335 37.3902 6.33179 37.491 6.33179C37.5919 6.33179 37.6735 6.41335 37.6735 6.51423C37.6735 6.61511 37.5919 6.69667 37.491 6.69667C37.3902 6.69667 37.3086 6.61511 37.3086 6.51423Z" fill="#79BAEF"/>
<path id="Vector_110" d="M37.3086 7.83015C37.3086 7.72927 37.3902 7.64771 37.491 7.64771C37.5919 7.64771 37.6735 7.72927 37.6735 7.83015C37.6735 7.93103 37.5919 8.01259 37.491 8.01259C37.3902 8.01259 37.3086 7.93103 37.3086 7.83015Z" fill="#79BAEF"/>
<path id="Vector_111" d="M37.3086 9.14362C37.3086 9.04274 37.3902 8.96118 37.491 8.96118C37.5919 8.96118 37.6735 9.04274 37.6735 9.14362C37.6735 9.2445 37.5919 9.32607 37.491 9.32607C37.3902 9.32607 37.3086 9.2445 37.3086 9.14362Z" fill="#79BAEF"/>
<path id="Vector_112" d="M37.3086 10.4593C37.3086 10.3584 37.3902 10.2769 37.491 10.2769C37.5919 10.2769 37.6735 10.3584 37.6735 10.4593C37.6735 10.5602 37.5919 10.6417 37.491 10.6417C37.3902 10.6417 37.3086 10.5602 37.3086 10.4593Z" fill="#79BAEF"/>
<path id="Vector_113" d="M37.3086 11.773C37.3086 11.6721 37.3902 11.5906 37.491 11.5906C37.5919 11.5906 37.6735 11.6721 37.6735 11.773C37.6735 11.8739 37.5919 11.9555 37.491 11.9555C37.3902 11.9555 37.3086 11.8739 37.3086 11.773Z" fill="#79BAEF"/>
</g>
<g id="Group_18">
<path id="Vector_114" d="M49.5201 0L48.7109 1.20412H50.3057L49.5201 0Z" fill="#79BAEF"/>
<path id="Vector_115" d="M49.693 8.64558C49.693 8.74646 49.6114 8.82802 49.5106 8.82802C49.4097 8.82802 49.3281 8.74646 49.3281 8.64558C49.3281 8.5447 49.4097 8.46313 49.5106 8.46313C49.6114 8.46313 49.693 8.5447 49.693 8.64558Z" fill="#79BAEF"/>
<path id="Vector_116" d="M49.693 7.3321C49.693 7.43298 49.6114 7.51454 49.5106 7.51454C49.4097 7.51454 49.3281 7.43298 49.3281 7.3321C49.3281 7.23122 49.4097 7.14966 49.5106 7.14966C49.6114 7.14966 49.693 7.23122 49.693 7.3321Z" fill="#79BAEF"/>
<path id="Vector_117" d="M49.693 6.01838C49.693 6.11926 49.6114 6.20082 49.5106 6.20082C49.4097 6.20082 49.3281 6.11926 49.3281 6.01838C49.3281 5.9175 49.4097 5.83594 49.5106 5.83594C49.6114 5.83594 49.693 5.9175 49.693 6.01838Z" fill="#79BAEF"/>
<path id="Vector_118" d="M49.693 4.70271C49.693 4.80359 49.6114 4.88515 49.5106 4.88515C49.4097 4.88515 49.3281 4.80359 49.3281 4.70271C49.3281 4.60183 49.4097 4.52026 49.5106 4.52026C49.6114 4.52026 49.693 4.60183 49.693 4.70271Z" fill="#79BAEF"/>
<path id="Vector_119" d="M49.693 3.38923C49.693 3.49011 49.6114 3.57167 49.5106 3.57167C49.4097 3.57167 49.3281 3.49011 49.3281 3.38923C49.3281 3.28835 49.4097 3.20679 49.5106 3.20679C49.6114 3.20679 49.693 3.28835 49.693 3.38923Z" fill="#79BAEF"/>
<path id="Vector_120" d="M49.693 2.07551C49.693 2.17639 49.6114 2.25795 49.5106 2.25795C49.4097 2.25795 49.3281 2.17639 49.3281 2.07551C49.3281 1.97463 49.4097 1.89307 49.5106 1.89307C49.6114 1.89307 49.693 1.97463 49.693 2.07551Z" fill="#79BAEF"/>
</g>
<g id="Group_19">
<path id="Vector_121" d="M13.1506 37.8408L13.9598 36.6367H12.3672L13.1506 37.8408Z" fill="#79BAEF"/>
<path id="Vector_122" d="M13.1629 25.4325C13.2637 25.4325 13.3454 25.3508 13.3454 25.2501C13.3454 25.1493 13.2637 25.0676 13.1629 25.0676C13.0622 25.0676 12.9805 25.1493 12.9805 25.2501C12.9805 25.3508 13.0622 25.4325 13.1629 25.4325Z" fill="#79BAEF"/>
<path id="Vector_123" d="M13.1629 26.7482C13.2637 26.7482 13.3454 26.6665 13.3454 26.5657C13.3454 26.465 13.2637 26.3833 13.1629 26.3833C13.0622 26.3833 12.9805 26.465 12.9805 26.5657C12.9805 26.6665 13.0622 26.7482 13.1629 26.7482Z" fill="#79BAEF"/>
<path id="Vector_124" d="M13.1629 28.0619C13.2637 28.0619 13.3454 27.9802 13.3454 27.8795C13.3454 27.7787 13.2637 27.697 13.1629 27.697C13.0622 27.697 12.9805 27.7787 12.9805 27.8795C12.9805 27.9802 13.0622 28.0619 13.1629 28.0619Z" fill="#79BAEF"/>
<path id="Vector_125" d="M13.1629 29.3776C13.2637 29.3776 13.3454 29.2959 13.3454 29.1951C13.3454 29.0944 13.2637 29.0127 13.1629 29.0127C13.0622 29.0127 12.9805 29.0944 12.9805 29.1951C12.9805 29.2959 13.0622 29.3776 13.1629 29.3776Z" fill="#79BAEF"/>
<path id="Vector_126" d="M13.1629 30.6911C13.2637 30.6911 13.3454 30.6094 13.3454 30.5086C13.3454 30.4079 13.2637 30.3262 13.1629 30.3262C13.0622 30.3262 12.9805 30.4079 12.9805 30.5086C12.9805 30.6094 13.0622 30.6911 13.1629 30.6911Z" fill="#79BAEF"/>
<path id="Vector_127" d="M12.9805 31.8223C12.9805 31.7215 13.062 31.6399 13.1629 31.6399C13.2638 31.6399 13.3454 31.7215 13.3454 31.8223C13.3454 31.9232 13.2638 32.0048 13.1629 32.0048C13.062 32.0048 12.9805 31.9232 12.9805 31.8223Z" fill="#79BAEF"/>
<path id="Vector_128" d="M13.1629 33.3205C13.2637 33.3205 13.3454 33.2388 13.3454 33.138C13.3454 33.0373 13.2637 32.9556 13.1629 32.9556C13.0622 32.9556 12.9805 33.0373 12.9805 33.138C12.9805 33.2388 13.0622 33.3205 13.1629 33.3205Z" fill="#79BAEF"/>
<path id="Vector_129" d="M13.1629 34.6342C13.2637 34.6342 13.3454 34.5525 13.3454 34.4517C13.3454 34.351 13.2637 34.2693 13.1629 34.2693C13.0622 34.2693 12.9805 34.351 12.9805 34.4517C12.9805 34.5525 13.0622 34.6342 13.1629 34.6342Z" fill="#79BAEF"/>
<path id="Vector_130" d="M12.9805 35.7652C12.9805 35.6643 13.062 35.5828 13.1629 35.5828C13.2638 35.5828 13.3454 35.6643 13.3454 35.7652C13.3454 35.8661 13.2638 35.9476 13.1629 35.9476C13.062 35.9476 12.9805 35.8661 12.9805 35.7652Z" fill="#79BAEF"/>
</g>
<g id="Group_20">
<path id="Vector_131" d="M72.9342 13.1465L72.125 14.3506H73.7198L72.9342 13.1465Z" fill="#79BAEF"/>
<path id="Vector_132" d="M73.1032 25.7371C73.1032 25.838 73.0216 25.9196 72.9207 25.9196C72.8198 25.9196 72.7383 25.838 72.7383 25.7371C72.7383 25.6363 72.8198 25.5547 72.9207 25.5547C73.0216 25.5547 73.1032 25.6363 73.1032 25.7371Z" fill="#79BAEF"/>
<path id="Vector_133" d="M73.1032 24.4215C73.1032 24.5223 73.0216 24.6039 72.9207 24.6039C72.8198 24.6039 72.7383 24.5223 72.7383 24.4215C72.7383 24.3206 72.8198 24.239 72.9207 24.239C73.0216 24.239 73.1032 24.3206 73.1032 24.4215Z" fill="#79BAEF"/>
<path id="Vector_134" d="M73.1032 23.1077C73.1032 23.2086 73.0216 23.2902 72.9207 23.2902C72.8198 23.2902 72.7383 23.2086 72.7383 23.1077C72.7383 23.0069 72.8198 22.9253 72.9207 22.9253C73.0216 22.9253 73.1032 23.0069 73.1032 23.1077Z" fill="#79BAEF"/>
<path id="Vector_135" d="M72.9207 21.9745C73.0215 21.9745 73.1032 21.8928 73.1032 21.7921C73.1032 21.6913 73.0215 21.6096 72.9207 21.6096C72.82 21.6096 72.7383 21.6913 72.7383 21.7921C72.7383 21.8928 72.82 21.9745 72.9207 21.9745Z" fill="#79BAEF"/>
<path id="Vector_136" d="M73.1032 20.4786C73.1032 20.5795 73.0216 20.661 72.9207 20.661C72.8198 20.661 72.7383 20.5795 72.7383 20.4786C72.7383 20.3777 72.8198 20.2961 72.9207 20.2961C73.0216 20.2961 73.1032 20.3777 73.1032 20.4786Z" fill="#79BAEF"/>
<path id="Vector_137" d="M73.1032 19.1649C73.1032 19.2657 73.0216 19.3473 72.9207 19.3473C72.8198 19.3473 72.7383 19.2657 72.7383 19.1649C72.7383 19.064 72.8198 18.9824 72.9207 18.9824C73.0216 18.9824 73.1032 19.064 73.1032 19.1649Z" fill="#79BAEF"/>
<path id="Vector_138" d="M73.1032 17.8492C73.1032 17.9501 73.0216 18.0316 72.9207 18.0316C72.8198 18.0316 72.7383 17.9501 72.7383 17.8492C72.7383 17.7483 72.8198 17.6667 72.9207 17.6667C73.0216 17.6667 73.1032 17.7483 73.1032 17.8492Z" fill="#79BAEF"/>
<path id="Vector_139" d="M73.1032 16.5357C73.1032 16.6366 73.0216 16.7182 72.9207 16.7182C72.8198 16.7182 72.7383 16.6366 72.7383 16.5357C72.7383 16.4348 72.8198 16.3533 72.9207 16.3533C73.0216 16.3533 73.1032 16.4348 73.1032 16.5357Z" fill="#79BAEF"/>
<path id="Vector_140" d="M73.1032 15.222C73.1032 15.3229 73.0216 15.4044 72.9207 15.4044C72.8198 15.4044 72.7383 15.3229 72.7383 15.222C72.7383 15.1211 72.8198 15.0396 72.9207 15.0396C73.0216 15.0396 73.1032 15.1211 73.1032 15.222Z" fill="#79BAEF"/>
</g>
<g id="Group_21">
<g id="Group_22">
<g id="Group_23">
<path id="Vector_141" d="M80.1467 64.748H56.7383V86.3729H80.1467V64.748Z" fill="#83A0F0"/>
<path id="Vector_142" d="M80.1473 64.748H72.8281V86.3729H80.1473V64.748Z" fill="#F59630"/>
<g id="Group_24">
<g id="Group_25">
<g id="Group_26">
<path id="Vector_143" d="M73.4967 81.2063H56.1367V85.5141H73.4967V81.2063Z" fill="#2957A4"/>
<path id="Vector_144" d="M80.753 81.2063H73.4961V85.5141H80.753V81.2063Z" fill="#A0B7EA"/>
<path id="Vector_145" d="M73.2005 81.5025V85.2179H56.4329V81.5025H73.2005ZM73.4967 81.2063H56.1367V85.5141H73.4967V81.2063Z" fill="#83A0F0"/>
<g id="Group_27">
<g id="Group_28">
<path id="Vector_146" d="M63.3117 82.9878H57.5938V83.7283H63.3117V82.9878Z" fill="white"/>
<path id="Vector_147" d="M67.1351 82.9878H66.7188V83.7283H67.1351V82.9878Z" fill="#79BAEF"/>
<path id="Vector_148" d="M66.3031 82.9878H65.8867V83.7283H66.3031V82.9878Z" fill="#F59630"/>
<path id="Vector_149" d="M65.4672 82.9878H65.0508V83.7283H65.4672V82.9878Z" fill="#79BAEF"/>
<path id="Vector_150" d="M64.6351 82.9878H64.2188V83.7283H64.6351V82.9878Z" fill="#F59630"/>
</g>
<path id="Vector_151" d="M72.0426 82.2881H70.0508V84.2799H72.0426V82.2881Z" fill="#83A0F0"/>
</g>
<g id="Group_29">
<path id="Vector_152" d="M57.759 81.9531H57.5938V82.1184H57.759V81.9531Z" fill="white"/>
<path id="Vector_153" d="M58.2512 81.9531H58.0859V82.1184H58.2512V81.9531Z" fill="#79BAEF"/>
<path id="Vector_154" d="M58.7434 81.9531H58.5781V82.1184H58.7434V81.9531Z" fill="#79BAEF"/>
</g>
</g>
<g id="Group_30">
<path id="Vector_155" d="M73.4967 76.0056H56.1367V80.3134H73.4967V76.0056Z" fill="#2957A4"/>
<path id="Vector_156" d="M80.753 76.0056H73.4961V80.3134H80.753V76.0056Z" fill="#A0B7EA"/>
<path id="Vector_157" d="M73.2005 76.3018V80.0172H56.4329V76.3018H73.2005ZM73.4967 76.0056H56.1367V80.3134H73.4967V76.0056Z" fill="#83A0F0"/>
<g id="Group_31">
<g id="Group_32">
<path id="Vector_158" d="M63.3117 77.7893H57.5938V78.5298H63.3117V77.7893Z" fill="white"/>
<path id="Vector_159" d="M67.1351 77.7893H66.7188V78.5298H67.1351V77.7893Z" fill="#79BAEF"/>
<path id="Vector_160" d="M66.3031 77.7893H65.8867V78.5298H66.3031V77.7893Z" fill="#F59630"/>
<path id="Vector_161" d="M65.4672 77.7893H65.0508V78.5298H65.4672V77.7893Z" fill="#79BAEF"/>
<path id="Vector_162" d="M64.6351 77.7893H64.2188V78.5298H64.6351V77.7893Z" fill="#F59630"/>
</g>
<path id="Vector_163" d="M72.0426 77.0896H70.0508V79.0814H72.0426V77.0896Z" fill="#83A0F0"/>
</g>
<g id="Group_33">
<path id="Vector_164" d="M57.759 76.7546H57.5938V76.9199H57.759V76.7546Z" fill="white"/>
<path id="Vector_165" d="M58.2512 76.7546H58.0859V76.9199H58.2512V76.7546Z" fill="#79BAEF"/>
<path id="Vector_166" d="M58.7434 76.7546H58.5781V76.9199H58.7434V76.7546Z" fill="#79BAEF"/>
</g>
</g>
<g id="Group_34">
<path id="Vector_167" d="M73.4967 70.8071H56.1367V75.1149H73.4967V70.8071Z" fill="#2957A4"/>
<path id="Vector_168" d="M80.753 70.8071H73.4961V75.1149H80.753V70.8071Z" fill="#A0B7EA"/>
<path id="Vector_169" d="M73.2005 71.1033V74.8187H56.4329V71.1033H73.2005ZM73.4967 70.8071H56.1367V75.1149H73.4967V70.8071Z" fill="#83A0F0"/>
<g id="Group_35">
<g id="Group_36">
<path id="Vector_170" d="M63.3117 72.5908H57.5938V73.3313H63.3117V72.5908Z" fill="white"/>
<path id="Vector_171" d="M67.1351 72.5908H66.7188V73.3313H67.1351V72.5908Z" fill="#79BAEF"/>
<path id="Vector_172" d="M66.3031 72.5908H65.8867V73.3313H66.3031V72.5908Z" fill="#F59630"/>
<path id="Vector_173" d="M65.4672 72.5908H65.0508V73.3313H65.4672V72.5908Z" fill="#79BAEF"/>
<path id="Vector_174" d="M64.6351 72.5908H64.2188V73.3313H64.6351V72.5908Z" fill="#F59630"/>
</g>
<path id="Vector_175" d="M72.0426 71.8889H70.0508V73.8808H72.0426V71.8889Z" fill="#83A0F0"/>
</g>
<g id="Group_37">
<path id="Vector_176" d="M57.759 71.5562H57.5938V71.7214H57.759V71.5562Z" fill="white"/>
<path id="Vector_177" d="M58.2512 71.5562H58.0859V71.7214H58.2512V71.5562Z" fill="#79BAEF"/>
<path id="Vector_178" d="M58.7434 71.5562H58.5781V71.7214H58.7434V71.5562Z" fill="#79BAEF"/>
</g>
</g>
<g id="Group_38">
<path id="Vector_179" d="M73.4967 65.6086H56.1367V69.9164H73.4967V65.6086Z" fill="#2957A4"/>
<path id="Vector_180" d="M80.753 65.6086H73.4961V69.9164H80.753V65.6086Z" fill="#A0B7EA"/>
<path id="Vector_181" d="M73.2005 65.9048V69.6202H56.4329V65.9048H73.2005ZM73.4967 65.6086H56.1367V69.9164H73.4967V65.6086Z" fill="#83A0F0"/>
<g id="Group_39">
<g id="Group_40">
<path id="Vector_182" d="M63.3117 67.3923H57.5938V68.1328H63.3117V67.3923Z" fill="white"/>
<path id="Vector_183" d="M67.1351 67.3923H66.7188V68.1328H67.1351V67.3923Z" fill="#79BAEF"/>
<path id="Vector_184" d="M66.3031 67.3923H65.8867V68.1328H66.3031V67.3923Z" fill="#F59630"/>
<path id="Vector_185" d="M65.4672 67.3923H65.0508V68.1328H65.4672V67.3923Z" fill="#79BAEF"/>
<path id="Vector_186" d="M64.6351 67.3923H64.2188V68.1328H64.6351V67.3923Z" fill="#F59630"/>
</g>
<path id="Vector_187" d="M72.0426 66.6904H70.0508V68.6823H72.0426V66.6904Z" fill="#83A0F0"/>
</g>
<g id="Group_41">
<path id="Vector_188" d="M57.759 66.3555H57.5938V66.5207H57.759V66.3555Z" fill="white"/>
<path id="Vector_189" d="M58.2512 66.3555H58.0859V66.5207H58.2512V66.3555Z" fill="#79BAEF"/>
<path id="Vector_190" d="M58.7434 66.3555H58.5781V66.5207H58.7434V66.3555Z" fill="#79BAEF"/>
</g>
</g>
</g>
<path id="Vector_191" d="M78.5504 82.1616H75.6979C75.3707 82.1616 75.1055 82.4268 75.1055 82.754V83.9667C75.1055 84.2939 75.3707 84.5591 75.6979 84.5591H78.5504C78.8776 84.5591 79.1428 84.2939 79.1428 83.9667V82.754C79.1428 82.4268 78.8776 82.1616 78.5504 82.1616Z" fill="#2957A4"/>
<path id="Vector_192" d="M77.4258 83.7176V83.0028C77.4258 82.921 77.3595 82.8547 77.2777 82.8547H76.9729C76.8911 82.8547 76.8248 82.921 76.8248 83.0028V83.7176C76.8248 83.7994 76.8911 83.8657 76.9729 83.8657H77.2777C77.3595 83.8657 77.4258 83.7994 77.4258 83.7176Z" fill="#83A0F0"/>
<path id="Vector_193" d="M78.5504 76.9609H75.6979C75.3707 76.9609 75.1055 77.2262 75.1055 77.5533V78.766C75.1055 79.0932 75.3707 79.3585 75.6979 79.3585H78.5504C78.8776 79.3585 79.1428 79.0932 79.1428 78.766V77.5533C79.1428 77.2262 78.8776 76.9609 78.5504 76.9609Z" fill="#2957A4"/>
<path id="Vector_194" d="M77.4258 78.5191V77.8044C77.4258 77.7226 77.3595 77.6562 77.2777 77.6562H76.9729C76.8911 77.6562 76.8248 77.7226 76.8248 77.8044V78.5191C76.8248 78.6009 76.8911 78.6672 76.9729 78.6672H77.2777C77.3595 78.6672 77.4258 78.6009 77.4258 78.5191Z" fill="#83A0F0"/>
<path id="Vector_195" d="M78.5504 71.7622H75.6979C75.3707 71.7622 75.1055 72.0274 75.1055 72.3546V73.5673C75.1055 73.8945 75.3707 74.1597 75.6979 74.1597H78.5504C78.8776 74.1597 79.1428 73.8945 79.1428 73.5673V72.3546C79.1428 72.0274 78.8776 71.7622 78.5504 71.7622Z" fill="#2957A4"/>
<path id="Vector_196" d="M77.4219 73.3206V72.6059C77.4219 72.5241 77.3556 72.4578 77.2738 72.4578H76.969C76.8872 72.4578 76.8209 72.5241 76.8209 72.6059V73.3206C76.8209 73.4024 76.8872 73.4687 76.969 73.4687H77.2738C77.3556 73.4687 77.4219 73.4024 77.4219 73.3206Z" fill="#83A0F0"/>
<path id="Vector_197" d="M78.5504 66.5637H75.6979C75.3707 66.5637 75.1055 66.829 75.1055 67.1561V68.3688C75.1055 68.696 75.3707 68.9612 75.6979 68.9612H78.5504C78.8776 68.9612 79.1428 68.696 79.1428 68.3688V67.1561C79.1428 66.829 78.8776 66.5637 78.5504 66.5637Z" fill="#2957A4"/>
<path id="Vector_198" d="M77.4258 68.1199V67.4052C77.4258 67.3234 77.3595 67.2571 77.2777 67.2571H76.9729C76.8911 67.2571 76.8248 67.3234 76.8248 67.4052V68.1199C76.8248 68.2017 76.8911 68.268 76.9729 68.268H77.2777C77.3595 68.268 77.4258 68.2017 77.4258 68.1199Z" fill="#83A0F0"/>
</g>
</g>
<g id="Group_42">
<path id="Vector_199" d="M80.1467 43.9839H56.7383V65.6087H80.1467V43.9839Z" fill="#83A0F0"/>
<path id="Vector_200" d="M80.1473 43.9839H72.8281V65.6087H80.1473V43.9839Z" fill="#F59630"/>
<g id="Group_43">
<g id="Group_44">
<g id="Group_45">
<path id="Vector_201" d="M73.4967 60.4402H56.1367V64.748H73.4967V60.4402Z" fill="#2957A4"/>
<path id="Vector_202" d="M80.753 60.4402H73.4961V64.748H80.753V60.4402Z" fill="#A0B7EA"/>
<path id="Vector_203" d="M73.2005 60.7364V64.4518H56.4329V60.7364H73.2005ZM73.4967 60.4402H56.1367V64.748H73.4967V60.4402Z" fill="#83A0F0"/>
<g id="Group_46">
<g id="Group_47">
<path id="Vector_204" d="M63.3117 62.2239H57.5938V62.9644H63.3117V62.2239Z" fill="white"/>
<path id="Vector_205" d="M67.1351 62.2239H66.7188V62.9644H67.1351V62.2239Z" fill="#79BAEF"/>
<path id="Vector_206" d="M66.3031 62.2239H65.8867V62.9644H66.3031V62.2239Z" fill="#F59630"/>
<path id="Vector_207" d="M65.4672 62.2239H65.0508V62.9644H65.4672V62.2239Z" fill="#79BAEF"/>
<path id="Vector_208" d="M64.6351 62.2239H64.2188V62.9644H64.6351V62.2239Z" fill="#F59630"/>
</g>
<path id="Vector_209" d="M72.0426 61.5242H70.0508V63.516H72.0426V61.5242Z" fill="#83A0F0"/>
</g>
<g id="Group_48">
<path id="Vector_210" d="M57.759 61.1892H57.5938V61.3545H57.759V61.1892Z" fill="white"/>
<path id="Vector_211" d="M58.2512 61.1892H58.0859V61.3545H58.2512V61.1892Z" fill="#79BAEF"/>
<path id="Vector_212" d="M58.7434 61.1892H58.5781V61.3545H58.7434V61.1892Z" fill="#79BAEF"/>
</g>
</g>
<g id="Group_49">
<path id="Vector_213" d="M73.4967 55.2417H56.1367V59.5495H73.4967V55.2417Z" fill="#2957A4"/>
<path id="Vector_214" d="M80.753 55.2417H73.4961V59.5495H80.753V55.2417Z" fill="#A0B7EA"/>
<path id="Vector_215" d="M73.2005 55.5379V59.2533H56.4329V55.5379H73.2005ZM73.4967 55.2417H56.1367V59.5495H73.4967V55.2417Z" fill="#83A0F0"/>
<g id="Group_50">
<g id="Group_51">
<path id="Vector_216" d="M63.3117 57.0254H57.5938V57.7659H63.3117V57.0254Z" fill="white"/>
<path id="Vector_217" d="M67.1351 57.0254H66.7188V57.7659H67.1351V57.0254Z" fill="#79BAEF"/>
<path id="Vector_218" d="M66.3031 57.0254H65.8867V57.7659H66.3031V57.0254Z" fill="#F59630"/>
<path id="Vector_219" d="M65.4672 57.0254H65.0508V57.7659H65.4672V57.0254Z" fill="#79BAEF"/>
<path id="Vector_220" d="M64.6351 57.0254H64.2188V57.7659H64.6351V57.0254Z" fill="#F59630"/>
</g>
<path id="Vector_221" d="M72.0426 56.3235H70.0508V58.3153H72.0426V56.3235Z" fill="#83A0F0"/>
</g>
<g id="Group_52">
<path id="Vector_222" d="M57.759 55.9885H57.5938V56.1538H57.759V55.9885Z" fill="white"/>
<path id="Vector_223" d="M58.2512 55.9885H58.0859V56.1538H58.2512V55.9885Z" fill="#79BAEF"/>
<path id="Vector_224" d="M58.7434 55.9885H58.5781V56.1538H58.7434V55.9885Z" fill="#79BAEF"/>
</g>
</g>
<g id="Group_53">
<path id="Vector_225" d="M73.4967 50.041H56.1367V54.3488H73.4967V50.041Z" fill="#2957A4"/>
<path id="Vector_226" d="M80.753 50.041H73.4961V54.3488H80.753V50.041Z" fill="#A0B7EA"/>
<path id="Vector_227" d="M73.2005 50.3372V54.0526H56.4329V50.3372H73.2005ZM73.4967 50.041H56.1367V54.3488H73.4967V50.041Z" fill="#83A0F0"/>
<g id="Group_54">
<g id="Group_55">
<path id="Vector_228" d="M63.3117 51.8247H57.5938V52.5652H63.3117V51.8247Z" fill="white"/>
<path id="Vector_229" d="M67.1351 51.8247H66.7188V52.5652H67.1351V51.8247Z" fill="#79BAEF"/>
<path id="Vector_230" d="M66.3031 51.8247H65.8867V52.5652H66.3031V51.8247Z" fill="#F59630"/>
<path id="Vector_231" d="M65.4672 51.8247H65.0508V52.5652H65.4672V51.8247Z" fill="#79BAEF"/>
<path id="Vector_232" d="M64.6351 51.8247H64.2188V52.5652H64.6351V51.8247Z" fill="#F59630"/>
</g>
<path id="Vector_233" d="M72.0426 51.125H70.0508V53.1168H72.0426V51.125Z" fill="#83A0F0"/>
</g>
<g id="Group_56">
<path id="Vector_234" d="M57.759 50.79H57.5938V50.9553H57.759V50.79Z" fill="white"/>
<path id="Vector_235" d="M58.2512 50.79H58.0859V50.9553H58.2512V50.79Z" fill="#79BAEF"/>
<path id="Vector_236" d="M58.7434 50.79H58.5781V50.9553H58.7434V50.79Z" fill="#79BAEF"/>
</g>
</g>
<g id="Group_57">
<path id="Vector_237" d="M73.4967 44.8425H56.1367V49.1503H73.4967V44.8425Z" fill="#2957A4"/>
<path id="Vector_238" d="M80.753 44.8425H73.4961V49.1503H80.753V44.8425Z" fill="#A0B7EA"/>
<path id="Vector_239" d="M73.2005 45.1387V48.8541H56.4329V45.1387H73.2005ZM73.4967 44.8425H56.1367V49.1503H73.4967V44.8425Z" fill="#83A0F0"/>
<g id="Group_58">
<g id="Group_59">
<path id="Vector_240" d="M63.3117 46.6262H57.5938V47.3667H63.3117V46.6262Z" fill="white"/>
<path id="Vector_241" d="M67.1351 46.6262H66.7188V47.3667H67.1351V46.6262Z" fill="#79BAEF"/>
<path id="Vector_242" d="M66.3031 46.6262H65.8867V47.3667H66.3031V46.6262Z" fill="#F59630"/>
<path id="Vector_243" d="M65.4672 46.6262H65.0508V47.3667H65.4672V46.6262Z" fill="#79BAEF"/>
<path id="Vector_244" d="M64.6351 46.6262H64.2188V47.3667H64.6351V46.6262Z" fill="#F59630"/>
</g>
<path id="Vector_245" d="M72.0426 45.9265H70.0508V47.9184H72.0426V45.9265Z" fill="#83A0F0"/>
</g>
<g id="Group_60">
<path id="Vector_246" d="M57.759 45.5916H57.5938V45.7568H57.759V45.5916Z" fill="white"/>
<path id="Vector_247" d="M58.2512 45.5916H58.0859V45.7568H58.2512V45.5916Z" fill="#79BAEF"/>
<path id="Vector_248" d="M58.7434 45.5916H58.5781V45.7568H58.7434V45.5916Z" fill="#79BAEF"/>
</g>
</g>
</g>
<path id="Vector_249" d="M78.5504 61.3955H75.6979C75.3707 61.3955 75.1055 61.6607 75.1055 61.9879V63.2006C75.1055 63.5278 75.3707 63.793 75.6979 63.793H78.5504C78.8776 63.793 79.1428 63.5278 79.1428 63.2006V61.9879C79.1428 61.6607 78.8776 61.3955 78.5504 61.3955Z" fill="#2957A4"/>
<path id="Vector_250" d="M77.4258 62.9537V62.2389C77.4258 62.1571 77.3595 62.0908 77.2777 62.0908H76.9729C76.8911 62.0908 76.8248 62.1571 76.8248 62.2389V62.9537C76.8248 63.0355 76.8911 63.1018 76.9729 63.1018H77.2777C77.3595 63.1018 77.4258 63.0355 77.4258 62.9537Z" fill="#83A0F0"/>
<path id="Vector_251" d="M78.5504 56.1968H75.6979C75.3707 56.1968 75.1055 56.462 75.1055 56.7892V58.0019C75.1055 58.3291 75.3707 58.5943 75.6979 58.5943H78.5504C78.8776 58.5943 79.1428 58.3291 79.1428 58.0019V56.7892C79.1428 56.462 78.8776 56.1968 78.5504 56.1968Z" fill="#2957A4"/>
<path id="Vector_252" d="M77.4219 57.753V57.0382C77.4219 56.9564 77.3556 56.8901 77.2738 56.8901H76.969C76.8872 56.8901 76.8209 56.9564 76.8209 57.0382V57.753C76.8209 57.8348 76.8872 57.9011 76.969 57.9011H77.2738C77.3556 57.9011 77.4219 57.8348 77.4219 57.753Z" fill="#83A0F0"/>
<path id="Vector_253" d="M78.5504 50.9983H75.6979C75.3707 50.9983 75.1055 51.2635 75.1055 51.5907V52.8034C75.1055 53.1306 75.3707 53.3958 75.6979 53.3958H78.5504C78.8776 53.3958 79.1428 53.1306 79.1428 52.8034V51.5907C79.1428 51.2635 78.8776 50.9983 78.5504 50.9983Z" fill="#2957A4"/>
<path id="Vector_254" d="M77.4258 52.5545V51.8398C77.4258 51.758 77.3595 51.6917 77.2777 51.6917H76.9729C76.8911 51.6917 76.8248 51.758 76.8248 51.8398V52.5545C76.8248 52.6363 76.8911 52.7026 76.9729 52.7026H77.2777C77.3595 52.7026 77.4258 52.6363 77.4258 52.5545Z" fill="#83A0F0"/>
<path id="Vector_255" d="M78.5504 45.7976H75.6979C75.3707 45.7976 75.1055 46.0628 75.1055 46.39V47.6027C75.1055 47.9299 75.3707 48.1951 75.6979 48.1951H78.5504C78.8776 48.1951 79.1428 47.9299 79.1428 47.6027V46.39C79.1428 46.0628 78.8776 45.7976 78.5504 45.7976Z" fill="#2957A4"/>
<path id="Vector_256" d="M77.4258 47.356V46.6413C77.4258 46.5595 77.3595 46.4932 77.2777 46.4932H76.9729C76.8911 46.4932 76.8248 46.5595 76.8248 46.6413V47.356C76.8248 47.4378 76.8911 47.5041 76.9729 47.5041H77.2777C77.3595 47.5041 77.4258 47.4378 77.4258 47.356Z" fill="#83A0F0"/>
</g>
</g>
</g>
<path id="Vector_257" d="M82.5944 35.3146V46.8815H80.3385V46.7656H79.4928V46.8815H77.1211V47.1133H79.4928V47.2292H80.3385V47.1133H82.5944V52.08H80.3385V51.9641H79.4928V52.08H77.1211V52.3118H79.4928V52.4277H80.3385V52.3118H82.5944V57.2785H80.3385V57.1626H79.4928V57.2785H77.1211V57.5103H79.4928V57.6263H80.3385V57.5103H82.5944V62.4771H77.1232V62.7089H82.5944V67.6434H80.3385V67.5275H79.4928V67.6434H77.1211V67.8752H79.4928V67.9911H80.3385V67.8752H82.5944V72.842H80.3385V72.7261H79.4928V72.842H77.1211V73.0738H79.4928V73.1897H80.3385V73.0738H82.5944V78.0405H80.3385V77.9246H79.4928V78.0405H77.1211V78.2723H79.4928V78.3882H80.3385V78.2723H82.5944V83.239H80.3385V83.1231H79.4928V83.239H77.1211V83.4709H79.4928V83.5868H80.3385V83.4709H82.8262V35.3404C82.7489 35.3296 82.6716 35.321 82.5944 35.3103V35.3146Z" fill="#2957A4"/>
<path id="Vector_258" d="M82.7128 35.2094C82.9642 35.2094 83.1679 35.0057 83.1679 34.7543C83.1679 34.503 82.9642 34.2993 82.7128 34.2993C82.4615 34.2993 82.2578 34.503 82.2578 34.7543C82.2578 35.0057 82.4615 35.2094 82.7128 35.2094Z" fill="#F59630"/>
<path id="Vector_259" d="M82.7128 47.4523C82.9642 47.4523 83.1679 47.2486 83.1679 46.9973C83.1679 46.746 82.9642 46.5422 82.7128 46.5422C82.4615 46.5422 82.2578 46.746 82.2578 46.9973C82.2578 47.2486 82.4615 47.4523 82.7128 47.4523Z" fill="#F59630"/>
<path id="Vector_260" d="M82.7128 52.6315C82.9642 52.6315 83.1679 52.4278 83.1679 52.1765C83.1679 51.9252 82.9642 51.7214 82.7128 51.7214C82.4615 51.7214 82.2578 51.9252 82.2578 52.1765C82.2578 52.4278 82.4615 52.6315 82.7128 52.6315Z" fill="#F59630"/>
<path id="Vector_261" d="M82.7128 57.8495C82.9642 57.8495 83.1679 57.6458 83.1679 57.3945C83.1679 57.1432 82.9642 56.9395 82.7128 56.9395C82.4615 56.9395 82.2578 57.1432 82.2578 57.3945C82.2578 57.6458 82.4615 57.8495 82.7128 57.8495Z" fill="#F59630"/>
<path id="Vector_262" d="M82.7128 62.9921C82.9642 62.9921 83.1679 62.7884 83.1679 62.5371C83.1679 62.2858 82.9642 62.082 82.7128 62.082C82.4615 62.082 82.2578 62.2858 82.2578 62.5371C82.2578 62.7884 82.4615 62.9921 82.7128 62.9921Z" fill="#F59630"/>
<path id="Vector_263" d="M82.7128 68.1713C82.9642 68.1713 83.1679 67.9676 83.1679 67.7163C83.1679 67.465 82.9642 67.2612 82.7128 67.2612C82.4615 67.2612 82.2578 67.465 82.2578 67.7163C82.2578 67.9676 82.4615 68.1713 82.7128 68.1713Z" fill="#F59630"/>
<path id="Vector_264" d="M82.7128 73.3505C82.9642 73.3505 83.1679 73.1468 83.1679 72.8955C83.1679 72.6442 82.9642 72.4404 82.7128 72.4404C82.4615 72.4404 82.2578 72.6442 82.2578 72.8955C82.2578 73.1468 82.4615 73.3505 82.7128 73.3505Z" fill="#F59630"/>
<path id="Vector_265" d="M82.7128 78.5319C82.9642 78.5319 83.1679 78.3282 83.1679 78.0769C83.1679 77.8256 82.9642 77.6218 82.7128 77.6218C82.4615 77.6218 82.2578 77.8256 82.2578 78.0769C82.2578 78.3282 82.4615 78.5319 82.7128 78.5319Z" fill="#F59630"/>
<path id="Vector_266" d="M82.7128 83.7111C82.9642 83.7111 83.1679 83.5074 83.1679 83.2561C83.1679 83.0048 82.9642 82.801 82.7128 82.801C82.4615 82.801 82.2578 83.0048 82.2578 83.2561C82.2578 83.5074 82.4615 83.7111 82.7128 83.7111Z" fill="#F59630"/>
</g>
<g id="Group_61">
<path id="Vector_267" d="M27.3047 32.6701V84.2348C27.3047 84.7306 27.3841 85.2093 27.5322 85.66C28.1353 87.5016 29.8739 88.8431 31.913 88.8431H53.6043C55.6412 88.8431 57.382 87.5038 57.9851 85.66C58.1332 85.2093 58.2126 84.7306 58.2126 84.2348V32.6701C58.2126 31.7193 57.9207 30.8349 57.4206 30.0966C56.5921 28.8732 55.1884 28.064 53.6043 28.064H31.913C30.3289 28.064 28.9252 28.8732 28.0946 30.0966C27.5966 30.8328 27.3047 31.7193 27.3047 32.6701Z" fill="#4A7DD2"/>
<path id="Vector_268" d="M33.2614 28.2207C30.7995 28.2207 28.7969 30.2233 28.7969 32.6852V84.2542C28.7969 86.7161 30.7995 88.7187 33.2614 88.7187H54.5814C57.0433 88.7187 59.0459 86.7161 59.0459 84.2542V32.6852C59.0459 30.2233 57.0433 28.2207 54.5814 28.2207H33.2614Z" fill="#2957A4"/>
<path id="Vector_269" d="M54.4058 28.4075H33.4399C30.9813 28.4075 28.9883 30.4005 28.9883 32.8591V84.031C28.9883 86.4895 30.9813 88.4826 33.4399 88.4826H54.4058C56.8643 88.4826 58.8573 86.4895 58.8573 84.031V32.8591C58.8573 30.4005 56.8643 28.4075 54.4058 28.4075Z" fill="#2957A4"/>
<path id="Vector_270" d="M33.5191 29.9143H37.1872V30.2384C37.1872 31.2321 37.9943 32.0392 38.9881 32.0392H49.2048C50.2566 32.0392 51.1108 31.1871 51.1108 30.1332V29.9121H54.3218C56.0561 29.9121 57.462 31.318 57.462 33.0523V83.8335C57.462 85.5678 56.0561 86.9737 54.3218 86.9737H33.5191C31.7848 86.9737 30.3789 85.5678 30.3789 83.8335V33.0523C30.3789 31.318 31.7848 29.9121 33.5191 29.9121V29.9143Z" fill="#F2F2F2"/>
<path id="Vector_271" d="M45.5838 30.483C45.7577 30.483 45.9015 30.3413 45.9015 30.1653C45.9015 29.9893 45.7598 29.8477 45.5838 29.8477H42.2591C42.0852 29.8477 41.9414 29.9893 41.9414 30.1653C41.9414 30.3413 42.0831 30.483 42.2591 30.483H45.5838Z" fill="#F59630"/>
<g id="Group_62">
<path id="Vector_272" d="M47.5773 30.1202C47.5773 30.3456 47.3949 30.528 47.1695 30.528C46.9442 30.528 46.7617 30.3456 46.7617 30.1202C46.7617 29.8948 46.9442 29.7124 47.1695 29.7124C47.3949 29.7124 47.5773 29.8948 47.5773 30.1202Z" fill="#F59630"/>
<path id="Vector_273" d="M47.3914 30.1202C47.3914 30.2426 47.2926 30.3413 47.1703 30.3413C47.048 30.3413 46.9492 30.2426 46.9492 30.1202C46.9492 29.9979 47.048 29.8992 47.1703 29.8992C47.2926 29.8992 47.3914 29.9979 47.3914 30.1202Z" fill="#4661C9"/>
</g>
<path id="Vector_274" d="M28.2564 40.689C28.2564 40.5151 28.1148 40.3713 27.9388 40.3713C27.7628 40.3713 27.6211 40.513 27.6211 40.689V45.1835C27.6211 45.3574 27.7628 45.5012 27.9388 45.5012C28.1148 45.5012 28.2564 45.3595 28.2564 45.1835V40.689Z" fill="#2957A4"/>
<path id="Vector_275" d="M28.2564 47.9395C28.2564 47.7656 28.1148 47.6218 27.9388 47.6218C27.7628 47.6218 27.6211 47.7635 27.6211 47.9395V52.434C27.6211 52.6079 27.7628 52.7517 27.9388 52.7517C28.1148 52.7517 28.2564 52.61 28.2564 52.434V47.9395Z" fill="#2957A4"/>
<path id="Vector_276" d="M27.303 34.9668H28.7969V34.2241H27.303V34.9668Z" fill="#2957A4"/>
<path id="Vector_277" d="M27.303 82.7388H28.7969V81.9961H27.303V82.7388Z" fill="#2957A4"/>
</g>
</g>
<g id="Group_63">
<path id="Vector_278" d="M35.7918 61.5367C35.7918 61.5367 33.3621 64.3656 30.4602 61.2297C30.4602 61.2297 27.5969 61.3499 24.1562 65.1426V81.5131L41.9669 81.6998V65.7049C41.9669 65.7049 39.8764 62.4725 35.7918 61.5367Z" fill="#F59630"/>
<path id="Vector_279" d="M34.153 80.1952C31.9938 81.4359 27.7718 81.3221 25.4194 81.2577C18.5552 81.0731 21.0129 70.6803 23.2258 66.4155C25.4387 62.1485 27.4692 65.7801 27.5744 69.2186C27.6323 71.0838 27.1687 73.4942 26.1406 75.1555C28.7613 75.2951 34.2968 77.5037 34.2968 77.5037C33.1614 78.7829 34.1552 80.1931 34.1552 80.1931L34.153 80.1952Z" fill="#F59630"/>
<path id="Vector_280" d="M33.1116 81.0366C35.419 81.9745 39.5873 81.2963 41.9097 80.9185C48.6879 79.8153 44.8566 69.8453 42.0921 65.9174C39.3276 61.9874 37.8036 65.8573 38.1599 69.2787C38.3531 71.1353 39.1344 73.462 40.3771 74.9687C37.7993 75.4603 32.6094 78.3901 32.6094 78.3901C33.9058 79.5062 33.1116 81.0366 33.1116 81.0366Z" fill="#F59630"/>
<path id="Vector_281" d="M43.0714 80.7704L21.3672 80.0771L22.7108 83.6702L35.3466 87.553L43.3955 84.9237L43.0714 80.7704Z" fill="#2957A4"/>
<path id="Vector_282" d="M40.7568 76.2179L40.5701 80.0771H23.985L23.5664 72.0002L40.7568 76.2179Z" fill="#F59630"/>
<path id="Vector_283" d="M39.0196 77.993L39.3545 76.6408C39.3781 76.5485 39.3244 76.454 39.2321 76.4261L38.7749 76.2845C38.7105 76.2651 38.6633 76.2115 38.6505 76.1449L38.5732 75.7243C38.5582 75.6384 38.483 75.5761 38.395 75.5761H38.0216C37.9593 75.5761 37.9014 75.544 37.8692 75.4924L37.6416 75.1276C37.5901 75.0438 37.4807 75.0181 37.397 75.0675L36.9634 75.325C36.9076 75.3572 36.8389 75.3594 36.7831 75.3272L36.5277 75.1855C36.4461 75.1404 36.3409 75.164 36.2894 75.2435L35.3772 76.6214C35.3214 76.7073 35.3472 76.8211 35.433 76.8747L35.6348 76.9992C35.7099 77.0443 35.8065 77.0293 35.8644 76.9649C35.9846 76.8296 36.2057 76.9348 36.1778 77.113L36.1692 77.1731C36.1564 77.2503 36.1971 77.3276 36.268 77.3619L38.0559 78.2441C38.0666 78.2505 38.0795 78.2548 38.0924 78.257C38.204 78.2849 38.7535 78.4008 38.996 78.0531C39.0089 78.0359 39.0153 78.0166 39.0218 77.9951L39.0196 77.993Z" fill="#FEBAC7"/>
<path id="Vector_284" d="M26.4185 77.993L26.0837 76.6408C26.0601 76.5485 26.1137 76.454 26.206 76.4261L26.6632 76.2845C26.7276 76.2651 26.7748 76.2115 26.7877 76.1449L26.865 75.7243C26.88 75.6384 26.9551 75.5761 27.0431 75.5761H27.4166C27.4788 75.5761 27.5368 75.544 27.569 75.4924L27.7965 75.1276C27.848 75.0438 27.9575 75.0181 28.0412 75.0675L28.4748 75.325C28.5306 75.3572 28.5992 75.3594 28.655 75.3272L28.9105 75.1855C28.992 75.1404 29.0972 75.164 29.1487 75.2435L30.0609 76.6214C30.1167 76.7073 30.091 76.8211 30.0051 76.8747L29.8034 76.9992C29.7282 77.0443 29.6317 77.0293 29.5737 76.9649C29.4535 76.8296 29.2324 76.9348 29.2603 77.113L29.2689 77.1731C29.2818 77.2503 29.241 77.3276 29.1702 77.3619L27.3822 78.2441C27.3715 78.2505 27.3586 78.2548 27.3458 78.257C27.2341 78.2849 26.6847 78.4008 26.4421 78.0531C26.4292 78.0359 26.4228 78.0166 26.4164 77.9951L26.4185 77.993Z" fill="#FEBAC7"/>
<g id="Group_64">
<path id="Vector_285" d="M45.9205 76.8811L29.7969 86.6708C31.0954 87.7246 31.8166 89.1026 32.1085 90.721L48.904 82.2621C50.5953 81.41 51.1233 79.2486 50.018 77.7139C49.08 76.4089 47.2942 76.0462 45.9205 76.8811Z" fill="#4A7DD2"/>
<path id="Vector_286" d="M34.4594 88.156L35.4833 89.021L33.4571 90.0405C32.8518 89.519 31.6691 88.5123 31.4931 88.4458C31.2549 88.3556 34.4573 88.156 34.4573 88.156H34.4594Z" fill="#2957A4"/>
<path id="Vector_287" d="M29.7946 86.6707L27.1095 88.1839C26.9098 88.2976 26.839 88.5509 26.9528 88.7505C27.6611 89.9868 30.0243 93.9791 31.2734 94.5221C31.2734 94.5221 32.2822 94.198 31.8959 92.8801C31.5095 91.5623 32.029 90.3431 32.029 90.3431C32.029 90.3431 31.941 87.2695 29.7946 86.6707Z" fill="#2957A4"/>
</g>
<g id="Group_65">
<path id="Vector_288" d="M21.3312 77.9865L38.3671 86.0848C37.1823 87.2653 36.6049 88.7077 36.4804 90.3497L18.9123 83.6422C17.1437 82.9661 16.3967 80.8713 17.3411 79.2293C18.1417 77.8363 19.8803 77.2932 21.3312 77.9844V77.9865Z" fill="#4A7DD2"/>
<path id="Vector_289" d="M38.3652 86.0849L41.1898 87.3169C41.4002 87.4092 41.4968 87.6539 41.4023 87.8642C40.8228 89.1649 38.8782 93.3783 37.6912 94.0437C37.6912 94.0437 36.6545 93.8247 36.9056 92.4725C37.1546 91.1224 36.515 89.9612 36.515 89.9612C36.515 89.9612 36.2896 86.8962 38.363 86.0806L38.3652 86.0849Z" fill="#2957A4"/>
</g>
<g id="Group_66">
<g id="Group_67">
<path id="Vector_290" d="M34.1547 61.307C33.8499 61.2791 33.5494 61.2168 33.2661 61.1095C32.2938 60.7446 31.6113 59.9011 31.1519 59.0254C31.1519 59.0254 31.1112 60.6867 31.0382 61.1975C30.9631 61.7105 30.7227 61.9981 30.7227 61.9981L32.8798 63.7431L33.9766 62.5841C33.9766 62.5841 34.0453 61.9788 34.1569 61.307H34.1547Z" fill="#EF9366"/>
<path id="Vector_291" d="M33.8693 62.6957C33.5044 62.8824 33.1438 63.0734 32.8004 63.2623C32.18 62.7386 31.5082 62.2771 30.7978 61.8865C30.7527 61.9595 30.7227 61.9981 30.7227 61.9981L32.8798 63.7431L33.8714 62.6957H33.8693Z" fill="#C97865"/>
<path id="Vector_292" d="M33.2651 61.1095C32.5332 60.8348 31.9666 60.2896 31.5352 59.6628C31.7283 60.2831 32.0331 60.8755 32.4345 61.4057C32.6448 61.6847 32.8874 61.9509 33.1943 62.1398C33.4326 62.2879 33.7159 62.3866 33.9992 62.393C34.0271 62.1612 34.0829 61.7491 34.1559 61.307C33.8511 61.2791 33.5506 61.2168 33.2673 61.1095H33.2651Z" fill="#2957A4"/>
</g>
<g id="Group_68">
<path id="Vector_293" d="M31.1499 59.0233C31.6007 59.9634 32.2746 60.8627 33.2448 61.2469C33.7986 61.4659 34.4124 61.5002 35.0048 61.4444C35.7239 61.3757 36.2132 61.131 36.5373 60.4635C36.7971 59.9291 36.855 59.3045 36.9323 58.7335C37.046 57.875 37.0482 57.025 37.0911 56.1622C37.1233 55.471 37.0782 54.9795 36.4794 54.4987C36.2755 54.6575 35.9771 54.7413 35.7346 54.8293C35.492 54.9173 35.2195 54.9409 34.9769 54.855C34.7236 54.7627 34.5283 54.5631 34.3094 54.4021C34.0926 54.2433 33.8114 54.1167 33.5582 54.209C32.7468 54.503 32.2639 55.3594 32.1694 56.218C32.1072 56.7782 32.2145 57.8857 31.3817 57.9544C31.3259 57.7612 31.1885 57.435 31.0662 57.274C30.946 57.113 30.7464 56.9928 30.5468 57.025C30.3686 57.0529 30.227 57.1946 30.1411 57.3513C29.9694 57.6668 29.9823 58.0724 30.1626 58.3837C30.3407 58.6949 30.7936 58.9739 31.1499 59.0254V59.0233Z" fill="#EF9366"/>
<g id="Group_69">
<g id="Group_70">
<path id="Vector_294" d="M33.8008 59.4265C34.4125 59.6991 35.0929 59.8172 35.7604 59.7635C35.5651 60.0554 35.2947 60.4031 34.9491 60.4632C34.6765 60.5104 34.3975 60.3817 34.2043 60.182C34.0111 59.9824 33.8974 59.6841 33.8008 59.4265Z" fill="#F5EDEC"/>
<path id="Vector_295" d="M33.8008 59.4267C33.8351 59.5169 33.8716 59.6134 33.9124 59.7057C34.3481 59.9247 34.831 60.0492 35.3204 60.0642C35.3934 60.0663 35.4664 60.0642 35.5415 60.0599C35.6231 59.9633 35.696 59.8581 35.7626 59.7615C35.0951 59.8152 34.4146 59.6993 33.8029 59.4246L33.8008 59.4267Z" fill="#DDD7D7"/>
</g>
<path id="Vector_296" d="M34.6656 59.0512C34.6312 59.0469 34.6055 59.0169 34.6055 58.9825C34.6055 58.9439 34.6377 58.9139 34.6763 58.9139L35.3803 58.9224C35.3374 58.3107 35.3202 57.6904 35.3288 57.0787C35.3288 57.0401 35.361 57.01 35.3996 57.01C35.4383 57.01 35.4683 57.0422 35.4683 57.0808C35.4576 57.714 35.4769 58.3558 35.5241 58.9868C35.5241 59.0062 35.5198 59.0255 35.5048 59.0405C35.4919 59.0555 35.4726 59.062 35.4533 59.062L34.6742 59.0512C34.6742 59.0512 34.6677 59.0512 34.6656 59.0512Z" fill="#2957A4"/>
<path id="Vector_297" d="M33.5416 56.0291C33.6511 55.9711 33.8013 55.9454 33.9215 55.9196C34.1126 55.8788 34.5504 55.7994 34.5569 56.1085C34.5569 56.2158 34.4903 56.3145 34.4023 56.3746C34.3143 56.4347 34.207 56.4626 34.1018 56.4798C33.9602 56.5034 33.8142 56.5142 33.6725 56.4927C33.5996 56.482 33.5266 56.4626 33.4708 56.4133C33.3463 56.3059 33.4064 56.1063 33.533 56.0312C33.5352 56.0312 33.5395 56.0269 33.5416 56.0269V56.0291ZM36.7805 56.3382C36.6989 56.2587 36.5745 56.1986 36.4757 56.145C36.319 56.0591 35.9563 55.8788 35.8704 56.145C35.8404 56.2373 35.8747 56.3424 35.937 56.4176C35.9992 56.4927 36.0851 56.5442 36.1731 56.5871C36.2911 56.6451 36.4156 56.6923 36.5444 56.7095C36.6109 56.7181 36.6796 56.7202 36.7419 56.6923C36.8792 56.6301 36.8771 56.439 36.7869 56.3424C36.7848 56.3403 36.7827 56.3381 36.7805 56.336V56.3382Z" fill="#2957A4"/>
<path id="Vector_298" d="M34.0923 57.7205C34.073 57.8514 33.9507 57.9437 33.8197 57.9244C33.6888 57.905 33.5965 57.7827 33.6158 57.6518C33.6352 57.5208 33.7575 57.4286 33.8884 57.4479C34.0194 57.4672 34.1117 57.5895 34.0923 57.7205ZM36.3095 57.6368C36.1786 57.6174 36.0563 57.7097 36.037 57.8407C36.0176 57.9716 36.1099 58.0939 36.2409 58.1132C36.3718 58.1326 36.4941 58.0403 36.5135 57.9093C36.5328 57.7784 36.4405 57.6561 36.3095 57.6368Z" fill="#2957A4"/>
</g>
<path id="Vector_299" d="M36.8074 53.7132C37.0027 53.3204 36.5863 52.6915 36.1828 52.5198C35.7792 52.3502 35.3178 52.4103 34.8842 52.4747C34.3884 52.5477 33.8947 52.6207 33.3989 52.6936C32.9675 52.758 32.5275 52.8224 32.1411 53.0242C31.6625 53.2732 31.3062 53.7175 31.0765 54.2047C30.8468 54.6941 30.7374 55.2285 30.658 55.763C30.5979 56.1772 30.5549 56.6044 30.6022 57.0165C30.7825 57.0122 30.9585 57.1238 31.0679 57.2697C31.1881 57.4307 31.3276 57.757 31.3834 57.9501C32.2162 57.8814 32.1089 56.7739 32.1712 56.2137C32.2656 55.3552 32.7485 54.5009 33.5599 54.2047C33.8132 54.1124 34.0943 54.2369 34.3111 54.3979C34.5279 54.5567 34.7232 54.7585 34.9786 54.8508C35.2212 54.9388 35.4938 54.913 35.7363 54.825C35.9789 54.737 36.2772 54.6533 36.4811 54.4945C37.0799 54.9752 37.125 55.4689 37.0928 56.1579C37.0842 56.3446 37.0778 56.5292 37.0692 56.7138C37.1357 56.5249 37.2044 56.3361 37.271 56.1472C37.316 56.0205 37.3611 55.8918 37.3955 55.7608C37.5779 55.0396 37.3461 54.2283 36.8116 53.711L36.8074 53.7132Z" fill="#2957A4"/>
<path id="Vector_300" d="M31.0324 58.3986C31.0324 58.3986 31.0131 58.3922 31.0045 58.3857C30.85 58.2505 30.6203 58.1561 30.4443 58.1582C30.4164 58.1582 30.3928 58.1346 30.3906 58.1067C30.3906 58.0788 30.4142 58.0552 30.4421 58.0531C30.6139 58.0531 30.8199 58.1239 30.9852 58.2376C30.9616 58.0037 30.7856 57.7805 30.558 57.7139C30.5301 57.7053 30.5151 57.6774 30.5216 57.6495C30.5301 57.6216 30.558 57.6066 30.5859 57.6131C30.8972 57.7032 31.1161 58.0252 31.0882 58.3471C31.0882 58.3664 31.0732 58.3836 31.056 58.39C31.0474 58.3943 31.0388 58.3943 31.0302 58.3922L31.0324 58.3986Z" fill="#2957A4"/>
</g>
</g>
<path id="Vector_301" d="M27.4966 66.2266C28.1127 67.905 28.3402 69.4912 28.5033 71.2427C28.7587 74.0029 30.4501 74.8464 32.839 75.6857L30.3664 77.9651L24.6055 76.1987L27.4966 66.2266Z" fill="#E59746"/>
<path id="Vector_302" d="M33.9222 63.14L33.3041 64.87L29.2109 61.8672L30.2584 60.9614L33.9222 63.14Z" fill="#EAECE9"/>
<path id="Vector_303" d="M34.0664 62.9361L35.4637 64.2626L36.0411 61.6697L35.2705 61.2297L34.0664 62.9361Z" fill="#EAECE9"/>
<path id="Vector_304" d="M38.6236 65.5955C38.0076 67.2739 37.7801 68.8601 37.6169 70.6116C37.3615 73.3718 35.6702 74.2153 33.2812 75.0546L35.7539 77.334L41.5148 75.5676L38.6236 65.5955Z" fill="#E59746"/>
<g id="Group_71">
<path id="Vector_305" d="M26.9109 80.6953H39.1796C39.719 80.6953 40.1562 80.2581 40.1562 79.7187V71.6226C40.1562 71.0832 39.719 70.6459 39.1796 70.6459H26.9109C26.3716 70.6459 25.9343 71.0832 25.9343 71.6226V79.7187C25.9343 80.2581 26.3716 80.6953 26.9109 80.6953Z" fill="#79BAEF"/>
<path id="Vector_306" d="M26.1697 81.1675H39.9173C40.0482 81.1675 40.1534 81.0623 40.1534 80.9314C40.1534 80.8005 40.0482 80.6953 39.9173 80.6953H26.1697C26.0388 80.6953 25.9336 80.8005 25.9336 80.9314C25.9336 81.0623 26.0388 81.1675 26.1697 81.1675Z" fill="#746980"/>
<path id="Vector_307" d="M28.3157 81.013C28.3714 81.013 28.4166 80.9679 28.4166 80.9122C28.4166 80.8564 28.3714 80.8113 28.3157 80.8113C28.26 80.8113 28.2148 80.8564 28.2148 80.9122C28.2148 80.9679 28.26 81.013 28.3157 81.013Z" fill="#9E8FAE"/>
<path id="Vector_308" d="M28.6592 81.0151H29.4727V80.8134H28.6592V81.0151Z" fill="#9E8FAE"/>
</g>
</g>
</g>
</g>
<defs>
<clipPath id="clip0_1850_40010">
<rect width="90" height="94.5224" fill="white"/>
</clipPath>
</defs>
</svg>
