<svg width="24" height="24" viewBox="0 0 24 24" fill="none" xmlns="http://www.w3.org/2000/svg">
<path id="Icon" d="M12.7243 17.0966C12.9895 17.4148 13.4624 17.4578 13.7806 17.1926C14.0988 16.9274 14.1418 16.4545 13.8767 16.1363L12.7243 17.0966ZM9.24933 11.7551L8.67316 11.2749C8.44138 11.5531 8.44138 11.9571 8.67316 12.2352L9.24933 11.7551ZM13.8767 7.37381C14.1418 7.0556 14.0988 6.58268 13.7806 6.3175C13.4624 6.05233 12.9895 6.09532 12.7243 6.41353L13.8767 7.37381ZM13.8767 16.1363L9.82549 11.2749L8.67316 12.2352L12.7243 17.0966L13.8767 16.1363ZM9.82549 12.2352L13.8767 7.37381L12.7243 6.41353L8.67316 11.2749L9.82549 12.2352ZM12 1.75C17.6609 1.75 22.25 6.33908 22.25 12L23.75 12C23.75 5.51065 18.4893 0.25 12 0.25V1.75ZM22.25 12C22.25 17.6609 17.6609 22.25 12 22.25L12 23.75C18.4893 23.75 23.75 18.4893 23.75 12L22.25 12ZM12 22.25C6.33908 22.25 1.75 17.6609 1.75 12H0.25C0.25 18.4893 5.51065 23.75 12 23.75L12 22.25ZM1.75 12C1.75 6.33908 6.33908 1.75 12 1.75V0.25C5.51065 0.25 0.25 5.51065 0.25 12H1.75Z" fill="white"/>
</svg>
