<svg width="97" height="84" viewBox="0 0 97 84" fill="none" xmlns="http://www.w3.org/2000/svg">
<g id="Illustrations">
<g id="Services">
<path id="Vector" d="M3.79448 58.3563L8.42803 67.4063C10.0195 70.5129 12.4628 72.3301 15.0522 72.3301H72.5555C74.7144 72.3301 76.7911 71.0644 78.3526 68.7969L79.3427 67.3607C84.8464 59.37 85.9226 46.6103 81.9204 36.7688C80.9486 34.3783 80.5233 31.5673 80.7085 28.7722C81.4012 18.3335 76.8381 8.76176 70.0991 6.51612L57.2616 2.2371C47.3723 -1.05796 37.0303 2.30256 28.8837 11.4438C27.3966 13.1122 26.3374 14.2291 26.1743 14.2231C25.8443 14.2092 20.895 15.4015 16.148 16.5679C11.0305 17.8257 7.23964 24.4773 7.15093 32.3608C7.1131 35.7471 6.19083 38.9728 4.58761 41.3255C1.49988 45.8605 1.1581 53.2064 3.79448 58.3563Z" fill="#E4F1FF"/>
<g id="Group">
<path id="Vector_2" d="M89.34 22.3466C88.906 21.2951 88.0082 20.4835 86.8963 20.1736C86.7943 17.6487 84.7166 15.6316 82.165 15.6316C79.9213 15.6316 78.0436 17.1929 77.5536 19.286C77.4137 19.27 77.2697 19.26 77.1257 19.26C75.6359 19.26 74.3501 20.1336 73.7542 21.3971C72.9443 20.7513 71.9204 20.3655 70.8046 20.3655C69.2168 20.3655 67.813 21.1472 66.9531 22.3466H89.34Z" fill="white"/>
<path id="Vector_3" d="M16.1413 34.7714C15.8493 34.0638 15.2454 33.52 14.5015 33.3121C14.4335 31.6168 13.0377 30.2634 11.3239 30.2634C9.81815 30.2634 8.55632 31.311 8.22837 32.7183C8.13438 32.7084 8.0384 32.7004 7.94041 32.7004C6.94055 32.7004 6.07667 33.2881 5.67673 34.1357C5.13281 33.7019 4.4449 33.442 3.69501 33.442C2.62916 33.442 1.68529 33.9678 1.10938 34.7714H16.1433H16.1413Z" fill="white"/>
<path id="Vector_4" d="M27.6289 13.4133C27.8409 12.9016 28.2768 12.5057 28.8187 12.3558C28.8687 11.1263 29.8806 10.1448 31.1224 10.1448C32.2143 10.1448 33.1301 10.9044 33.3681 11.924C33.4361 11.916 33.5061 11.912 33.5761 11.912C34.302 11.912 34.9279 12.3378 35.2178 12.9535C35.6118 12.6397 36.1117 12.4518 36.6536 12.4518C37.4275 12.4518 38.1094 12.8316 38.5294 13.4153H27.6289V13.4133Z" fill="white"/>
</g>
<g id="Group_2">
<path id="Vector_5" d="M26.6781 19.795V17.8278C26.6781 17.424 26.3501 17.0961 25.9462 17.0961H24.0724C23.8105 15.6568 23.2225 14.3354 22.3867 13.2019L23.7645 11.8245C24.0504 11.5386 24.0504 11.0748 23.7645 10.7909L22.3727 9.39953C22.0867 9.11366 21.6228 9.11366 21.3388 9.39953L19.887 10.8509C18.7572 10.1232 17.4594 9.62743 16.0656 9.43752V7.21849C16.0656 6.81467 15.7376 6.48682 15.3337 6.48682H13.3659C12.962 6.48682 12.634 6.81467 12.634 7.21849V9.58745C11.3542 9.87932 10.1724 10.4331 9.14853 11.1847L7.36078 9.39953C7.07482 9.11366 6.61288 9.11366 6.32692 9.39953L4.93512 10.7909C4.64916 11.0768 4.64916 11.5406 4.93512 11.8245L6.79486 13.6837C6.13895 14.7032 5.67302 15.8567 5.44505 17.0941H2.75143C2.34748 17.0941 2.01953 17.422 2.01953 17.8258V19.793C2.01953 20.1968 2.34748 20.5246 2.75143 20.5246H5.44505C5.67302 21.7621 6.13895 22.9136 6.79486 23.9331L4.93512 25.7923C4.64916 26.0782 4.64916 26.542 4.93512 26.8259L6.32692 28.2173C6.61288 28.5031 7.07482 28.5031 7.36078 28.2173L9.14853 26.432C10.1724 27.1877 11.3542 27.7415 12.634 28.0313V30.4003C12.634 30.8041 12.962 31.132 13.3659 31.132H15.3337C15.7376 31.132 16.0656 30.8041 16.0656 30.4003V28.1813C17.4594 27.9894 18.7572 27.4936 19.887 26.7639L21.3388 28.2153C21.6248 28.5011 22.0887 28.5011 22.3727 28.2153L23.7645 26.8239C24.0504 26.538 24.0504 26.0742 23.7645 25.7903L22.3867 24.4129C23.2225 23.2814 23.8085 21.958 24.0724 20.5206H25.9462C26.3501 20.5206 26.6781 20.1928 26.6781 19.789V19.795ZM19.0251 21.5362C18.5472 22.2819 17.8793 22.8956 17.0894 23.3034C16.6735 23.5213 16.2255 23.6813 15.7536 23.7752C15.4316 23.8412 15.0977 23.8752 14.7557 23.8752C14.1898 23.8752 13.6419 23.7812 13.134 23.6073C12.742 23.4773 12.3681 23.2974 12.0261 23.0755C11.2802 22.5997 10.6663 21.932 10.2564 21.1424C10.0884 20.8205 9.95441 20.4787 9.86043 20.1188C9.74844 19.701 9.68845 19.2632 9.68845 18.8094C9.68845 18.3556 9.74844 17.9178 9.86043 17.5C9.95641 17.1401 10.0884 16.7983 10.2584 16.4744C10.6683 15.6848 11.2802 15.0171 12.0261 14.5413C12.3681 14.3214 12.74 14.1414 13.134 14.0095C13.6419 13.8356 14.1898 13.7416 14.7557 13.7416C15.0957 13.7416 15.4316 13.7756 15.7536 13.8416C16.2255 13.9355 16.6735 14.0935 17.0894 14.3134C17.8793 14.7212 18.5472 15.3349 19.0251 16.0806C19.3011 16.5124 19.5151 16.9922 19.649 17.5C19.761 17.9178 19.821 18.3556 19.821 18.8094C19.821 19.2632 19.761 19.701 19.649 20.1188C19.5151 20.6266 19.3011 21.1044 19.0251 21.5362Z" fill="#EA9655"/>
<path id="Vector_6" d="M25.9482 17.0961H24.0744C23.8125 15.6568 23.2246 14.3354 22.3887 13.2019L23.7665 11.8245C24.0524 11.5386 24.0524 11.0748 23.7665 10.7909L22.3747 9.39953C22.0887 9.11366 21.6248 9.11366 21.3408 9.39953L19.889 10.8509C18.7592 10.1232 17.4614 9.62743 16.0676 9.43752V7.21849C16.0676 6.81467 15.7396 6.48682 15.3357 6.48682H13.3679C12.964 6.48682 12.636 6.81467 12.636 7.21849V9.58745C11.3562 9.87932 10.1744 10.4331 9.15053 11.1847L7.36279 9.39953C7.07683 9.11366 6.61489 9.11366 6.32893 9.39953L4.93713 10.7909C4.65117 11.0768 4.65117 11.5406 4.93713 11.8245L6.79686 13.6836C6.14096 14.7032 5.67502 15.8567 5.44705 17.0941H5.19709C6.5729 19.0053 8.40664 20.5646 10.5403 21.6082C10.4404 21.4582 10.3464 21.3023 10.2624 21.1424C10.0944 20.8205 9.96042 20.4787 9.86643 20.1188C9.75445 19.701 9.69446 19.2632 9.69446 18.8094C9.69446 18.3556 9.75445 17.9178 9.86643 17.5C9.96242 17.1401 10.0944 16.7983 10.2644 16.4744C10.6743 15.6848 11.2862 15.0171 12.0321 14.5413C12.3741 14.3214 12.746 14.1414 13.14 14.0095C13.6479 13.8356 14.1958 13.7416 14.7617 13.7416C15.1017 13.7416 15.4376 13.7756 15.7596 13.8416C16.2315 13.9355 16.6795 14.0935 17.0954 14.3134C17.8853 14.7212 18.5532 15.3349 19.0311 16.0806C19.3071 16.5124 19.5211 16.9922 19.6551 17.5C19.767 17.9178 19.827 18.3556 19.827 18.8094C19.827 19.2632 19.767 19.701 19.6551 20.1188C19.5211 20.6266 19.3071 21.1044 19.0311 21.5362C18.6492 22.1339 18.1433 22.6437 17.5513 23.0335C19.871 22.9156 22.0427 22.2399 23.9404 21.1444C23.9924 20.9405 24.0404 20.7345 24.0784 20.5246H24.9223C25.5482 20.0928 26.1361 19.611 26.6841 19.0873V17.8258C26.6841 17.422 26.3561 17.0941 25.9522 17.0941L25.9482 17.0961Z" fill="#F9B457"/>
</g>
<g id="Group_3">
<g id="Group_4">
<path id="Vector_7" d="M49.7194 69.1729H37.5156V77.1369H49.7194V69.1729Z" fill="#1B62C6"/>
<path id="Vector_8" d="M49.7194 69.1729H37.5156V72.7082H49.7194V69.1729Z" fill="#1637AF"/>
<path id="Vector_9" d="M17.3297 33.302H69.9072C71.5215 33.302 72.8307 34.6109 72.8307 36.2246V66.4443H14.4062V36.2246C14.4062 34.6109 15.7155 33.302 17.3297 33.302Z" fill="#2957A4"/>
<path id="Vector_10" d="M70.7963 36.7478H16.4453V64.8927H70.7963V36.7478Z" fill="#F2F2F2"/>
<path id="Vector_11" d="M14.4062 64.8928H72.8307V67.8427C72.8307 69.4565 71.5215 70.7654 69.9072 70.7654H17.3297C15.7155 70.7654 14.4062 69.4565 14.4062 67.8427V64.8928Z" fill="#2957A4"/>
<path id="Vector_12" d="M43.6177 69.1727C44.2285 69.1727 44.7237 68.6777 44.7237 68.0671C44.7237 67.4564 44.2285 66.9614 43.6177 66.9614C43.0069 66.9614 42.5117 67.4564 42.5117 68.0671C42.5117 68.6777 43.0069 69.1727 43.6177 69.1727Z" fill="#F59630"/>
<path id="Vector_13" d="M65.6293 78.5777H21.6054C21.2003 78.5777 20.8711 78.2486 20.8711 77.8437C20.8711 76.6576 21.833 75.696 23.0193 75.696H64.2154C65.4017 75.696 66.3636 76.6576 66.3636 77.8437C66.3636 78.2486 66.0344 78.5777 65.6293 78.5777Z" fill="#4A7DD2"/>
<g id="Group_5">
<g id="Group_6">
<path id="Vector_14" d="M68.0761 40.9778H56.6916C56.5081 40.9778 56.3594 41.1265 56.3594 41.3099V43.6577C56.3594 43.8412 56.5081 43.9899 56.6916 43.9899H68.0761C68.2596 43.9899 68.4084 43.8412 68.4084 43.6577V41.3099C68.4084 41.1265 68.2596 40.9778 68.0761 40.9778Z" fill="#4A7DD2" fill-opacity="0.7"/>
<g id="Group_7">
<path id="Vector_15" d="M58.055 42.9827L57.5938 43.1935L57.653 42.69L57.3086 42.3169L57.8062 42.2168L58.055 41.7739L58.3038 42.2168L58.8014 42.3169L58.4586 42.69L58.5162 43.1935L58.055 42.9827Z" fill="#FFBE79"/>
<path id="Vector_16" d="M60.2191 42.9827L59.7579 43.1935L59.817 42.69L59.4727 42.3169L59.9703 42.2168L60.2191 41.7739L60.4679 42.2168L60.9655 42.3169L60.6226 42.69L60.6803 43.1935L60.2191 42.9827Z" fill="#FFBE79"/>
<path id="Vector_17" d="M62.3792 42.9827L61.918 43.1935L61.9772 42.69L61.6328 42.3169L62.1304 42.2168L62.3792 41.7739L62.628 42.2168L63.1257 42.3169L62.7828 42.69L62.8404 43.1935L62.3792 42.9827Z" fill="#FFBE79"/>
<path id="Vector_18" d="M64.5472 42.9827L64.086 43.1935L64.1452 42.69L63.8008 42.3169L64.2984 42.2168L64.5472 41.7739L64.796 42.2168L65.2936 42.3169L64.9508 42.69L65.0084 43.1935L64.5472 42.9827Z" fill="#FFBE79"/>
<path id="Vector_19" d="M66.7113 42.9827L66.2501 43.1935L66.3092 42.69L65.9648 42.3169L66.4625 42.2168L66.7113 41.7739L66.9616 42.2168L67.4577 42.3169L67.1148 42.69L67.1725 43.1935L66.7113 42.9827Z" fill="#F7F7F7"/>
</g>
</g>
<g id="Group_8">
<path id="Vector_20" d="M19.4887 39.2261H31.6257C31.9929 39.2261 32.2902 39.5233 32.2902 39.8904V42.7478C32.2902 43.1148 31.9929 43.4121 31.6257 43.4121H19.4887C19.1216 43.4121 18.8242 43.1148 18.8242 42.7478V39.8904C18.8242 39.5233 19.1216 39.2261 19.4887 39.2261Z" fill="#4A7DD2"/>
<g id="Group_9">
<g id="Group_10">
<path id="Vector_21" d="M22.1468 41.7701C22.3961 41.1716 22.1129 40.4844 21.5142 40.2351C20.9156 39.9859 20.2281 40.269 19.9788 40.8675C19.7295 41.466 20.0127 42.1532 20.6113 42.4025C21.21 42.6517 21.8975 42.3686 22.1468 41.7701Z" fill="#FFBE79"/>
<path id="Vector_22" d="M20.2734 42.1881C20.4813 42.3777 20.7574 42.4945 21.0623 42.4945C21.3673 42.4945 21.6419 42.3777 21.8512 42.1881C21.827 41.8818 21.6313 41.6254 21.3582 41.5162C21.475 41.4267 21.5524 41.2872 21.5524 41.1295C21.5524 40.8595 21.3339 40.6411 21.0639 40.6411C20.7938 40.6411 20.5753 40.8595 20.5753 41.1295C20.5753 41.2872 20.6527 41.4267 20.7695 41.5162C20.4965 41.6254 20.3007 41.8818 20.2765 42.1881H20.2734Z" fill="#F7F7F7"/>
</g>
<g id="Group_11">
<path id="Vector_23" d="M29.3441 40.7078H23.0859V40.9322H29.3441V40.7078Z" fill="#DCF1FF"/>
<path id="Vector_24" d="M31.2192 41.2083H23.0859V41.4327H31.2192V41.2083Z" fill="#DCF1FF"/>
<path id="Vector_25" d="M31.2192 41.7087H23.0859V41.9332H31.2192V41.7087Z" fill="#DCF1FF"/>
</g>
</g>
</g>
<g id="Group_12">
<path id="Vector_26" d="M26.1717 45.0684H19.1565C18.973 45.0684 18.8242 45.2171 18.8242 45.4005V46.6563C18.8242 46.8398 18.973 46.9885 19.1565 46.9885H26.1717C26.3551 46.9885 26.5039 46.8398 26.5039 46.6563V45.4005C26.5039 45.2171 26.3551 45.0684 26.1717 45.0684Z" fill="#4A7DD2" fill-opacity="0.7"/>
<path id="Vector_27" d="M26.1717 47.7817H19.1565C18.973 47.7817 18.8242 47.9304 18.8242 48.1139V49.3697C18.8242 49.5531 18.973 49.7018 19.1565 49.7018H26.1717C26.3551 49.7018 26.5039 49.5531 26.5039 49.3697V48.1139C26.5039 47.9304 26.3551 47.7817 26.1717 47.7817Z" fill="#4A7DD2" fill-opacity="0.7"/>
<path id="Vector_28" d="M26.1717 50.4951H19.1565C18.973 50.4951 18.8242 50.6438 18.8242 50.8273V52.0831C18.8242 52.2665 18.973 52.4152 19.1565 52.4152H26.1717C26.3551 52.4152 26.5039 52.2665 26.5039 52.0831V50.8273C26.5039 50.6438 26.3551 50.4951 26.1717 50.4951Z" fill="#DCF1FF"/>
<path id="Vector_29" d="M35.0193 47.7817H28.0041C27.8206 47.7817 27.6719 47.9304 27.6719 48.1139V49.3697C27.6719 49.5531 27.8206 49.7018 28.0041 49.7018H35.0193C35.2028 49.7018 35.3516 49.5531 35.3516 49.3697V48.1139C35.3516 47.9304 35.2028 47.7817 35.0193 47.7817Z" fill="#FFBE79"/>
<path id="Vector_30" d="M35.0193 50.4951H28.0041C27.8206 50.4951 27.6719 50.6438 27.6719 50.8273V52.0831C27.6719 52.2665 27.8206 52.4152 28.0041 52.4152H35.0193C35.2028 52.4152 35.3516 52.2665 35.3516 52.0831V50.8273C35.3516 50.6438 35.2028 50.4951 35.0193 50.4951Z" fill="#4A7DD2" fill-opacity="0.7"/>
</g>
<g id="Group_13">
<path id="Vector_31" d="M68.0779 48.7417H61.0627C60.8792 48.7417 60.7305 48.8904 60.7305 49.0739V50.3297C60.7305 50.5131 60.8792 50.6618 61.0627 50.6618H68.0779C68.2614 50.6618 68.4102 50.5131 68.4102 50.3297V49.0739C68.4102 48.8904 68.2614 48.7417 68.0779 48.7417Z" fill="#FFBE79"/>
<path id="Vector_32" d="M68.0779 51.4551H61.0627C60.8792 51.4551 60.7305 51.6038 60.7305 51.7872V53.043C60.7305 53.2265 60.8792 53.3752 61.0627 53.3752H68.0779C68.2614 53.3752 68.4102 53.2265 68.4102 53.043V51.7872C68.4102 51.6038 68.2614 51.4551 68.0779 51.4551Z" fill="#4A7DD2" fill-opacity="0.7"/>
<path id="Vector_33" d="M68.0779 54.1685H61.0627C60.8792 54.1685 60.7305 54.3172 60.7305 54.5006V55.7564C60.7305 55.9399 60.8792 56.0886 61.0627 56.0886H68.0779C68.2614 56.0886 68.4102 55.9399 68.4102 55.7564V54.5006C68.4102 54.3172 68.2614 54.1685 68.0779 54.1685Z" fill="#DCF1FF"/>
</g>
</g>
</g>
<g id="Group_14">
<g id="Group_15">
<path id="Vector_34" d="M34.4027 38.6348C34.0568 47.3905 29.9833 48.2763 34.4027 54.5932C38.8221 60.9086 54.0434 58.6715 54.3028 53.8895C54.5623 49.1074 51.3475 46.2273 53.4532 40.244C55.559 34.2607 34.4027 38.6348 34.4027 38.6348Z" fill="#1F2D84"/>
<path id="Vector_35" d="M35.534 40.9644C35.0212 44.9442 33.6543 48.8678 34.3567 51.026C34.3567 51.026 34.4341 48.5993 34.8877 48.0139C34.8877 48.0139 34.4341 51.4203 35.8238 54.1837C37.2135 56.9471 52.2178 56.4208 52.2178 56.4208C52.2178 56.4208 52.5243 53.3951 52.2178 51.2019C51.9114 49.0088 51.3258 48.1565 51.1574 46.9826C51.1574 46.9826 52.0828 48.8921 52.4424 49.6231C52.8019 50.3541 52.8505 51.4249 52.8505 51.4249C52.8505 51.4249 52.9476 49.476 52.1875 47.9851C51.4274 46.4942 51.8825 42.3825 52.1086 40.7839C52.3331 39.1854 41.5251 37.2895 40.3494 37.9296C39.1736 38.5711 35.534 40.9644 35.534 40.9644Z" fill="#2957A4"/>
</g>
<g id="Group_16">
<path id="Vector_36" d="M39.0237 51.7737C33.8094 53.5391 30.0681 54.2049 28.9864 57.6114C27.9062 61.0193 26.3906 64.8929 26.3906 64.8929H61.6562C61.6562 64.8929 59.91 56.8636 57.9984 55.5335C56.0868 54.2034 48.6044 51.9754 46.3181 51.5947C44.0317 51.2125 39.0222 51.7737 39.0222 51.7737H39.0237Z" fill="white"/>
<path id="Vector_37" d="M53.3963 59.4919C53.3963 59.4919 53.5298 62.6891 53.0625 64.8943H54.258L53.3963 59.4919Z" fill="#DCEDFF"/>
<path id="Vector_38" d="M34.8396 60.7507C34.8396 60.7507 34.738 63.2017 35.096 64.8928H34.1797L34.8396 60.7507Z" fill="#DCEDFF"/>
<path id="Vector_39" d="M30.6492 56.6376C31.1058 55.4334 32.5805 54.0198 32.582 54.0183C30.7918 54.8403 29.5402 55.8656 28.9864 57.6113C27.9062 61.0193 26.3906 64.8928 26.3906 64.8928H29.2352C29.1108 61.2634 30.191 57.8434 30.6477 56.6376H30.6492Z" fill="#DCEDFF"/>
<path id="Vector_40" d="M45.404 58.4015C45.404 58.4015 42.8688 58.2347 41.3305 57.0714C39.7921 55.9081 40 54.7448 40 54.7448C40 54.7448 38.8773 54.8282 38.4616 54.7448C38.0459 54.6614 38.6421 50.3328 41.0665 50.2525C43.4909 50.1736 48.5687 51.1791 49.1922 51.2125C49.8158 51.2459 51.873 53.0886 51.3526 55.4243C51.2692 55.7989 50.2648 54.7448 49.8082 55.2848C49.3515 55.8247 48.9768 58.1103 45.4024 58.4015H45.404Z" fill="#1B62C6"/>
<path id="Vector_41" d="M44.5646 57.7038C44.5646 57.7038 41.5198 55.6608 40.1483 51.6508C39.9313 51.0168 40.2985 50.6619 40.9706 50.5542L44.5646 57.7038Z" fill="#1637AF"/>
<path id="Vector_42" d="M45.5406 58.3197C47.3232 57.1791 48.9662 54.3733 49.4639 53.439C49.963 52.5047 49.9827 51.6236 48.455 51.4613C46.9272 51.299 45.5391 58.3197 45.5391 58.3197H45.5406Z" fill="#1637AF"/>
<path id="Vector_43" d="M48.6759 45.7721C48.2162 49.4789 47.9537 51.4612 49.1932 52.9991C49.1932 52.9991 46.9828 57.4869 45.4035 58.4015C45.4035 58.4015 41.6213 55.7003 40.582 51.3793C40.582 51.3793 41.2056 50.4238 41.289 49.0102C41.3725 47.5982 41.1646 45.1458 41.1646 45.1458L48.6759 45.7721Z" fill="#FFE3C4"/>
<path id="Vector_44" d="M47.7109 55.6532C45.4048 58.4454 43.0275 56.0885 42.1445 54.8918C43.6025 57.1123 45.4063 58.4014 45.4063 58.4014C46.1331 57.9813 46.9933 56.8029 47.7109 55.6547V55.6532Z" fill="#FEAC78"/>
<path id="Vector_45" d="M41.2917 49.0103C41.2204 50.2191 40.7546 51.0927 40.6211 51.3187C42.3324 51.0154 46.0023 50.3116 48.3038 49.4911C48.3402 48.4749 48.4935 47.2631 48.677 45.7722L44.0953 45.39L41.1703 45.2004C41.2006 45.566 41.366 47.7211 41.2901 49.0103H41.2917Z" fill="#FEAC78"/>
</g>
<g id="Group_17">
<g id="Group_18">
<path id="Vector_46" d="M54.6505 36.3278C54.7976 33.9906 54.8355 31.8627 53.0104 29.1358C51.1853 26.4088 51.5707 33.6039 51.601 33.6858C51.6314 33.7677 53.2183 36.8025 53.2183 36.8025L54.6489 36.3278H54.6505Z" fill="#FFC9B4"/>
<path id="Vector_47" d="M53.6207 40.0285C53.3886 41.3722 53.5464 42.4824 54.1912 42.5947C54.836 42.7054 55.546 41.7059 55.7781 40.3621C56.0102 39.0184 55.6749 37.8384 55.0302 37.7261C54.3854 37.6154 53.8529 38.6847 53.6207 40.0285Z" fill="#F9B457"/>
<path id="Vector_48" d="M54.8801 40.8899L54.4735 41.0552L54.076 42.1578C54.076 42.1578 54.0092 42.2943 53.9258 42.4702C54.0032 42.5324 54.0896 42.5764 54.1898 42.5946C54.7617 42.6932 55.3837 41.9182 55.6796 40.8049C55.1668 41.0719 54.8801 40.8914 54.8801 40.8914V40.8899Z" fill="#F5993F"/>
<path id="Vector_49" d="M53.0237 35.891C53.5243 35.7985 54.9429 36.1746 55.1037 36.9072C55.4693 38.5725 54.8609 42.437 53.7458 43.3909C53.3393 43.7383 52.206 43.6685 51.8039 43.5441C50.7829 43.2317 50.7799 41.5998 51.1531 39.437C51.5263 37.2742 52.3304 36.0199 53.0237 35.891Z" fill="#F9B457"/>
<path id="Vector_50" d="M54.8786 40.8899C54.3597 41.2645 54.0897 40.8899 54.0897 40.8899C53.7377 41.6376 53.0914 41.6376 52.2737 41.7483L51.8155 41.5057C51.8155 41.5057 51.3679 41.8348 50.9492 42.132C51.0251 42.8767 51.28 43.3833 51.8018 43.5441C52.2039 43.6669 53.3372 43.7382 53.7438 43.3909C54.2323 42.9723 54.6252 41.9955 54.8801 40.8899H54.8786Z" fill="#F5993F"/>
<path id="Vector_51" d="M55.1083 36.9072C54.9475 36.1746 53.529 35.7985 53.0284 35.891C52.9874 35.8986 52.9449 35.9107 52.9024 35.9259C53.8188 35.8576 54.2997 36.4992 54.4044 37.2348C54.5091 37.9704 54.4044 41.2949 53.3257 42.7615C53.1877 42.9481 52.9495 43.4956 52.1484 43.6109C52.6582 43.6776 53.4289 43.6639 53.7505 43.3894C54.8671 42.4354 55.4755 38.571 55.1083 36.9057V36.9072Z" fill="#FFC9B4"/>
<path id="Vector_52" d="M54.8853 40.8899C54.3665 41.2646 54.0964 40.8899 54.0964 40.8899C53.925 41.6088 53.6777 42.2838 53.3257 42.7615C53.1877 42.9481 52.9495 43.4956 52.1484 43.6109C52.6582 43.6776 53.4289 43.6639 53.7505 43.3894C54.239 42.9708 54.632 41.9941 54.8868 40.8884L54.8853 40.8899Z" fill="#F9B457"/>
<path id="Vector_53" d="M53.1022 39.7403C52.9004 40.9142 52.4817 41.8212 52.1661 41.7681C51.8521 41.7135 51.761 40.7186 51.9628 39.5447C52.1646 38.3707 52.5833 37.4638 52.8989 37.5169C53.2129 37.5715 53.3039 38.5664 53.1022 39.7403Z" fill="#F5993F"/>
</g>
<path id="Vector_54" d="M37.3836 43.4728C37.3972 43.5077 37.4124 43.5411 37.4276 43.576C37.9388 44.7544 38.8613 45.9814 39.764 46.9005C41.0975 48.2595 42.9074 49.4394 44.8251 49.6973C46.8869 49.9733 48.7787 48.8267 50.1578 47.3555C50.7919 46.6791 51.2865 45.8449 51.4913 44.9349C51.7083 43.9688 51.5915 42.9314 51.7492 41.944C51.8342 41.4132 52.0481 40.9127 52.2271 40.4061C52.7778 38.8515 53.054 37.1119 52.8643 35.439C52.7854 34.7444 52.6716 33.7479 52.2954 33.1458C51.863 32.4527 50.8617 31.9082 50.1866 31.4851C48.0217 30.1307 45.1528 29.6347 42.6935 30.4007C40.1796 31.1833 38.1285 33.1974 37.0695 35.5801C36.5659 36.7146 36.273 37.8308 36.5173 39.0533C36.8222 40.576 36.7767 42.0047 37.3836 43.4728Z" fill="#FFE3C4"/>
<path id="Vector_55" d="M36.8765 37.746C36.8765 37.746 40.7831 38.8198 44.2331 37.746C47.683 36.6722 48.8542 34.5125 49.141 33.3901C49.141 33.3901 51.9583 35.5984 52.5226 38.8577C52.5226 38.8577 52.7168 33.0716 50.9175 32.3512C49.1197 31.6308 45.3542 30.6889 44.9385 31.0636C44.5228 31.4382 37.5395 35.427 37.5395 35.427L36.875 37.7475L36.8765 37.746Z" fill="#FEAC78"/>
<g id="Group_19">
<path id="Vector_56" d="M40.8594 37.8279C41.1431 37.6884 41.4374 37.5701 41.7408 37.4654C42.0442 37.3653 42.3598 37.288 42.6845 37.2501C43.0061 37.2106 43.3444 37.1636 43.6691 37.247C44.1379 37.3744 44.3245 37.4685 44.5521 37.6853L44.5369 37.7278C44.367 37.7384 44.2107 37.7278 44.0544 37.7217L43.5993 37.6975C43.3019 37.6869 43.0107 37.6141 42.7072 37.6141C42.4053 37.6141 42.1004 37.6414 41.7939 37.6884C41.4875 37.7308 41.1825 37.8021 40.8745 37.8719L40.8594 37.8294V37.8279Z" fill="#2957A4"/>
<path id="Vector_57" d="M51.0277 37.925C50.7365 37.8006 50.4345 37.7157 50.1266 37.6732C49.8201 37.6277 49.5121 37.614 49.2057 37.6277C48.8977 37.6413 48.6019 37.7248 48.2984 37.743C47.9935 37.7642 47.6886 37.7945 47.3472 37.7839L47.332 37.7414C47.5899 37.5155 47.901 37.3805 48.2211 37.2955C48.5442 37.2061 48.884 37.2379 49.2117 37.2652C49.541 37.291 49.8671 37.3517 50.1782 37.4548C50.4876 37.561 50.788 37.6975 51.049 37.8886L51.0262 37.928L51.0277 37.925Z" fill="#2957A4"/>
<path id="Vector_58" d="M42.7583 40.1833C42.9225 40.1833 43.0556 39.9117 43.0556 39.5766C43.0556 39.2416 42.9225 38.97 42.7583 38.97C42.5941 38.97 42.4609 39.2416 42.4609 39.5766C42.4609 39.9117 42.5941 40.1833 42.7583 40.1833Z" fill="#2957A4"/>
<path id="Vector_59" d="M49.0118 40.2121C49.1693 40.2121 49.297 39.9405 49.297 39.6054C49.297 39.2704 49.1693 38.9988 49.0118 38.9988C48.8543 38.9988 48.7266 39.2704 48.7266 39.6054C48.7266 39.9405 48.8543 40.2121 49.0118 40.2121Z" fill="#2957A4"/>
<path id="Vector_60" d="M46.7924 42.4932C46.7059 42.7191 46.5572 42.9269 46.3524 43.0559C46.1461 43.1848 45.8806 43.2242 45.6561 43.1286C45.295 42.977 45.1964 42.5553 45.6864 42.6509C45.8776 42.6873 46.0596 42.71 46.2553 42.6827C46.3555 42.6691 46.7484 42.6054 46.7924 42.4932Z" fill="#FEAC78"/>
<g id="Group_20">
<path id="Vector_61" d="M43.2148 44.1434C44.4513 44.3041 47.4294 44.3754 48.4019 44.3269C48.0044 45.6464 47.0243 46.9401 45.6832 46.8916C44.3072 46.843 43.5061 45.5175 43.2148 44.1418V44.1434Z" fill="#F59630"/>
<path id="Vector_62" d="M47.3091 46.2076C46.2729 45.3355 45.525 46.0817 45.525 46.0817C45.2883 45.9209 44.636 45.651 44.0625 46.0377C44.3796 46.4245 44.7771 46.7111 45.2595 46.8309C45.4097 46.8506 45.566 46.8719 45.7222 46.8916C46.3352 46.9022 46.8707 46.6307 47.3091 46.2076Z" fill="#FBC86E"/>
<path id="Vector_63" d="M43.5352 44.1782C43.5564 44.3997 43.5989 44.6181 43.6656 44.8304C45.0037 45.3218 46.5011 45.3991 47.8772 45.0473C47.9272 44.8167 47.9652 44.5786 47.9925 44.339C46.8759 44.3557 44.7352 44.2965 43.5352 44.1782Z" fill="white"/>
</g>
</g>
<g id="Group_21">
<path id="Vector_64" d="M51.2095 46.711C51.1094 46.7186 51.0108 46.717 50.9152 46.7034C49.9716 46.576 49.4648 46.5047 49.4648 46.5047L49.5225 46.0907C49.5225 46.0907 50.0277 46.1604 50.9714 46.2893C51.8407 46.4076 52.9557 45.0275 53.2501 43.4031C53.2698 43.2909 53.3714 43.2135 53.4852 43.2287C53.602 43.2439 53.684 43.3531 53.6642 43.4683C53.3593 45.1822 52.2336 46.6291 51.2111 46.7095L51.2095 46.711Z" fill="#FFC9B4"/>
<path id="Vector_65" d="M53.6142 43.3C53.6142 43.3152 53.6142 43.3304 53.6111 43.3455C53.3062 45.0594 52.1805 46.5063 51.158 46.5867C51.0578 46.5943 50.9592 46.5927 50.8636 46.5791C50.1187 46.4775 49.6469 46.4138 49.4815 46.3895L49.4648 46.5048C49.4648 46.5048 49.9701 46.5745 50.9152 46.7035C51.0108 46.7171 51.1094 46.7186 51.2095 46.711C52.2321 46.6291 53.3563 45.1822 53.6627 43.4699C53.6734 43.4062 53.6536 43.3455 53.6142 43.3Z" fill="#F9B457"/>
<path id="Vector_66" d="M49.4903 46.7412L48.6619 46.6275C48.3767 46.588 48.1765 46.3256 48.2159 46.039C48.2553 45.7539 48.5178 45.5537 48.8045 45.5931L49.6329 45.7068C49.9181 45.7463 50.1184 46.0087 50.0789 46.2953C50.0395 46.5804 49.777 46.7806 49.4903 46.7412Z" fill="#1F2D84"/>
<path id="Vector_67" d="M49.9576 45.886C49.9591 45.9194 49.9576 45.9542 49.9545 45.9891C49.9151 46.2743 49.6526 46.4745 49.3659 46.435L48.6407 46.3364C48.4435 46.3091 48.2902 46.1742 48.225 46.0013C48.222 46.0134 48.2174 46.0255 48.2159 46.0392C48.1765 46.3243 48.3767 46.5882 48.6619 46.6276L49.4903 46.7414C49.7755 46.7808 50.0395 46.5806 50.0789 46.2955C50.1002 46.1423 50.0501 45.9967 49.9576 45.8875V45.886Z" fill="#2D3060"/>
</g>
<g id="Group_22">
<path id="Vector_68" d="M48.35 32.3694C48.35 32.3694 52.5069 34.1151 52.5479 39.8072C52.5479 39.8072 55.8734 36.1505 53.9194 30.6662C51.9653 25.1819 46.3125 25.3897 46.3125 25.3897L48.3485 32.3709L48.35 32.3694Z" fill="#1F2D84"/>
<path id="Vector_69" d="M48.3494 32.3694C48.3494 32.3694 52.4031 34.0757 52.5412 39.6055C52.5412 39.5736 52.5412 39.5433 52.5412 39.5099C52.4729 33.9301 50.5386 32.4483 48.627 31.4321L48.1719 31.7582L48.3494 32.3694Z" fill="#2D3060"/>
<path id="Vector_70" d="M36.644 37.4379C36.644 37.4379 48.1013 38.1022 49.0161 32.2857C49.931 26.4678 46.9938 25.0573 45.5525 24.9177C44.1113 24.7782 41.3046 24.4445 38.9015 26.7741C36.4998 29.1038 33.8191 30.5143 34.1164 38.0491L36.6425 37.4394L36.644 37.4379Z" fill="#1F2D84"/>
<path id="Vector_71" d="M36.4102 35.8624C36.9093 35.5848 37.4084 35.2997 37.8909 34.9842C38.3763 34.6748 38.8527 34.3487 39.3185 34.0075C40.253 33.3265 41.1557 32.5985 42.0099 31.8098C41.2346 32.6758 40.4002 33.4918 39.5263 34.2668C39.0894 34.6551 38.6403 35.0297 38.1791 35.3907C37.721 35.7562 37.24 36.0959 36.7545 36.4296L36.4102 35.8608V35.8624Z" fill="#2957A4"/>
<path id="Vector_72" d="M42.9205 27.2673C40.2049 28.7355 37.2192 32.2663 37.1615 35.1919C37.1615 35.1919 36.013 34.1272 36.6169 32.6C37.2207 31.0727 38.9987 29.3801 39.9834 28.6536C40.968 27.9271 42.9205 27.2689 42.9205 27.2689V27.2673Z" fill="#2957A4"/>
<path id="Vector_73" d="M37.3252 36.1869C36.961 35.245 37.2114 32.0282 37.3252 31.1151C37.4389 30.2006 37.7773 29.5044 37.8137 29.333C37.8501 29.1617 37.7712 29.1101 37.7712 29.1101C39.6615 26.2011 42.3438 25.7855 45.064 24.9347L44.9078 24.8573C43.3709 24.736 40.9829 24.7527 38.9015 26.7729C36.4998 29.1025 33.8191 30.513 34.1164 38.0478L36.6425 37.4381C36.6425 37.4381 40.5612 37.6641 43.9975 36.6904C40.1758 37.4412 37.6878 37.1302 37.3252 36.1869Z" fill="#2957A4"/>
<path id="Vector_74" d="M47.5984 32.2678C46.4758 34.0211 45.0861 35.6561 39.7807 36.4174C36.2458 36.9255 35.6875 36.2006 35.6875 36.2006C35.6875 36.2006 41.8561 35.7895 44.3488 34.5261C46.8414 33.2612 47.5984 32.2693 47.5984 32.2693V32.2678Z" fill="#2957A4"/>
</g>
<g id="Group_23">
<path id="Vector_75" d="M37.4336 29.2481C38.1209 27.24 41.5617 24.9726 45.5533 24.9164C45.5533 24.9164 43.5021 24.4175 41.1202 25.3047C38.7368 26.1904 37.0225 27.6373 36.0788 29.2693C35.1352 30.9012 37.4351 29.2496 37.4351 29.2496L37.4336 29.2481Z" fill="#FFC9B4"/>
<path id="Vector_76" d="M40.9098 25.8477C38.7282 26.7198 37.516 28.5686 37.516 28.5686C37.4068 28.5823 36.41 28.7673 36.3949 28.7704C36.2811 28.9342 36.1749 29.0995 36.0763 29.2678C36.0429 29.327 36.0141 29.3801 35.9883 29.4301C36.3008 29.4089 36.7575 29.3877 36.8788 29.4407C36.9289 29.462 37.0275 29.4559 37.1823 29.418C37.3325 29.3194 37.4326 29.2466 37.4326 29.2466C38.1198 27.2385 41.5607 24.9711 45.5522 24.915C44.2096 24.8983 43.0915 24.9741 40.9098 25.8462V25.8477Z" fill="#F9B457"/>
<path id="Vector_77" d="M36.905 36.3279C36.7169 32.5969 37.2449 30.0519 37.7152 29.3588C38.1855 28.6657 36.2527 28.9675 35.8658 29.5105C35.6139 29.8623 34.7644 32.8305 35.0754 36.3522C35.3864 39.8739 36.905 36.3264 36.905 36.3264V36.3279Z" fill="#FFC9B4"/>
<path id="Vector_78" d="M37.3607 28.9568C37.526 29.019 37.5746 29.1024 37.4578 29.2829C37.3394 29.4634 36.8555 31.0422 36.7311 32.4345C36.6067 33.8268 36.6689 35.2874 36.6416 35.4542C36.6143 35.621 35.3945 35.9274 35.0273 35.7606C35.038 35.9562 35.0516 36.1549 35.0698 36.3551C35.0926 36.6145 35.1229 36.8359 35.1578 37.0224C35.528 37.0634 36.0423 37.0831 36.5111 37.0892C36.7387 36.7039 36.8995 36.3278 36.8995 36.3278C36.7114 32.5968 37.2393 30.0518 37.7096 29.3587C37.9008 29.0781 37.6975 28.9613 37.3622 28.9568H37.3607Z" fill="#F9B457"/>
<path id="Vector_79" d="M36.5782 36.1474C36.0897 36.0033 34.6408 36.2324 34.4041 36.9437C33.8686 38.5635 34.0749 42.4704 35.0884 43.5336C35.457 43.9219 36.5918 43.9674 37.0045 43.8855C38.0513 43.6792 38.2227 42.0579 38.0756 39.8663C37.9269 37.6762 37.2563 36.3461 36.5797 36.1459L36.5782 36.1474Z" fill="#F9B457"/>
<path id="Vector_80" d="M35.0881 43.5335C35.4567 43.9217 36.5915 43.9672 37.0042 43.8853C37.6065 43.767 37.9175 43.1786 38.0464 42.2868C37.5428 42.719 36.2547 42.581 35.6039 42.2868C35.6039 42.2868 35.7101 40.3424 35.3657 39.2458C35.3657 39.2458 34.7497 40.6048 34.375 41.8682C34.5358 42.5962 34.7725 43.2044 35.0881 43.535V43.5335Z" fill="#F5993F"/>
<path id="Vector_81" d="M36.4051 39.98C36.5371 41.9365 36.0759 43.5609 35.3734 43.6079C34.671 43.6549 33.9944 42.1079 33.8624 40.1514C33.7304 38.1949 34.1916 36.5705 34.894 36.5235C35.5965 36.4765 36.2731 38.0235 36.4051 39.98Z" fill="#FFC9B4"/>
<path id="Vector_82" d="M35.5058 40.8035C35.5058 40.8035 34.6076 40.9157 34.2617 42.2731C34.5515 43.1088 34.955 43.6366 35.3692 43.6093C35.7273 43.585 36.0216 43.1513 36.2067 42.4748C35.9791 42.4263 35.7697 42.3626 35.6029 42.2868C35.6029 42.2868 35.6817 41.9698 35.5042 40.805L35.5058 40.8035Z" fill="#F9B457"/>
<path id="Vector_83" d="M35.4867 40.2091C35.5853 41.6743 35.3213 42.8436 34.6674 42.8876C34.015 42.9316 33.4052 41.7789 33.3065 40.3138C33.2079 38.8487 33.657 37.6247 34.3094 37.5808C34.9617 37.5368 35.388 38.7425 35.4867 40.2076V40.2091Z" fill="#F9B457"/>
<path id="Vector_84" d="M34.5013 42.3808C34.2039 42.4005 33.9126 42.2246 33.6562 41.9076C33.9157 42.5264 34.2828 42.9132 34.6651 42.8874C35.2265 42.8495 35.4996 41.9789 35.5026 40.8035C35.363 41.7286 35.0323 42.3444 34.5013 42.3808Z" fill="#F5993F"/>
</g>
</g>
</g>
</g>
<g id="Group_24">
<g id="Group_25">
<g id="Group_26">
<path id="Vector_85" d="M71.5186 38.1177C71.3406 38.7754 71.9065 39.3592 72.0885 39.4691C72.2705 39.5791 73.5123 40.0888 74.2802 40.1088C75.0481 40.1268 76.1799 38.5015 75.778 38.3196C75.376 38.1377 72.5644 37.9358 72.2525 37.9358C71.9405 37.9358 71.5186 38.1177 71.5186 38.1177Z" fill="#FFE3C4"/>
<path id="Vector_86" d="M73.5547 37.7699C73.7467 39.741 74.4306 41.2743 74.6785 41.3023C74.9245 41.3303 77.3722 40.5087 78.0521 40.2068C78.732 39.9049 78.208 35.279 77.7941 35.3589C77.3782 35.4409 76.4163 36.3285 75.6424 36.7563C74.8705 37.1821 73.5547 37.7699 73.5547 37.7699Z" fill="white"/>
<path id="Vector_87" d="M77.4323 38.5896C77.1744 38.9834 75.2027 39.985 74.1328 40.3488C74.3488 40.9306 74.5668 41.2884 74.6827 41.3024C74.8947 41.3264 76.7184 40.7267 77.6643 40.3648C77.6403 39.6311 77.4323 38.5896 77.4323 38.5896Z" fill="#DCEDFF"/>
<path id="Vector_88" d="M71.5213 38.0259C71.4453 38.8075 72.1412 38.9195 73.0011 38.7196C73.859 38.5197 75.3748 36.6205 76.0507 35.7629C76.7266 34.9053 77.9824 33.3759 78.2284 33.238C78.4743 33.1021 79.0223 33.0281 79.5442 32.2564C80.0641 31.4848 79.5722 29.8695 79.3662 29.6776C79.1602 29.4856 77.2345 30.1254 76.9925 30.4492C76.7506 30.7731 76.9965 32.5123 76.9146 32.7302C76.8326 32.9501 75.1028 34.7393 74.3709 35.1771C73.641 35.615 71.5773 37.4601 71.5213 38.0259Z" fill="#FFE3C4"/>
<path id="Vector_89" d="M78.3119 30.9689C78.5419 30.8589 78.6299 30.3611 78.4859 30.4491C78.3399 30.537 78.098 30.535 77.768 30.531C77.4401 30.5271 77.3061 30.4991 77.3061 30.4991C77.3061 30.4991 77.2561 30.715 77.2461 30.8909C77.2461 30.8909 78.084 31.0788 78.3119 30.9689Z" fill="#FEAC78"/>
<path id="Vector_90" d="M79.7656 31.0828C79.6496 30.8329 79.5596 30.645 79.5596 30.645L78.1758 31.8905C77.8439 31.5846 77.4319 31.3047 77.4319 31.3047L77.3039 31.5066C77.4879 31.8605 77.6159 32.6082 77.6059 32.7921C77.6059 32.7921 77.7879 33.012 77.8979 33.03C77.8979 33.03 76.3541 35.221 75.3862 36.2985C74.4243 37.3701 73.7504 38.2957 73.3125 38.5935C74.1884 38.1077 75.4502 36.5284 76.0521 35.7648C76.728 34.9071 77.9838 33.3778 78.2298 33.2399C78.4758 33.1019 79.0237 33.03 79.5456 32.2583C79.7516 31.9524 79.7976 31.5126 79.7656 31.0828Z" fill="#FEAC78"/>
<path id="Vector_91" d="M77.0625 31.2069C77.0685 31.3348 78.2723 32.4483 78.3983 32.5762C78.4083 32.5862 78.5063 32.6002 78.5363 32.5762C78.9002 32.2764 80.59 29.5656 80.624 29.4696C80.656 29.3777 79.7321 28.4461 79.4482 28.1962C79.4102 28.1622 79.2382 28.1822 79.2082 28.2242C78.8702 28.676 77.0565 31.0429 77.0645 31.2069H77.0625Z" fill="#2957A4"/>
<path id="Vector_92" d="M77.1992 31.2068C77.2052 31.3347 78.4091 32.4482 78.5351 32.5762C78.661 32.7041 80.7247 29.5735 80.7607 29.4695C80.7927 29.3776 79.7569 28.462 79.4709 28.2121C79.4329 28.1781 79.3749 28.1841 79.3429 28.2241C79.005 28.6759 77.1912 31.0428 77.1992 31.2068Z" fill="#1F2D84"/>
<path id="Vector_93" d="M77.4297 31.0248C77.4357 31.1448 78.5616 32.1863 78.6795 32.3062C78.7975 32.4262 80.7273 29.4975 80.7612 29.3995C80.7912 29.3136 79.8214 28.4559 79.5554 28.224C79.5194 28.1921 79.4654 28.1981 79.4354 28.236C79.1195 28.6599 77.4217 30.8729 77.4297 31.0268V31.0248Z" fill="#5875F7"/>
<path id="Vector_94" d="M78.3102 29.4976C78.5182 29.3776 78.7921 28.9718 78.8241 28.8339C78.8561 28.6959 78.8521 28.574 78.7461 28.546C78.6402 28.518 78.2802 28.9478 78.1062 29.0758C77.9323 29.2037 77.7143 29.4676 77.7823 29.6455C77.8503 29.8234 78.2202 29.7555 78.2622 29.7275C78.3042 29.6995 78.3102 29.4956 78.3102 29.4956V29.4976Z" fill="#FFE3C4"/>
<path id="Vector_95" d="M78.8091 28.582C78.8611 28.738 78.4052 29.3617 78.0312 29.5416L78.1532 29.6955C78.1532 29.6955 78.2152 29.6815 78.2952 29.6636C78.3112 29.5936 78.3152 29.4976 78.3152 29.4976C78.5232 29.3777 78.7971 28.9719 78.8291 28.8339C78.8531 28.73 78.8551 28.634 78.8111 28.582H78.8091Z" fill="#FEAC78"/>
<path id="Vector_96" d="M77.8066 30.1274C78.1626 29.9455 78.4285 29.9655 78.6205 29.8895C78.8125 29.8135 78.8665 29.5257 78.7445 29.4797C78.6205 29.4317 77.8406 29.5557 77.6346 29.6436C77.4287 29.7336 77.3047 30.1434 77.3047 30.1434L77.8066 30.1294V30.1274Z" fill="#FFE3C4"/>
<path id="Vector_97" d="M77.9688 29.9154C77.7728 29.9514 77.7089 29.9154 77.7089 29.9154C77.7089 29.9913 77.6349 30.0293 77.5469 30.1373L77.8048 30.1293C78.1608 29.9474 78.4268 29.9673 78.6187 29.8914C78.7067 29.8574 78.7627 29.7794 78.7907 29.6995C78.6967 29.8574 78.1648 29.8794 77.9708 29.9174L77.9688 29.9154Z" fill="#FEAC78"/>
<path id="Vector_98" d="M76.9883 30.4491C77.1523 30.701 78.0561 30.593 78.2401 30.565C78.4221 30.537 78.5441 30.4231 78.5341 30.3091C78.5141 30.0773 77.3262 30.1192 77.2262 30.1552C77.1263 30.1912 76.9883 30.4511 76.9883 30.4511V30.4491Z" fill="#FFE3C4"/>
<path id="Vector_99" d="M78.5267 30.3652C78.3947 30.4872 78.0968 30.5572 77.7728 30.5811C77.4928 30.6031 77.3349 30.5931 77.2969 30.5891C77.6308 30.6431 78.1148 30.5831 78.2427 30.5651C78.3947 30.5432 78.5007 30.4592 78.5267 30.3652Z" fill="#FEAC78"/>
</g>
<g id="Group_27">
<g id="Group_28">
<path id="Vector_100" d="M81.4102 82.5039C81.4641 82.9837 81.6561 83.1616 82.356 83.2576C83.0539 83.3535 84.0818 83.3395 84.6157 82.8198C85.1496 82.3 85.4776 81.6963 85.5196 81.4364C85.5616 81.1765 85.5476 80.8886 85.6296 80.7527C85.7115 80.6167 86.1455 80.5308 86.0935 79.7671C86.0395 79.0035 81.4121 82.5059 81.4121 82.5059L81.4102 82.5039Z" fill="#FFDCDC"/>
<path id="Vector_101" d="M85.9304 77.952C85.8524 76.8925 83.3388 77.3003 83.3248 77.7261C83.3108 78.1499 82.7229 79.9312 82.143 80.4709C81.3851 80.8148 81.1011 81.6764 81.4051 82.504C81.665 83.2057 83.6108 83.0358 84.0767 82.7779C84.5666 82.506 85.0525 81.7963 85.1985 81.4105C85.3045 81.1826 85.3505 80.8468 85.5825 80.5589C85.8144 80.271 85.9384 80.327 86.0484 79.9831C86.1584 79.6413 86.0064 79.0116 85.9284 77.95L85.9304 77.952Z" fill="#F9B457"/>
<path id="Vector_102" d="M83.7824 77.906C83.5404 78.9995 83.0185 79.7112 83.1725 79.8391C83.3244 79.9671 84.2663 80.119 84.4443 79.8391C84.6223 79.5592 84.9282 78.3778 84.9282 77.906C84.9282 77.4342 83.7844 77.906 83.7844 77.906H83.7824Z" fill="#FFDCDC"/>
</g>
<g id="Group_29">
<path id="Vector_103" d="M78.2164 78.8038C78.2784 78.328 78.2844 77.6303 77.8824 76.8347C77.4785 76.041 77.4985 75.9711 77.0326 75.8891C76.5666 75.8071 74.8689 75.5732 74.8689 75.5732C74.8689 75.5732 74.5809 76.3669 73.5811 76.9147C72.5812 77.4624 72.3752 77.6543 71.7313 77.6543C71.0874 77.6543 69.6656 77.7303 70.2255 79.4335C70.2255 79.4335 70.6775 79.6295 71.8093 79.6215C72.9411 79.6115 74.093 79.5215 74.5029 79.3656C74.9129 79.2096 75.3428 79.1277 75.5888 79.2296C75.8347 79.3296 76.6386 79.2936 77.0946 79.2296C77.5505 79.1657 78.2144 78.8018 78.2144 78.8018L78.2164 78.8038Z" fill="#F9B457"/>
<path id="Vector_104" d="M72.8483 77.2425C72.7783 77.2665 72.7523 77.3485 72.7923 77.4105C72.9263 77.6204 73.2082 77.8483 73.3562 77.7963C73.5382 77.7323 74.3861 77.0926 74.836 76.7008C75.046 76.5189 75.2459 76.171 75.128 76.0071C75.01 75.8432 74.698 75.6512 74.57 75.7512C74.4421 75.8511 74.1961 76.3329 73.6762 76.7627C73.3242 77.0546 73.0122 77.1866 72.8483 77.2405V77.2425Z" fill="#FFDCDC"/>
<path id="Vector_105" d="M70.2267 79.4375C71.3505 79.5474 73.9362 79.3275 74.4641 79.1916C74.992 79.0557 75.28 78.8218 75.7859 79.0137C76.2918 79.2056 77.8536 78.9037 78.1016 78.8078C78.3476 78.7118 78.2796 79.0976 78.1016 79.1376C77.9236 79.1776 76.7998 79.4155 76.2258 79.4675C75.6499 79.5194 75.6239 79.0956 74.938 79.4095C74.2541 79.7254 73.1303 79.7254 72.6364 79.7254C72.1424 79.7254 70.7326 79.8353 70.4727 79.7254C70.2127 79.6154 70.2267 79.4375 70.2267 79.4375Z" fill="#FFDCDC"/>
</g>
<path id="Vector_106" d="M83.1136 77.9721C83.8815 78.182 86.0712 78.108 86.1812 77.8082C86.2911 77.5063 85.8792 72.7684 85.8792 71.2631C85.8792 69.7577 85.3593 66.0334 85.4413 65.6215C85.5232 65.2117 85.5233 64.9099 85.3873 64.1982C85.2513 63.4865 85.1973 55.2341 84.5374 49.6746L75.9906 50.4782C75.9906 50.4782 74.6208 55.7359 74.5108 59.4603C74.4008 63.1846 74.5288 64.9738 74.5108 65.5216C74.4928 66.0693 74.7428 66.6171 74.8008 67.0549C74.8588 67.4927 74.7848 70.7433 74.7108 71.9108C74.6368 73.0783 74.5848 75.2333 74.4648 75.4892C74.3448 75.7451 77.0485 76.2569 77.4124 76.0729C77.7763 75.889 77.7783 75.853 77.7783 73.9559C77.7783 72.0587 78.0343 67.4927 78.0343 66.6891C78.0343 65.8854 78.2903 65.7395 78.1803 65.3377C78.0703 64.9358 78.4723 63.1106 78.8742 61.7592C79.2761 60.4078 79.7501 58.9485 79.7501 58.9485C79.7501 58.9485 80.8819 66.2513 81.2479 66.6891C81.6138 67.1269 81.5398 68.2584 81.7598 68.9161C81.9798 69.5738 82.6357 74.0278 82.6357 75.3792C82.6357 76.7307 82.3077 77.7522 83.1096 77.9721H83.1136Z" fill="#1637AF"/>
<path id="Vector_107" d="M84.94 78.0781C85.3099 78.0601 85.6479 78.0201 85.8798 77.9641C85.9718 77.5743 86.0678 77.0845 86.1698 76.5148C86.0858 74.9215 85.8878 72.3106 85.8878 71.2631C85.8878 69.7577 85.3679 66.0334 85.4499 65.6215C85.5319 65.2117 85.5319 64.9099 85.3959 64.1982C85.2599 63.4865 85.2039 55.2341 84.546 49.6746L82.8263 49.8365L77.793 51.7277C80.2186 51.7956 83.0402 51.4158 83.0402 51.4158C83.0402 51.4158 83.4342 55.8658 83.4462 56.5235C83.4602 57.1813 83.9341 63.3166 83.9341 63.8823C83.9341 64.4481 84.1541 64.61 84.1901 65.2217C84.2261 65.8335 83.7521 66.0534 83.7521 66.0534C83.7521 66.0534 84.41 66.2733 84.41 66.3812C84.41 66.4892 84.546 68.2524 84.546 68.9381C84.546 69.6238 84.844 70.5534 84.928 72.6085C85.012 74.6616 85.2859 77.1005 85.2859 77.3744C85.2859 77.6483 85.2859 77.9201 84.94 78.0801V78.0781Z" fill="#2957A4"/>
<path id="Vector_108" d="M79.3957 54.8083L77.56 54.3425L78.9838 55.0262L77.8339 55.0542L78.7158 55.3681C78.7158 55.3681 78.9898 57.6571 78.4179 59.1884C77.7899 60.8677 77.504 65.1578 77.314 65.4876C77.122 65.8155 76.6301 65.7335 76.6301 65.7335C76.6301 65.7335 77.15 65.7875 77.178 66.1713C77.206 66.5552 77.068 67.6227 77.068 68.7542C77.068 69.8857 76.9581 71.6809 76.8481 72.4446C76.7381 73.2082 76.6881 75.0774 76.6281 75.5732C76.5701 76.069 75.8242 75.953 75.8242 75.953C76.2022 76.025 76.5921 76.079 76.8981 76.101C78.0259 76.2069 77.7919 75.7891 77.7899 73.5701C77.8179 71.503 78.0419 67.4408 78.0419 66.6871C78.0419 65.8835 78.2979 65.7375 78.1879 65.3357C78.0779 64.9339 78.4798 63.1087 78.8818 61.7573C79.2837 60.4059 79.7577 58.9465 79.7577 58.9465C79.7577 58.9465 79.5577 57.0793 79.5317 56.6415C79.5037 56.2037 79.3957 54.8063 79.3957 54.8063V54.8083Z" fill="#2957A4"/>
</g>
<g id="Group_30">
<path id="Vector_109" d="M80.9301 33.9916C78.9584 34.9592 78.6484 34.9212 77.8005 35.361C76.9527 35.8008 76.8587 40.4188 76.8587 41.1305C76.8587 41.8422 76.8487 44.6729 76.6847 45.4386C76.5207 46.2063 75.8908 49.053 75.6708 49.4908C75.4509 49.9286 75.0409 50.6683 75.5609 51.1061C76.0808 51.5439 77.2286 51.8458 79.7783 51.6818C82.3279 51.5179 85.1775 49.9566 85.3135 49.7367C85.4495 49.5168 84.4096 45.4926 84.4096 44.7249C84.4096 43.9572 84.2996 43.3835 84.2456 43.0276C84.1916 42.6718 85.1195 41.0005 85.3255 39.933C85.5314 38.8655 86.9073 35.9188 86.7273 35.379C86.5473 34.8393 84.5696 34.2375 83.2418 33.5518C81.916 32.8661 80.9301 33.9896 80.9301 33.9896V33.9916Z" fill="white"/>
<path id="Vector_110" d="M80.4785 34.7612C80.4785 34.8792 80.4785 34.9951 80.5045 35.1071C80.5245 35.219 80.5625 35.329 80.6245 35.4209C80.7405 35.6129 80.9545 35.7128 81.1744 35.7128C81.3964 35.7168 81.6224 35.6588 81.8383 35.5809C82.0563 35.5029 82.2643 35.397 82.4762 35.295C82.3823 35.365 82.2823 35.4289 82.1843 35.4949C82.0803 35.5489 81.9783 35.6109 81.8683 35.6588C81.6524 35.7588 81.4164 35.8248 81.1684 35.8228L81.0764 35.8188L80.9845 35.7988C80.9225 35.7888 80.8665 35.7588 80.8085 35.7328C80.7005 35.6668 80.6025 35.5789 80.5505 35.4649C80.4285 35.247 80.4265 34.9911 80.4745 34.7632L80.4785 34.7612Z" fill="#DCEDFF"/>
<path id="Vector_111" d="M85.3145 49.7367C85.4505 49.5168 84.4107 45.4926 84.4107 44.7249C84.4107 43.9572 84.3007 43.3835 84.2467 43.0276C84.1927 42.6718 85.1206 41.0005 85.3265 39.933C85.3625 39.7471 85.4345 39.5052 85.5265 39.2273L84.7146 38.5896C84.1087 39.991 83.6168 42.4559 83.0969 43.0596C82.5769 43.6614 81.3711 43.9093 81.3711 43.9093C81.3711 43.9093 82.5249 44.1831 83.0429 44.0732C83.0429 44.0732 83.4308 46.2362 83.3588 47.3038C83.2868 48.3713 83.0709 49.9866 83.0429 50.2065C83.0329 50.2885 83.0289 50.5743 83.0309 50.8982C84.2947 50.4124 85.2365 49.8606 85.3145 49.7367Z" fill="#DCEDFF"/>
<path id="Vector_112" d="M83.168 31.6067C83.104 32.7502 83.122 33.5338 83.36 33.7537C83.36 33.7537 82.786 35.6509 81.0583 35.489C80.4744 35.435 80.6023 34.4474 80.9303 33.9916L80.8563 32.5903L83.166 31.6087L83.168 31.6067Z" fill="#FFE3C4"/>
<path id="Vector_113" d="M83.243 33.5518C83.1191 33.202 83.1171 32.5183 83.169 31.6067L80.8594 32.5903L80.9054 33.4899C81.2893 33.6678 83.243 33.5538 83.243 33.5538V33.5518Z" fill="#FEAC78"/>
</g>
<g id="Group_31">
<path id="Vector_114" d="M88.6536 40.8484C89.0016 41.3782 89.4215 42.6916 89.1836 43.2954C88.9456 43.8971 86.7539 46.5819 85.768 47.5855C84.7822 48.589 84.5622 48.753 84.3803 49.0828C84.1983 49.4107 83.3204 50.7661 83.1024 50.972C82.8825 51.1779 82.5125 51.2039 82.5125 51.2039C82.5125 51.2039 82.2166 51.5057 81.6926 51.4498C81.6926 51.4498 81.2107 51.7656 80.8407 51.8476C80.8407 51.8476 80.7028 52.0795 80.5808 52.1015C80.4568 52.1215 80.3208 51.8756 80.5808 51.3818C80.8407 50.888 81.2247 50.6841 81.3067 50.3682C81.3887 50.0524 81.7206 49.4107 81.7206 49.4107C81.7206 49.4107 81.0327 50.0664 80.6348 50.1084C80.2368 50.1503 80.2008 49.9164 80.4328 49.7245C80.6628 49.5326 80.9647 49.2447 81.2527 48.8749C81.5406 48.5051 81.8826 48.2592 82.3885 48.1912C82.8945 48.1232 83.2524 48.0673 83.3884 47.9713C83.5244 47.8753 84.2483 46.9438 84.7702 45.9402C85.2921 44.9366 85.786 43.6532 87.0079 42.5257L86.5699 41.6501L88.6516 40.8464L88.6536 40.8484Z" fill="#FFE3C4"/>
<path id="Vector_115" d="M80.8633 51.7857C80.9813 51.5079 81.1772 51.272 81.3892 51.0601L81.4732 50.9841C81.4972 50.9601 81.5412 50.9301 81.5512 50.9161C81.5932 50.8661 81.6332 50.8002 81.6752 50.7402C81.7572 50.6163 81.8351 50.4923 81.9251 50.3704C81.8771 50.5123 81.8151 50.6482 81.7492 50.7822C81.7152 50.8501 81.6812 50.9141 81.6332 50.9801C81.5972 51.0241 81.5752 51.0341 81.5472 51.0621L81.4692 51.138C81.3632 51.24 81.2612 51.3459 81.1592 51.4519C81.0573 51.5578 80.9633 51.6698 80.8673 51.7857H80.8633Z" fill="#FEAC78"/>
<path id="Vector_116" d="M81.7227 51.3578C81.8086 51.2098 81.9086 51.0819 81.9966 50.948C82.0906 50.816 82.1746 50.6821 82.2606 50.5361C82.2566 50.7081 82.1806 50.87 82.0866 51.0099C81.9886 51.1479 81.8686 51.2698 81.7227 51.3578Z" fill="#FEAC78"/>
<path id="Vector_117" d="M82.1172 51.4159C82.3712 51.344 82.5111 51.206 82.5111 51.206C82.5111 51.206 82.8811 51.178 83.1011 50.9741C83.191 50.8902 83.391 50.6143 83.607 50.2944C83.603 50.3004 83.355 50.5483 83.175 50.7542C82.9211 51.0441 82.5951 50.9481 82.5951 50.9481L82.6591 50.6803C82.6591 50.6803 82.3931 51.286 82.1172 51.4159Z" fill="#FEAC78"/>
<path id="Vector_118" d="M89.2389 42.6258C89.2089 42.8757 89.1929 43.0736 88.775 43.7293C88.303 44.467 85.5694 47.5776 84.9815 48.1513C84.3936 48.7271 84.4056 48.7631 84.0156 49.6707C84.1796 49.4148 84.3196 49.1889 84.3796 49.0809C84.5615 48.7531 84.7815 48.5872 85.7674 47.5836C86.7532 46.58 88.9449 43.8952 89.1829 43.2935C89.2509 43.1176 89.2649 42.8817 89.2409 42.6238L89.2389 42.6258Z" fill="#FEAC78"/>
<path id="Vector_119" d="M87.3261 41.9079L87.504 42.2478C87.504 42.2478 87.2221 42.3218 87.0081 42.5297L86.6602 41.856L87.3261 41.9099V41.9079Z" fill="#FEAC78"/>
<path id="Vector_120" d="M85.0572 40.0508C84.6092 39.0213 84.5213 37.35 85.0572 36.4704C85.5931 35.5908 86.509 35.275 86.7209 35.3789C86.9329 35.4849 87.4249 36.8563 87.9348 37.49C88.4447 38.1237 89.8365 39.9009 89.8705 40.0508C89.9065 40.2008 88.6727 41.4083 86.457 42.2939C86.193 42.3998 85.0572 40.0508 85.0572 40.0508Z" fill="white"/>
<path id="Vector_121" d="M86.5967 40.8486L86.8886 41.5523C86.8886 41.5523 85.3209 39.857 84.7109 38.5916C84.7569 39.1193 84.8789 39.6371 85.0589 40.0509C85.0589 40.0509 86.1947 42.3999 86.4587 42.2939C86.8386 42.142 87.1866 41.9801 87.5065 41.8181L86.5987 40.8486H86.5967Z" fill="#DCEDFF"/>
</g>
<g id="Group_32">
<path id="Vector_122" d="M84.3389 30.1193C84.7428 29.1357 85.2347 28.0942 84.6148 27.5464C84.6148 27.5464 85.3087 27.3265 85.6747 27.4005C85.6747 27.4005 85.3087 27.1806 84.5788 27.1086C84.5788 27.1086 84.7228 25.4473 84.3409 24.7356C84.3409 24.7356 84.3409 25.4653 84.1409 25.7572C84.1409 25.7572 83.7389 24.8996 82.5511 24.5697C81.3633 24.2418 80.2134 24.2039 79.3915 25.0435C78.5697 25.8831 77.6078 26.9607 78.9916 28.5859C80.3774 30.2112 82.2032 30.631 82.989 30.741C83.7749 30.8509 84.3389 30.1193 84.3389 30.1193Z" fill="#1F2D84"/>
<path id="Vector_123" d="M80.1055 26.9985C80.3774 27.1265 80.6634 27.1944 80.9494 27.2644C81.2353 27.3284 81.5253 27.3864 81.8152 27.4323C82.1052 27.4803 82.3972 27.5163 82.6911 27.5443C82.9831 27.5663 83.277 27.5923 83.575 27.5443C83.299 27.6742 82.9871 27.7082 82.6851 27.7142C82.3811 27.7202 82.0792 27.6922 81.7812 27.6482C81.4833 27.5983 81.1873 27.5283 80.9014 27.4283C80.6174 27.3284 80.3314 27.2004 80.1055 26.9985Z" fill="#2957A4"/>
<path id="Vector_124" d="M83.3125 28.418C83.6285 28.3401 84.1544 27.8323 84.1544 27.8323C84.1544 27.8323 83.6105 28.2161 82.4926 28.1241C81.3748 28.0322 80.6289 27.8003 80.6289 27.8003C80.6289 27.8003 81.7807 28.476 82.2047 28.5859C82.6286 28.6939 83.3125 28.418 83.3125 28.418Z" fill="#2957A4"/>
<path id="Vector_125" d="M79.4199 27.6784C78.9 27.4225 78.75 27.6824 78.75 27.9003C78.75 28.1182 78.994 28.586 78.994 28.586L79.4199 27.6784Z" fill="#2957A4"/>
<path id="Vector_126" d="M84.8957 28.4839C84.4817 29.3036 83.5579 29.9373 83.5579 29.9373C83.5579 29.9373 83.1979 30.4231 83.6018 30.621C83.6178 30.629 83.6378 30.637 83.6558 30.643C84.0758 30.4611 84.3417 30.1172 84.3417 30.1172C84.5717 29.5575 84.8297 28.9777 84.8957 28.4819V28.4839Z" fill="#2957A4"/>
<path id="Vector_127" d="M83.5553 29.9372C83.5553 29.9372 83.9793 29.6214 84.2672 29.9372C84.5552 30.2531 84.0073 31.7164 83.3634 31.3606C83.3634 31.3606 82.2955 32.716 81.5556 33.0998C80.8157 33.4837 80.3238 33.2918 80.0758 33.0179C79.8299 32.744 79.002 31.6205 78.926 30.429C78.898 30.0052 79.022 29.1696 79.022 28.9916C79.022 28.8137 78.912 28.116 79.064 27.9101C79.216 27.7042 79.4199 27.6782 79.4199 27.6782C79.4199 27.6782 80.3378 28.13 81.1317 28.198C81.1317 28.198 80.7477 27.9521 80.6258 27.8002C80.6258 27.8002 82.2015 28.3479 83.3094 28.4159C83.3094 28.4159 83.2954 29.0456 83.3514 29.3195C83.4054 29.5934 83.5573 29.9352 83.5573 29.9352L83.5553 29.9372Z" fill="#FFE3C4"/>
<path id="Vector_128" d="M84.1308 30.3391C84.0928 30.0712 83.8668 30.0173 83.6829 30.2052C83.4949 30.3971 83.4209 31.0048 83.4589 31.0928C83.4969 31.1828 83.7968 31.1768 83.8688 30.9908C83.9388 30.8049 83.7728 30.689 83.6009 30.7449C83.6009 30.7449 83.5729 30.4751 83.7248 30.3011C83.8768 30.1272 84.0148 30.1932 84.0468 30.2392C84.0788 30.2831 84.1328 30.3411 84.1328 30.3411L84.1308 30.3391Z" fill="#FEAC78"/>
<g id="Group_33">
<path id="Vector_129" d="M82.3616 29.1516C82.3016 29.0916 82.2356 29.0356 82.1676 28.9816C82.0996 28.9297 82.0256 28.8817 81.9456 28.8437C81.8676 28.8057 81.7836 28.7637 81.6937 28.7577C81.6057 28.7497 81.5137 28.7577 81.4297 28.7917V28.8037C81.4717 28.8217 81.5137 28.8317 81.5537 28.8437L81.6716 28.8777C81.7476 28.9017 81.8296 28.9077 81.9076 28.9337C81.9856 28.9597 82.0596 28.9936 82.1336 29.0316C82.2076 29.0696 82.2796 29.1136 82.3516 29.1596L82.3595 29.1496L82.3616 29.1516Z" fill="#2957A4"/>
<path id="Vector_130" d="M79.3498 28.8437C79.4257 28.8057 79.5057 28.7757 79.5877 28.7597C79.6697 28.7417 79.7517 28.7318 79.8357 28.7298C79.9197 28.7298 79.9997 28.7457 80.0816 28.7437C80.1636 28.7437 80.2476 28.7457 80.3376 28.7377L80.3416 28.7258C80.2676 28.6698 80.1816 28.6398 80.0936 28.6218C80.0057 28.6038 79.9137 28.6178 79.8257 28.6318C79.7377 28.6438 79.6517 28.6678 79.5697 28.6998C79.4877 28.7337 79.4097 28.7757 79.3438 28.8317L79.3498 28.8417V28.8437Z" fill="#2957A4"/>
<path id="Vector_131" d="M81.5092 29.6333C81.5212 29.5173 81.5852 29.4294 81.6532 29.4353C81.7211 29.4413 81.7671 29.5413 81.7571 29.6573C81.7451 29.7732 81.6812 29.8612 81.6132 29.8552C81.5452 29.8492 81.4992 29.7492 81.5092 29.6333Z" fill="#2957A4"/>
<path id="Vector_132" d="M79.6937 29.4854C79.7057 29.3694 79.7597 29.2794 79.8157 29.2854C79.8717 29.2914 79.9077 29.3894 79.8957 29.5053C79.8837 29.6213 79.8297 29.7113 79.7737 29.7053C79.7177 29.6993 79.6817 29.6013 79.6937 29.4854Z" fill="#2957A4"/>
<path id="Vector_133" d="M80.853 30.7589C80.687 30.8689 80.453 30.8669 80.2891 30.7529C80.3031 30.8429 80.3351 30.9289 80.421 30.9608C80.505 30.9928 80.603 30.9828 80.685 30.9468C80.767 30.9109 80.799 30.8309 80.855 30.7589H80.853Z" fill="#FEAC78"/>
<g id="Group_34">
<path id="Vector_134" d="M81.4355 31.4385C81.0536 31.4445 80.1397 31.3745 79.8438 31.3325C79.9337 31.7203 80.2157 32.1022 80.6476 32.1022C81.0376 32.1022 81.3175 31.7823 81.4355 31.4405V31.4385Z" fill="#F59630"/>
<path id="Vector_135" d="M81.0435 31.9743C80.8955 31.9283 80.7395 31.9523 80.6755 31.9703C80.6755 31.9703 80.4836 31.8283 80.1836 31.9223C80.3096 32.0302 80.4636 32.1002 80.6455 32.1002C80.7955 32.1002 80.9295 32.0522 81.0435 31.9743Z" fill="#FBC86E"/>
<path id="Vector_136" d="M80.0826 31.6543C80.4606 31.7742 80.8845 31.7403 81.2585 31.6083C81.2645 31.5503 81.2745 31.4944 81.2825 31.4364C80.9045 31.4284 80.2966 31.3824 79.9727 31.3464C79.9927 31.4524 80.0286 31.5583 80.0826 31.6543Z" fill="white"/>
</g>
</g>
</g>
</g>
<g id="Group_35" filter="url(#filter0_d_1850_36701)">
<path id="Vector_137" d="M43.3605 15.8519C43.4425 15.63 43.5385 15.4281 43.6465 15.2421C43.7544 15.0562 43.9064 14.8983 44.1064 14.7683C44.3044 14.6384 44.5683 14.5524 44.9003 14.5105C45.0023 14.4965 45.1462 14.4805 45.3342 14.4625C45.5202 14.4445 45.7162 14.4125 45.9181 14.3665C46.1201 14.3205 46.3021 14.2506 46.4641 14.1586C46.626 14.0667 46.736 13.9407 46.796 13.7808C46.838 13.6668 46.842 13.5529 46.81 13.4409C46.776 13.329 46.716 13.231 46.63 13.1451C46.542 13.0611 46.4361 12.9951 46.3141 12.9491C46.1301 12.8812 45.9601 12.8692 45.8062 12.9132C45.6542 12.9571 45.5182 13.0231 45.4042 13.1071C45.2882 13.193 45.1862 13.261 45.0963 13.315L44.0624 11.7977C44.3104 11.5298 44.5963 11.3299 44.9183 11.1979C45.2382 11.066 45.5822 11 45.9481 11C46.3141 11 46.682 11.068 47.052 11.2059C47.3459 11.3159 47.6259 11.4678 47.8919 11.6617C48.1578 11.8576 48.3798 12.0915 48.5598 12.3674C48.7377 12.6433 48.8477 12.9571 48.8877 13.313C48.9277 13.6688 48.8677 14.0587 48.7097 14.4885C48.6418 14.6724 48.5618 14.8423 48.4678 15.0002C48.3738 15.1562 48.2638 15.2961 48.1338 15.4181C48.0038 15.54 47.8559 15.646 47.6859 15.7359C47.5159 15.8259 47.3239 15.8958 47.112 15.9478C46.83 16.0178 46.5521 16.0638 46.2781 16.0818C46.0021 16.1018 45.7622 16.1377 45.5602 16.1877C45.3562 16.2397 45.2242 16.3496 45.1602 16.5176L43.3625 15.8519H43.3605ZM42.6146 17.9689L42.6526 17.865C42.8366 17.3692 43.3885 17.1153 43.8844 17.2992C44.3804 17.4831 44.6343 18.0349 44.4504 18.5307L44.4124 18.6346C44.2284 19.1304 43.6765 19.3843 43.1805 19.2004C42.6846 19.0165 42.4306 18.4647 42.6146 17.9689Z" fill="#F9B457"/>
<path id="Vector_138" d="M40.1968 16.0357C40.1708 15.8658 40.1608 15.7018 40.1648 15.5459C40.1688 15.39 40.2088 15.234 40.2908 15.0821C40.3708 14.9282 40.5088 14.7802 40.7067 14.6363C40.7667 14.5923 40.8527 14.5303 40.9667 14.4524C41.0807 14.3744 41.1927 14.2865 41.3046 14.1845C41.4166 14.0845 41.5086 13.9746 41.5786 13.8586C41.6486 13.7427 41.6766 13.6227 41.6566 13.5008C41.6426 13.4128 41.6066 13.3389 41.5446 13.2789C41.4826 13.2189 41.4106 13.1769 41.3246 13.1549C41.2387 13.133 41.1487 13.127 41.0527 13.141C40.9107 13.1629 40.7987 13.2149 40.7167 13.2969C40.6347 13.3789 40.5727 13.4688 40.5287 13.5628C40.4848 13.6567 40.4448 13.7387 40.4068 13.8047L39.2109 13.2009C39.2749 12.943 39.3869 12.7131 39.5449 12.5172C39.7029 12.3193 39.8988 12.1574 40.1308 12.0274C40.3628 11.8975 40.6227 11.8115 40.9087 11.7676C41.1347 11.7336 41.3666 11.7316 41.6066 11.7616C41.8466 11.7915 42.0705 11.8635 42.2825 11.9755C42.4945 12.0874 42.6745 12.2493 42.8264 12.4633C42.9784 12.6752 43.0784 12.947 43.1284 13.2769C43.1504 13.4188 43.1584 13.5568 43.1544 13.6887C43.1504 13.8227 43.1284 13.9506 43.0904 14.0745C43.0504 14.1985 42.9944 14.3184 42.9164 14.4344C42.8404 14.5523 42.7424 14.6643 42.6265 14.7722C42.4725 14.9162 42.3105 15.0441 42.1425 15.1521C41.9745 15.262 41.8326 15.37 41.7206 15.4739C41.6086 15.5779 41.5626 15.6958 41.5826 15.8258L40.2008 16.0357H40.1968ZM40.4688 17.649L40.4568 17.569C40.3988 17.1872 40.6607 16.8313 41.0427 16.7734C41.4246 16.7154 41.7806 16.9773 41.8386 17.3591L41.8506 17.4391C41.9086 17.8209 41.6466 18.1767 41.2647 18.2347C40.8827 18.2927 40.5267 18.0308 40.4688 17.649Z" fill="#F9B457"/>
</g>
</g>
<g id="Group_36">
<g id="Group_37">
<g id="Group_38">
<path id="Vector_139" d="M89.1598 71.5572C90.1317 71.5572 90.9516 70.5596 90.9296 69.3721C90.9156 68.5985 90.8016 67.8348 90.5897 67.1171C90.1037 65.4718 89.1019 63.8825 89.4638 62.1453C89.6118 61.4296 89.9897 60.7679 89.9997 60.0362C90.0097 59.2826 89.6298 58.6349 89.2518 58.0611C88.6219 57.1055 87.952 56.1899 87.2441 55.3203C87.0721 56.9536 86.2863 58.409 85.7403 59.9343C85.1944 61.4596 84.9125 63.3348 85.6883 64.6282C86.2423 65.5518 87.2921 66.1076 87.4141 67.2611C87.4641 67.7309 87.3401 68.2086 87.3121 68.6864C87.2361 70.0458 88.072 71.3433 89.1618 71.5572H89.1598Z" fill="#F9B457"/>
<g id="Group_39">
<path id="Vector_140" d="M89.9415 73.7502L89.5216 71.7971C89.4196 71.1414 89.3076 70.4857 89.1856 69.8339C88.9437 68.5285 88.6637 67.2311 88.3117 65.9537C88.2218 65.6358 88.1318 65.3159 88.0278 65.0041C87.9778 64.8461 87.9238 64.6922 87.8698 64.5363C87.8118 64.3843 87.7538 64.2304 87.7058 64.0565C87.6178 63.7186 87.5778 63.3788 87.5638 63.0429C87.5458 62.7051 87.5498 62.3712 87.5558 62.0354C87.5738 61.3677 87.6158 60.702 87.6418 60.0403C87.7058 59.3805 87.7698 58.7188 87.6818 58.0571C87.8738 58.7008 87.8798 59.3845 87.9038 60.0503C87.8778 60.718 87.8358 61.3797 87.8178 62.0414C87.8118 62.3712 87.8078 62.7011 87.8258 63.0289C87.8378 63.3568 87.8778 63.6807 87.9578 63.9865C87.9978 64.1325 88.0578 64.2904 88.1178 64.4483C88.1718 64.6062 88.2277 64.7642 88.2777 64.9241C88.3817 65.242 88.4737 65.5638 88.5637 65.8857C88.9176 67.1731 89.1996 68.4785 89.4416 69.788C89.5656 70.4417 89.6735 71.0994 89.7815 71.7571C89.8435 72.4208 89.9035 73.0845 89.9395 73.7522L89.9415 73.7502Z" fill="#FFC9B4"/>
<path id="Vector_141" d="M86.6643 60.1343C86.8563 60.2683 87.0283 60.4042 87.2063 60.5382C87.2942 60.6061 87.3742 60.6861 87.4622 60.7581C87.5482 60.832 87.6462 60.892 87.7482 60.938L87.7162 60.942C87.8242 60.842 87.9222 60.7281 88.0282 60.6241C88.1361 60.5222 88.2441 60.4222 88.3561 60.3262C88.5821 60.1363 88.824 59.9664 89.09 59.8245L89.102 59.8385C88.914 60.0744 88.7041 60.2823 88.4761 60.4702C88.3601 60.5621 88.2421 60.6501 88.1241 60.7381C88.0042 60.824 87.8742 60.898 87.7562 60.988L87.7402 60.9999L87.7242 60.9919C87.6242 60.934 87.5242 60.88 87.4182 60.832C87.3142 60.782 87.2083 60.7321 87.1143 60.6641C86.9303 60.5262 86.7623 60.3562 86.6523 60.1483L86.6663 60.1363L86.6643 60.1343Z" fill="#FFC9B4"/>
<path id="Vector_142" d="M85.9846 62.8629C86.1465 62.9149 86.3005 62.9809 86.4525 63.0508C86.6045 63.1208 86.7544 63.1928 86.8924 63.2867C87.0324 63.3787 87.1744 63.4707 87.3304 63.5346C87.4823 63.6026 87.6463 63.6466 87.8043 63.7026L87.7263 63.7205C87.8863 63.5126 88.0503 63.3067 88.2302 63.1168C88.4142 62.9289 88.5982 62.743 88.8102 62.5811L88.8242 62.593C88.6902 62.8229 88.5282 63.0309 88.3642 63.2368C88.1983 63.4407 88.0143 63.6266 87.8283 63.8125L87.7903 63.8505L87.7503 63.8305C87.6003 63.7525 87.4583 63.6586 87.3084 63.5866C87.1604 63.5086 86.9984 63.4567 86.8404 63.4007C86.6805 63.3467 86.5325 63.2668 86.3865 63.1808C86.2425 63.0948 86.1045 62.9969 85.9766 62.8829L85.9846 62.8669V62.8629Z" fill="#FFC9B4"/>
<path id="Vector_143" d="M87.883 66.5235C88.025 66.5355 88.147 66.5795 88.2649 66.6274C88.3229 66.6554 88.3749 66.6974 88.4349 66.7274C88.4909 66.7594 88.5609 66.7734 88.6189 66.7694L88.5929 66.7814C88.6329 66.7114 88.6629 66.6334 88.7069 66.5655C88.7509 66.4995 88.7929 66.4295 88.8429 66.3676C88.9429 66.2436 89.0608 66.1317 89.2068 66.0437L89.2208 66.0537C89.1688 66.2156 89.0888 66.3576 88.9908 66.4835C88.9409 66.5455 88.8829 66.6035 88.8289 66.6614C88.7729 66.7194 88.7049 66.7674 88.6449 66.8234L88.6289 66.8374H88.6189C88.5449 66.8234 88.4849 66.8074 88.4149 66.8034C88.3469 66.7974 88.2749 66.7974 88.2089 66.7754C88.081 66.7274 87.965 66.6554 87.875 66.5435L87.883 66.5275V66.5235Z" fill="#FFC9B4"/>
<path id="Vector_144" d="M88.1858 69.6179C88.2858 69.6099 88.3777 69.6119 88.4697 69.6179C88.5617 69.6239 88.6537 69.6259 88.7437 69.6499C88.8337 69.6719 88.9257 69.7039 89.0197 69.7059C89.1136 69.7119 89.2076 69.6939 89.2976 69.6739L89.2656 69.6859C89.3236 69.6219 89.3876 69.564 89.4536 69.51C89.5176 69.454 89.5836 69.398 89.6536 69.35C89.7955 69.2541 89.9455 69.1681 90.1135 69.1082L90.1235 69.1221C90.0195 69.2681 89.8955 69.388 89.7636 69.496C89.6976 69.552 89.6256 69.5979 89.5536 69.6439C89.4816 69.6919 89.4096 69.7379 89.3316 69.7759L89.3056 69.7879H89.2996C89.2016 69.7739 89.1097 69.7559 89.0137 69.7579C88.9197 69.7579 88.8237 69.7779 88.7277 69.7859C88.6317 69.7958 88.5357 69.7759 88.4437 69.7519C88.3497 69.7279 88.2598 69.6899 88.1758 69.6339L88.1798 69.6179H88.1858Z" fill="#FFC9B4"/>
</g>
</g>
<g id="Group_40">
<path id="Vector_145" d="M90.0608 72.1908C90.7327 72.8825 91.7906 72.0389 92.4865 71.2392C93.3644 70.2337 94.3062 69.0722 94.4082 67.6508C94.4462 67.1171 94.3582 66.5853 94.4382 66.0535C94.6202 64.8341 95.5981 63.9864 96.062 62.8589C96.7339 61.2236 96.212 59.3585 95.5661 57.8471C95.1421 56.8556 94.6502 55.824 94.7302 54.6585C94.8022 53.593 95.3401 52.6274 95.858 51.7258C94.6482 51.7978 93.2864 51.9577 92.4365 53.1112C91.6306 54.2047 91.5886 55.796 91.6666 57.2014C91.7446 58.6068 91.8686 60.1181 91.2767 61.3936C90.4728 63.1288 88.475 64.1524 88.4191 66.0815C88.3911 67.0551 88.909 67.8427 89.2609 68.6704C89.4909 69.2101 89.6329 69.8998 89.5389 70.5036C89.4389 71.1393 89.5969 71.769 89.9948 72.1309L90.0588 72.1888L90.0608 72.1908Z" fill="#FFC9B4"/>
<g id="Group_41">
<path id="Vector_146" d="M89.9473 75.0217C90.0213 74.5559 90.1073 74.0941 90.1873 73.6323C90.2593 73.1685 90.3373 72.7067 90.3932 72.2429C90.5752 71.3273 90.7132 70.4057 90.7572 69.4801C90.7812 69.0163 90.7732 68.5565 90.7752 68.0787C90.7752 67.603 90.8312 67.1092 90.9512 66.6414C91.0712 66.1736 91.2371 65.7278 91.4211 65.284C91.6151 64.8462 91.833 64.4184 92.085 64.0145C92.5729 63.2009 93.1949 62.4712 93.3888 61.6036C93.4888 61.1738 93.4868 60.722 93.4268 60.2742C93.3548 59.8304 93.2389 59.3706 93.1409 58.9088C92.9449 57.9872 92.7649 57.0536 92.7409 56.09C92.7629 55.6082 92.8329 55.1244 92.9809 54.6666C93.1269 54.2068 93.3608 53.781 93.6588 53.4192C93.4188 53.825 93.2548 54.2648 93.1689 54.7166C93.0829 55.1684 93.0749 55.6282 93.1129 56.084C93.1369 56.9996 93.3088 57.9192 93.5048 58.8308C93.6008 59.2866 93.7168 59.7384 93.7948 60.2222C93.8588 60.702 93.8628 61.2038 93.7508 61.6895C93.6408 62.1753 93.4128 62.6211 93.1629 63.027C92.9109 63.4328 92.6429 63.8166 92.403 64.2104C92.157 64.6023 91.951 65.0141 91.7631 65.4339C91.5871 65.8577 91.4251 66.2935 91.3111 66.7353C91.1971 67.1771 91.1471 67.6229 91.1451 68.0847C91.1431 68.5465 91.1511 69.0243 91.1272 69.4981C91.0832 70.4497 90.9372 71.3873 90.7592 72.3129C90.5232 73.2285 90.2493 74.1301 89.9453 75.0217H89.9473Z" fill="#F9B457"/>
<path id="Vector_147" d="M94.0027 55.7862C93.9727 55.9401 93.9128 56.0741 93.8448 56.202C93.7788 56.33 93.7008 56.4519 93.5888 56.5499C93.4768 56.6478 93.3728 56.7518 93.3028 56.8777C93.2288 57.0017 93.1849 57.1456 93.1209 57.2756L93.0629 57.3955L92.9369 57.2895C92.8529 57.2196 92.7729 57.1436 92.6929 57.0696C92.6129 56.9957 92.5389 56.9157 92.471 56.8297C92.337 56.6558 92.213 56.4739 92.125 56.26L92.145 56.24C92.353 56.346 92.5229 56.4839 92.6849 56.6318C92.7649 56.7058 92.8389 56.7858 92.9069 56.8717C92.9749 56.9577 93.0429 57.0417 93.1069 57.1316L92.9229 57.1456C93.0209 57.0377 93.1369 56.9437 93.2248 56.8278C93.3168 56.7158 93.3728 56.5799 93.4228 56.4399C93.4728 56.3 93.5548 56.182 93.6488 56.0721C93.7428 55.9621 93.8448 55.8562 93.9747 55.7722L93.9987 55.7882L94.0027 55.7862Z" fill="#F9B457"/>
<path id="Vector_148" d="M95.1383 59.8344C95.1183 60.0503 95.0463 60.2582 94.9444 60.4481C94.8404 60.6361 94.7164 60.814 94.5504 60.9519C94.3844 61.0899 94.2145 61.2138 94.0685 61.3637C93.9165 61.5077 93.7845 61.6736 93.6205 61.8175L93.5346 61.8935L93.4566 61.7776L93.1846 61.3757C93.0926 61.2418 93.0046 61.1078 92.9206 60.9719L92.6647 60.5641C92.5767 60.4302 92.4927 60.2922 92.3867 60.1643L92.4027 60.1403C92.5627 60.2062 92.7007 60.3142 92.8227 60.4301C92.9466 60.5461 93.0586 60.672 93.1586 60.806C93.2606 60.9379 93.3506 61.0799 93.4286 61.2258C93.5086 61.3717 93.5846 61.5177 93.6505 61.6736L93.4866 61.6336C93.6605 61.5377 93.8485 61.4337 94.0025 61.2998C94.1625 61.1678 94.2825 60.9959 94.3904 60.82C94.4984 60.6441 94.6204 60.4881 94.7424 60.3262C94.8644 60.1643 94.9744 59.9983 95.1043 59.8264L95.1303 59.8364L95.1383 59.8344Z" fill="#F9B457"/>
<path id="Vector_149" d="M94.0324 64.7103C93.8864 64.9102 93.6925 65.0702 93.4885 65.2041C93.2805 65.3341 93.0606 65.444 92.8226 65.504C92.5866 65.566 92.3447 65.6019 92.1187 65.6779C91.8887 65.7459 91.6667 65.8398 91.4308 65.9138L91.3828 65.9298L91.3308 65.8778C91.1828 65.7299 91.0628 65.568 90.9409 65.402C90.8229 65.2341 90.7109 65.0622 90.6289 64.8723C90.5409 64.6843 90.4729 64.4884 90.4289 64.2845C90.3889 64.0806 90.3749 63.8667 90.4129 63.6648H90.4409C90.4889 63.8627 90.5569 64.0446 90.6329 64.2206C90.7069 64.3985 90.8029 64.5684 90.8929 64.7403L91.1808 65.2481C91.2788 65.416 91.3888 65.582 91.4928 65.7459L91.3928 65.7099C91.6248 65.6899 91.8667 65.6639 92.0947 65.5979C92.3247 65.538 92.5386 65.422 92.7446 65.3101C92.9506 65.1941 93.1665 65.1062 93.3785 65.0082C93.5905 64.9082 93.7965 64.8043 94.0144 64.6943L94.0324 64.7163V64.7103Z" fill="#F9B457"/>
<path id="Vector_150" d="M92.4052 69.0604C92.3253 69.1724 92.2153 69.2583 92.0973 69.3223C91.9773 69.3843 91.8493 69.4342 91.7153 69.4482C91.5814 69.4622 91.4454 69.4362 91.3154 69.4282C91.1834 69.4182 91.0594 69.4282 90.9235 69.4382H90.9075L90.8775 69.4122C90.7755 69.3163 90.6675 69.2223 90.5795 69.1164C90.4895 69.0104 90.3955 68.9085 90.3155 68.7945C90.2356 68.6826 90.1656 68.5606 90.0996 68.4367C90.0336 68.3127 89.9776 68.1828 89.9336 68.0428L89.9556 68.0269C90.0756 68.1088 90.1836 68.2028 90.2815 68.3007C90.3795 68.4007 90.4755 68.5026 90.5575 68.6126C90.6415 68.7225 90.7115 68.8425 90.7855 68.9604C90.8615 69.0764 90.9175 69.2063 90.9795 69.3323L90.9335 69.3063C91.0514 69.3383 91.1814 69.3483 91.3054 69.3243C91.4294 69.3023 91.5474 69.2423 91.6634 69.2063C91.7793 69.1724 91.8973 69.1484 92.0153 69.1184C92.1353 69.0944 92.2513 69.0564 92.3873 69.0344L92.4033 69.0584L92.4052 69.0604Z" fill="#F9B457"/>
</g>
</g>
<g id="Group_42">
<path id="Vector_151" d="M93.7985 78.5779H87.7874C87.4354 78.5779 87.1375 78.322 87.0835 77.9742L86.1216 71.6609C86.0556 71.2291 86.3896 70.8413 86.8255 70.8413H94.7624C95.1983 70.8413 95.5323 71.2291 95.4663 71.6609L94.5044 77.9742C94.4524 78.322 94.1525 78.5779 93.8005 78.5779H93.7985Z" fill="#5CB6F9"/>
<path id="Vector_152" d="M94.76 70.8413H93.5322C93.9681 70.8413 94.3021 71.2291 94.2361 71.6609L93.2742 77.9742C93.2222 78.322 92.9223 78.5779 92.5703 78.5779H93.7981C94.1501 78.5779 94.448 78.322 94.502 77.9742L95.4639 71.6609C95.5299 71.2291 95.1959 70.8413 94.76 70.8413Z" fill="#86A5F9"/>
</g>
</g>
<g id="Group_43">
<g id="Group_44">
<path id="Vector_153" d="M10.253 60.676C10.285 60.9339 10.231 61.1918 10.107 61.4197C9.65109 62.2473 9.42113 63.2009 9.45112 64.1444C9.47112 64.7682 9.5991 65.4039 9.42912 66.0036C9.13717 67.0372 8.04332 67.6769 7.69337 68.6944C7.38141 69.5961 7.67137 70.7276 7.02346 71.4272C6.86349 71.6012 6.61352 71.7331 6.39355 71.6452C6.28357 71.6012 6.20158 71.5092 6.12159 71.4193C5.37969 70.5756 4.58381 69.5521 4.81378 68.4526C5.02974 67.419 6.0936 66.7213 6.29557 65.6858C6.45954 64.8401 6.0276 63.8626 6.51354 63.1509C6.64752 62.955 6.83949 62.803 6.98547 62.6151C7.56139 61.8754 7.34942 60.694 8.01332 60.0323C8.22929 59.8164 8.50125 59.6944 8.79721 59.6304C9.49311 59.4825 10.169 59.9663 10.255 60.674L10.253 60.676Z" fill="#F9B457"/>
<g id="Group_45">
<path id="Vector_154" d="M6.02539 73.8003C5.9814 73.2485 5.9614 72.6987 5.94141 72.145C5.9674 71.5932 5.9954 71.0435 6.04339 70.4917C6.09138 69.9419 6.15338 69.3902 6.24936 68.8424C6.34935 68.2987 6.47933 67.7429 6.7073 67.2311C7.10724 66.2196 7.43119 65.164 7.75715 64.1165L8.23108 62.5372C8.42506 62.0214 8.61503 61.5037 8.799 60.9839C8.71901 61.5316 8.59303 62.0694 8.48305 62.6112L8.00911 64.1945C7.68116 65.246 7.3612 66.2976 6.95126 67.3331C6.72929 67.8289 6.60731 68.3526 6.50933 68.8884C6.41334 69.4242 6.35335 69.9679 6.30535 70.5137C6.25936 71.0595 6.22736 71.6072 6.20737 72.155L6.02739 73.7982L6.02539 73.8003Z" fill="#FFC9B4"/>
<path id="Vector_155" d="M8.93388 62.6312C8.84389 62.7691 8.72591 62.8711 8.59993 62.9631C8.53594 63.007 8.45995 63.035 8.38996 63.071C8.31797 63.105 8.25598 63.151 8.19799 63.2029L8.17199 63.2249L8.14999 63.191C8.098 63.111 8.03401 63.035 7.98402 62.9551C7.93602 62.8731 7.88403 62.7911 7.84204 62.7072C7.75805 62.5352 7.69606 62.3533 7.66406 62.1574L7.68006 62.1494C7.81804 62.2934 7.92402 62.4533 8.01001 62.6232C8.05201 62.7092 8.086 62.7991 8.122 62.8871C8.15599 62.9771 8.17799 63.073 8.20998 63.163L8.16199 63.151C8.22998 63.111 8.29197 63.065 8.34597 63.007C8.39996 62.9511 8.44995 62.8871 8.50994 62.8371C8.63392 62.7432 8.76791 62.6632 8.92588 62.6172L8.93588 62.6312H8.93388Z" fill="#FFC9B4"/>
<path id="Vector_156" d="M8.79906 64.5163C8.70507 64.5943 8.60709 64.6782 8.5051 64.7482C8.40311 64.8202 8.29913 64.8901 8.18715 64.9461C8.07316 65.0001 7.95318 65.0441 7.8452 65.106C7.73521 65.166 7.63522 65.242 7.53724 65.3219L7.50324 65.3499L7.46925 65.304C7.31727 65.106 7.18929 64.8961 7.06731 64.6822C6.95332 64.4643 6.84933 64.2384 6.77734 63.9965L6.79334 63.9885C6.96332 64.1764 7.1033 64.3804 7.23128 64.5903C7.35126 64.8062 7.46525 65.0241 7.55724 65.256L7.48724 65.238C7.60123 65.184 7.71521 65.128 7.8172 65.0581C7.92119 64.9881 8.01317 64.9001 8.11316 64.8222C8.21514 64.7482 8.32513 64.6862 8.43711 64.6302C8.55109 64.5763 8.66508 64.5223 8.79706 64.4963L8.80106 64.5143L8.79906 64.5163Z" fill="#FFC9B4"/>
<path id="Vector_157" d="M8.1376 67.0031C8.03361 67.1071 7.91763 67.1851 7.79965 67.255C7.68166 67.327 7.55168 67.375 7.4137 67.409C7.27572 67.4429 7.15174 67.5029 7.04175 67.5869C6.93177 67.6708 6.82378 67.7628 6.7118 67.8368L6.62781 67.8908L6.56582 67.7968C6.47383 67.6589 6.39184 67.5169 6.32585 67.365C6.26186 67.213 6.20387 67.0571 6.17188 66.8872L6.19187 66.8772C6.31786 66.9951 6.41984 67.1271 6.51183 67.263C6.60581 67.399 6.6818 67.5449 6.74779 67.6968L6.60182 67.6589C6.7278 67.5889 6.86178 67.5489 6.99576 67.5029C7.12774 67.4569 7.24972 67.391 7.35971 67.301C7.46769 67.2091 7.58767 67.1351 7.71766 67.0871C7.84764 67.0371 7.98162 66.9951 8.1276 66.9832L8.1376 67.0031Z" fill="#FFC9B4"/>
</g>
</g>
<g id="Group_46">
<path id="Vector_158" d="M5.14847 73.9082C4.71853 73.8382 3.10276 73.3204 3.21474 72.8986C3.69867 71.0894 4.18261 69.0363 2.50684 68.1507C1.70096 67.7249 0.687098 67.509 0.227163 66.7193C-0.24677 65.9077 0.10318 64.8761 0.527121 64.0385C0.951061 63.2009 1.46299 62.3033 1.28101 61.3817C1.09104 60.4161 0.177169 59.7044 0.0311899 58.7308C-0.168782 57.4034 1.12304 56.3319 2.36086 55.8141C2.7828 55.6382 3.24674 55.4863 3.69067 55.5942C4.00863 55.6702 4.28259 55.8741 4.50056 56.118C5.37044 57.0916 5.33644 58.5589 5.13647 59.8504C4.9365 61.1418 4.63454 62.5032 5.12047 63.7166C5.46642 64.5783 6.20432 65.3879 6.00635 66.2935C5.92636 66.6574 5.70039 66.9732 5.6144 67.3351C5.38244 68.3086 6.19032 69.1862 6.56227 70.1178C7.0402 71.3173 6.71225 72.7847 5.80438 73.6963C5.6324 73.8702 5.38644 73.9521 5.14647 73.9122L5.14847 73.9082Z" fill="#FFC9B4"/>
<g id="Group_47">
<path id="Vector_159" d="M5.29869 73.9281C5.1987 73.2124 5.09872 72.4987 4.97074 71.789C4.94074 71.6111 4.90275 71.4352 4.87475 71.2592C4.84875 71.0813 4.83275 70.9034 4.80276 70.7255C4.74877 70.3716 4.68877 70.0178 4.62278 69.6659C4.4868 68.9643 4.32283 68.2646 4.08286 67.6008C3.96288 67.271 3.8189 66.9451 3.63092 66.6673C3.53694 66.5273 3.42695 66.4054 3.30497 66.3214C3.14299 66.2155 2.98901 66.0795 2.86903 65.9156C2.62107 65.5857 2.54508 65.1679 2.55508 64.7921C2.56307 64.4103 2.63506 64.0464 2.71705 63.6906C2.88303 62.9789 3.093 62.2932 3.20898 61.5935C3.32697 60.8978 3.34896 60.1861 3.16699 59.5184C3.111 59.3565 3.067 59.1906 3.01301 59.0246C2.95902 58.8587 2.88703 58.6988 2.80704 58.5428C2.64706 58.229 2.43709 57.9351 2.20312 57.6572C2.48908 57.8811 2.75305 58.139 2.97302 58.4369C3.083 58.5848 3.18699 58.7428 3.27497 58.9087C3.36696 59.0726 3.44295 59.2485 3.48295 59.4324C3.68292 60.1621 3.65492 60.9278 3.53294 61.6495C3.41295 62.3752 3.19898 63.0708 3.03701 63.7645C2.95902 64.1104 2.89103 64.4582 2.88303 64.7981C2.87503 65.1359 2.94102 65.4678 3.13299 65.7217C3.22698 65.8496 3.34696 65.9556 3.48694 66.0475C3.66292 66.1675 3.7949 66.3214 3.90289 66.4813C4.11886 66.8012 4.26683 67.1431 4.39282 67.4889C4.64278 68.1826 4.80876 68.8923 4.94674 69.604C5.01473 69.9598 5.07672 70.3177 5.13071 70.6775C5.15471 70.8574 5.1887 71.0353 5.2107 71.2153C5.2287 71.3952 5.2367 71.5771 5.2487 71.757C5.28869 72.4807 5.31469 73.2044 5.30069 73.9281H5.29869Z" fill="#F9B457"/>
<path id="Vector_160" d="M2.44178 59.8043C2.56576 59.8483 2.66975 59.9202 2.76573 59.9962C2.86172 60.0742 2.95171 60.1581 3.0197 60.2621C3.08769 60.366 3.14768 60.476 3.23567 60.562C3.31965 60.6499 3.42164 60.7239 3.51763 60.8019L3.38965 60.8098C3.43364 60.7179 3.48563 60.6299 3.53362 60.542C3.58362 60.454 3.63361 60.366 3.6936 60.2841C3.74959 60.2001 3.81359 60.1221 3.87358 60.0402C3.93557 59.9602 4.00356 59.8843 4.05955 59.8003L4.08155 59.8043C4.08555 59.9162 4.05155 60.0222 4.01756 60.1202C3.97956 60.2181 3.93757 60.3141 3.88557 60.404C3.83758 60.496 3.77759 60.5799 3.7156 60.6619C3.65361 60.7439 3.59362 60.8258 3.51963 60.9018L3.43964 60.9858L3.39164 60.9098C3.32565 60.8058 3.26366 60.6979 3.18167 60.6079C3.10369 60.514 2.9977 60.448 2.89771 60.376C2.79573 60.3041 2.71774 60.2141 2.63975 60.1221C2.56176 60.0282 2.48977 59.9322 2.42578 59.8203L2.43978 59.8023L2.44178 59.8043Z" fill="#F9B457"/>
<path id="Vector_161" d="M4.006 62.5431C3.95401 62.6671 3.88802 62.779 3.81403 62.885C3.73804 62.9889 3.65805 63.0909 3.56807 63.1809C3.47408 63.2688 3.36809 63.3448 3.26811 63.4268C3.17012 63.5107 3.08413 63.6047 3.00615 63.7066L2.98215 63.7386L2.94615 63.7106C2.81617 63.6067 2.71219 63.5127 2.6102 63.4008C2.51222 63.2888 2.40823 63.1849 2.31824 63.0689C2.22625 62.953 2.14227 62.835 2.06028 62.7111C1.97829 62.5891 1.9043 62.4612 1.82031 62.3412L1.83231 62.3232C1.97429 62.3912 2.08627 62.4952 2.19626 62.5951C2.30424 62.6971 2.40623 62.807 2.50022 62.921C2.5942 63.0349 2.67419 63.1589 2.76218 63.2768C2.84817 63.3928 2.92016 63.5347 3.00215 63.6367L2.94215 63.6407C3.04214 63.5587 3.13013 63.4687 3.20812 63.3648C3.28211 63.2608 3.3501 63.1489 3.42809 63.0489C3.50807 62.951 3.60006 62.863 3.69205 62.773C3.78604 62.6851 3.88402 62.6031 3.99201 62.5272L4.01 62.5411L4.006 62.5431Z" fill="#F9B457"/>
<path id="Vector_162" d="M1.12728 64.6582C1.26326 64.8182 1.40324 64.9641 1.54922 65.106C1.6932 65.246 1.84918 65.3699 2.00116 65.5059C2.15513 65.6358 2.32911 65.7538 2.52708 65.8117C2.72305 65.8737 2.93102 65.8817 3.133 65.8797L3.04301 65.9437C3.079 65.7737 3.131 65.6158 3.18699 65.4539C3.24098 65.292 3.31097 65.136 3.39496 64.9881C3.47895 64.8382 3.57693 64.6962 3.69292 64.5663C3.8109 64.4403 3.94888 64.3224 4.11286 64.2644L4.12486 64.2824C4.00088 64.3943 3.90489 64.5243 3.8229 64.6622C3.73891 64.8002 3.66692 64.9441 3.59693 65.09L3.39496 65.5338C3.32897 65.6838 3.27098 65.8377 3.21299 65.9896L3.18499 66.0616L3.123 66.0516C2.90903 66.0176 2.70706 65.9457 2.50909 65.8757C2.31311 65.7997 2.11114 65.7318 1.91917 65.6338C1.72519 65.5378 1.56122 65.3919 1.42324 65.226C1.28526 65.0621 1.17327 64.8741 1.11328 64.6682L1.13328 64.6582H1.12728Z" fill="#F9B457"/>
<path id="Vector_163" d="M5.02273 66.2774C5.08872 66.4353 5.11071 66.6092 5.10671 66.7792C5.09872 66.9491 5.07272 67.123 5.01273 67.2829C4.95074 67.4429 4.85675 67.5888 4.75476 67.7228L4.45281 68.1226L4.43081 68.1506L4.39681 68.1266C4.23284 68.0106 4.04886 67.9227 3.87089 67.8307C3.69491 67.7367 3.51094 67.6548 3.32897 67.5768C3.14699 67.4989 2.96302 67.4189 2.77504 67.3469C2.58907 67.271 2.3971 67.209 2.20312 67.137L2.20712 67.115C2.62307 67.105 3.04101 67.195 3.42295 67.3629C3.61493 67.4469 3.7949 67.5528 3.96887 67.6668C4.14285 67.7827 4.29683 67.9227 4.44881 68.0666L4.39282 68.0706C4.5048 67.9527 4.60679 67.8227 4.67078 67.6728C4.74277 67.5268 4.77876 67.3689 4.82875 67.219C4.92474 66.9191 4.98673 66.6112 5.00073 66.2794L5.02273 66.2754V66.2774Z" fill="#F9B457"/>
</g>
</g>
<g id="Group_48">
<path id="Vector_164" d="M8.0744 78.578H3.46305C3.03511 78.578 2.67116 78.2081 2.60717 77.7084L1.87727 72.0389C1.79729 71.4191 2.20323 70.8594 2.73315 70.8594H8.8043C9.33422 70.8594 9.74016 71.4191 9.66017 72.0389L8.93028 77.7084C8.86629 78.2081 8.50234 78.578 8.0744 78.578Z" fill="#5CB6F9"/>
<path id="Vector_165" d="M8.80407 70.8594H7.80021C8.33014 70.8594 8.73608 71.4191 8.65609 72.0389L7.92619 77.7084C7.8622 78.2081 7.49825 78.578 7.07031 78.578H8.07417C8.50211 78.578 8.86606 78.2081 8.93005 77.7084L9.65995 72.0389C9.73994 71.4191 9.33399 70.8594 8.80407 70.8594Z" fill="#86A5F9"/>
</g>
</g>
</g>
<g id="Group_49">
<g id="Group_50">
<path id="Vector_166" d="M43.2158 0H33.1963C32.6521 0 32.2109 0.44105 32.2109 0.985111V6.19397C32.2109 6.73803 32.6521 7.17908 33.1963 7.17908H43.2158C43.76 7.17908 44.2012 6.73803 44.2012 6.19397V0.985111C44.2012 0.44105 43.76 0 43.2158 0Z" fill="#86A5F9"/>
<path id="Vector_167" d="M43.5539 7.17918H32.8583C32.5015 7.17918 32.2109 6.89012 32.2109 6.53203L38.2054 2.5542L44.1998 6.53203C44.1998 6.88868 43.9106 7.17918 43.5524 7.17918H43.5539Z" fill="#5CB6F9"/>
<path id="Vector_168" d="M43.5539 0H32.8583C32.5015 0 32.2109 0.289062 32.2109 0.647153L38.2054 4.62499L44.1998 0.647153C44.1998 0.2905 43.9106 0 43.5524 0H43.5539Z" fill="#FAFDFF"/>
</g>
<g id="Group_51">
<path id="Vector_169" d="M83.7455 1H59.8181C59.0729 1 58.4688 1.60401 58.4688 2.34895V7.94323C58.4688 8.68817 59.0729 9.29218 59.8181 9.29218H62.2219L61.4034 11.3127L64.1266 9.29218H83.7469C84.4921 9.29218 85.0963 8.68817 85.0963 7.94323V2.34895C85.0963 1.60401 84.4921 1 83.7469 1H83.7455Z" fill="#86A5F9"/>
<path id="Vector_170" d="M82.1654 4.04591H63.9304C63.7563 4.04591 63.6153 3.90498 63.6153 3.73096C63.6153 3.55695 63.7563 3.41602 63.9304 3.41602H82.1654C82.3394 3.41602 82.4804 3.55695 82.4804 3.73096C82.4804 3.90498 82.3394 4.04591 82.1654 4.04591ZM82.4804 5.14607C82.4804 4.97206 82.3394 4.83112 82.1654 4.83112H61.3971C61.223 4.83112 61.082 4.97206 61.082 5.14607C61.082 5.32008 61.223 5.46102 61.3971 5.46102H82.1654C82.3394 5.46102 82.4804 5.32008 82.4804 5.14607ZM73.3629 6.56262C73.3629 6.3886 73.2219 6.24767 73.0479 6.24767H61.3971C61.223 6.24767 61.082 6.3886 61.082 6.56262C61.082 6.73663 61.223 6.87756 61.3971 6.87756H73.0479C73.2219 6.87756 73.3629 6.73663 73.3629 6.56262Z" fill="white"/>
</g>
<path id="Vector_171" d="M60.2934 15.5399C59.3641 16.4689 59.2231 17.8855 59.8662 18.9669L55.1348 23.6969C55.0384 23.7932 55.0384 23.9514 55.1348 24.0478L55.7663 24.6791C55.8627 24.7755 56.0209 24.7755 56.1173 24.6791L56.4539 24.3426L57.3286 25.217C57.425 25.3133 57.5832 25.3133 57.6796 25.217L58.196 24.7007C58.2924 24.6043 58.2924 24.4461 58.196 24.3498L57.3214 23.4754L57.7745 23.0224L58.5211 23.7688C58.6175 23.8651 58.7758 23.8651 58.8721 23.7688L59.3886 23.2525C59.485 23.1562 59.485 22.998 59.3886 22.9016L58.642 22.1552L60.8487 19.9492C61.929 20.592 63.346 20.4511 64.2768 19.522C65.3758 18.4233 65.3758 16.64 64.2768 15.5413C63.1777 14.4426 61.3939 14.4426 60.2949 15.5413L60.2934 15.5399ZM63.3935 18.639C62.7807 19.2517 61.7866 19.2517 61.1738 18.639C60.561 18.0264 60.561 17.0327 61.1738 16.42C61.7866 15.8074 62.7807 15.8074 63.3935 16.42C64.0063 17.0327 64.0063 18.0264 63.3935 18.639Z" fill="#86A5F9"/>
<path id="Vector_172" d="M6.81412 52.8358C6.73643 52.6129 6.68033 52.3957 6.64437 52.1843C6.60984 51.9729 6.62567 51.7543 6.69472 51.5271C6.76377 51.3013 6.91194 51.0655 7.14067 50.821C7.20972 50.7462 7.31042 50.6412 7.44276 50.5089C7.57511 50.3766 7.70458 50.2285 7.82973 50.0631C7.95489 49.8991 8.05127 49.7294 8.116 49.5554C8.18218 49.3814 8.18649 49.2146 8.13039 49.0535C8.09011 48.9385 8.02106 48.8493 7.92324 48.7846C7.82541 48.7199 7.71752 48.6825 7.59669 48.6724C7.47585 48.6638 7.35213 48.6811 7.22842 48.7242C7.04285 48.7889 6.90474 48.8881 6.81556 49.0204C6.72637 49.1528 6.66451 49.2879 6.63142 49.426C6.5969 49.5655 6.56237 49.6834 6.52785 49.7827L4.76562 49.2764C4.78576 48.9126 4.87783 48.5761 5.04039 48.2698C5.20294 47.9649 5.42448 47.6945 5.70356 47.4615C5.98407 47.2286 6.31062 47.0459 6.68321 46.915C6.97955 46.8115 7.29028 46.7497 7.6197 46.7295C7.94913 46.7094 8.26993 46.7482 8.58353 46.8446C8.89713 46.9424 9.18197 47.1135 9.43803 47.3609C9.69553 47.6082 9.8998 47.9462 10.0508 48.3776C10.1156 48.5631 10.1631 48.7443 10.1918 48.9255C10.2206 49.1053 10.2235 49.2836 10.2033 49.4605C10.1818 49.6374 10.1357 49.8128 10.0624 49.9897C9.98899 50.1666 9.88685 50.3435 9.75738 50.519C9.5862 50.7519 9.40206 50.9633 9.2021 51.1546C9.00358 51.3459 8.84103 51.5256 8.71731 51.6939C8.5936 51.8636 8.56195 52.0319 8.62093 52.2016L6.81412 52.8358ZM7.59237 54.9369L7.55641 54.8333C7.3809 54.3343 7.64272 53.7878 8.1419 53.6138C8.64107 53.4383 9.18772 53.7001 9.36178 54.1991L9.39775 54.3041C9.57325 54.8031 9.31143 55.3496 8.81226 55.5236C8.31308 55.6991 7.76644 55.4373 7.59237 54.9383V54.9369Z" fill="white"/>
</g>
</g>
</g>
<defs>
<filter id="filter0_d_1850_36701" x="39.2109" y="11" width="14.6875" height="13.2603" filterUnits="userSpaceOnUse" color-interpolation-filters="sRGB">
<feFlood flood-opacity="0" result="BackgroundImageFix"/>
<feColorMatrix in="SourceAlpha" type="matrix" values="0 0 0 0 0 0 0 0 0 0 0 0 0 0 0 0 0 0 127 0" result="hardAlpha"/>
<feOffset dx="5" dy="5"/>
<feColorMatrix type="matrix" values="0 0 0 0 0.0588235 0 0 0 0 0.203922 0 0 0 0 0.309804 0 0 0 0.25 0"/>
<feBlend mode="normal" in2="BackgroundImageFix" result="effect1_dropShadow_1850_36701"/>
<feBlend mode="normal" in="SourceGraphic" in2="effect1_dropShadow_1850_36701" result="shape"/>
</filter>
</defs>
</svg>
