<?xml version="1.0" encoding="UTF-8"?><svg id="Ebene_2" xmlns="http://www.w3.org/2000/svg" viewBox="0 0 208.81 253.35"><g id="Ebene_2-2"><path d="m208.81,244.29c-13.89-9.42-29.32-16.74-45.84-21.51-.33-5.52-1.87-45.86-2.06-49.44-.2-3.75-.6-5.65-1.9-7.24,0,0,2.16-6.33-.86-9.18-.31-2.54-3.37-45.51-7.98-55.45-2.05-4.39.86-9.48,1.35-9.86,5.34-1.5,4.63-8.14,10.76-7.52,11.73-5.33,18.63-13.42,14.71-20.1l.02.02c-3.68-10.7-8.91-16.76-15.09-21.62-1.39-3.24-2.6-3.97-5.87-5.56-4.83-2.58-9.99-2.45-14.54-5.69-.53-3,.46-3.2.55-3.84-4.37,2.1-7.01.55-5.6-1.5l1.28-1.17c1.01-7.04,4.01-6.86,1.76-11.65,1.65-2.36,1.5-7.19-2.21-10.37-2.43-2.07-7.3-4.1-12.51-1.08-7.41,4.48-8.4,7.87-6.68,13.46.42,1.65,1.32,5.29,1.32,7.04.46.31,1.54,1.1,2.01,1.39,1.94,1.68,1.7,5.18,1.63,5.67-8.18-3.29-7.3,1.48-11.76,2.25-1.81,0-8.65,1.15-12.57,1.83-1.81.33-4.54,1.48-5.62,2.47-.02.01-.02.02-.04.04-.01.01-.03.02-.04.03l.02-.02c-.8.73-.26.23-.05.04-.84.77-20.16,18.4-22.79,20.73-11.21,9.66-24.46,15.22-38.49,19.1C6.41,82.58-5.92,101.71,2.77,117.79c0,0,1.08-25.5,37.56-9.42,10.54,4.65,14.73,8.69,31.79,5.23,14.34-3.49,19.37,4.21,23.78,9.51-4.57,7.1-3.22,37.1-4.24,39.92,0,0-1.17,5.05-.55,7.7-3.49,7.01-.51,14.91-1.59,22.21l-.2-.04c-.95,1.19-1.3,1.54-.62,3.9,0,0,1.05,8.54-.27,22.35-27.52,5.08-52.61,17.1-73.37,34.2,33.18-14.73,69.9-22.92,108.53-22.92h-.01c29.8,0,58.45,4.88,85.23,13.86Zm-54.49-164.57c3.18-10.94.86-18.93.95-18.95.18.04,2.76,4.72,8.03,7.39-3.4,2.67-4.21,7.1-7.1,9.88h-.03c-.62.62-2.21,2.87-1.85,1.68Zm-36.32,136.73c-7.15,0-14.19.47-21.1,1.37.76-7.81,5.28-22.47,5.14-23.29-.66-3.84,4.5-10.23,6.18-18.29.73-12.46,10.28-19.39,14.18-40.59.22-1.19.86-4.96,1.43-7.79.62.24,1.28.35,1.92.26,2.32,12.88,11.91,28.72,16.17,38.05,4.5,9.88-2.21,12.37,4.01,26.27,2.16,4.83,6.54,22.25,7.97,28.01-11.55-2.62-23.56-4-35.9-4Z" fill="#fff"/></g></svg>