<svg width="87" height="90" viewBox="0 0 87 90" fill="none" xmlns="http://www.w3.org/2000/svg">
<g id="Pauschal" clip-path="url(#clip0_1850_38266)">
<g id="Group">
<path id="Vector" d="M50.5892 73.7643H20.1273C11.9159 73.7643 4.54518 68.4044 1.91681 60.3555C1.8579 60.1745 1.79899 59.9889 1.74007 59.8032C-0.532557 52.4515 -1.76744 43.8865 5.78912 32.4379C13.3457 20.9893 8.16145 10.2492 17.8773 6.34015C27.5932 2.43114 35.4761 7.30665 46.5401 2.55789C57.6042 -2.19086 79.7369 -1.91019 81.085 17.3587C82.4355 36.6276 77.036 35.7901 79.1953 42.2116C81.3547 48.6353 88.6416 75.4415 50.5869 73.7666L50.5892 73.7643Z" fill="#E4F1FF"/>
<path id="Vector_2" d="M22.108 90.0001C33.4355 90.0001 42.6183 87.5497 42.6183 84.527C42.6183 81.5043 33.4355 79.054 22.108 79.054C10.7804 79.054 1.59766 81.5043 1.59766 84.527C1.59766 87.5497 10.7804 90.0001 22.108 90.0001Z" fill="#E4F1FF"/>
</g>
<path id="Vector_3" d="M1.35156 73.7505H84.8657" stroke="#475CA4" stroke-width="0.5" stroke-miterlimit="10" stroke-linecap="round"/>
<g id="Group_2">
<path id="Vector_4" d="M29.6342 86.6176L12.5612 86.5998L12.5799 68.7455L30.6476 68.7644L30.6299 85.625C30.6294 86.1728 30.1825 86.6182 29.6342 86.6176Z" fill="#9FCCFB"/>
<path id="Vector_5" d="M12.5825 68.7437L30.6412 68.764L24.9562 64.2371C24.562 63.9225 24.0703 63.7527 23.565 63.7505L8.44511 63.7346C8.06898 63.7346 7.88092 64.1851 8.15055 64.4454L12.5825 68.7437Z" fill="#9FCCFB"/>
<path id="Vector_6" d="M7.50586 80.7015L7.44922 65.1877C7.44922 64.0062 8.2196 63.8115 8.2196 63.8115L8.08139 64.1035C8.01341 64.2529 8.15616 64.4294 8.27398 64.5449L12.5881 68.7459L12.5677 86.6001L8.06099 82.0415C7.70752 81.6839 7.50813 81.2017 7.50586 80.7015Z" fill="#9FCCFB"/>
<path id="Vector_7" d="M17.6083 68.7504L13.3372 68.7458C12.9203 68.7458 12.5827 69.0831 12.5827 69.4973L12.5781 74.0039" stroke="white" stroke-width="0.5" stroke-miterlimit="10"/>
<path id="Vector_8" d="M12.5755 76.8538L12.5664 85.8465" stroke="white" stroke-width="0.5" stroke-miterlimit="10"/>
<path id="Vector_9" d="M9.91797 66.1702L12.5622 68.746" stroke="white" stroke-width="0.5" stroke-miterlimit="10"/>
<path id="Vector_10" d="M8.19488 63.8115L8.05666 64.1035C7.98869 64.2529 8.13143 64.4294 8.24926 64.5449L9.45468 65.7196" stroke="white" stroke-width="0.5" stroke-miterlimit="10"/>
</g>
<g id="Group_3">
<path id="Vector_11" d="M54.7961 14.2349H31.1023C28.9812 14.2349 27.2617 15.9526 27.2617 18.0714V70.0044C27.2617 72.1233 28.9812 73.841 31.1023 73.841H54.7961C56.9172 73.841 58.6367 72.1233 58.6367 70.0044V18.0714C58.6367 15.9526 56.9172 14.2349 54.7961 14.2349Z" fill="#475CA4"/>
<path id="Vector_12" d="M55.0226 15.7129H30.8733C29.6295 15.7129 28.6211 16.7202 28.6211 17.9628V70.1131C28.6211 71.3557 29.6295 72.363 30.8733 72.363H55.0226C56.2665 72.363 57.2748 71.3557 57.2748 70.1131V17.9628C57.2748 16.7202 56.2665 15.7129 55.0226 15.7129Z" fill="white"/>
<path id="Vector_13" d="M36.168 14.9751H49.8468V16.9941C49.8468 18.1688 48.8929 19.124 47.7147 19.124H38.1868C37.0109 19.124 36.0547 18.1711 36.0547 16.9941V15.0883C36.0547 15.0249 36.1045 14.9751 36.168 14.9751Z" fill="#475CA4"/>
</g>
<g id="Group_4">
<g id="Group_5">
<g id="Group_6">
<path id="Vector_14" d="M35.7465 12.3043C35.7692 16.0684 32.7307 19.1377 28.9626 19.1581C25.1946 19.1807 22.1221 16.1454 22.1017 12.3812C22.079 8.6171 25.1175 5.54784 28.8856 5.52747C32.6537 5.50483 35.7261 8.54015 35.7465 12.3043Z" fill="#B4D8F9"/>
<path id="Vector_15" d="M34.002 12.2069C34.0178 15.0679 31.709 17.4016 28.8449 17.4174C25.9809 17.4333 23.6448 15.1268 23.629 12.2658C23.6131 9.40474 25.922 7.0711 28.786 7.05526C31.65 7.03941 33.9861 9.34589 34.002 12.2069Z" fill="#2957A4"/>
<path id="Vector_16" d="M34.1506 12.4219C34.1664 15.2444 31.8893 17.5464 29.0638 17.5622C26.2383 17.5781 23.9339 15.3033 23.9181 12.4807C23.9022 9.65821 26.1794 7.35626 29.0048 7.34041C31.8303 7.32457 34.1347 9.59936 34.1506 12.4219Z" fill="#FF725E"/>
<path id="Vector_17" d="M34.1506 12.4219C34.1664 15.2444 31.8893 17.5464 29.0638 17.5622C26.2383 17.5781 23.9339 15.3033 23.9181 12.4807C23.9022 9.65821 26.1794 7.35626 29.0048 7.34041C31.8303 7.32457 34.1347 9.59936 34.1506 12.4219Z" fill="#8CC2F2"/>
<path id="Vector_18" d="M29.2339 12.0055L29.2271 10.6972C29.2271 10.6972 29.2316 10.6972 29.2339 10.6972C29.4604 10.7221 29.6984 10.7809 29.9317 10.8737C30.1266 10.9733 30.258 11.0775 30.258 11.0775L30.2761 11.0367L30.4755 10.5637L30.5209 10.455L30.2852 10.2106L30.1742 10.2626C29.8864 10.1223 29.5601 10.0114 29.2248 9.99552L29.2203 9.27574L28.996 9.09692V9.278H28.6901L28.6946 10.0091C27.684 10.1132 27.2059 10.6927 27.2105 11.3513C27.215 12.2522 27.9899 12.4808 28.7105 12.6506L28.7173 13.9475C28.2233 13.9045 27.7361 13.7189 27.4167 13.4632L27.1289 14.1196C27.4688 14.4093 28.0851 14.613 28.7218 14.6492V15.1924L28.4725 15.1992L28.7263 15.369H29.2588L29.2543 14.6402C30.2716 14.5315 30.7542 13.9566 30.752 13.2957C30.7474 12.3948 29.9612 12.173 29.2407 12.001L29.2339 12.0055ZM28.7014 11.8719C28.3253 11.7633 28.0443 11.623 28.042 11.3129C28.042 11.0277 28.2346 10.7945 28.6946 10.7198L28.7014 11.8742V11.8719ZM29.2452 13.9362L29.2384 12.7886C29.6281 12.8973 29.9136 13.0444 29.9159 13.3613C29.9159 13.6397 29.7188 13.8615 29.2452 13.9362Z" fill="#2957A4"/>
<path id="Vector_19" d="M29.0277 14.4659L29.0322 15.1925H28.4998L28.4952 14.4772C27.8585 14.441 27.2422 14.2373 26.9023 13.9476L27.1901 13.2912C27.5096 13.5492 27.9967 13.7326 28.4907 13.7756L28.4839 12.4786C27.7634 12.3088 26.9907 12.078 26.9839 11.1794C26.9794 10.5184 27.4575 9.93898 28.468 9.83486L28.4635 9.10376H28.996L29.0005 9.81902C29.4809 9.84165 29.968 9.98199 30.3192 10.2061L30.0564 10.8625C29.712 10.6633 29.3472 10.5546 29.0028 10.5184L29.0096 11.8267C29.7301 11.9965 30.5163 12.2206 30.5231 13.1214C30.5277 13.7823 30.0428 14.355 29.0254 14.4659H29.0277ZM28.4794 11.6954L28.4726 10.5411C28.0126 10.6158 27.82 10.8489 27.82 11.1341C27.82 11.4442 28.101 11.5868 28.4794 11.6932V11.6954ZM29.6939 13.1848C29.6939 12.8679 29.4061 12.7208 29.0164 12.6121L29.0232 13.7597C29.4967 13.685 29.6961 13.4632 29.6939 13.1848Z" fill="white"/>
</g>
<g id="Group_7">
<path id="Vector_20" d="M47.4121 5.98235C47.4257 8.36804 45.502 10.3124 43.1138 10.3259C40.7256 10.3395 38.7793 8.41784 38.7657 6.03214C38.7521 3.64645 40.6758 1.70213 43.064 1.68855C45.4522 1.67497 47.3985 3.59665 47.4121 5.98235Z" fill="#B4D8F9"/>
<path id="Vector_21" d="M46.3076 5.92121C46.319 7.73425 44.8552 9.21229 43.0403 9.22361C41.2254 9.23493 39.7458 7.77273 39.7344 5.95969C39.7231 4.14665 41.1868 2.66861 43.0018 2.65729C44.8167 2.64597 46.2963 4.10817 46.3076 5.92121Z" fill="#2957A4"/>
<path id="Vector_22" d="M46.4006 6.05716C46.4119 7.8453 44.9686 9.30298 43.1786 9.31429C41.3886 9.32561 39.9294 7.88378 39.918 6.09338C39.9067 4.30524 41.35 2.84757 43.1423 2.83625C44.9323 2.82493 46.3915 4.26676 46.4029 6.05716H46.4006Z" fill="#FF725E"/>
<path id="Vector_23" d="M46.4006 6.05716C46.4119 7.8453 44.9686 9.30298 43.1786 9.31429C41.3886 9.32561 39.9294 7.88378 39.918 6.09338C39.9067 4.30524 41.35 2.84757 43.1423 2.83625C44.9323 2.82493 46.3915 4.26676 46.4029 6.05716H46.4006Z" fill="#8CC2F2"/>
<path id="Vector_24" d="M43.2844 5.79448L43.2799 4.96605C43.2799 4.96605 43.2822 4.96605 43.2844 4.96605C43.4294 4.98189 43.579 5.02037 43.7263 5.07922C43.8509 5.1426 43.9324 5.20824 43.9324 5.20824L43.9438 5.18334L44.0707 4.88456L44.1001 4.81666L43.9506 4.66275L43.8803 4.69443C43.6991 4.60389 43.4906 4.53599 43.2776 4.52467V4.06972L43.1326 3.95654V4.07198H42.9377V4.53599C42.2988 4.60163 41.9974 4.96831 41.9997 5.38705C42.002 5.95745 42.4936 6.10231 42.9491 6.21096L42.9536 7.0326C42.6409 7.00543 42.3328 6.88773 42.1288 6.72476L41.9453 7.14124C42.1606 7.32458 42.5503 7.4536 42.9536 7.47623V7.82028L42.795 7.82481L42.9559 7.93346H43.2935L43.2912 7.47171C43.937 7.40154 44.2429 7.03939 44.2406 6.62064C44.2383 6.05025 43.7399 5.90992 43.2822 5.80127L43.2844 5.79448ZM42.9468 5.71073C42.7089 5.64283 42.5299 5.55229 42.5299 5.35537C42.5299 5.17429 42.6523 5.02716 42.9423 4.97963L42.9468 5.71073ZM43.2912 7.01901L43.2867 6.29244C43.5337 6.36035 43.7149 6.45315 43.7172 6.6546C43.7172 6.83115 43.5926 6.97148 43.2912 7.01901Z" fill="#2957A4"/>
<path id="Vector_25" d="M43.1545 7.35407V7.81356H42.8192V7.3586C42.4136 7.33597 42.0216 7.20695 41.8086 7.02361L41.9921 6.60713C42.1938 6.7701 42.5042 6.8878 42.8169 6.91496L42.8124 6.09332C42.3547 5.98468 41.8652 5.83981 41.863 5.26942C41.8607 4.85068 42.1621 4.484 42.8033 4.41836V3.95435H43.1386V4.4093C43.4445 4.42288 43.7549 4.51342 43.977 4.65602L43.8116 5.0725C43.5941 4.94574 43.363 4.87784 43.1454 4.85521L43.15 5.68364C43.6077 5.79228 44.1039 5.93262 44.1084 6.50301C44.1107 6.92175 43.8048 7.28391 43.159 7.35407H43.1545ZM42.8078 5.59989L42.8033 4.86879C42.511 4.91632 42.3886 5.06345 42.3909 5.24452C42.3909 5.44144 42.5699 5.53198 42.8078 5.59989ZM43.5782 6.54375C43.5782 6.3423 43.3947 6.2495 43.1477 6.1816L43.1522 6.90817C43.4513 6.86064 43.5782 6.7203 43.5782 6.54375Z" fill="white"/>
</g>
</g>
<g id="Group_8">
<path id="Vector_26" d="M75.0504 48.0193H85.4551C85.9631 48.0193 86.375 47.6079 86.375 47.1003V36.3647C86.375 35.8572 85.9631 35.4457 85.4551 35.4457H75.0504C74.5423 35.4457 74.1304 35.8572 74.1304 36.3647V47.1003C74.1304 47.6079 74.5423 48.0193 75.0504 48.0193Z" fill="#9FCCFB"/>
<path id="Vector_27" d="M86.375 39.0652H74.1304V36.3626C74.1304 35.8556 74.5428 35.4436 75.0504 35.4436H85.4551C85.9626 35.4436 86.375 35.8556 86.375 36.3626V39.0652Z" fill="#F59630"/>
<path id="Vector_28" d="M83.0037 42.2046H84.6374C84.7363 42.2046 84.8164 42.1245 84.8164 42.0258V40.3938C84.8164 40.2951 84.7363 40.215 84.6374 40.215H83.0037C82.9049 40.215 82.8247 40.2951 82.8247 40.3938V42.0258C82.8247 42.1245 82.9049 42.2046 83.0037 42.2046Z" fill="#E4F1FF"/>
<path id="Vector_29" d="M80.6678 42.2046H82.3015C82.4003 42.2046 82.4805 42.1245 82.4805 42.0258V40.3938C82.4805 40.2951 82.4003 40.215 82.3015 40.215H80.6678C80.5689 40.215 80.4888 40.2951 80.4888 40.3938V42.0258C80.4888 42.1245 80.5689 42.2046 80.6678 42.2046Z" fill="white"/>
<path id="Vector_30" d="M77.3414 36.3852C77.1171 36.3852 76.9336 36.2018 76.9336 35.9777V34.5336C76.9336 34.3096 77.1171 34.1262 77.3414 34.1262C77.5658 34.1262 77.7493 34.3096 77.7493 34.5336V35.9777C77.7493 36.2018 77.5658 36.3852 77.3414 36.3852Z" fill="#F59630"/>
<path id="Vector_31" d="M79.4039 36.3874C79.1796 36.3874 78.9961 36.204 78.9961 35.9799V34.5358C78.9961 34.3118 79.1796 34.1284 79.4039 34.1284C79.6283 34.1284 79.8118 34.3118 79.8118 34.5358V35.9799C79.8118 36.204 79.6283 36.3874 79.4039 36.3874Z" fill="#F59630"/>
<path id="Vector_32" d="M81.3766 36.3874C81.1523 36.3874 80.9688 36.204 80.9688 35.9799V34.5358C80.9688 34.3118 81.1523 34.1284 81.3766 34.1284C81.6009 34.1284 81.7845 34.3118 81.7845 34.5358V35.9799C81.7845 36.204 81.6009 36.3874 81.3766 36.3874Z" fill="#F59630"/>
<path id="Vector_33" d="M78.3123 42.2046H79.946C80.0449 42.2046 80.125 42.1245 80.125 42.0258V40.3938C80.125 40.2951 80.0449 40.215 79.946 40.215H78.3123C78.2135 40.215 78.1333 40.2951 78.1333 40.3938V42.0258C78.1333 42.1245 78.2135 42.2046 78.3123 42.2046Z" fill="#E4F1FF"/>
<path id="Vector_34" d="M75.9764 42.2046H77.6101C77.7089 42.2046 77.7891 42.1245 77.7891 42.0258V40.3938C77.7891 40.2951 77.7089 40.215 77.6101 40.215H75.9764C75.8775 40.215 75.7974 40.2951 75.7974 40.3938V42.0258C75.7974 42.1245 75.8775 42.2046 75.9764 42.2046Z" fill="#E4F1FF"/>
<path id="Vector_35" d="M82.9881 44.4204H84.6218C84.7206 44.4204 84.8008 44.3404 84.8008 44.2416V42.6096C84.8008 42.5109 84.7206 42.4308 84.6218 42.4308H82.9881C82.8893 42.4308 82.8091 42.5109 82.8091 42.6096V44.2416C82.8091 44.3404 82.8893 44.4204 82.9881 44.4204Z" fill="#E4F1FF"/>
<path id="Vector_36" d="M80.6483 44.4204H82.2819C82.3808 44.4204 82.4609 44.3404 82.4609 44.2416V42.6096C82.4609 42.5109 82.3808 42.4308 82.2819 42.4308H80.6483C80.5494 42.4308 80.4693 42.5109 80.4693 42.6096V44.2416C80.4693 44.3404 80.5494 44.4204 80.6483 44.4204Z" fill="white"/>
<path id="Vector_37" d="M78.2967 44.4204H79.9304C80.0292 44.4204 80.1094 44.3404 80.1094 44.2416V42.6096C80.1094 42.5109 80.0292 42.4308 79.9304 42.4308H78.2967C78.1978 42.4308 78.1177 42.5109 78.1177 42.6096V44.2416C78.1177 44.3404 78.1978 44.4204 78.2967 44.4204Z" fill="#E4F1FF"/>
<path id="Vector_38" d="M75.9608 44.4204H77.5944C77.6933 44.4204 77.7734 44.3404 77.7734 44.2416V42.6096C77.7734 42.5109 77.6933 42.4308 77.5944 42.4308H75.9608C75.8619 42.4308 75.7818 42.5109 75.7818 42.6096V44.2416C75.7818 44.3404 75.8619 44.4204 75.9608 44.4204Z" fill="#E4F1FF"/>
<path id="Vector_39" d="M82.9686 46.6545H84.6022C84.7011 46.6545 84.7812 46.5745 84.7812 46.4757V44.8438C84.7812 44.745 84.7011 44.665 84.6022 44.665H82.9686C82.8697 44.665 82.7896 44.745 82.7896 44.8438V46.4757C82.7896 46.5745 82.8697 46.6545 82.9686 46.6545Z" fill="#E4F1FF"/>
<path id="Vector_40" d="M80.6326 46.6545H82.2663C82.3652 46.6545 82.4453 46.5745 82.4453 46.4757V44.8438C82.4453 44.745 82.3652 44.665 82.2663 44.665H80.6326C80.5338 44.665 80.4536 44.745 80.4536 44.8438V46.4757C80.4536 46.5745 80.5338 46.6545 80.6326 46.6545Z" fill="white"/>
<path id="Vector_41" d="M78.2811 46.6545H79.9148C80.0136 46.6545 80.0938 46.5745 80.0938 46.4757V44.8438C80.0938 44.745 80.0136 44.665 79.9148 44.665H78.2811C78.1822 44.665 78.1021 44.745 78.1021 44.8438V46.4757C78.1021 46.5745 78.1822 46.6545 78.2811 46.6545Z" fill="#E4F1FF"/>
<path id="Vector_42" d="M75.9451 46.6545H77.5788C77.6777 46.6545 77.7578 46.5745 77.7578 46.4757V44.8438C77.7578 44.745 77.6777 44.665 77.5788 44.665H75.9451C75.8463 44.665 75.7661 44.745 75.7661 44.8438V46.4757C75.7661 46.5745 75.8463 46.6545 75.9451 46.6545Z" fill="#E4F1FF"/>
<path id="Vector_43" d="M83.3493 36.3874C83.1249 36.3874 82.9414 36.204 82.9414 35.9799V34.5358C82.9414 34.3118 83.1249 34.1284 83.3493 34.1284C83.5736 34.1284 83.7571 34.3118 83.7571 34.5358V35.9799C83.7571 36.204 83.5736 36.3874 83.3493 36.3874Z" fill="#F59630"/>
</g>
<g id="Group_9">
<path id="Vector_44" opacity="0.35" d="M66.0179 26.5708H36.1701C35.2003 26.5708 34.4141 27.3562 34.4141 28.325V43.8411C34.4141 44.8098 35.2003 45.5952 36.1701 45.5952H66.0179C66.9877 45.5952 67.7739 44.8098 67.7739 43.8411V28.325C67.7739 27.3562 66.9877 26.5708 66.0179 26.5708Z" fill="#9FCCFB"/>
<g id="Group_10">
<path id="Vector_45" d="M35.3966 25.9619H65.2445C66.2143 25.9619 67.0005 26.7473 67.0005 27.7161V43.2322C67.0005 44.2009 66.2143 44.9864 65.2445 44.9864H35.3966C34.4269 44.9864 33.6406 44.2009 33.6406 43.2322V27.7161C33.6406 26.7473 34.4269 25.9619 35.3966 25.9619Z" fill="#9FCCFB"/>
<path id="Vector_46" d="M67.0005 27.7161C67.0005 26.7473 66.2143 25.9619 65.2445 25.9619H35.3966C34.4269 25.9619 33.6406 26.7473 33.6406 27.7161V27.99C37.2931 28.1552 44.3739 29.3526 49.3134 35.6858C54.9984 42.9764 62.6365 42.2634 67.0005 40.4821V27.7161Z" fill="#F59630"/>
<path id="Vector_47" d="M41.2181 33.0557H37.0512C36.6821 33.0557 36.3828 33.3546 36.3828 33.7234V35.9031C36.3828 36.2719 36.6821 36.5708 37.0512 36.5708H41.2181C41.5873 36.5708 41.8865 36.2719 41.8865 35.9031V33.7234C41.8865 33.3546 41.5873 33.0557 41.2181 33.0557Z" fill="white"/>
<path id="Vector_48" d="M64.7088 27.6482H58.6749C58.5222 27.6482 58.3984 27.7718 58.3984 27.9243V29.0855C58.3984 29.238 58.5222 29.3616 58.6749 29.3616H64.7088C64.8614 29.3616 64.9852 29.238 64.9852 29.0855V27.9243C64.9852 27.7718 64.8614 27.6482 64.7088 27.6482Z" fill="#475CA4"/>
<path id="Vector_49" d="M41.932 39.5405H36.7682C36.4464 39.5405 36.1836 39.2802 36.1836 38.9565C36.1836 38.6351 36.4442 38.3726 36.7682 38.3726H41.932C42.2538 38.3726 42.5166 38.6329 42.5166 38.9565C42.5166 39.2779 42.256 39.5405 41.932 39.5405Z" fill="white"/>
<path id="Vector_50" d="M49.2406 39.5405H44.0768C43.755 39.5405 43.4922 39.2802 43.4922 38.9565C43.4922 38.6351 43.7528 38.3726 44.0768 38.3726H49.2406C49.5624 38.3726 49.8252 38.6329 49.8252 38.9565C49.8252 39.2779 49.5646 39.5405 49.2406 39.5405Z" fill="white"/>
<path id="Vector_51" d="M56.6078 39.5405H51.444C51.1222 39.5405 50.8594 39.2802 50.8594 38.9565C50.8594 38.6351 51.1199 38.3726 51.444 38.3726H56.6078C56.9295 38.3726 57.1924 38.6329 57.1924 38.9565C57.1924 39.2779 56.9318 39.5405 56.6078 39.5405Z" fill="white"/>
<path id="Vector_52" d="M63.9164 39.5405H58.7526C58.4308 39.5405 58.168 39.2802 58.168 38.9565C58.168 38.6351 58.4285 38.3726 58.7526 38.3726H63.9164C64.2381 38.3726 64.501 38.6329 64.501 38.9565C64.501 39.2779 64.2404 39.5405 63.9164 39.5405Z" fill="white"/>
<path id="Vector_53" d="M43.5639 43.4766H36.8479C36.6508 43.4766 36.4922 43.3182 36.4922 43.1212C36.4922 42.9243 36.6508 42.7659 36.8479 42.7659H43.5639C43.761 42.7659 43.9196 42.9243 43.9196 43.1212C43.9196 43.3182 43.761 43.4766 43.5639 43.4766Z" fill="#475CA4"/>
<path id="Vector_54" d="M63.8972 43.4766H60.5823C60.3852 43.4766 60.2266 43.3182 60.2266 43.1212C60.2266 42.9243 60.3852 42.7659 60.5823 42.7659H63.8972C64.0943 42.7659 64.253 42.9243 64.253 43.1212C64.253 43.3182 64.0943 43.4766 63.8972 43.4766Z" fill="#475CA4"/>
<g id="Clip path group">
<mask id="mask0_1850_38266" style="mask-type:luminance" maskUnits="userSpaceOnUse" x="36" y="33" width="6" height="4">
<g id="clippath">
<path id="Vector_55" d="M41.2181 33.0557H37.0512C36.6821 33.0557 36.3828 33.3546 36.3828 33.7234V35.9031C36.3828 36.2719 36.6821 36.5708 37.0512 36.5708H41.2181C41.5873 36.5708 41.8865 36.2719 41.8865 35.9031V33.7234C41.8865 33.3546 41.5873 33.0557 41.2181 33.0557Z" fill="white"/>
</g>
</mask>
<g mask="url(#mask0_1850_38266)">
<g id="Group_11">
<path id="Vector_56" d="M37.386 32.9946C37.8732 33.6193 38.6458 35.0408 37.3203 36.6614" stroke="#F59630" stroke-width="0.5" stroke-miterlimit="10" stroke-linecap="round"/>
<path id="Vector_57" d="M36.0273 34.7805H38.0462" stroke="#F59630" stroke-width="0.5" stroke-miterlimit="10"/>
<path id="Vector_58" d="M40.7295 32.9946C40.2423 33.6193 39.4697 35.0408 40.7952 36.6614" stroke="#F59630" stroke-width="0.5" stroke-miterlimit="10" stroke-linecap="round"/>
<path id="Vector_59" d="M42.0892 34.7805H40.0703" stroke="#F59630" stroke-width="0.5" stroke-miterlimit="10"/>
</g>
</g>
</g>
</g>
</g>
<g id="Group_12">
<g id="Group_13">
<path id="Vector_60" d="M70.7331 13.5877C69.2376 12.0214 69.1289 11.4759 71.4627 9.18077C73.7965 6.88561 73.4317 3.71676 73.4317 3.71676L68.9476 3.63075V3.62622H68.8185H68.6893V3.63075L64.2052 3.71676C64.2052 3.71676 63.8404 6.88561 66.1742 9.18077C68.508 11.4759 68.3993 12.0214 66.9038 13.5877C65.4084 15.1541 63.3669 16.6842 63.4394 19.561H74.1953C74.2678 16.6842 72.2263 15.1541 70.7308 13.5877H70.7331Z" fill="white"/>
<path id="Vector_61" d="M74.2893 20.3419H63.3566C63.0235 20.3419 62.7539 20.0725 62.7539 19.7398C62.7539 19.407 63.0235 19.1377 63.3566 19.1377H74.2893C74.6223 19.1377 74.892 19.407 74.892 19.7398C74.892 20.0725 74.6223 20.3419 74.2893 20.3419Z" fill="#F59630"/>
<path id="Vector_62" d="M74.2893 4.20783H63.3566C63.0235 4.20783 62.7539 3.93847 62.7539 3.60574C62.7539 3.27301 63.0235 3.00366 63.3566 3.00366H74.2893C74.6223 3.00366 74.892 3.27301 74.892 3.60574C74.892 3.93847 74.6223 4.20783 74.2893 4.20783Z" fill="#F59630"/>
</g>
<path id="Vector_63" d="M66.7433 8.35449H70.9872C71.13 8.35449 71.207 8.51293 71.1164 8.61705L69.1882 10.7922C69.1632 10.8217 69.1496 10.8579 69.1496 10.8941V17.4717C69.1496 17.56 69.2244 17.6302 69.3173 17.6302H72.9245C72.997 17.6302 73.0627 17.6755 73.0854 17.7411L73.3278 18.4654C73.3618 18.5673 73.2803 18.6736 73.167 18.6736H64.4888C64.3778 18.6736 64.2985 18.574 64.3257 18.4745L64.5273 17.7456C64.5477 17.6755 64.6135 17.6279 64.6905 17.6257L68.4155 17.6121C68.5084 17.6121 68.5832 17.5396 68.5832 17.4536V10.9281C68.5832 10.8918 68.5696 10.8556 68.5447 10.8262L66.6187 8.61479C66.5281 8.51067 66.6074 8.35449 66.7479 8.35449H66.7433Z" fill="#9FCCFB"/>
</g>
<g id="Group_14">
<g id="&#38;lt;Group&#38;gt;">
<path id="&#38;lt;Path&#38;gt;" d="M67.8125 65.2083C67.8125 65.2083 67.851 60.2287 70.9326 59.871C74.0141 59.5134 75.0768 60.4279 75.4982 60.5976C75.9196 60.7674 74.8094 60.9937 73.8691 61.9127C72.9287 62.8317 72.9378 63.977 70.8193 64.3504C68.7007 64.7239 67.9099 66.2857 67.9099 66.2857L67.8125 65.2083Z" fill="#F59630"/>
<path id="&#38;lt;Path&#38;gt;_2" d="M67.9102 66.2856C67.9102 66.2856 68.8981 61.177 73.6744 60.9688" stroke="#F59630" stroke-width="0.5" stroke-miterlimit="10" stroke-linecap="round"/>
</g>
<g id="&#38;lt;Group&#38;gt;_2">
<path id="&#38;lt;Path&#38;gt;_3" d="M68.0635 63.4383C68.0635 63.4383 68.5257 59.1445 65.9064 58.5311C63.2871 57.9177 62.2811 58.6013 61.9004 58.7054C61.5197 58.8095 62.4555 59.1151 63.1738 60.0001C63.8921 60.8851 63.7697 61.8697 65.5597 62.4039C67.3475 62.9358 67.8731 64.3596 67.8731 64.3596L68.0657 63.4406L68.0635 63.4383Z" fill="#F59630"/>
<path id="&#38;lt;Path&#38;gt;_4" d="M67.8724 64.3572C67.8724 64.3572 67.528 59.8574 63.4336 59.2056" stroke="#F59630" stroke-width="0.5" stroke-miterlimit="10" stroke-linecap="round"/>
</g>
<path id="Vector_64" d="M68.3509 53.6284C68.3509 53.6284 68.3554 53.6443 68.3622 53.6782C68.369 53.7144 68.3781 53.762 68.3894 53.8253C68.4007 53.891 68.4143 53.9702 68.4302 54.063C68.4415 54.1581 68.4551 54.269 68.471 54.3912C68.5254 54.8846 68.5662 55.6044 68.5163 56.494C68.4733 57.3812 68.3418 58.4315 68.1946 59.5949C68.045 60.7583 67.9159 62.0417 67.8955 63.393C67.8343 66.1001 68.1651 68.5424 68.5208 70.2785C68.693 71.1477 68.8788 71.8425 69.0035 72.3224C69.0692 72.5578 69.1213 72.7434 69.1575 72.8724C69.1734 72.9335 69.187 72.9811 69.1961 73.015C69.2051 73.0467 69.2074 73.0648 69.2074 73.0648C69.2074 73.0648 68.8403 72.0259 68.4733 70.2875C68.1062 68.5515 67.7663 66.1047 67.8275 63.3908C67.8479 62.0349 67.9793 60.747 68.1334 59.5859C68.2852 58.4224 68.4234 57.3745 68.471 56.4894C68.5276 55.6044 68.4936 54.8869 68.4483 54.3935C68.4347 54.2712 68.4257 54.1603 68.4143 54.0653C68.4007 53.9725 68.3894 53.8932 68.3804 53.8253C68.3713 53.7642 68.3668 53.7144 68.36 53.6782C68.3554 53.6443 68.3554 53.6284 68.3554 53.6284H68.3509Z" fill="#475CA4"/>
<path id="Vector_65" d="M71.2624 67.3132H65.3576C65.2162 67.3132 65.1016 67.4277 65.1016 67.569V68.2775C65.1016 68.4187 65.2162 68.5332 65.3576 68.5332H71.2624C71.4038 68.5332 71.5184 68.4187 71.5184 68.2775V67.569C71.5184 67.4277 71.4038 67.3132 71.2624 67.3132Z" fill="#2957A4"/>
<path id="Vector_66" d="M69.9403 73.6873H66.8973C66.6526 73.6873 66.4419 73.5107 66.3988 73.2685L65.5469 68.3364H71.071L70.4388 73.2481C70.4071 73.4994 70.1918 73.6873 69.9381 73.6873H69.9403Z" fill="#2957A4"/>
<g id="&#38;lt;Group&#38;gt;_3">
<path id="&#38;lt;Path&#38;gt;_5" d="M68.2782 58.2028C68.2782 58.2028 68.6974 54.9412 70.7457 54.9502C72.794 54.9593 73.4171 55.6428 73.68 55.7854C73.9428 55.928 73.1973 55.9914 72.5085 56.5188C71.8197 57.0462 71.7359 57.7977 70.3175 57.8769C68.899 57.9561 68.2578 58.9158 68.2578 58.9158L68.2782 58.2006V58.2028Z" fill="#F59630"/>
<path id="&#38;lt;Path&#38;gt;_6" d="M68.2578 58.9159C68.2578 58.9159 69.3092 55.6452 72.4564 55.8851" stroke="#F59630" stroke-width="0.5" stroke-miterlimit="10" stroke-linecap="round"/>
</g>
<g id="&#38;lt;Group&#38;gt;_4">
<path id="&#38;lt;Path&#38;gt;_7" d="M68.6838 55.738C68.6838 55.738 69.4451 52.5397 67.5237 51.8267C65.6045 51.1137 64.7798 51.5324 64.4829 51.5754C64.1861 51.6184 64.8636 51.9376 65.3213 52.6755C65.779 53.4134 65.5932 54.1445 66.8915 54.7194C68.1921 55.2921 68.4504 56.417 68.4504 56.417L68.6838 55.7402V55.738Z" fill="#F59630"/>
<path id="&#38;lt;Path&#38;gt;_8" d="M68.4493 56.4148C68.4493 56.4148 68.6215 52.9834 65.5898 52.0984" stroke="#F59630" stroke-width="0.5" stroke-miterlimit="10" stroke-linecap="round"/>
</g>
</g>
<g id="Group_15">
<path id="Vector_67" d="M19.3359 20.4006C19.3359 19.9819 18.9961 19.6423 18.5769 19.6423H7.37234C6.95316 19.6423 6.61328 19.9819 6.61328 20.4006V26.4486C6.61328 26.8673 6.95316 27.2068 7.37234 27.2068H16.6079L17.478 28.3906C17.7476 28.7596 18.2166 28.7256 18.4319 28.3205L19.1841 26.9035C19.2816 26.7768 19.3405 26.6206 19.3405 26.4486V20.4006H19.3359Z" fill="#F59630"/>
<path id="Vector_68" d="M17.2092 22.3518H8.63307C8.49938 22.3518 8.39062 22.2432 8.39062 22.1096C8.39062 21.9761 8.49938 21.8674 8.63307 21.8674H17.2092C17.3429 21.8674 17.4517 21.9761 17.4517 22.1096C17.4517 22.2432 17.3429 22.3518 17.2092 22.3518Z" fill="white"/>
<path id="Vector_69" d="M14.6013 23.4856H8.63307C8.49938 23.4856 8.39062 23.377 8.39062 23.2434C8.39062 23.1099 8.49938 23.0012 8.63307 23.0012H14.6013C14.735 23.0012 14.8437 23.1099 14.8437 23.2434C14.8437 23.377 14.735 23.4856 14.6013 23.4856Z" fill="white"/>
<path id="Vector_70" d="M16.0514 24.6445H8.63307C8.49938 24.6445 8.39062 24.5359 8.39062 24.4023C8.39062 24.2688 8.49938 24.1602 8.63307 24.1602H16.0514C16.1851 24.1602 16.2939 24.2688 16.2939 24.4023C16.2939 24.5359 16.1851 24.6445 16.0514 24.6445Z" fill="white"/>
</g>
<g id="Group_16">
<g id="Group_17" opacity="0.35">
<path id="Vector_71" d="M50.5806 59.4702C50.601 63.1664 47.6191 66.1814 43.9167 66.204C40.2166 66.2244 37.1985 63.2457 37.1759 59.5471C37.1555 55.8486 40.1373 52.836 43.8397 52.8133C47.5398 52.793 50.5579 55.7717 50.5806 59.4702Z" fill="#9FCCFB"/>
</g>
<g id="Group_18">
<path id="Vector_72" d="M50.074 59.4136C50.2807 55.684 47.4218 52.4932 43.6884 52.2867C39.955 52.0801 36.7608 54.936 36.5541 58.6656C36.3473 62.3951 39.2062 65.5859 42.9396 65.7925C46.6731 65.999 49.8672 63.1431 50.074 59.4136Z" fill="#B4D8F9"/>
<path id="Vector_73" d="M48.354 58.9023C48.3699 61.7406 46.0791 64.0562 43.2377 64.072C40.3964 64.0879 38.0784 61.7995 38.0626 58.9611C38.0467 56.1227 40.3375 53.8072 43.1788 53.7913C46.0202 53.7755 48.3381 56.0639 48.354 58.9023Z" fill="#2957A4"/>
<path id="Vector_74" d="M48.4993 59.1173C48.5152 61.9172 46.2561 64.2011 43.451 64.2192C40.6459 64.235 38.362 61.9783 38.3438 59.1762C38.328 56.3763 40.587 54.0924 43.3921 54.0743C46.1949 54.0585 48.4812 56.3151 48.497 59.1173H48.4993Z" fill="#FF725E"/>
<path id="Vector_75" d="M48.4993 59.1173C48.5152 61.9172 46.2561 64.2011 43.451 64.2192C40.6459 64.235 38.362 61.9783 38.3438 59.1762C38.328 56.3763 40.587 54.0924 43.3921 54.0743C46.1949 54.0585 48.4812 56.3151 48.497 59.1173H48.4993Z" fill="#8CC2F2"/>
<path id="Vector_76" d="M43.621 58.7053L43.6142 57.4084C43.6142 57.4084 43.6187 57.4084 43.621 57.4084C43.8476 57.4333 44.0809 57.4921 44.3121 57.5849C44.5047 57.6845 44.6361 57.7864 44.6361 57.7864L44.6519 57.7456L44.8491 57.2771L44.8944 57.1684L44.661 56.9262L44.55 56.976C44.2645 56.8357 43.9405 56.727 43.6074 56.7089L43.6028 55.996L43.3785 55.8171V55.996H43.0749L43.0794 56.7225C42.0757 56.8244 41.6021 57.3993 41.6066 58.0557C41.6112 58.9498 42.3793 59.1761 43.0953 59.3459L43.1021 60.6315C42.6127 60.5885 42.1301 60.4052 41.8128 60.1494L41.5273 60.8013C41.8627 61.0888 42.4767 61.2902 43.1066 61.3264V61.8651L42.8597 61.8719L43.1112 62.0417H43.6391L43.6346 61.3196C44.6451 61.211 45.1232 60.6428 45.121 59.9864C45.1164 59.0924 44.337 58.8728 43.621 58.7031V58.7053ZM43.093 58.574C42.7192 58.4677 42.4405 58.3273 42.4405 58.0195C42.4405 57.7366 42.6308 57.5034 43.0862 57.431L43.093 58.5763V58.574ZM43.6323 60.6225L43.6255 59.484C44.013 59.5903 44.2962 59.7375 44.2985 60.0521C44.2985 60.3282 44.1013 60.5478 43.6323 60.6225Z" fill="#2957A4"/>
<path id="Vector_77" d="M43.4197 61.1454L43.4243 61.8652H42.8963L42.8918 61.1544C42.2619 61.1205 41.6478 60.9168 41.3125 60.6293L41.598 59.9774C41.9152 60.2332 42.3978 60.4165 42.8873 60.4596L42.8805 59.1739C42.1645 59.0041 41.3986 58.7778 41.3918 57.8837C41.3873 57.2273 41.8608 56.6524 42.8646 56.5505L42.8601 55.824H43.388L43.3925 56.5347C43.8684 56.5573 44.3532 56.6954 44.7022 56.9195L44.4416 57.5714C44.0995 57.3745 43.7392 57.2658 43.3971 57.2296L43.4039 58.5288C44.1199 58.6986 44.8993 58.9181 44.9038 59.8122C44.9084 60.4686 44.428 61.0367 43.4175 61.1454H43.4197ZM42.8759 58.3975L42.8691 57.2522C42.4137 57.3247 42.2211 57.5578 42.2234 57.8407C42.2234 58.1486 42.5021 58.2889 42.8759 58.3953V58.3975ZM44.0813 59.8756C44.0813 59.561 43.7959 59.4138 43.4084 59.3074L43.4152 60.446C43.8842 60.3735 44.0836 60.1517 44.0813 59.8756Z" fill="white"/>
</g>
<g id="Group_19">
<path id="Vector_78" d="M48.445 56.9397C49.968 56.9397 51.2025 55.7064 51.2025 54.1851C51.2025 52.6637 49.968 51.4304 48.445 51.4304C46.9221 51.4304 45.6875 52.6637 45.6875 54.1851C45.6875 55.7064 46.9221 56.9397 48.445 56.9397Z" fill="#E4F1FF"/>
<path id="Vector_79" d="M47.5156 54.1261L47.885 54.9545C47.9235 55.0383 48.0345 55.0564 48.0957 54.9885L49.4778 53.4878" stroke="#F59630" stroke-width="1.52" stroke-miterlimit="10" stroke-linecap="round"/>
<path id="Vector_80" d="M48.4347 56.4598C49.6973 56.4598 50.7209 55.4373 50.7209 54.1759C50.7209 52.9146 49.6973 51.8921 48.4347 51.8921C47.172 51.8921 46.1484 52.9146 46.1484 54.1759C46.1484 55.4373 47.172 56.4598 48.4347 56.4598Z" stroke="white" stroke-width="0.5" stroke-miterlimit="10"/>
</g>
</g>
</g>
<g id="Group_20">
<path id="Vector_81" d="M12.006 33.0376C12.006 33.0376 12.8421 30.7266 16.3655 31.727C18.7152 32.3947 20.0815 34.2553 19.9251 36.9918C19.762 39.8823 21.5905 38.995 20.5256 43.1711C19.805 45.9959 23.2264 48.3228 20.1154 52.7569C17.5958 56.349 3.34827 54.2802 3.49329 48.0828C3.56126 45.1562 6.0061 46.5256 6.15337 41.8062C6.21682 39.8031 10.037 40.4708 9.52267 37.4332C9.26663 35.919 10.4789 32.8474 12.006 33.0398V33.0376Z" fill="black"/>
<path id="Vector_82" d="M16.3242 42.0303C16.3242 42.0303 17.294 42.6233 17.0516 43.9203C16.8114 45.2172 16.7049 46.4395 17.8129 47.3856" stroke="#515151" stroke-width="0.5" stroke-miterlimit="10" stroke-linecap="round"/>
<path id="Vector_83" d="M18.9142 39.0154C19.1521 40.0566 19.603 40.7537 18.9799 42.1684C17.668 45.1539 20.2896 45.7764 19.032 48.5106C18.5811 49.4907 18.3976 50.3372 18.3047 51.0751" stroke="#515151" stroke-width="0.5" stroke-miterlimit="10" stroke-linecap="round"/>
<path id="Vector_84" d="M19.4727 53.7867H23.9726L22.5927 52.2815L19.6426 52.7274L19.4727 53.7867Z" fill="#F7C2A0"/>
<path id="Vector_85" d="M11.2976 40.6926C11.2976 40.6926 10.0084 41.4079 10.1806 42.7614C10.414 44.5903 8.59223 44.8755 9.0454 46.0186" stroke="#515151" stroke-width="0.5" stroke-miterlimit="10" stroke-linecap="round"/>
<path id="Vector_86" d="M10.7179 35.8059C10.7179 35.8059 10.1968 36.9444 10.3327 38.092C10.6114 40.4438 7.4166 40.4935 7.39167 42.8679C7.37581 44.3505 6.13867 45.2581 5.33203 46.1183" stroke="#515151" stroke-width="0.5" stroke-miterlimit="10" stroke-linecap="round"/>
<path id="&#38;lt;Path&#38;gt;_9" d="M32.6894 80.7537L32.6781 83.4947L30.1471 83.5151L29.7461 81.2811L32.6894 80.7537Z" fill="#E8977B"/>
<path id="&#38;lt;Path&#38;gt;_10" d="M25.1186 81.6138L24.8694 84.6038L22.1322 84.8528L21.6836 82.6029L25.1186 81.6138Z" fill="#E8977B"/>
<path id="Vector_87" d="M13.818 61.3695C16.7296 62.9313 22.7885 66.0231 26.2258 66.6456C26.509 66.6977 26.7288 66.9172 26.7696 67.2002L28.8632 81.4487C28.9017 81.7044 29.0807 81.9127 29.3299 81.9874C30.1252 82.2228 31.9289 82.5238 33.3246 81.0322C33.4515 80.8964 33.5195 80.7153 33.5081 80.5274C33.3631 78.4247 32.4047 64.8416 31.7136 63.058C31.0112 61.245 21.1888 59.3369 19.9924 59.1105C19.9131 59.0947 19.8338 59.0947 19.7545 59.1105L14.0152 60.1313C13.3966 60.2423 13.2652 61.0684 13.818 61.3649V61.3695Z" fill="#2957A4"/>
<path id="Vector_88" d="M9.60222 62.286C9.61581 62.2905 7.24802 66.745 19.1051 67.7907C19.3657 67.8134 19.5606 68.0442 19.5877 68.3045L21.0605 82.6798C21.0832 82.9084 21.2373 83.0986 21.4548 83.1733C22.1957 83.4222 23.9653 83.7957 25.556 82.4263C25.6964 82.3064 25.7803 82.1321 25.7735 81.9465C25.7146 79.846 25.318 66.2267 24.7017 64.4159C24.1081 62.6753 15.3778 60.5137 13.4224 60.0519C13.189 59.9976 12.9466 60.0904 12.8106 60.2873L9.60222 62.286Z" fill="#2957A4"/>
<path id="Vector_89" d="M9.05252 44.0358C12.7526 42.9357 17.2367 43.8909 17.9731 44.1105C18.8115 44.3617 19.8606 45.3667 20.9912 47.6279L22.1241 49.8891L19.8606 50.5591V59.1874C17.8394 60.9031 15.4082 62.0666 12.8025 62.5623L9.7436 63.1078C9.44678 63.1598 9.17715 62.9267 9.18847 62.6256L9.53968 51.6478L5.69682 51.8493C5.69682 51.8493 5.51782 45.0838 9.05479 44.0312L9.05252 44.0358Z" fill="#FFFEFC"/>
<path id="Vector_90" d="M16.7049 52.0078L9.80542 53.9023L9.53579 51.6501L6.32963 51.795C6.32963 51.795 5.60683 57.3609 7.51466 57.4808C10.4013 57.6619 17.8446 54.0087 17.8446 54.0087L16.7071 52.0078H16.7049Z" fill="#F7C2A0"/>
<path id="Vector_91" d="M15.5986 34.6537C15.986 34.4975 16.5457 34.622 16.8312 34.9185C17.6129 35.7288 18.5895 37.1435 18.2587 38.9497C17.8757 41.0389 17.3795 42.3404 16.2262 42.3178C15.8523 42.311 15.6892 42.6075 15.6779 42.9583L15.6076 44.0516C15.2678 45.962 12.4695 46.2381 11.6696 44.4409L11.5382 44.1466C11.443 43.9316 11.4453 43.6849 11.5473 43.4721C11.8849 42.7659 12.7051 41.564 11.7852 38.8999C11.7217 38.7166 11.4408 38.0941 11.6198 37.655C11.7716 37.2816 12.2587 37.225 12.5692 37.4853C12.6371 37.5419 12.73 37.5532 12.9022 37.4332C13.5027 37.0167 13.5548 35.4798 15.5986 34.6559V34.6537Z" fill="#F7C2A0"/>
<path id="Vector_92" d="M15.8474 34.5994C15.8474 34.5994 15.8791 35.3034 17.055 35.91C18.4916 36.6501 17.6079 37.5351 18.2718 38.5831C18.9719 39.6854 18.3647 37.5849 18.3647 37.5849L18.1608 35.1879C17.7552 33.6329 17.1593 32.6166 15.6661 32.929C14.864 33.0965 14.0913 33.3975 13.6744 33.934C12.58 35.3486 12.3398 38.5741 12.3398 38.5741C12.3398 38.5741 13.543 38.599 14.1774 37.087C14.8934 35.3781 14.8096 35.1042 15.8474 34.6017V34.5994Z" fill="black"/>
<path id="Vector_93" d="M22.6719 47.1729H19.9235C19.6982 47.1729 19.5156 47.3553 19.5156 47.5803V53.5332C19.5156 53.7582 19.6982 53.9406 19.9235 53.9406H22.6719C22.8972 53.9406 23.0798 53.7582 23.0798 53.5332V47.5803C23.0798 47.3553 22.8972 47.1729 22.6719 47.1729Z" fill="#475CA4"/>
<g id="Group_21">
<path id="Vector_94" d="M25.042 51.7066C24.2965 50.6677 23.2565 48.7143 22.9008 48.6735C22.7104 48.6532 22.6493 48.8184 22.7331 49.2145C22.9823 50.387 23.3879 50.6156 22.289 50.4277C22.1304 50.4006 21.3238 50.2444 20.8819 50.1584C20.5579 50.095 20.2724 50.4187 20.4038 50.722C20.4401 50.8035 20.499 50.894 20.5874 50.9913C20.5874 50.9913 20.3268 51.7224 21.0224 51.9035C21.0224 51.9035 21.104 52.7319 21.6274 52.7704C21.6274 52.7704 22.1848 53.1167 23.3539 53.5989C23.8864 53.9542 24.6024 53.8501 25.0103 53.3567L25.0986 53.248C25.4748 52.7953 25.4476 52.1321 25.0375 51.7089L25.042 51.7066Z" fill="#F7C2A0"/>
<path id="Vector_95" d="M20.7109 50.9958C21.0961 51.1158 21.6875 51.2969 22.0546 51.281" stroke="#F59630" stroke-width="0.5" stroke-miterlimit="10" stroke-linecap="round"/>
<path id="Vector_96" d="M21.1172 51.9148C21.1172 51.9148 21.7969 52.1751 22.2818 52.1389" stroke="#F59630" stroke-width="0.5" stroke-miterlimit="10" stroke-linecap="round"/>
</g>
<path id="Vector_97" d="M16.707 52.0078L17.5454 51.4012C18.1504 50.1993 19.2629 48.0218 19.4646 48.1259C19.6866 48.2414 19.7455 48.4858 19.596 48.9611C19.2357 50.1042 19.4124 50.6655 20.0627 50.6157C20.287 50.5999 22.2062 50.5886 22.2062 50.5886C22.2062 50.5886 22.6662 50.9983 22.0544 51.4645C22.0544 51.4645 22.1836 52.2296 21.4675 52.2862C21.4675 52.2862 21.2432 53.0897 20.7221 53.0354C20.7221 53.0354 20.1148 53.2798 18.8777 53.5537L17.8445 54.0087L16.707 52.0078Z" fill="#F7C2A0"/>
<path id="Vector_98" d="M21.9317 51.4531C21.5306 51.5052 20.9189 51.5799 20.5586 51.5007" stroke="#F59630" stroke-width="0.5" stroke-miterlimit="10" stroke-linecap="round"/>
<path id="Vector_99" d="M21.3725 52.2861C21.3725 52.2861 20.6565 52.4242 20.1875 52.3042" stroke="#F59630" stroke-width="0.5" stroke-miterlimit="10" stroke-linecap="round"/>
<path id="Vector_100" d="M19.4619 48.1282C19.6839 48.2436 19.7428 48.4881 19.5933 48.9634C19.233 50.1064 19.4097 50.6678 20.06 50.618C20.2843 50.6021 22.2035 50.5908 22.2035 50.5908C22.2035 50.5908 22.6635 51.0005 22.0517 51.4668C22.0517 51.4668 22.1809 52.2318 21.4648 52.2884C21.4648 52.2884 21.2405 53.092 20.7194 53.0376C20.7194 53.0376 20.1121 53.2821 18.875 53.556" stroke="#F59630" stroke-width="0.5" stroke-miterlimit="10" stroke-linecap="round"/>
<path id="Vector_101" d="M21.6289 52.7659C21.9008 52.8994 22.9046 53.4087 23.3555 53.5943" stroke="#F59630" stroke-width="0.5" stroke-miterlimit="10" stroke-linecap="round"/>
<path id="Vector_102" d="M32.9302 83.0217C32.9302 83.0217 32.119 83.6781 29.8328 83.3273C29.8328 83.3273 29.6719 84.7578 29.0488 85.5048C28.4257 86.2517 30.2293 87.1548 31.5842 86.7361C32.9369 86.3173 33.9475 87.3133 35.2866 87.1526C36.6235 86.9896 38.5539 85.5364 37.8379 85.1019C37.1219 84.6673 34.5797 84.6854 33.9475 83.6917C33.5736 83.1055 32.9302 83.024 32.9302 83.024V83.0217Z" fill="#475CA4"/>
<path id="Vector_103" d="M34.6367 86.5956C35.8625 86.96 37.2311 85.5386 37.2311 85.5386" stroke="white" stroke-width="0.5" stroke-miterlimit="10" stroke-linecap="round"/>
<path id="Vector_104" d="M29.6055 85.7424C29.6055 85.7424 30.0926 86.3219 31.2097 86.2087C32.329 86.0933 33.4075 86.2336 34.6334 86.5958" stroke="white" stroke-width="0.5" stroke-miterlimit="10" stroke-linecap="round"/>
<path id="Vector_105" d="M25.1815 84.0583C25.1815 84.0583 23.9081 84.9637 21.6445 84.4861C21.6445 84.4861 21.6762 85.8465 21.0123 86.5572C20.3484 87.2679 22.0999 88.2707 23.4753 87.9266C24.8506 87.5848 25.8046 88.6351 27.1482 88.5491C28.4941 88.4608 30.5016 87.1186 29.8106 86.6455C29.1195 86.1724 26.3302 85.8555 25.7524 84.8302C25.4126 84.2258 25.1815 84.0583 25.1815 84.0583Z" fill="#475CA4"/>
<path id="Vector_106" d="M26.5273 87.9583C27.7305 88.3906 29.1784 87.0483 29.1784 87.0483" stroke="white" stroke-width="0.5" stroke-miterlimit="10" stroke-linecap="round"/>
<path id="Vector_107" d="M21.5508 86.8267C21.5508 86.8267 22.0039 87.4333 23.1278 87.3812C24.2517 87.3291 25.3211 87.5283 26.5243 87.9607" stroke="white" stroke-width="0.5" stroke-miterlimit="10" stroke-linecap="round"/>
<path id="Vector_108" d="M25.0788 67.1162C24.9655 65.8034 24.8386 64.8188 24.7027 64.4159C24.3628 63.4177 21.3447 62.2815 18.4648 61.4055" stroke="white" stroke-width="0.5" stroke-miterlimit="10" stroke-linecap="round"/>
<path id="Vector_109" d="M24.9975 74.1986C24.9092 72.1411 24.8027 69.975 24.6758 68.1506" stroke="white" stroke-width="0.5" stroke-miterlimit="10" stroke-linecap="round"/>
<path id="Vector_110" d="M22.6094 82.8881C23.3571 82.8496 24.2181 82.6075 25.0338 81.9035C25.1743 81.7836 25.2581 81.6093 25.2513 81.4237C25.2332 80.7469 25.1788 78.8705 25.0927 76.5798" stroke="white" stroke-width="0.5" stroke-miterlimit="10" stroke-linecap="round"/>
<path id="Vector_111" d="M21.7539 64.3276C21.7539 64.3276 21.8287 66.2176 24.0175 66.8854" stroke="white" stroke-width="0.5" stroke-miterlimit="10"/>
<path id="Vector_112" d="M29.2461 62.7344C29.2461 62.7344 29.6902 64.475 31.5459 65.4392" stroke="white" stroke-width="0.5" stroke-miterlimit="10"/>
<path id="Vector_113" d="M29.7461 81.2811C29.7461 81.2811 31.4749 81.3354 32.8843 80.2603" stroke="white" stroke-width="0.5" stroke-miterlimit="10"/>
<path id="Vector_114" d="M11.1055 44.3889C11.1055 44.3889 11.4952 46.6546 14.4045 46.0639" stroke="#2957A4" stroke-width="0.5" stroke-miterlimit="10" stroke-linecap="round"/>
<path id="Vector_115" d="M15.9339 44.5474C15.9339 44.5474 15.9588 45.1789 15.125 45.6836" stroke="#2957A4" stroke-width="0.5" stroke-miterlimit="10" stroke-linecap="round"/>
<path id="Vector_116" d="M6.22656 51.3129L8.63288 51.2925" stroke="#2957A4" stroke-width="0.5" stroke-miterlimit="10" stroke-linecap="round"/>
<path id="Vector_117" d="M9.55859 51.6047L9.8101 49.9954" stroke="#2957A4" stroke-width="0.5" stroke-miterlimit="10" stroke-linecap="round"/>
<path id="Vector_118" d="M13.2146 61.5029C12.2947 61.7519 11.2637 61.9601 10.1172 62.096" stroke="#2957A4" stroke-width="0.5" stroke-miterlimit="10" stroke-linecap="round"/>
<path id="Vector_119" d="M18.9749 58.7212C18.9749 58.7212 17.5882 59.9933 14.7695 61.0141" stroke="#2957A4" stroke-width="0.5" stroke-miterlimit="10" stroke-linecap="round"/>
<path id="Vector_120" d="M15.2889 59.6423C14.6794 59.8732 14.045 60.0316 13.4219 60.052" stroke="#2957A4" stroke-width="0.5" stroke-miterlimit="10" stroke-linecap="round"/>
<path id="Vector_121" d="M18.9385 57.4038C18.9385 57.4038 17.8826 58.3386 16.4688 59.0991" stroke="#2957A4" stroke-width="0.5" stroke-miterlimit="10" stroke-linecap="round"/>
<path id="Vector_122" d="M13.6322 63.0669C13.6322 63.0669 14.4116 64.7351 13.1133 65.9573" stroke="white" stroke-width="0.5" stroke-miterlimit="10"/>
</g>
</g>
<defs>
<clipPath id="clip0_1850_38266">
<rect width="86.3758" height="90" fill="white"/>
</clipPath>
</defs>
</svg>
