<svg width="90" height="90" viewBox="0 0 90 90" fill="none" xmlns="http://www.w3.org/2000/svg">
<g id="Software" clip-path="url(#clip0_1850_6958)">
<path id="Vector" d="M89.7911 53.398C89.7921 54.6949 89.714 55.6412 89.6674 56.0921C89.6163 56.5864 89.5501 57.0782 89.471 57.5671C89.4646 57.6084 89.4578 57.6487 89.4504 57.69C89.446 57.7235 89.4406 57.7564 89.4342 57.7899C89.2511 58.8709 89.0017 59.9396 88.6904 60.9925C88.686 61.0088 88.6806 61.025 88.6762 61.0412C88.2545 62.4566 87.7218 63.844 87.0885 65.1975C85.9843 67.5582 84.5758 69.8146 82.9199 71.9372V71.9382C82.883 71.9859 82.8462 72.0326 82.8079 72.0794C78.1503 77.9934 71.5712 82.849 64.3327 85.9671C64.3307 85.9681 64.3283 85.969 64.3263 85.969C62.2638 86.8577 60.1469 87.6053 58.0054 88.195C56.3941 88.6391 54.7671 88.9946 53.1406 89.2543C36.4136 91.9234 17.961 84.7415 7.74783 70.1338C7.25639 69.431 6.78509 68.712 6.33391 67.9752C5.79829 67.1028 5.29065 66.2067 4.81345 65.2865C4.26998 64.2404 3.76578 63.1614 3.30281 62.0548C2.44513 60.0005 1.76419 57.9236 1.24772 55.8369C-2.94102 38.8837 3.80603 21.3493 15.6643 11.2475C26.5378 1.98186 44.9688 -3.81214 54.8447 2.92416C61.2623 7.30077 58.5773 13.2271 67.9563 22.6801C75.3912 30.1748 79.9781 29.3741 84.753 36.2831C86.6476 39.0239 87.8489 41.9059 88.5996 44.6045C89.5648 48.0653 89.7892 51.2247 89.7916 53.398H89.7911Z" fill="#2957A4"/>
<g id="Group">
<path id="Vector_2" d="M85.5595 6.76863L84.8795 5.42304L83.285 5.82534C83.0719 5.54206 82.8387 5.27993 82.5863 5.0414L83.1598 3.49958L81.8995 2.67481L80.7193 3.8222C80.3972 3.68597 80.0644 3.57679 79.7236 3.49564L79.4502 1.8712L77.9469 1.78857L77.4982 3.37122C77.154 3.414 76.8114 3.48679 76.4721 3.58859L75.4249 2.31874L74.0817 2.9999L74.4833 4.5973C74.2005 4.81074 73.9388 5.04435 73.7007 5.29714L72.1616 4.72271L71.3383 5.98518L72.4837 7.16749C72.3477 7.49012 72.2382 7.82356 72.1572 8.16488L70.5356 8.43881L70.4531 9.94473L72.033 10.3942C72.0757 10.739 72.1484 11.0823 72.25 11.4221L70.9824 12.4712L71.6623 13.8167L73.2569 13.4144C73.47 13.6977 73.7032 13.9599 73.9555 14.1984L73.3821 15.7397L74.6424 16.5645L75.8226 15.4171C76.1447 15.5533 76.4775 15.663 76.8182 15.7441L77.0917 17.3686L78.595 17.4512L79.0437 15.8686C79.3878 15.8258 79.7305 15.753 80.0698 15.6512L81.1169 16.921L82.4602 16.2399L82.0586 14.6425C82.3414 14.429 82.603 14.1954 82.8411 13.9426L84.3798 14.5171L85.2031 13.2546L84.0577 12.0723C84.1937 11.7497 84.3027 11.4157 84.3842 11.0749L86.0058 10.801L86.0882 9.29505L84.5084 8.84554C84.4657 8.50078 84.393 8.1575 84.2914 7.81766L85.559 6.76863H85.5595ZM80.0221 13.0835C78.1129 14.0518 75.7809 13.2866 74.8142 11.3734C73.8475 9.46079 74.6114 7.1247 76.5212 6.15633C78.4305 5.18796 80.7625 5.95321 81.7292 7.86635C82.6958 9.77899 81.9319 12.1151 80.0221 13.0835Z" fill="#F59630"/>
<path id="Vector_3" d="M78.5961 17.614C78.5932 17.614 78.5902 17.614 78.5873 17.614L77.084 17.5314C77.0079 17.5269 76.9451 17.4709 76.9323 17.3956L76.677 15.8764C76.3996 15.8056 76.1262 15.7156 75.8611 15.6084L74.7574 16.681C74.7029 16.7341 74.619 16.742 74.5551 16.7007L73.2949 15.8759C73.2311 15.8341 73.205 15.754 73.2315 15.6827L73.7677 14.2412C73.5654 14.043 73.3729 13.8271 73.1947 13.5984L71.7037 13.9746C71.6296 13.9933 71.553 13.9579 71.5191 13.8905L70.8392 12.5449C70.8048 12.4771 70.822 12.3939 70.8809 12.3457L72.066 11.3646C71.9875 11.0857 71.9276 10.8029 71.8878 10.5216L70.4111 10.1011C70.3379 10.0805 70.2888 10.0116 70.2932 9.93538L70.3757 8.42946C70.3801 8.35323 70.4361 8.29028 70.5112 8.2775L72.0278 8.02176C72.0989 7.74438 72.1883 7.46995 72.2953 7.20437L71.2241 6.09878C71.1711 6.04419 71.1632 5.96009 71.2044 5.89616L72.0278 4.63368C72.0695 4.56975 72.1495 4.54319 72.2207 4.57024L73.6597 5.1073C73.858 4.90418 74.073 4.71188 74.3013 4.53336L73.9257 3.04022C73.9071 2.96645 73.9419 2.88924 74.0097 2.8553L75.3529 2.17415C75.4207 2.13972 75.5036 2.15694 75.5518 2.21595L76.5307 3.40318C76.8096 3.32449 77.0914 3.26449 77.3722 3.22465L77.7919 1.74529C77.813 1.67201 77.8852 1.62529 77.9574 1.62726L79.4607 1.70988C79.5368 1.71431 79.5996 1.77037 79.6124 1.84562L79.8677 3.36482C80.1445 3.43564 80.418 3.52564 80.6836 3.63285L81.7872 2.56022C81.8417 2.5071 81.9262 2.49923 81.9895 2.54055L83.2498 3.36531C83.3136 3.40711 83.3396 3.48728 83.3131 3.55859L82.777 5.00008C82.9798 5.19877 83.1717 5.41419 83.3499 5.64337L84.8404 5.26713C84.9146 5.24845 84.9912 5.28386 85.025 5.35123L85.705 6.69682C85.7394 6.76469 85.7222 6.84781 85.6633 6.89601L84.4781 7.87667C84.5567 8.15602 84.6166 8.43881 84.6563 8.71963L86.1331 9.13964C86.2062 9.16029 86.2553 9.22915 86.2509 9.30538L86.1684 10.8113C86.164 10.8875 86.1081 10.9505 86.0329 10.9633L84.5164 11.219C84.4452 11.4969 84.3559 11.7708 84.2488 12.0364L85.3196 13.142C85.3726 13.1966 85.3805 13.2807 85.3392 13.3446L84.5164 14.6071C84.4747 14.671 84.3947 14.6976 84.3235 14.6705L82.8845 14.1335C82.6867 14.3361 82.4716 14.5284 82.2428 14.7074L82.6184 16.2005C82.6371 16.2743 82.6022 16.3515 82.5345 16.3855L81.1912 17.0666C81.1235 17.101 81.041 17.0838 80.9924 17.0248L80.013 15.8376C79.7341 15.9163 79.4518 15.9763 79.1715 16.0161L78.7517 17.4955C78.7316 17.5658 78.6678 17.614 78.5951 17.614H78.5961ZM77.2318 17.2127L78.4753 17.281L78.8887 15.8238C78.9064 15.7609 78.9604 15.7146 79.0252 15.7068C79.3576 15.6654 79.6939 15.5941 80.0243 15.4948C80.0871 15.4756 80.1549 15.4963 80.1966 15.5469L81.1613 16.7164L82.2723 16.1528L81.9026 14.6818C81.8864 14.6184 81.91 14.5515 81.9625 14.5122C82.2384 14.3036 82.4952 14.0744 82.7245 13.8305C82.7696 13.7828 82.8384 13.7671 82.8997 13.7897L84.3166 14.3184L84.9975 13.2738L83.943 12.1849C83.8973 12.1377 83.8846 12.0684 83.9096 12.0079C84.0417 11.6946 84.1487 11.3675 84.2277 11.0365C84.243 10.9731 84.2945 10.9244 84.3588 10.9136L85.8523 10.6613L85.9205 9.41554L84.4658 9.00193C84.403 8.98422 84.3569 8.93013 84.349 8.86521C84.3078 8.53225 84.2366 8.19536 84.1374 7.86388C84.1187 7.80142 84.1389 7.73306 84.1894 7.69126L85.3569 6.72535L84.7943 5.61238L83.3259 5.98272C83.2625 5.99895 83.1958 5.97534 83.156 5.92272C82.9483 5.64681 82.7196 5.38959 82.476 5.15943C82.4284 5.11467 82.4122 5.04533 82.4353 4.98385L82.9631 3.56449L81.9203 2.88235L80.8333 3.93876C80.7862 3.9845 80.7165 3.99728 80.6566 3.9722C80.3434 3.83991 80.0169 3.73269 79.687 3.654C79.6237 3.63876 79.575 3.58712 79.5642 3.52269L79.3124 2.02661L78.0693 1.95824L77.6559 3.41547C77.6383 3.47843 77.5843 3.52466 77.5195 3.53252C77.1866 3.57384 76.8503 3.64515 76.5199 3.74449C76.4575 3.76318 76.3893 3.74253 76.3476 3.69236L75.3834 2.52284L74.2724 3.08645L74.642 4.55745C74.6582 4.6209 74.6347 4.68778 74.5821 4.72762C74.3067 4.93516 74.0504 5.16435 73.8202 5.40878C73.7755 5.45648 73.7063 5.47222 73.6449 5.4496L72.2281 4.9209L71.5471 5.9655L72.6017 7.05437C72.6473 7.10158 72.6601 7.17093 72.635 7.23142C72.503 7.54519 72.396 7.87175 72.3169 8.20274C72.3017 8.26618 72.2502 8.31487 72.1858 8.32569L70.6924 8.57799L70.6241 9.82374L72.0788 10.2378C72.1417 10.2556 72.1878 10.3096 72.1957 10.3746C72.2369 10.708 72.3081 11.0449 72.4073 11.3754C72.4259 11.4384 72.4058 11.5062 72.3552 11.548L71.1877 12.5144L71.7504 13.6274L73.2188 13.2571C73.2816 13.2403 73.3489 13.2644 73.3887 13.3171C73.5963 13.593 73.8251 13.8502 74.0686 14.0803C74.1162 14.1251 74.1324 14.1944 74.1094 14.2559L73.5811 15.6753L74.6239 16.3574L75.7108 15.301C75.758 15.2553 75.8272 15.2425 75.8876 15.2676C76.2008 15.3999 76.5268 15.5071 76.8572 15.5863C76.9205 15.6015 76.9691 15.6532 76.9799 15.7176L77.2318 17.2137V17.2127ZM78.2765 13.6672C77.8533 13.6672 77.4281 13.5999 77.0148 13.4641C75.9897 13.1277 75.157 12.4111 74.67 11.4472C74.183 10.4833 74.0995 9.38702 74.4353 8.36012C74.7712 7.33322 75.4865 6.49912 76.4487 6.01124C78.4356 5.00402 80.8697 5.80321 81.8751 7.79307C82.8811 9.78292 82.0828 12.2218 80.0964 13.229C79.5225 13.5202 78.9015 13.6672 78.2765 13.6672ZM78.2662 5.90108C77.7026 5.90108 77.1311 6.02993 76.5955 6.3019C75.7108 6.75043 75.0534 7.51765 74.7446 8.46192C74.4358 9.4062 74.5124 10.4139 74.9602 11.3002C75.8846 13.1297 78.1233 13.8649 79.9496 12.9384C81.776 12.0118 82.5094 9.76964 81.585 7.94011C80.9315 6.64764 79.6227 5.90157 78.2662 5.90157V5.90108Z" fill="black"/>
</g>
<g id="Group_2">
<path id="Vector_4" d="M68.8297 15.6733L67.7501 13.8138L65.5133 14.5191C65.1864 14.1335 64.8324 13.7794 64.4539 13.4607L65.1432 11.218L63.2805 10.1484L61.6948 11.88C61.2249 11.7128 60.7418 11.5844 60.2504 11.4974L59.7271 9.20654L57.5801 9.21343L57.072 11.5038C56.586 11.5933 56.1034 11.7256 55.6291 11.8987L54.0331 10.1774L52.1768 11.2589L52.8808 13.5C52.4959 13.8276 52.1424 14.1822 51.8248 14.5614L49.5861 13.8709L48.5183 15.7368L50.2469 17.3253C50.08 17.796 49.9518 18.2799 49.8645 18.7722L47.5781 19.2965L47.585 21.4472L49.8713 21.9562C49.9602 22.4431 50.0927 22.9265 50.2656 23.4016L48.5472 25.0005L49.6268 26.86L51.8636 26.1548C52.1906 26.5403 52.5445 26.8944 52.923 27.2131L52.2338 29.4558L54.0964 30.5255L55.6822 28.7938C56.152 28.961 56.6351 29.0894 57.1265 29.1769L57.6499 31.4673L59.7968 31.4604L60.3049 29.17C60.7909 29.081 61.2735 28.9482 61.7478 28.7751L63.3438 30.4965L65.2001 29.415L64.4961 27.1743C64.881 26.8467 65.2345 26.4921 65.5526 26.113L67.7913 26.8035L68.8591 24.9375L67.1305 23.349C67.2979 22.8778 67.4256 22.3939 67.5129 21.9021L69.7993 21.3778L69.7924 19.2271L67.5061 18.7181C67.4172 18.2312 67.2847 17.7478 67.1118 17.2727L68.8301 15.6738L68.8297 15.6733ZM61.4665 25.1239C58.8276 26.6613 55.444 25.7643 53.9098 23.1208C52.3751 20.4773 53.2706 17.0878 55.9095 15.5509C58.5483 14.0135 61.9319 14.9105 63.4661 17.554C65.0008 20.1975 64.1053 23.587 61.4665 25.1239Z" fill="#F59630"/>
<path id="Vector_5" d="M57.6478 31.631C57.5722 31.631 57.5064 31.5784 57.4892 31.5046L56.9899 29.3185C56.5623 29.2374 56.1386 29.1247 55.7277 28.9836L54.2146 30.6361C54.1631 30.6921 54.0801 30.7054 54.0138 30.6675L52.1512 29.5979C52.0854 29.56 52.0545 29.4813 52.0766 29.4085L52.7339 27.2686C52.408 26.9873 52.0972 26.677 51.808 26.3436L49.6734 27.0163C49.6007 27.0395 49.5222 27.0085 49.4839 26.9431L48.4048 25.0835C48.3665 25.0176 48.3793 24.934 48.4347 24.8824L50.0745 23.3568C49.9282 22.9397 49.8123 22.5158 49.7298 22.0933L47.5481 21.6074C47.474 21.5912 47.4209 21.5253 47.4209 21.4491L47.4141 19.2984C47.4141 19.2222 47.4661 19.1563 47.5402 19.139L49.7225 18.6389C49.8035 18.2105 49.9159 17.7866 50.0568 17.3744L48.4072 15.8587C48.3513 15.807 48.338 15.7234 48.3758 15.6575L49.4436 13.7916C49.4814 13.7257 49.5595 13.6942 49.6326 13.7169L51.7687 14.3754C52.0496 14.0488 52.3594 13.738 52.6922 13.4478L52.0206 11.3095C51.9975 11.2367 52.0285 11.158 52.0937 11.1196L53.95 10.0381C54.0158 9.99976 54.0993 10.0126 54.1508 10.0681L55.6737 11.7108C56.0896 11.5642 56.5127 11.4486 56.935 11.3655L57.42 9.17992C57.4362 9.10566 57.502 9.05254 57.5781 9.05254L59.725 9.04565H59.7255C59.8011 9.04565 59.8669 9.09828 59.8841 9.17205L60.3834 11.3581C60.8105 11.4393 61.2342 11.5514 61.6456 11.6926L63.1587 10.0401C63.2102 9.98403 63.2937 9.97075 63.3595 10.0086L65.2226 11.0783C65.2884 11.1162 65.3193 11.1949 65.2972 11.2676L64.6399 13.4075C64.9658 13.6888 65.2766 13.9992 65.5658 14.3326L67.7004 13.6598C67.7731 13.6372 67.8516 13.6677 67.8899 13.7331L68.9695 15.5926C69.0078 15.6585 68.9955 15.7421 68.9395 15.7938L67.2998 17.3198C67.4461 17.7364 67.5615 18.1603 67.6444 18.5833L69.8262 19.0692C69.9003 19.0854 69.9533 19.1513 69.9538 19.2276L69.9607 21.3783C69.9607 21.4545 69.9087 21.5204 69.8345 21.5376L67.6523 22.0378C67.5713 22.4656 67.4589 22.8901 67.3184 23.3022L68.968 24.818C69.024 24.8696 69.0372 24.9532 68.9994 25.0191L67.9316 26.885C67.8938 26.9509 67.8153 26.9819 67.7426 26.9598L65.6065 26.3013C65.3257 26.6278 65.0159 26.9391 64.6831 27.2288L65.3547 29.3672C65.3777 29.44 65.3468 29.5187 65.2815 29.557L63.4253 30.638C63.3595 30.6764 63.276 30.6636 63.2245 30.608L61.7011 28.9654C61.2847 29.1119 60.8615 29.228 60.4398 29.3106L59.9548 31.4962C59.9386 31.5705 59.8728 31.6236 59.7967 31.6236L57.6498 31.6305H57.6493L57.6478 31.631ZM55.6801 28.6314C55.6983 28.6314 55.7169 28.6344 55.7346 28.6408C56.1941 28.8046 56.6713 28.931 57.1529 29.017C57.2173 29.0283 57.2683 29.0775 57.283 29.141L57.7774 31.3044L59.6646 31.2985L60.1448 29.1356C60.159 29.0716 60.2101 29.0224 60.2744 29.0106C60.7476 28.9236 61.2243 28.7933 61.6912 28.6231C61.7526 28.6 61.8213 28.6172 61.866 28.6654L63.3737 30.2908L65.0051 29.3406L64.3404 27.2239C64.3207 27.1614 64.3404 27.0931 64.3905 27.0508C64.769 26.7291 65.1175 26.3785 65.4273 26.0091C65.4691 25.959 65.5373 25.9388 65.5996 25.958L67.7137 26.6101L68.6523 24.9699L67.0195 23.4694C66.9713 23.4252 66.9542 23.3563 66.9763 23.2948C67.1397 22.834 67.2659 22.3555 67.3513 21.874C67.3626 21.8096 67.4117 21.7584 67.4751 21.7437L69.6347 21.2484L69.6288 19.3579L67.4692 18.8769C67.4053 18.8626 67.3562 18.8115 67.3445 18.7471C67.2576 18.272 67.1275 17.7944 66.9576 17.3277C66.935 17.2662 66.9517 17.1969 66.9998 17.1526L68.6229 15.6423L67.6744 14.008L65.5614 14.6739C65.499 14.6941 65.4308 14.6739 65.3885 14.6238C65.0675 14.2446 64.7174 13.8954 64.3487 13.5851C64.2986 13.5428 64.2785 13.4749 64.2977 13.4124L64.9487 11.2947L63.3114 10.3544L61.8135 11.9901C61.7693 12.0383 61.7006 12.0555 61.6392 12.0334C61.1792 11.8696 60.702 11.7432 60.2209 11.6577C60.1565 11.6463 60.105 11.5972 60.0908 11.5337L59.5964 9.37025L57.7092 9.37615L57.229 11.5391C57.2148 11.6031 57.1637 11.6522 57.0994 11.664C56.6252 11.7511 56.1485 11.8814 55.6826 12.0516C55.6212 12.0742 55.5525 12.0575 55.5078 12.0093L54.0001 10.3834L52.3687 11.3335L53.0334 13.4503C53.0531 13.5128 53.0334 13.5811 52.9833 13.6234C52.6048 13.9451 52.2563 14.2957 51.9465 14.6651C51.9042 14.7152 51.8365 14.7354 51.7741 14.7162L49.6596 14.0641L48.7214 15.7043L50.3543 17.2048C50.4024 17.249 50.4196 17.3179 50.3975 17.3794C50.2341 17.8402 50.1079 18.3182 50.022 18.8002C50.0107 18.8646 49.9616 18.9158 49.8982 18.9305L47.7386 19.4258L47.7445 21.3163L49.9036 21.7973C49.9675 21.8115 50.0166 21.8627 50.0283 21.9271C50.1152 22.4012 50.2453 22.8788 50.4152 23.3465C50.4378 23.4079 50.4211 23.4773 50.373 23.5216L48.7504 25.0319L49.6989 26.6662L51.8119 26.0003C51.8743 25.9806 51.9425 26.0003 51.9848 26.0504C52.3058 26.4296 52.6559 26.7788 53.0246 27.0891C53.0747 27.1314 53.0948 27.1993 53.0756 27.2618L52.4247 29.38L54.062 30.3198L55.5598 28.6841C55.5912 28.6496 55.6349 28.6314 55.6796 28.6314H55.6801ZM58.696 26.0362C56.7342 26.0362 54.8229 25.0206 53.7679 23.2029C52.1905 20.4861 53.1139 16.9898 55.8264 15.4102C58.5384 13.83 62.0285 14.7551 63.6054 17.4723C65.1828 20.1891 64.2594 23.6853 61.5469 25.265C60.6494 25.7878 59.6666 26.0367 58.696 26.0367V26.0362ZM58.6773 14.9641C57.7622 14.9641 56.8358 15.1982 55.9894 15.6915C53.4321 17.1812 52.5616 20.4773 54.0487 23.0386C55.5358 25.5999 58.8261 26.4724 61.3829 24.9827C63.9398 23.493 64.8107 20.1969 63.3236 17.6356C62.329 15.9216 60.5267 14.9641 58.6768 14.9641H58.6773Z" fill="black"/>
</g>
<path id="Vector_6" d="M89.7919 53.398C89.7929 54.6949 89.7149 55.6412 89.6682 56.0922C89.6172 56.5864 89.5509 57.0783 89.4718 57.5671C89.4655 57.6084 89.4586 57.6488 89.4512 57.6901C89.4468 57.7235 89.4414 57.7565 89.435 57.7899H89.4331L81.0973 59.0499L78.1217 59.4994L70.8788 60.5932H70.8778L66.5575 61.2458H66.5565L64.2098 61.6009L60.6583 62.1375L60.3343 62.1862H60.3333L50.1692 63.7221L46.3055 64.3064H46.3045L42.7422 64.8439L38.9639 65.4154L35.2283 65.98L31.178 66.5918L27.3383 67.1716H27.3373L24.6337 67.5798H24.6327L22.6007 67.8872H22.5997L7.7506 70.1318L7.70053 70.1392C7.22333 69.4354 6.7692 68.713 6.33619 67.9733C5.80057 67.1008 5.29293 66.2047 4.81573 65.2846C4.27226 64.2385 3.76806 63.1595 3.3051 62.0529C2.44741 59.9986 1.76647 57.9217 1.25 55.835L66.9704 47.3842L68.4407 47.1954L69.7962 47.0208L70.5705 46.9209L70.9043 46.8786L83.526 45.2557L88.6009 44.603C89.5661 48.0639 89.7905 51.2233 89.7929 53.3966L89.7919 53.398Z" fill="#AAC8FB"/>
<g id="Group_3">
<g id="Group_4">
<g id="Group_5">
<path id="Vector_7" d="M72.3898 44.2449L62.5988 44.3063C62.5355 44.3063 62.5144 44.3654 62.5144 44.4219V52.7664C62.5144 53.5656 56.9515 55.6411 56.8975 55.5358L56.8906 56.4191C56.8906 56.5834 57.0345 56.7294 57.2186 56.7294H65.5524C65.9333 56.7294 66.3094 56.6439 66.6545 56.4993L71.1678 54.5955C71.9803 54.2527 72.4929 53.5169 72.4929 52.7138V44.3609C72.4929 44.3044 72.4531 44.2454 72.3898 44.2454V44.2449Z" fill="#2957A4"/>
<g id="Group_6">
<path id="Vector_8" d="M61.5257 43.8205V52.167C61.5257 52.9898 60.9969 53.7393 60.1667 54.0944L57.1219 55.3962C56.9231 55.4813 56.9908 55.7484 57.2112 55.7484H65.5764C65.9525 55.7484 66.3242 55.6741 66.6644 55.5305L70.0377 54.1077C70.8742 53.7546 71.4084 53.0021 71.4084 52.1754V43.8205C71.4084 43.7866 71.3775 43.7585 71.3392 43.7585H61.5949C61.5566 43.7585 61.5257 43.7861 61.5257 43.8205Z" fill="white"/>
<path id="Vector_9" d="M65.5754 55.9111H57.2102C57.0305 55.9111 56.8808 55.795 56.8469 55.6283C56.814 55.4675 56.8984 55.314 57.057 55.2462L60.1019 53.9443C60.8672 53.6173 61.3621 52.9194 61.3621 52.1669V43.8205C61.3621 43.6965 61.4662 43.5957 61.5938 43.5957H71.3381C71.4662 43.5957 71.5698 43.6965 71.5698 43.8205V52.1753C71.5698 53.064 70.993 53.8814 70.0999 54.2581L66.7267 55.6809C66.3688 55.8319 65.9706 55.9116 65.5754 55.9116V55.9111ZM61.6871 43.9213V52.1665C61.6871 53.0497 61.1147 53.8652 60.2295 54.2439L57.1847 55.5457C57.1709 55.5516 57.1645 55.5575 57.1655 55.5629C57.168 55.5737 57.1807 55.585 57.2102 55.585H65.5754C65.9274 55.585 66.2819 55.5142 66.6 55.3799L69.9733 53.9571C70.7455 53.6316 71.2443 52.9322 71.2443 52.1748V43.9213H61.6866H61.6871Z" fill="black"/>
</g>
</g>
<g id="Group_7">
<path id="Vector_10" d="M43.2188 48.6039L85.4189 48.6988C85.7881 48.6988 86.1563 48.421 86.2034 48.0531L89.6322 21.6007C89.7142 20.9593 89.2183 20.322 88.5821 20.3382L46.8714 20.559L43.2188 48.6044V48.6039Z" fill="#F59630"/>
<path id="Vector_11" d="M86.9253 20.4883C87.6514 20.4883 88.3068 21.2255 88.214 21.949L84.8849 47.9888C84.8378 48.3566 84.445 48.6674 84.0759 48.6674L42.6224 48.6001C42.1796 48.6001 41.884 48.2322 41.9405 47.791L45.3884 21.2683C45.4355 20.9004 45.6786 20.4883 46.0477 20.4883H86.9263H86.9253Z" fill="#AAC8FB"/>
<path id="Vector_12" d="M84.0744 48.7726L45.1381 48.7229C45.115 48.7229 45.0929 48.718 45.0728 48.7091L42.6205 48.7052C42.3681 48.7052 42.1413 48.6054 41.9823 48.4244C41.8183 48.2375 41.7437 47.9778 41.7775 47.7122L45.2254 21.1895C45.2829 20.7424 45.5897 20.2673 46.0458 20.2673H86.9244C87.3196 20.2673 87.7123 20.4562 88.0015 20.7857C88.2887 21.1123 88.4242 21.5229 88.3746 21.9115L85.0455 47.9513C84.989 48.389 84.5354 48.7726 84.0749 48.7726H84.0744ZM45.2038 48.3968L84.0749 48.4465C84.3724 48.4465 84.6871 48.1858 84.7225 47.9099L88.0516 21.8701C88.0894 21.5741 87.9823 21.2573 87.757 21.0011C87.5292 20.7419 87.2258 20.5934 86.9239 20.5934H46.0453C45.7851 20.5934 45.5878 20.9175 45.5475 21.2313L42.1001 47.754C42.0775 47.9291 42.1227 48.0909 42.2263 48.2095C42.3225 48.3191 42.4624 48.3796 42.6205 48.3796L45.1381 48.3836C45.1611 48.3836 45.1832 48.3885 45.2034 48.3973L45.2038 48.3968Z" fill="black"/>
<path id="Vector_13" d="M85.7228 21.5579C86.3905 21.5579 86.9939 22.2361 86.9085 22.9015L83.8455 46.8575C83.8018 47.1959 83.4404 47.4821 83.1007 47.4821L43.9346 47.4201C43.5271 47.4201 43.2551 47.0813 43.3072 46.6755L46.4791 22.2754C46.5228 21.937 46.7457 21.5579 47.0855 21.5579H85.7223H85.7228Z" fill="#2957A4"/>
</g>
</g>
<g id="Group_8">
<g id="Group_9">
<path id="Vector_14" d="M81.6079 24.8644H65.6875L65.7945 24.0647H81.7154L81.6079 24.8644Z" fill="white"/>
<path id="Vector_15" d="M85.045 26.1825H68.8242L68.9317 25.3833H85.1526L85.045 26.1825Z" fill="#AAC8FB"/>
<path id="Vector_16" d="M82.9117 27.5009H74.5273L74.6349 26.7012H83.0192L82.9117 27.5009Z" fill="white"/>
<path id="Vector_17" d="M80.1943 35.4103H64.2734L64.3805 34.6111H80.3013L80.1943 35.4103Z" fill="white"/>
<path id="Vector_18" d="M83.6315 36.7289H67.4102L67.5177 35.9292H83.7385L83.6315 36.7289Z" fill="#AAC8FB"/>
<path id="Vector_19" d="M83.4536 38.0468H73.1133L73.2208 37.2471H83.5611L83.4536 38.0468Z" fill="#AAC8FB"/>
<path id="Vector_20" d="M76.652 39.3102H67.0039L67.1114 38.5105H76.759L76.652 39.3102Z" fill="#AAC8FB"/>
<path id="Vector_21" d="M81.0805 28.819H65.1602L65.2672 28.0193H81.188L81.0805 28.819Z" fill="#AAC8FB"/>
<path id="Vector_22" d="M84.5138 30.1376H68.293L68.4005 29.3379H84.6213L84.5138 30.1376Z" fill="#AAC8FB"/>
<path id="Vector_23" d="M80.2487 32.7736H73.8203L73.9273 31.9744H80.3558L80.2487 32.7736Z" fill="white"/>
<path id="Vector_24" d="M81.9948 34.0912H75.5664L75.6739 33.2915H82.1024L81.9948 34.0912Z" fill="#AAC8FB"/>
<path id="Vector_25" d="M84.3364 31.4557H73.9961L74.1036 30.656H84.4439L84.3364 31.4557Z" fill="#AAC8FB"/>
<path id="Vector_26" d="M79.4873 40.6835H63.5664L63.6739 39.8838H79.5948L79.4873 40.6835Z" fill="white"/>
<path id="Vector_27" d="M82.3987 42.0013H66.6992L66.8062 41.2021H82.5057L82.3987 42.0013Z" fill="#AAC8FB"/>
<path id="Vector_28" d="M82.7465 43.3199H72.4062L72.5133 42.5203H82.8536L82.7465 43.3199Z" fill="#AAC8FB"/>
<path id="Vector_29" d="M78.956 44.6381H63.0352L63.1427 43.8384H79.0635L78.956 44.6381Z" fill="white"/>
<path id="Vector_30" d="M82.3927 45.9567H66.1719L66.2789 45.157H82.5002L82.3927 45.9567Z" fill="#AAC8FB"/>
</g>
<g id="Group_10">
<path id="Vector_31" d="M63.1251 34.0763H61.5742L61.6773 33.3081H63.2282L63.1251 34.0763Z" fill="#AAC8FB"/>
<path id="Vector_32" d="M64.4214 24.8644H62.8047L62.9122 24.0647H64.5284L64.4214 24.8644Z" fill="#AAC8FB"/>
<path id="Vector_33" d="M64.5854 23.6525H62.9688L63.0763 22.8533H64.6925L64.5854 23.6525Z" fill="#AAC8FB"/>
<path id="Vector_34" d="M64.2328 26.1827H62.6289L62.7359 25.3831H64.3403L64.2328 26.1827Z" fill="#AAC8FB"/>
<path id="Vector_35" d="M63.999 27.5009H62.4766L62.5836 26.7012H64.106L63.999 27.5009Z" fill="#AAC8FB"/>
<path id="Vector_36" d="M63.8307 28.819H62.2812L62.3883 28.0198H63.9382L63.8307 28.819Z" fill="#AAC8FB"/>
<path id="Vector_37" d="M63.6471 30.1376H62.0977L62.2047 29.3379H63.7546L63.6471 30.1376Z" fill="#AAC8FB"/>
<path id="Vector_38" d="M63.3404 32.7208H61.8047L61.9117 31.9211H63.4474L63.3404 32.7208Z" fill="#AAC8FB"/>
<path id="Vector_39" d="M63.4757 31.403H62.0078L62.1153 30.6033H63.5833L63.4757 31.403Z" fill="#AAC8FB"/>
<path id="Vector_40" d="M62.59 38.0807H61.0391L61.1422 37.3125H62.6931L62.59 38.0807Z" fill="#AAC8FB"/>
<path id="Vector_41" d="M62.8013 36.7252H61.2656L61.3731 35.9255H62.9088L62.8013 36.7252Z" fill="#AAC8FB"/>
<path id="Vector_42" d="M62.9411 35.4071H61.4727L61.5802 34.6074H63.0481L62.9411 35.4071Z" fill="#AAC8FB"/>
<path id="Vector_43" d="M61.5431 45.8783H59.9922L60.0953 45.1101H61.6462L61.5431 45.8783Z" fill="#AAC8FB"/>
<path id="Vector_44" d="M62.417 39.3029H60.8945L61.0016 38.5037H62.524L62.417 39.3029Z" fill="#AAC8FB"/>
<path id="Vector_45" d="M62.2486 40.6215H60.6992L60.8062 39.8218H62.3562L62.2486 40.6215Z" fill="#AAC8FB"/>
<path id="Vector_46" d="M62.0611 41.9393H60.5117L60.6187 41.1396H62.1682L62.0611 41.9393Z" fill="#AAC8FB"/>
<path id="Vector_47" d="M61.7544 44.5228H60.2188L60.3258 43.7236H61.8615L61.7544 44.5228Z" fill="#AAC8FB"/>
<path id="Vector_48" d="M61.8937 43.2047H60.4258L60.5328 42.405H62.0012L61.8937 43.2047Z" fill="#AAC8FB"/>
</g>
<g id="Group_11">
<path id="Vector_49" d="M56.1988 23.4774H48.5352L48.6383 22.7092H56.3019L56.1988 23.4774Z" fill="#AAC8FB"/>
<path id="Vector_50" d="M57.5468 24.8116H49.4688L49.5758 24.012H57.6543L57.5468 24.8116Z" fill="white"/>
<path id="Vector_51" d="M59.658 26.1298H50.2461L50.3536 25.3301H59.765L59.658 26.1298Z" fill="white"/>
<path id="Vector_52" d="M60.8659 27.4479H53.0117L53.1187 26.6487H60.9729L60.8659 27.4479Z" fill="white"/>
<path id="Vector_53" d="M53.3286 34.0238H47.1211L47.2242 33.2556H53.4317L53.3286 34.0238Z" fill="#AAC8FB"/>
<path id="Vector_54" d="M53.426 35.3575H48.8867L48.9942 34.5579H53.5335L53.426 35.3575Z" fill="white"/>
<path id="Vector_55" d="M55.0524 36.6757H50.707L50.8141 35.8765H55.1594L55.0524 36.6757Z" fill="white"/>
<path id="Vector_56" d="M57.9288 37.9943H52.4297L52.5372 37.1946H58.0358L57.9288 37.9943Z" fill="white"/>
<path id="Vector_57" d="M53.4759 28.7662H47.9258L48.0333 27.9666H53.5834L53.4759 28.7662Z" fill="#AAC8FB"/>
<path id="Vector_58" d="M60.3727 30.0843H51.7969L51.9039 29.2847H60.4797L60.3727 30.0843Z" fill="white"/>
<path id="Vector_59" d="M53.1947 31.4005H47.6445L47.752 30.6013H53.3022L53.1947 31.4005Z" fill="#AAC8FB"/>
<path id="Vector_60" d="M60.0915 32.7191H51.5156L51.6227 31.9194H60.1985L60.0915 32.7191Z" fill="white"/>
<path id="Vector_61" d="M53.3148 39.2965H46.4141L46.5172 38.5283H53.4179L53.3148 39.2965Z" fill="#AAC8FB"/>
<path id="Vector_62" d="M57.7809 40.6307H46.5117L46.6192 39.8311H57.8884L57.7809 40.6307Z" fill="white"/>
<path id="Vector_63" d="M57.7431 41.9489H51.2734L51.381 41.1492H57.8506L57.7431 41.9489Z" fill="white"/>
<path id="Vector_64" d="M55.0302 44.5853H47.5781L47.6856 43.7856H55.1377L55.0302 44.5853Z" fill="#AAC8FB"/>
<path id="Vector_65" d="M59.0376 43.1625H52.832L52.9395 42.3633H59.1446L59.0376 43.1625Z" fill="white"/>
<path id="Vector_66" d="M56.3087 45.9034H50.4375L50.545 45.1038H56.4162L56.3087 45.9034Z" fill="white"/>
</g>
</g>
</g>
<g id="Group_12">
<g id="Group_13">
<path id="Vector_67" d="M89.7912 53.398C89.7922 54.6949 89.7141 55.6411 89.6675 56.0921C89.6164 56.5864 89.5502 57.0782 89.4711 57.567C89.4647 57.6083 89.4579 57.6487 89.4505 57.69C89.4451 57.7234 89.4387 57.7564 89.4318 57.7898C89.2399 58.8747 88.9915 59.943 88.69 60.9925C88.6856 61.0087 88.6802 61.0249 88.6758 61.0412C88.2551 62.4959 87.7337 63.9133 87.121 65.2899C86.1003 67.5832 84.8273 69.7634 83.3441 71.8078V71.8088C83.3107 71.8565 83.2759 71.9042 83.241 71.951C78.3871 78.5874 71.343 83.7932 63.6725 86.8587C63.6715 86.8587 63.6705 86.8587 63.669 86.8596C61.6748 87.6559 59.6393 88.3075 57.5887 88.8018C56.5258 89.058 55.4599 89.272 54.3931 89.4426C37.8001 92.092 17.9056 85.2362 7.69785 70.1406C7.22065 69.4368 6.76652 68.7144 6.33351 67.9747C5.71541 66.9188 5.14395 65.827 4.62109 64.6983L70.5756 55.947L73.6205 55.5427L75.3707 55.3101L79.204 54.8016L89.7902 53.397L89.7912 53.398Z" fill="#AAC8FB"/>
<g id="Group_14">
<path id="Vector_68" d="M34.7754 78.2784L76.9029 70.6401L62.7519 60.564L20.6672 65.8804C20.5258 65.8981 20.4727 66.0752 20.5812 66.1676L34.7754 78.2779V78.2784Z" fill="#F59630"/>
<path id="Vector_69" d="M34.8823 76.3285L77.0102 68.6902L62.8592 58.6145L20.4062 63.9772L34.8823 76.3285Z" fill="#2957A4"/>
<path id="Vector_70" d="M34.7751 78.2786L34.8826 76.3286L20.4061 63.9773L20.334 65.289C20.3119 65.6913 20.4788 66.0808 20.7856 66.3429L34.7751 78.2786Z" fill="#F59630"/>
<g id="Group_15">
<path id="Vector_71" d="M40.254 73.9939C40.2186 73.9939 40.1828 73.9821 40.1528 73.9585L29.4169 65.3991C29.3466 65.343 29.3349 65.2407 29.3908 65.1699C29.4468 65.0996 29.5494 65.0878 29.6196 65.1438L40.3556 73.7033C40.4258 73.7593 40.4376 73.8616 40.3816 73.9325C40.3497 73.9728 40.3021 73.9939 40.2545 73.9939H40.254Z" fill="#AAC8FB"/>
<path id="Vector_72" d="M44.1218 73.1633C44.0864 73.1633 44.0511 73.152 44.0212 73.1284L33.5385 64.8576C33.4678 64.802 33.456 64.6993 33.5115 64.6289C33.567 64.5581 33.6691 64.5463 33.7398 64.6019L44.2224 72.8726C44.2931 72.9282 44.3049 73.031 44.2494 73.1013C44.2175 73.1421 44.1699 73.1633 44.1218 73.1633Z" fill="#AAC8FB"/>
<path id="Vector_73" d="M47.6657 72.5852C47.6298 72.5852 47.594 72.5734 47.564 72.5493L37.3342 64.315C37.264 64.2584 37.2532 64.1561 37.3092 64.0858C37.3656 64.0155 37.4678 64.0046 37.538 64.0607L47.7678 72.2951C47.838 72.3516 47.8488 72.4539 47.7928 72.5243C47.7609 72.5646 47.7133 72.5852 47.6662 72.5852H47.6657Z" fill="#AAC8FB"/>
<path id="Vector_74" d="M54.7486 71.1405C54.7133 71.1405 54.6779 71.1292 54.648 71.1056L44.8158 63.3404C44.7451 63.2848 44.7334 63.182 44.7888 63.1117C44.8443 63.0414 44.9469 63.0291 45.0171 63.0846L54.8493 70.8498C54.92 70.9054 54.9318 71.0082 54.8763 71.0785C54.8444 71.1193 54.7968 71.1405 54.7486 71.1405Z" fill="#AAC8FB"/>
<path id="Vector_75" d="M51.2782 71.7906C51.2428 71.7906 51.207 71.7788 51.177 71.7551L41.1279 63.7736C41.0577 63.7175 41.0459 63.6152 41.1014 63.5449C41.1568 63.4741 41.2595 63.4628 41.3297 63.5183L51.3788 71.4999C51.449 71.556 51.4613 71.6583 51.4053 71.7291C51.3729 71.7699 51.3258 71.7911 51.2777 71.7911L51.2782 71.7906Z" fill="#AAC8FB"/>
<path id="Vector_76" d="M58.7954 70.6348C58.7606 70.6348 58.7252 70.6235 58.6953 70.6004L48.7188 62.7993C48.6481 62.7437 48.6353 62.6414 48.6908 62.5706C48.7463 62.4993 48.8484 62.487 48.9191 62.5426L58.8956 70.3437C58.9663 70.3992 58.979 70.5015 58.9236 70.5723C58.8917 70.6137 58.8435 70.6348 58.7954 70.6348Z" fill="#AAC8FB"/>
<path id="Vector_77" d="M36.2413 74.7523C36.2035 74.7523 36.1667 74.7391 36.1372 74.7145L25.7267 66.0468C25.6575 65.9893 25.6482 65.8865 25.7056 65.8171C25.763 65.7478 25.8656 65.7385 25.9349 65.796L36.2864 74.4145L73.9488 67.2778C74.0362 67.2611 74.1221 67.3191 74.1388 67.4077C74.1555 67.4962 74.0975 67.5813 74.0092 67.598L36.2712 74.7489C36.2614 74.7509 36.2511 74.7518 36.2408 74.7518L36.2413 74.7523Z" fill="#AAC8FB"/>
<path id="Vector_78" d="M33.7838 72.5854C33.7067 72.5854 33.6385 72.5303 33.6238 72.4516C33.6076 72.3631 33.6665 72.2785 33.7549 72.2622L68.312 65.9779C68.3999 65.9612 68.4848 66.0207 68.501 66.1092C68.5172 66.1977 68.4583 66.2823 68.3699 66.2986L33.8133 72.5829C33.8035 72.5849 33.7936 72.5854 33.7838 72.5854Z" fill="#AAC8FB"/>
<path id="Vector_79" d="M31.6159 70.7436C31.5388 70.7436 31.4705 70.6885 31.4558 70.6098C31.4396 70.5213 31.4985 70.4367 31.5869 70.4205L66.144 64.1361C66.2314 64.1194 66.3168 64.1789 66.333 64.2674C66.3492 64.356 66.2903 64.4405 66.202 64.4568L31.6453 70.7411C31.6355 70.7431 31.6257 70.7436 31.6159 70.7436Z" fill="#AAC8FB"/>
<path id="Vector_80" d="M28.217 67.9623C28.1389 67.9623 28.0702 67.9057 28.0569 67.8261C28.0422 67.7375 28.1021 67.6534 28.1905 67.6387L63.2533 61.7881C63.3411 61.7734 63.4256 61.8334 63.4403 61.9219C63.455 62.0104 63.3951 62.0945 63.3068 62.1093L28.244 67.9598C28.2351 67.9613 28.2258 67.9623 28.217 67.9623Z" fill="#AAC8FB"/>
<path id="Vector_81" d="M25.8305 65.7954C25.7505 65.7954 25.6808 65.7359 25.6695 65.6543C25.6572 65.5653 25.7196 65.4831 25.8089 65.4708L64.1252 60.27C64.2141 60.2572 64.2961 60.3201 64.3084 60.4096C64.3206 60.4987 64.2583 60.5808 64.1689 60.5931L25.8526 65.794C25.8453 65.7949 25.8379 65.7954 25.8305 65.7954Z" fill="#AAC8FB"/>
</g>
</g>
<path id="Vector_82" d="M27.9165 78.6027C26.3112 72.3454 20.8911 68.0869 15.1623 73.1889C13.1371 77.1007 19.1095 80.624 25.9091 81.0224C27.2214 81.0991 28.243 79.875 27.9165 78.6027Z" fill="#F59630"/>
<g id="Group_16">
<path id="Vector_83" d="M21.9468 73.6989C22.5914 73.3684 23.5443 72.9779 25.2263 73.2342C27.0806 73.5165 27.4944 74.8842 30.4013 75.4965C35.3996 76.5494 32.9385 79.4728 32.9385 79.4728L29.0507 77.7145C28.7989 77.6004 28.5205 77.5562 28.2451 77.5862C27.3972 77.6796 25.3677 77.8306 23.5202 77.4135C22.1372 77.1017 20.3158 78.2481 19.3344 77.3845C18.7645 76.8829 20.5731 74.4027 21.9463 73.6989H21.9468Z" fill="white"/>
<path id="Vector_84" d="M32.9368 79.6355C32.9142 79.6355 32.8917 79.6311 32.8701 79.6213L28.9823 77.8631C28.7564 77.7608 28.507 77.7214 28.2616 77.7485C27.453 77.8375 25.3694 77.9988 23.4832 77.5729C22.9269 77.4475 22.273 77.5768 21.6402 77.7017C20.7594 77.8758 19.8482 78.0558 19.2257 77.5075C19.1349 77.4273 19.0338 77.2709 19.0701 76.9783C19.1909 76.0055 20.7094 74.1494 21.8709 73.5543C22.6113 73.1746 23.5912 72.8215 25.2486 73.0733C26.1353 73.2086 26.7195 73.5907 27.3376 73.9955C28.0657 74.472 28.8909 75.0125 30.4325 75.3371C32.22 75.7139 33.2883 76.3748 33.607 77.3024C33.9992 78.4449 33.0993 79.5323 33.0605 79.578C33.0291 79.6159 32.983 79.636 32.9363 79.636L32.9368 79.6355ZM28.4118 77.414C28.6538 77.414 28.8939 77.4657 29.1158 77.566L32.8853 79.2706C33.0787 78.9982 33.5716 78.196 33.2991 77.4067C33.0193 76.5962 32.0325 76.007 30.3662 75.6558C28.7648 75.3184 27.912 74.7602 27.1599 74.2679C26.5462 73.8661 26.0165 73.5194 25.1995 73.395C23.6334 73.1569 22.7129 73.4879 22.0187 73.8435C20.891 74.4219 19.4908 76.2293 19.3926 77.0181C19.3823 77.1012 19.3823 77.2109 19.4398 77.2621C19.942 77.7042 20.7359 77.5473 21.5764 77.3811C22.2421 77.2498 22.9304 77.114 23.5534 77.2542C25.392 77.6688 27.4324 77.5109 28.2247 77.4234C28.2866 77.4165 28.3489 77.4131 28.4108 77.4131L28.4118 77.414Z" fill="black"/>
</g>
<path id="Vector_85" d="M56.7829 89.9763C58.7978 90.0353 66.5498 89.4648 66.5498 89.4648C71.0601 89.0075 79.2339 86.1869 82.6773 83.2081C84.5469 81.5905 85.9927 80.0777 86.6162 78.2398C87.6752 75.1193 87.5784 74.2306 87.8755 70.4446C88.0777 67.8671 87.1484 64.2882 85.5479 62.2703C83.1963 59.3047 78.8494 57.1968 70.3988 58.2797C70.3988 58.2797 62.9762 59.2732 60.5112 62.3077C59.8037 63.1786 56.7731 65.4016 54.339 68.9963C52.0365 72.3966 49.9401 77.1588 47.2733 77.0177C37.909 76.5224 32.1782 73.8765 30.8581 74.3496C29.6042 74.7986 28.7004 76.4339 28.8005 77.9806C28.9007 79.5274 42.8102 88.9371 48.7746 89.1063C55.887 89.308 60.5603 84.4715 60.5603 84.4715L56.7834 89.9758L56.7829 89.9763Z" fill="#F59630"/>
<path id="Vector_86" d="M53.9399 69.3094C53.9075 69.3094 53.8751 69.3 53.8466 69.2799C53.773 69.2282 53.7553 69.1264 53.8069 69.0531C55.9832 65.9469 58.3118 63.4662 60.7282 61.6804C62.0881 60.6752 63.829 59.8111 65.6298 59.2475C65.7157 59.2199 65.8065 59.2686 65.8335 59.3542C65.8605 59.4402 65.8124 59.5312 65.727 59.5583C63.9596 60.1116 62.2531 60.958 60.9211 61.9426C58.5332 63.7077 56.2287 66.1628 54.0725 69.2405C54.041 69.2858 53.9905 69.3099 53.9394 69.3099L53.9399 69.3094Z" fill="#2957A4"/>
<path id="Vector_87" d="M46.2925 77.1928C46.2842 77.1928 46.2754 77.1923 46.2665 77.1908C46.1885 77.178 45.9744 77.1534 45.6784 77.119C44.5639 76.9892 42.2452 76.7192 40.1405 76.3065C39.5209 76.1851 38.8199 76.0218 38.0776 75.8496C35.9572 75.3564 33.3178 74.7421 30.6216 74.6452C30.5317 74.6422 30.4615 74.5665 30.465 74.4765C30.4679 74.3865 30.5425 74.3142 30.6334 74.3196C33.361 74.4175 36.0171 75.0357 38.1512 75.5319C38.8906 75.7041 39.5892 75.8664 40.2029 75.9869C42.2953 76.397 44.6057 76.666 45.7157 76.7954C46.0269 76.8318 46.2322 76.8559 46.3176 76.8692C46.4064 76.8834 46.4668 76.967 46.4526 77.056C46.4398 77.1362 46.3706 77.1933 46.2921 77.1933L46.2925 77.1928Z" fill="#2957A4"/>
<path id="Vector_88" d="M51.1779 89.2802C51.0999 89.2802 51.0311 89.2237 51.0179 89.1445C51.0031 89.0555 51.0625 88.9719 51.1514 88.9566C52.7774 88.6827 54.1555 88.3079 55.7594 87.704C60.2177 86.0259 66.7335 77.6558 69.7926 71.1935C69.8314 71.1123 69.9286 71.0779 70.0091 71.1163C70.0901 71.1551 70.125 71.252 70.0862 71.3332C67.0001 77.8516 60.4042 86.3033 55.8733 88.0089C54.2488 88.6207 52.8525 88.9999 51.2049 89.2778C51.1956 89.2793 51.1868 89.2802 51.1779 89.2802Z" fill="#2957A4"/>
</g>
<g id="Group_17">
<path id="Vector_89" d="M88.41 69.5588C85.8733 71.2526 80.63 73.7401 70.7875 73.1333C70.1149 73.0919 69.4934 73.4947 69.2558 74.1316L68.6696 76.5012C67.6764 80.5163 65.8094 84.2565 63.2039 87.4498L61.3771 89.6885C61.3246 89.7525 61.3742 89.8489 61.4562 89.843L68.1443 89.3467C78.4949 87.9633 86.5361 82.7186 89.1155 73.1642L89.8382 70.717C89.9977 70.1263 88.9152 69.2209 88.41 69.5583V69.5588Z" fill="white"/>
<path id="Vector_90" d="M61.4205 89.8291C61.3846 89.8291 61.3488 89.8173 61.3184 89.7932C61.2486 89.7367 61.2373 89.6344 61.2938 89.564L63.0367 87.3971C65.6377 84.2092 67.5362 80.4066 68.5274 76.3993L69.0979 74.0922C69.0993 74.0863 69.1013 74.0804 69.1033 74.0745C69.3664 73.3678 70.0483 72.9242 70.7975 72.9704C80.0533 73.5404 85.7522 70.9904 88.3252 69.4196C88.718 69.1795 89.1903 69.2022 89.5575 69.4781C89.9277 69.7564 90.0818 70.2084 89.9606 70.6584L89.2728 73.207C88.0758 77.6416 85.6776 81.2953 82.1457 84.0666C78.8279 86.6697 74.6087 88.427 69.605 89.2886C69.5171 89.3044 69.4322 89.2444 69.417 89.1558C69.4018 89.0673 69.4612 88.9827 69.5495 88.9675C79.7828 87.2048 86.6762 81.5776 88.9586 73.1219L89.6464 70.5733C89.749 70.1927 89.5668 69.8927 89.3621 69.7387C89.1593 69.5863 88.8255 69.4958 88.4946 69.6979C85.8892 71.2889 80.123 73.8734 70.7774 73.2955C70.1721 73.2581 69.6261 73.6132 69.4111 74.1798L68.8431 76.4775C67.8406 80.5315 65.92 84.3784 63.289 87.6027L61.5471 89.7686C61.5152 89.8085 61.4681 89.8291 61.4205 89.8291Z" fill="black"/>
</g>
<g id="Group_18">
<path id="Vector_91" d="M69.228 43.3823C67.0771 42.1188 66.7855 38.3166 68.3811 37.4899C69.821 36.7438 71.5973 37.5563 73.8242 38.6196C74.8831 39.1252 76.4232 39.1011 78.0551 39.4212C85.5838 40.8976 85.2318 50.0699 77.8426 56.007C72.5207 60.2833 69.3924 45.3854 69.3924 45.3854L69.228 43.3823Z" fill="black"/>
<g id="Group_19">
<path id="Vector_92" d="M70.9024 44.2779C70.7664 43.0425 69.4581 42.9776 69.2298 43.3824C68.676 44.365 68.4114 45.0486 68.323 45.4657C68.2042 46.0268 68.7197 46.588 68.4418 47.189C68.1639 47.7899 67.7275 48.4716 67.6882 49.5536C67.6494 50.611 66.588 55.4577 70.3153 55.3043C70.4616 55.2984 70.5833 55.4145 70.5819 55.562C70.573 56.2992 70.5337 58.3289 70.3717 59.4276C70.2834 60.0262 70.6525 60.5952 71.2289 60.7599C72.7209 61.1858 75.4987 61.7849 77.5773 61.1017C78.1179 60.9242 78.4011 60.3257 78.2087 59.7857C77.9627 59.0966 77.6195 57.1589 77.8444 56.0066C77.8444 56.0066 76.5999 55.8827 75.2134 55.2404C73.0827 54.2528 72.0346 51.8484 72.6232 49.556C72.7499 49.0627 73.0238 48.3624 72.7386 47.6198C72.2903 46.4537 71.7066 46.7114 71.3188 47.0916C71.1626 47.2445 70.9015 47.1329 70.9015 46.9135V44.2779H70.9024Z" fill="white"/>
<path id="Vector_93" d="M75.3837 61.5738C73.7935 61.5738 72.1881 61.2034 71.1832 60.9167C70.5283 60.7298 70.11 60.0797 70.2096 59.4039C70.3687 58.3268 70.4085 56.3572 70.4183 55.5604C70.4183 55.526 70.4011 55.5039 70.3908 55.4935C70.3721 55.4753 70.3476 55.4655 70.3211 55.4675C69.4104 55.5053 68.6951 55.254 68.1987 54.7219C67.0985 53.542 67.343 51.3009 67.4741 50.0969C67.4986 49.8707 67.5202 49.6754 67.5247 49.5481C67.559 48.6112 67.8845 47.9541 68.1457 47.4259C68.1973 47.3211 68.2478 47.2198 68.2935 47.121C68.4231 46.8397 68.3421 46.5564 68.2562 46.2564C68.1806 45.9923 68.102 45.7193 68.1629 45.4321C68.239 45.0731 68.4609 44.4121 69.0869 43.3021C69.2258 43.0547 69.6058 42.9406 70.0098 43.0232C70.5975 43.1437 70.9907 43.6065 71.0629 44.2601C71.0634 44.266 71.0639 44.2719 71.0639 44.2778V46.9134C71.0639 46.9651 71.0997 46.9862 71.1149 46.9926C71.1336 47.0005 71.1699 47.0084 71.2043 46.9754C71.5048 46.6808 71.7998 46.5633 72.0796 46.6238C72.4051 46.6951 72.6776 47.0103 72.8897 47.5612C73.1563 48.2541 72.9717 48.9107 72.8367 49.3902C72.8166 49.4625 72.7969 49.5313 72.7802 49.5967C72.2034 51.8423 73.2555 54.1534 75.2811 55.0922C76.6238 55.7148 77.8478 55.8432 77.8595 55.8442C77.9052 55.8486 77.9469 55.8722 77.9739 55.9091C78.0009 55.946 78.0117 55.9927 78.0029 56.0375C77.7835 57.1622 78.1242 59.0675 78.3608 59.7305C78.4703 60.0374 78.4516 60.3669 78.3088 60.6595C78.1688 60.9457 77.9263 61.1582 77.6268 61.2566C76.9307 61.4852 76.1589 61.5733 75.3837 61.5733V61.5738ZM70.3245 55.1414C70.4335 55.1414 70.5391 55.1842 70.6171 55.2599C70.6996 55.3406 70.7448 55.4488 70.7433 55.5644C70.7335 56.368 70.6932 58.3549 70.5312 59.4516C70.4556 59.966 70.7737 60.4613 71.2725 60.6034C72.7316 61.0195 75.4844 61.618 77.5257 60.9472C77.7412 60.8764 77.916 60.7234 78.0171 60.5164C78.1212 60.3039 78.1345 60.0639 78.0549 59.8406C77.8129 59.1619 77.4825 57.3526 77.6553 56.1467C77.2626 56.0891 76.2537 55.9022 75.1446 55.3883C72.9761 54.383 71.8494 51.9132 72.465 49.5156C72.4822 49.4482 72.5024 49.3769 72.5235 49.3022C72.6526 48.8423 72.8136 48.2703 72.5858 47.6787C72.4179 47.2425 72.2191 46.9882 72.0104 46.9425C71.8018 46.8972 71.5809 47.062 71.4316 47.2085C71.3123 47.3256 71.1424 47.358 70.9888 47.2931C70.8341 47.2282 70.7379 47.0826 70.7384 46.9134V44.2872C70.653 43.5445 70.11 43.3763 69.9445 43.3424C69.6642 43.2844 69.4281 43.3596 69.3701 43.4624C68.7324 44.5931 68.5394 45.2241 68.4805 45.4995C68.4364 45.707 68.5007 45.9303 68.5679 46.1664C68.6622 46.4944 68.7687 46.8662 68.588 47.2577C68.5409 47.359 68.4899 47.4628 68.4368 47.5705C68.1766 48.0967 67.8811 48.6933 67.8492 49.5599C67.8443 49.6986 67.8232 49.8899 67.7966 50.1323C67.671 51.2846 67.4368 53.4289 68.4354 54.4996C68.864 54.9594 69.4948 55.1753 70.3068 55.1424C70.3127 55.1424 70.3181 55.1424 70.324 55.1424L70.3245 55.1414Z" fill="black"/>
</g>
<path id="Vector_94" d="M67.6738 49.1216C67.6453 49.1216 67.6158 49.1142 67.5898 49.098C66.0095 48.1399 67.2702 45.4512 67.3247 45.3371C67.3434 45.2978 67.3772 45.2678 67.418 45.2535C67.4592 45.2392 67.5039 45.2417 67.5432 45.2609L71.0397 46.9729C71.1202 47.0122 71.1536 47.1101 71.1143 47.1907C71.075 47.2719 70.9773 47.3048 70.8968 47.2655L67.553 45.6283C67.3218 46.1855 66.6197 48.1281 67.7587 48.8186C67.8358 48.8654 67.8603 48.9652 67.8137 49.0424C67.7832 49.0931 67.7292 49.1211 67.6743 49.1211L67.6738 49.1216Z" fill="black"/>
<path id="Vector_95" d="M67.5797 50.5233C67.538 50.5233 67.4962 50.5075 67.4648 50.4756L66.9881 49.998C66.7441 49.7536 66.7122 49.3719 66.9125 49.0901L67.2404 48.6278C67.2925 48.5545 67.3941 48.5373 67.4673 48.5895C67.5404 48.6416 67.5576 48.7434 67.5056 48.8167L67.1776 49.279C67.0701 49.4305 67.0868 49.6365 67.2184 49.7678L67.6951 50.2454C67.7584 50.3088 67.7584 50.4121 67.6951 50.476C67.6632 50.508 67.6219 50.5238 67.5802 50.5238L67.5797 50.5233Z" fill="black"/>
<path id="Vector_96" d="M71.417 50.9423C71.0527 50.9423 70.794 50.7539 70.7807 50.7441C70.7085 50.6905 70.6933 50.5882 70.7468 50.5159C70.8003 50.4441 70.902 50.4288 70.9736 50.4815C70.9864 50.4908 71.2545 50.6806 71.5967 50.5931C71.9226 50.51 72.2133 50.2051 72.4602 49.6872C72.499 49.606 72.5962 49.5716 72.6772 49.6105C72.7582 49.6493 72.7926 49.7467 72.7538 49.8278C72.4612 50.4401 72.0969 50.8046 71.6703 50.9108C71.5814 50.9329 71.4965 50.9418 71.4165 50.9418L71.417 50.9423Z" fill="black"/>
</g>
</g>
<g id="Group_20">
<path id="Vector_97" d="M42.0554 2.21069H11.8633V39.1155H42.0554V2.21069Z" fill="#AAC8FB"/>
<g id="Group_21">
<path id="Vector_98" d="M28.6684 4.4165H14.0938V5.33766H28.6684V4.4165Z" fill="#2957A4"/>
<path id="Vector_99" d="M36.0329 5.97852H18.9961V6.93754H36.0329V5.97852Z" fill="white"/>
<path id="Vector_100" d="M39.8258 7.55957H22.7891V8.5186H39.8258V7.55957Z" fill="white"/>
<path id="Vector_101" d="M37.7748 9.14087H28.9688V10.0999H37.7748V9.14087Z" fill="white"/>
<path id="Vector_102" d="M28.6684 17.0649H14.0938V17.9861H28.6684V17.0649Z" fill="#2957A4"/>
<path id="Vector_103" d="M36.0329 18.6267H18.9961V19.5857H36.0329V18.6267Z" fill="white"/>
<path id="Vector_104" d="M39.8258 20.208H22.7891V21.167H39.8258V20.208Z" fill="white"/>
<path id="Vector_105" d="M39.8289 21.7891H28.9688V22.7481H39.8289V21.7891Z" fill="white"/>
<path id="Vector_106" d="M36.0329 10.7219H18.9961V11.681H36.0329V10.7219Z" fill="white"/>
<path id="Vector_107" d="M39.8258 12.3027H22.7891V13.2618H39.8258V12.3027Z" fill="white"/>
<path id="Vector_108" d="M35.7202 15.4651H28.9688V16.4241H35.7202V15.4651Z" fill="white"/>
<path id="Vector_109" d="M39.8289 13.8838H28.9688V14.8428H39.8289V13.8838Z" fill="white"/>
<path id="Vector_110" d="M28.6684 23.3889H14.0938V24.3101H28.6684V23.3889Z" fill="#2957A4"/>
<path id="Vector_111" d="M36.0329 24.9509H18.9961V25.91H36.0329V24.9509Z" fill="white"/>
<path id="Vector_112" d="M39.2779 26.5322H22.7891V27.4913H39.2779V26.5322Z" fill="white"/>
<path id="Vector_113" d="M39.8289 28.1133H28.9688V29.0723H39.8289V28.1133Z" fill="#2957A4"/>
<path id="Vector_114" d="M31.9948 36.0181H22.7891V36.9771H31.9948V36.0181Z" fill="#2957A4"/>
<path id="Vector_115" d="M36.0329 29.6941H18.9961V30.6531H36.0329V29.6941Z" fill="white"/>
<path id="Vector_116" d="M39.8258 31.2751H22.7891V32.2342H39.8258V31.2751Z" fill="white"/>
<path id="Vector_117" d="M39.8289 34.4375H28.9688V35.3965H39.8289V34.4375Z" fill="white"/>
<path id="Vector_118" d="M35.1861 32.8564H28.9688V33.8155H35.1861V32.8564Z" fill="white"/>
</g>
<path id="Vector_119" d="M42.0549 6.62118C41.9651 6.62118 41.8924 6.54839 41.8924 6.45839V2.37392H39.2914C39.2016 2.37392 39.1289 2.30113 39.1289 2.21113C39.1289 2.12113 39.2016 2.04834 39.2914 2.04834H42.0549C42.1448 2.04834 42.2174 2.12113 42.2174 2.21113V6.45839C42.2174 6.54839 42.1448 6.62118 42.0549 6.62118Z" fill="white"/>
</g>
<g id="Group_22">
<g id="Group_23">
<g id="Group_24">
<path id="Vector_120" d="M21.9161 47.45L31.8312 47.5124C31.8955 47.5124 31.9166 47.5724 31.9166 47.6295V56.0802C31.9166 56.8892 37.5502 58.9912 37.6052 58.8845L37.6121 59.7786C37.6121 59.9453 37.4663 60.0929 37.2802 60.0929H28.8409C28.455 60.0929 28.074 60.0063 27.725 59.8598L23.1543 57.9319C22.3314 57.5847 21.8125 56.8396 21.8125 56.0261V47.567C21.8125 47.5095 21.8528 47.45 21.9171 47.45H21.9161Z" fill="#2957A4"/>
<g id="Group_25">
<path id="Vector_121" d="M32.923 47.0202V55.4725C32.923 56.3056 33.4581 57.0649 34.2991 57.4244L37.3822 58.743C37.5835 58.8291 37.5148 59.0995 37.2919 59.0995H28.8201C28.4392 59.0995 28.0631 59.0243 27.7185 58.8787L24.302 57.4377C23.4546 57.0802 22.9141 56.3184 22.9141 55.4808V47.0197C22.9141 46.9853 22.9455 46.9573 22.9843 46.9573H32.8523C32.891 46.9573 32.9225 46.9853 32.9225 47.0197L32.923 47.0202Z" fill="white"/>
<path id="Vector_122" d="M37.2908 59.2623H28.8191C28.4189 59.2623 28.0164 59.1816 27.654 59.0287L24.2376 57.5877C23.3337 57.2065 22.75 56.3793 22.75 55.4803V47.0192C22.75 46.8948 22.8546 46.7935 22.9827 46.7935H32.8512C32.9793 46.7935 33.0839 46.8948 33.0839 47.0192V55.4714C33.0839 56.2342 33.5852 56.9414 34.3613 57.2734L37.4445 58.592C37.604 58.6598 37.689 58.8147 37.6561 58.9765C37.6217 59.1443 37.4715 59.2613 37.2903 59.2613L37.2908 59.2623ZM23.076 47.12V55.4808C23.076 56.248 23.5817 56.9572 24.3642 57.2877L27.7807 58.7287C28.1033 58.8649 28.4621 58.9367 28.8196 58.9367H37.2913C37.3222 58.9367 37.336 58.9244 37.3384 58.9126C37.3389 58.9097 37.3404 58.9028 37.3183 58.8929L34.2347 57.5744C33.3387 57.1913 32.7594 56.366 32.7594 55.4724V47.12H23.076Z" fill="black"/>
</g>
</g>
<g id="Group_26">
<path id="Vector_123" d="M51.454 51.8641L8.7172 51.96C8.3431 51.96 7.97048 51.6786 7.92285 51.3059L4.4504 24.518C4.36743 23.8688 4.86918 23.2231 5.51379 23.2393L47.7547 23.4631L51.454 51.8646V51.8641Z" fill="#F59630"/>
<path id="Vector_124" d="M7.1928 23.3911C6.45737 23.3911 5.79361 24.1377 5.88787 24.87L9.25919 51.2408C9.30681 51.6131 9.70497 51.9283 10.0786 51.9283L52.0588 51.86C52.507 51.86 52.807 51.4872 52.7496 51.0406L49.258 24.181C49.2103 23.8087 48.9644 23.3911 48.5903 23.3911H7.1928Z" fill="#AAC8FB"/>
<path id="Vector_125" d="M10.0778 52.0332C9.61194 52.0332 9.1534 51.6457 9.09694 51.2035L5.72513 24.8327C5.67456 24.4398 5.81203 24.0247 6.10218 23.6942C6.39478 23.3607 6.79195 23.1699 7.19158 23.1699H48.589C49.0496 23.1699 49.3598 23.6504 49.4178 24.1019L52.9094 50.9611C52.9437 51.2296 52.8686 51.4922 52.7027 51.6811C52.5421 51.864 52.3129 51.9648 52.0576 51.9648L49.5739 51.9688C49.5538 51.9776 49.5317 51.9825 49.5086 51.9825L10.0778 52.0332ZM7.19158 23.496C6.88523 23.496 6.57741 23.647 6.34667 23.9096C6.11838 24.1698 6.00939 24.4909 6.04817 24.7914L9.41949 51.1622C9.45533 51.4425 9.77543 51.7076 10.0778 51.7076L49.4428 51.6575C49.4629 51.6486 49.485 51.6437 49.5081 51.6437L52.0576 51.6398C52.2186 51.6398 52.361 51.5783 52.4587 51.4666C52.5642 51.3461 52.6099 51.1819 52.5868 51.0038L49.0952 24.1447C49.0545 23.826 48.8537 23.4965 48.589 23.4965H7.19158V23.496Z" fill="black"/>
<path id="Vector_126" d="M8.41217 24.4746C7.73564 24.4746 7.12491 25.1617 7.21131 25.8354L10.3131 50.0959C10.3573 50.4387 10.723 50.7283 11.0672 50.7283L50.7311 50.6654C51.1435 50.6654 51.4194 50.3226 51.3664 49.9115L48.1542 25.201C48.11 24.8582 47.8841 24.4741 47.54 24.4741H8.41217V24.4746Z" fill="#2957A4"/>
</g>
</g>
<g id="Group_27">
<g id="Group_28">
<path id="Vector_127" d="M13.1388 27.8746H29.0591L28.9521 27.0754H13.0312L13.1388 27.8746Z" fill="white"/>
<path id="Vector_128" d="M9.70517 29.1932H25.926L25.819 28.3936H9.59766L9.70517 29.1932Z" fill="#AAC8FB"/>
<path id="Vector_129" d="M11.8375 30.5111H20.2219L20.1148 29.7114H11.7305L11.8375 30.5111Z" fill="white"/>
<path id="Vector_130" d="M14.5567 38.421H30.4771L30.3701 37.6213H14.4492L14.5567 38.421Z" fill="white"/>
<path id="Vector_131" d="M11.1192 39.7391H27.3401L27.2325 38.9395H11.0117L11.1192 39.7391Z" fill="#AAC8FB"/>
<path id="Vector_132" d="M11.2989 41.0575H21.6392L21.5317 40.2578H11.1914L11.2989 41.0575Z" fill="#AAC8FB"/>
<path id="Vector_133" d="M18.0997 42.3204H27.7473L27.6402 41.5212H17.9922L18.0997 42.3204Z" fill="#AAC8FB"/>
<path id="Vector_134" d="M13.67 31.8297H29.5909L29.4834 31.03H13.5625L13.67 31.8297Z" fill="#AAC8FB"/>
<path id="Vector_135" d="M10.2364 33.1478H26.4572L26.3502 32.3481H10.1289L10.2364 33.1478Z" fill="#AAC8FB"/>
<path id="Vector_136" d="M14.502 35.7843H20.9305L20.823 34.9846H14.3945L14.502 35.7843Z" fill="white"/>
<path id="Vector_137" d="M12.756 37.1014H19.1844L19.0769 36.3022H12.6484L12.756 37.1014Z" fill="#AAC8FB"/>
<path id="Vector_138" d="M10.4117 34.4659H20.752L20.645 33.6667H10.3047L10.4117 34.4659Z" fill="#AAC8FB"/>
<path id="Vector_139" d="M15.2633 43.6937H31.1841L31.0766 42.8945H15.1562L15.2633 43.6937Z" fill="white"/>
<path id="Vector_140" d="M12.3497 45.0121H28.0486L27.9416 44.2124H12.2422L12.3497 45.0121Z" fill="#AAC8FB"/>
<path id="Vector_141" d="M12.0055 46.3302H22.3457L22.2387 45.5305H11.8984L12.0055 46.3302Z" fill="#AAC8FB"/>
<path id="Vector_142" d="M15.7945 47.6488H31.7154L31.6079 46.8491H15.6875L15.7945 47.6488Z" fill="white"/>
<path id="Vector_143" d="M12.357 48.9669H28.5783L28.4708 48.1672H12.25L12.357 48.9669Z" fill="#AAC8FB"/>
</g>
<g id="Group_29">
<path id="Vector_144" d="M31.6187 37.0866H33.1696L33.0665 36.3184H31.5156L31.6187 37.0866Z" fill="#AAC8FB"/>
<path id="Vector_145" d="M30.3263 27.8751H31.9425L31.8354 27.0754H30.2188L30.3263 27.8751Z" fill="#AAC8FB"/>
<path id="Vector_146" d="M30.1617 26.6632H31.7784L31.6709 25.8635H30.0547L30.1617 26.6632Z" fill="#AAC8FB"/>
<path id="Vector_147" d="M30.5133 29.193H32.1172L32.0102 28.3933H30.4062L30.5133 29.193Z" fill="#AAC8FB"/>
<path id="Vector_148" d="M30.7437 30.5111H32.2662L32.1591 29.7119H30.6367L30.7437 30.5111Z" fill="#AAC8FB"/>
<path id="Vector_149" d="M30.9161 31.8297H32.4655L32.3585 31.03H30.8086L30.9161 31.8297Z" fill="#AAC8FB"/>
<path id="Vector_150" d="M31.0992 33.1478H32.6491L32.5416 32.3486H30.9922L31.0992 33.1478Z" fill="#AAC8FB"/>
<path id="Vector_151" d="M31.4078 35.7316H32.9435L32.8365 34.9319H31.3008L31.4078 35.7316Z" fill="#AAC8FB"/>
<path id="Vector_152" d="M31.2677 34.4132H32.7356L32.6286 33.6135H31.1602L31.2677 34.4132Z" fill="#AAC8FB"/>
<path id="Vector_153" d="M32.1578 41.091H33.7087L33.6056 40.3228H32.0547L32.1578 41.091Z" fill="#AAC8FB"/>
<path id="Vector_154" d="M31.9435 39.736H33.4791L33.3721 38.9363H31.8359L31.9435 39.736Z" fill="#AAC8FB"/>
<path id="Vector_155" d="M31.8067 38.4174H33.2747L33.1671 37.6177H31.6992L31.8067 38.4174Z" fill="#AAC8FB"/>
<path id="Vector_156" d="M33.2008 48.8891H34.7521L34.649 48.1208H33.0977L33.2008 48.8891Z" fill="#AAC8FB"/>
<path id="Vector_157" d="M32.3302 42.3136H33.8526L33.7451 41.5139H32.2227L32.3302 42.3136Z" fill="#AAC8FB"/>
<path id="Vector_158" d="M32.4977 43.6317H34.0476L33.94 42.8325H32.3906L32.4977 43.6317Z" fill="#AAC8FB"/>
<path id="Vector_159" d="M32.6812 44.9501H34.2312L34.1236 44.1504H32.5742L32.6812 44.9501Z" fill="#AAC8FB"/>
<path id="Vector_160" d="M32.9903 47.5336H34.526L34.4185 46.7339H32.8828L32.9903 47.5336Z" fill="#AAC8FB"/>
<path id="Vector_161" d="M32.8531 46.215H34.3215L34.214 45.4158H32.7461L32.8531 46.215Z" fill="#AAC8FB"/>
</g>
<g id="Group_30">
<path id="Vector_162" d="M38.5445 26.4882H46.2082L46.1051 25.72H38.4414L38.5445 26.4882Z" fill="#AAC8FB"/>
<path id="Vector_163" d="M37.2013 27.8219H45.2793L45.1722 27.0222H37.0938L37.2013 27.8219Z" fill="white"/>
<path id="Vector_164" d="M35.088 29.14H44.4994L44.3919 28.3408H34.9805L35.088 29.14Z" fill="white"/>
<path id="Vector_165" d="M33.881 30.4586H41.7351L41.6276 29.6589H33.7734L33.881 30.4586Z" fill="white"/>
<path id="Vector_166" d="M41.4156 37.0341H47.6231L47.52 36.2659H41.3125L41.4156 37.0341Z" fill="#AAC8FB"/>
<path id="Vector_167" d="M41.3224 38.3678H45.8616L45.7546 37.5686H41.2148L41.3224 38.3678Z" fill="white"/>
<path id="Vector_168" d="M39.693 39.6864H44.0383L43.9313 38.8867H39.5859L39.693 39.6864Z" fill="white"/>
<path id="Vector_169" d="M36.818 41.0045H42.317L42.21 40.2048H36.7109L36.818 41.0045Z" fill="white"/>
<path id="Vector_170" d="M41.2711 31.7765H46.8212L46.7142 30.9773H41.1641L41.2711 31.7765Z" fill="#AAC8FB"/>
<path id="Vector_171" d="M34.3731 33.0951H42.949L42.8415 32.2954H34.2656L34.3731 33.0951Z" fill="white"/>
<path id="Vector_172" d="M41.5523 34.4113H47.1025L46.9954 33.6116H41.4453L41.5523 34.4113Z" fill="#AAC8FB"/>
<path id="Vector_173" d="M34.6578 35.7294H43.2336L43.1266 34.9302H34.5508L34.6578 35.7294Z" fill="white"/>
<path id="Vector_174" d="M41.4312 42.3073H48.3319L48.2288 41.5391H41.3281L41.4312 42.3073Z" fill="#AAC8FB"/>
<path id="Vector_175" d="M36.9625 43.641H48.2316L48.1241 42.8413H36.8555L36.9625 43.641Z" fill="white"/>
<path id="Vector_176" d="M37.0016 44.9591H43.4712L43.3637 44.1599H36.8945L37.0016 44.9591Z" fill="white"/>
<path id="Vector_177" d="M39.7169 47.5956H47.1689L47.0614 46.7964H39.6094L39.7169 47.5956Z" fill="#AAC8FB"/>
<path id="Vector_178" d="M35.7086 46.1732H41.9141L41.8066 45.3735H35.6016L35.7086 46.1732Z" fill="white"/>
<path id="Vector_179" d="M38.4352 48.9142H44.3064L44.1988 48.1145H38.3281L38.4352 48.9142Z" fill="white"/>
</g>
</g>
</g>
<g id="Group_31">
<path id="Vector_180" d="M7.78579 66.9262C7.73326 66.9262 7.68171 66.9006 7.65029 66.8534C5.416 63.4963 3.28873 57.4869 3.26713 57.4269C3.23718 57.3418 3.28186 57.2489 3.3663 57.2189C3.45123 57.1893 3.54402 57.2336 3.57397 57.3182C3.59508 57.3782 5.70958 63.3498 7.9208 66.6724C7.97038 66.7472 7.95025 66.8485 7.87563 66.8982C7.84765 66.9168 7.81672 66.9257 7.78579 66.9257V66.9262Z" fill="white"/>
<path id="Vector_181" d="M7.76002 64.0953C7.70111 64.0953 7.64366 64.0628 7.61519 64.0063C6.73443 62.281 5.95334 60.4185 5.45307 59.16C5.41968 59.0764 5.46043 58.9814 5.54389 58.9485C5.62735 58.9155 5.72211 58.9559 5.755 59.0395C6.25282 60.2916 7.02949 62.1438 7.90485 63.8582C7.9456 63.9384 7.91418 64.0363 7.83415 64.0776C7.81059 64.0899 7.78506 64.0953 7.76002 64.0953Z" fill="white"/>
<path id="Vector_182" d="M54.5734 4.76247C54.5346 4.76247 54.4954 4.7487 54.4644 4.72067C51.4279 1.97539 46.2455 1.43539 46.1935 1.42998C46.1041 1.42112 46.0388 1.34145 46.0477 1.25194C46.0565 1.16243 46.1365 1.09801 46.2254 1.10587C46.2784 1.11128 51.5654 1.66113 54.6824 4.4787C54.7492 4.53919 54.7546 4.64198 54.6942 4.70887C54.6623 4.74428 54.6176 4.76247 54.5734 4.76247Z" fill="white"/>
</g>
<g id="Group_32">
<g id="Group_33">
<path id="Vector_183" d="M6.6036 30.1203C9.94216 30.1203 12.6486 27.4091 12.6486 24.0647C12.6486 20.7202 9.94216 18.009 6.6036 18.009C3.26503 18.009 0.558594 20.7202 0.558594 24.0647C0.558594 27.4091 3.26503 30.1203 6.6036 30.1203Z" fill="white"/>
<path id="Vector_184" d="M6.60207 30.2835C3.18754 30.2835 0.404378 27.5058 0.394559 24.0828C0.38965 22.422 1.03082 20.8585 2.19976 19.6801C3.3687 18.5023 4.92598 17.8506 6.5839 17.8462H6.60207C10.0166 17.8462 12.7998 20.6239 12.8096 24.0469C12.8194 27.4758 10.0426 30.2737 6.61974 30.2835H6.60158H6.60207ZM6.60207 18.1723H6.58488C5.01386 18.1767 3.53808 18.7939 2.43051 19.9103C1.32294 21.0267 0.715146 22.508 0.719565 24.0823C0.723983 25.6561 1.34012 27.1345 2.45456 28.244C3.56459 29.3496 5.03693 29.958 6.60158 29.958H6.61925C9.86292 29.9486 12.4939 27.2973 12.4846 24.0479C12.4752 20.8044 9.83789 18.1723 6.60256 18.1723H6.60207Z" fill="black"/>
</g>
<g id="Group_34">
<path id="Vector_185" d="M2.7415 24.0663L4.80297 24.8434L4.80543 25.6927L1.88087 24.3973L1.87891 23.7225L4.7961 22.4133L4.79856 23.2627L2.74199 24.0658L2.7415 24.0663Z" fill="#F59630"/>
<path id="Vector_186" d="M5.9753 26.6998L5.30859 26.7018L7.2925 21.169L7.95921 21.167L5.9753 26.6998Z" fill="#F59630"/>
<path id="Vector_187" d="M10.7241 24.0258L8.56495 23.2384L8.5625 22.4028L11.5813 23.6948L11.5833 24.3696L8.57183 25.6788L8.56937 24.8432L10.7236 24.0258H10.7241Z" fill="#F59630"/>
</g>
</g>
</g>
<defs>
<clipPath id="clip0_1850_6958">
<rect width="90" height="90" fill="white"/>
</clipPath>
</defs>
</svg>
